<?xml version="1.0" encoding="UTF-8"?>
<svg width="2131px" height="1024px" viewBox="0 0 2131 1024" version="1.1" xmlns="http://www.w3.org/2000/svg" xmlns:xlink="http://www.w3.org/1999/xlink">
    <title>logo-type-inv-alt</title>
    <g id="logo-type-inv-alt" stroke="none" stroke-width="1" fill="none" fill-rule="evenodd">
        <g transform="translate(256.000000, 256.000000)">
            <g id="Group-3" transform="translate(640.000000, 128.000000)" fill="#FFFFFF" fill-rule="nonzero">
                <path d="M22.272,101 L22.272,12.68 L11.52,12.68 L11.52,101 L22.272,101 Z M53.76,101 L53.76,45.704 C55.1253333,44.168 57.2586667,43.4 60.16,43.4 L60.16,43.4 L78.08,43.4 L78.08,38.28 L72.96,34.44 L60.16,34.44 C52.0533333,34.44 46.5066667,37 43.52,42.12 L43.52,42.12 L43.52,101 L53.76,101 Z M141.056,101 L141.056,53.64 C141.056,40.84 134.656,34.44 121.856,34.44 L121.856,34.44 L99.584,34.44 L94.464,38.28 L94.464,43.4 L121.856,43.4 C127.829333,43.4 130.816,46.3866667 130.816,52.36 L130.816,52.36 L130.816,62.344 L107.392,62.344 C94.5066667,62.344 88.064,68.7866667 88.064,81.672 C88.064,94.5573333 94.5066667,101 107.392,101 L107.392,101 L141.056,101 Z M130.816,92.04 L107.264,92.04 C101.290667,92.04 98.304,89.0533333 98.304,83.08 L98.304,83.08 L98.304,80.264 C98.304,74.2906667 101.290667,71.304 107.264,71.304 L107.264,71.304 L130.816,71.304 L130.816,92.04 Z M171.264,101 L171.264,43.4 L196.864,43.4 C202.837333,43.4 205.824,46.3866667 205.824,52.36 L205.824,52.36 L205.824,101 L216.064,101 L216.064,53.64 C216.064,40.84 209.664,34.44 196.864,34.44 L196.864,34.44 L161.024,34.44 L161.024,101 L171.264,101 Z M59.776,229 C72.832,229 79.36,222.472 79.36,209.416 L79.36,209.416 L79.36,160.264 C79.36,147.208 72.832,140.68 59.776,140.68 L59.776,140.68 L29.824,140.68 C16.768,140.68 10.24,147.208 10.24,160.264 L10.24,160.264 L10.24,209.416 C10.24,222.472 16.768,229 29.824,229 L29.824,229 L59.776,229 Z M59.904,219.272 L29.696,219.272 C23.8933333,219.272 20.992,216.370667 20.992,210.568 L20.992,210.568 L20.992,159.112 C20.992,153.309333 23.8933333,150.408 29.696,150.408 L29.696,150.408 L59.904,150.408 C65.7066667,150.408 68.608,153.309333 68.608,159.112 L68.608,159.112 L68.608,210.568 C68.608,216.370667 65.7066667,219.272 59.904,219.272 L59.904,219.272 Z M110.08,254.6 L110.08,229 L135.68,229 C148.48,229 154.88,222.6 154.88,209.8 L154.88,209.8 L154.88,181.64 C154.88,168.84 148.48,162.44 135.68,162.44 L135.68,162.44 L99.84,162.44 L99.84,254.6 L110.08,254.6 Z M135.68,220.04 L110.08,220.04 L110.08,171.4 L135.68,171.4 C141.653333,171.4 144.64,174.386667 144.64,180.36 L144.64,180.36 L144.64,211.08 C144.64,217.053333 141.653333,220.04 135.68,220.04 L135.68,220.04 Z M220.672,229 L225.792,225.16 L225.792,220.04 L192.512,220.04 C186.538667,220.04 183.552,217.053333 183.552,211.08 L183.552,211.08 L183.552,200.072 L228.352,200.072 L228.352,181.64 C228.352,168.84 221.952,162.44 209.152,162.44 L209.152,162.44 L192.512,162.44 C179.712,162.44 173.312,168.84 173.312,181.64 L173.312,181.64 L173.312,209.8 C173.312,222.6 179.712,229 192.512,229 L192.512,229 L220.672,229 Z M218.112,191.112 L183.552,191.112 L183.552,180.36 C183.552,174.386667 186.538667,171.4 192.512,171.4 L192.512,171.4 L209.152,171.4 C215.125333,171.4 218.112,174.386667 218.112,180.36 L218.112,180.36 L218.112,191.112 Z M258.048,229 L258.048,171.4 L283.648,171.4 C289.621333,171.4 292.608,174.386667 292.608,180.36 L292.608,180.36 L292.608,229 L302.848,229 L302.848,181.64 C302.848,168.84 296.448,162.44 283.648,162.44 L283.648,162.44 L247.808,162.44 L247.808,229 L258.048,229 Z M390.272,229 C403.328,229 409.856,222.472 409.856,209.416 L409.856,209.416 L409.856,200.84 C409.856,190.088 405.162667,183.773333 395.776,181.896 L395.776,181.896 L368.256,176.392 C363.904,175.538667 361.728,172.68 361.728,167.816 L361.728,167.816 L361.728,159.112 C361.728,153.309333 364.629333,150.408 370.432,150.408 L370.432,150.408 L407.296,150.408 L407.296,145.16 L401.536,140.68 L370.56,140.68 C357.504,140.68 350.976,147.208 350.976,160.264 L350.976,160.264 L350.976,167.048 C350.976,177.8 355.669333,184.114667 365.056,185.992 L365.056,185.992 L392.576,191.496 C396.928,192.349333 399.104,195.208 399.104,200.072 L399.104,200.072 L399.104,210.568 C399.104,216.370667 396.202667,219.272 390.4,219.272 L390.4,219.272 L350.976,219.272 L350.976,224.52 L356.736,229 L390.272,229 Z M463.872,229 C476.672,229 483.072,222.6 483.072,209.8 L483.072,209.8 L483.072,181.64 C483.072,168.84 476.672,162.44 463.872,162.44 L463.872,162.44 L445.952,162.44 C433.152,162.44 426.752,168.84 426.752,181.64 L426.752,181.64 L426.752,209.8 C426.752,222.6 433.152,229 445.952,229 L445.952,229 L463.872,229 Z M463.872,220.04 L445.952,220.04 C439.978667,220.04 436.992,217.053333 436.992,211.08 L436.992,211.08 L436.992,180.36 C436.992,174.386667 439.978667,171.4 445.952,171.4 L445.952,171.4 L463.872,171.4 C469.845333,171.4 472.832,174.386667 472.832,180.36 L472.832,180.36 L472.832,211.08 C472.832,217.053333 469.845333,220.04 463.872,220.04 L463.872,220.04 Z M557.056,229 L557.056,162.44 L546.816,162.44 L546.816,220.04 L521.216,220.04 C515.242667,220.04 512.256,217.053333 512.256,211.08 L512.256,211.08 L512.256,162.44 L502.016,162.44 L502.016,209.8 C502.016,222.6 508.416,229 521.216,229 L521.216,229 L557.056,229 Z M587.264,229 L587.264,173.704 C588.629333,172.168 590.762667,171.4 593.664,171.4 L593.664,171.4 L611.584,171.4 L611.584,166.28 L606.464,162.44 L593.664,162.44 C585.557333,162.44 580.010667,165 577.024,170.12 L577.024,170.12 L577.024,229 L587.264,229 Z M668.416,229 L673.536,225.16 L673.536,220.04 L643.328,220.04 C637.354667,220.04 634.368,217.053333 634.368,211.08 L634.368,211.08 L634.368,180.36 C634.368,174.386667 637.354667,171.4 643.328,171.4 L643.328,171.4 L673.536,171.4 L673.536,166.28 L668.416,162.44 L643.328,162.44 C630.528,162.44 624.128,168.84 624.128,181.64 L624.128,181.64 L624.128,209.8 C624.128,222.6 630.528,229 643.328,229 L643.328,229 L668.416,229 Z M736,229 L741.12,225.16 L741.12,220.04 L707.84,220.04 C701.866667,220.04 698.88,217.053333 698.88,211.08 L698.88,211.08 L698.88,200.072 L743.68,200.072 L743.68,181.64 C743.68,168.84 737.28,162.44 724.48,162.44 L724.48,162.44 L707.84,162.44 C695.04,162.44 688.64,168.84 688.64,181.64 L688.64,181.64 L688.64,209.8 C688.64,222.6 695.04,229 707.84,229 L707.84,229 L736,229 Z M733.44,191.112 L698.88,191.112 L698.88,180.36 C698.88,174.386667 701.866667,171.4 707.84,171.4 L707.84,171.4 L724.48,171.4 C730.453333,171.4 733.44,174.386667 733.44,180.36 L733.44,180.36 L733.44,191.112 Z M22.272,357 L22.272,315.528 L67.328,315.528 L67.328,357 L78.08,357 L78.08,268.68 L67.328,268.68 L67.328,305.8 L22.272,305.8 L22.272,268.68 L11.52,268.68 L11.52,357 L22.272,357 Z M149.248,357 L149.248,309.64 C149.248,296.84 142.848,290.44 130.048,290.44 L130.048,290.44 L107.776,290.44 L102.656,294.28 L102.656,299.4 L130.048,299.4 C136.021333,299.4 139.008,302.386667 139.008,308.36 L139.008,308.36 L139.008,318.344 L115.584,318.344 C102.698667,318.344 96.256,324.786667 96.256,337.672 C96.256,350.557333 102.698667,357 115.584,357 L115.584,357 L149.248,357 Z M139.008,348.04 L115.456,348.04 C109.482667,348.04 106.496,345.053333 106.496,339.08 L106.496,339.08 L106.496,336.264 C106.496,330.290667 109.482667,327.304 115.456,327.304 L115.456,327.304 L139.008,327.304 L139.008,348.04 Z M212.48,357 L217.6,353.16 L217.6,348.04 L187.392,348.04 C181.418667,348.04 178.432,345.053333 178.432,339.08 L178.432,339.08 L178.432,308.36 C178.432,302.386667 181.418667,299.4 187.392,299.4 L187.392,299.4 L217.6,299.4 L217.6,294.28 L212.48,290.44 L187.392,290.44 C174.592,290.44 168.192,296.84 168.192,309.64 L168.192,309.64 L168.192,337.8 C168.192,350.6 174.592,357 187.392,357 L187.392,357 L212.48,357 Z M243.968,357 L243.968,337.8 L255.104,325.768 L276.608,357 L286.592,357 L287.488,355.08 L261.888,318.344 L285.696,292.36 L284.8,290.44 L274.816,290.44 L243.968,324.36 L243.968,262.28 L233.728,262.28 L233.728,357 L243.968,357 Z M350.72,357 L350.72,309.64 C350.72,296.84 344.32,290.44 331.52,290.44 L331.52,290.44 L309.248,290.44 L304.128,294.28 L304.128,299.4 L331.52,299.4 C337.493333,299.4 340.48,302.386667 340.48,308.36 L340.48,308.36 L340.48,318.344 L317.056,318.344 C304.170667,318.344 297.728,324.786667 297.728,337.672 C297.728,350.557333 304.170667,357 317.056,357 L317.056,357 L350.72,357 Z M340.48,348.04 L316.928,348.04 C310.954667,348.04 307.968,345.053333 307.968,339.08 L307.968,339.08 L307.968,336.264 C307.968,330.290667 310.954667,327.304 316.928,327.304 L316.928,327.304 L340.48,327.304 L340.48,348.04 Z M400.896,357 L406.016,353.16 L406.016,348.04 L389.376,348.04 C383.402667,348.04 380.416,345.053333 380.416,339.08 L380.416,339.08 L380.416,299.4 L404.736,299.4 L404.736,290.44 L380.416,290.44 L380.416,268.68 L370.176,268.68 L370.176,337.8 C370.176,350.6 376.576,357 389.376,357 L389.376,357 L400.896,357 Z M431.104,357 L431.104,299.4 L456.704,299.4 C462.677333,299.4 465.664,302.386667 465.664,308.36 L465.664,308.36 L465.664,357 L475.904,357 L475.904,309.64 C475.904,296.84 469.504,290.44 456.704,290.44 L456.704,290.44 L431.104,290.44 L431.104,262.28 L420.864,262.28 L420.864,357 L431.104,357 Z M531.968,357 C544.768,357 551.168,350.6 551.168,337.8 L551.168,337.8 L551.168,309.64 C551.168,296.84 544.768,290.44 531.968,290.44 L531.968,290.44 L514.048,290.44 C501.248,290.44 494.848,296.84 494.848,309.64 L494.848,309.64 L494.848,337.8 C494.848,350.6 501.248,357 514.048,357 L514.048,357 L531.968,357 Z M531.968,348.04 L514.048,348.04 C508.074667,348.04 505.088,345.053333 505.088,339.08 L505.088,339.08 L505.088,308.36 C505.088,302.386667 508.074667,299.4 514.048,299.4 L514.048,299.4 L531.968,299.4 C537.941333,299.4 540.928,302.386667 540.928,308.36 L540.928,308.36 L540.928,339.08 C540.928,345.053333 537.941333,348.04 531.968,348.04 L531.968,348.04 Z M580.864,357 L580.864,299.4 L606.464,299.4 C612.437333,299.4 615.424,302.386667 615.424,308.36 L615.424,308.36 L615.424,357 L625.664,357 L625.664,309.64 C625.664,296.84 619.264,290.44 606.464,290.44 L606.464,290.44 L570.624,290.44 L570.624,357 L580.864,357 Z" id="IranOpenSourceHackathon"></path>
            </g>
            <g id="colored">
                <path d="M256,32 C397.384896,32 512,146.615104 512,288 C512,397.730074 442.962165,491.335498 345.952887,527.750254 L295.770961,394.000843 L296,362 L308.66701,383.999386 L352,384 L351.998916,340.666712 C365.135861,325.782504 374.865417,307.81941 379.966911,287.997943 C374.948902,268.50296 365.453554,250.805479 352.642378,236.067279 L351.999061,235.332841 L352,192 L308.664657,191.999271 C293.780851,178.863243 275.818498,169.134349 255.997943,164.033089 C236.503831,169.050874 218.80706,178.545598 204.069254,191.355906 L203.334835,191.999179 L160,192 L159.999271,235.335343 C146.863243,250.219149 137.134349,268.181502 132.033089,288.002057 C137.05083,307.495996 146.545429,325.192626 159.355588,339.930589 L159.998854,340.665016 L160,384 L216,362 L216.230108,394.000632 L166.048114,527.750254 C69.0383102,491.336142 0,397.730452 0,288 C0,146.615104 114.615104,32 256,32 Z" id="volume" fill="#093A6F"></path>
                <path d="M256,-2.84217094e-14 C397.384896,-2.84217094e-14 512,114.615104 512,256 C512,365.730074 442.962165,459.335498 345.952887,495.750254 L295.770961,362.000843 C299.907758,359.194429 303.871601,356.152205 307.64318,352.893482 L308.66701,351.999386 L352,352 L351.998916,308.666712 C365.135861,293.782504 374.865417,275.81941 379.966911,255.997943 C374.948902,236.50296 365.453554,218.805479 352.642378,204.067279 L351.999061,203.332841 L352,160 L308.664657,159.999271 C293.780851,146.863243 275.818498,137.134349 255.997943,132.033089 C236.503831,137.050874 218.80706,146.545598 204.069254,159.355906 L203.334835,159.999179 L160,160 L159.999271,203.335343 C146.863243,218.219149 137.134349,236.181502 132.033089,256.002057 C137.05083,275.495996 146.545429,293.192626 159.355588,307.930589 L159.998854,308.665016 L160,352 L203.333288,351.998916 C207.069954,355.296933 211.000669,358.380198 215.106121,361.229396 L216.230108,362.000632 L166.048114,495.750254 C69.0383102,459.336142 0,365.730452 0,256 C0,114.615104 114.615104,-2.84217094e-14 256,-2.84217094e-14 Z" id="surface" fill="#3676BD"></path>
            </g>
        </g>
    </g>
</svg>