<?xml version="1.0" encoding="UTF-8"?>
<svg width="2327px" height="1702px" viewBox="0 0 2327 1702" version="1.1" xmlns="http://www.w3.org/2000/svg" xmlns:xlink="http://www.w3.org/1999/xlink">
    <title>conflict</title>
    <g id="code-of-conduct" stroke="none" stroke-width="1" fill="none" fill-rule="evenodd">
        <g id="conflict">
            <path d="M1996.33,1692.94 C1996.33,1692.94 2275.73,1464.18 2321.08,987.54 C2358.25,596.959 2204.63,304.508 1852.63,95.653 C1597.5,-55.728 945.8,-32.185 598.035,207.226 C272.845,431.095 247.171,709.729 247.171,709.729 C247.171,709.729 14.777,827.263 1.133,1145.07 C-14.156,1501.21 201.059,1691.81 201.059,1691.81 L1996.33,1692.94" id="Fill-2" fill="#FDE9E4" opacity="0.5"></path>
            <path d="M1456.9,454.759 L1227.94,454.759 C1211.85,454.759 1198.8,467.851 1198.8,484.001 L1198.8,676.945 C1198.8,693.095 1211.85,706.188 1227.94,706.188 L1456.9,706.188 C1473,706.188 1486.05,693.095 1486.05,676.945 L1486.05,484.001 C1486.05,467.851 1473,454.759 1456.9,454.759" id="Fill-3" fill="#FFFFFF"></path>
            <polyline id="Fill-4" fill="#FFFFFF" points="1469.59 543.038 1554.1 532.513 1469.59 596.668 1469.59 543.038"></polyline>
            <path d="M687.059,534.832 L899,534.832 C913.9,534.832 925.98,522.713 925.98,507.764 L925.98,329.163 C925.98,314.213 913.9,302.095 899,302.095 L687.059,302.095 C672.16,302.095 660.083,314.213 660.083,329.163 L660.083,507.764 C660.083,522.713 672.16,534.832 687.059,534.832" id="Fill-5" fill="#FFFFFF"></path>
            <path d="M767.227834,473.866 C767.186,462.458 775.119,454.246 786.313,454.202815 C797.938,454.158 805.503,462.311 805.762187,473.718 C805.806,484.913 798.087,493.34 786.463,493.385173 C775.054,493.429 767.271,485.061 767.227834,473.866 Z M772.711,444.139 C773.158,439.533 768.408,424.817 785.045,404.696 C791.902,396.488 797.475,389.578 797.446,382.257 C797.398,369.63 783.489,367.48 771.228,370.996 C764.885,372.815 758.26,369.187 756.27,362.895 C754.248,356.502 757.732,349.688 764.088,347.559 C771.03,345.232 779.517,343.577 788.901,343.541424 C817.318,343.432 830.296,359.098 830.364294,376.966 C830.427,393.326 820.349,404.128 812.203,413.203 C798.5,428.505 801.837,440.318 801.343,444.029 L772.711,444.139 L772.711,444.139 Z" id="Fill-6" fill="#F47458"></path>
            <polyline id="Fill-7" fill="#FFFFFF" points="731.457 526.898 707.44 604.221 786.97 526.898 731.457 526.898"></polyline>
            <path d="M1272.01,488.74 C1274.89,489.524 1277.37,491.728 1278.86,494.837 C1280.42,498.088 1280.68,501.872 1279.57,505.217 C1278.45,508.563 1275.96,511.529 1272.71,513.353 C1272.59,513.42 1272.48,513.485 1272.35,513.549 C1271.64,513.291 1270.92,513.103 1270.19,512.987 C1270.04,512.52 1269.9,512.049 1269.77,511.575 C1268.54,507.277 1266.34,496.549 1272.01,488.74 Z M1274.25,516.083 C1278.42,518.765 1280.84,523.624 1280.42,528.46 C1280.42,528.511 1280.42,528.56 1280.41,528.611 C1279.63,528.682 1278.85,528.775 1278.07,528.89 C1275.24,524.832 1272.86,520.42 1271.08,515.589 C1271.49,515.433 1271.9,515.257 1272.3,515.061 C1272.96,515.333 1273.62,515.674 1274.25,516.083 Z M1279.89,531.379 C1279.58,530.978 1279.28,530.572 1278.98,530.162 C1279.39,530.111 1279.8,530.064 1280.21,530.025 C1280.12,530.48 1280.02,530.932 1279.89,531.379 Z M1260.93,546.279122 C1256.79,546.294 1252.82,544.928 1249.69,542.417 C1251.84,538.627 1256.17,536.826 1260.43,535.308 C1265.76,533.409 1271.58,531.336 1277.42,530.387 C1278.05,531.267 1278.7,532.13 1279.36,532.976 C1276.54,540.331 1268.77,546.248 1260.93,546.279122 Z M1264.65,514.956 C1266.1,514.369 1267.65,514.147 1269.2,514.29 C1269.25,514.433 1269.3,514.579 1269.35,514.722 C1267.75,515.136 1266.15,515.217 1264.65,514.956 Z M1285.43,529.917 C1286.87,530.006 1288.35,530.244 1289.82,530.62 C1288.04,532.673 1286.5,535.011 1285.23,537.536 C1283.69,535.944 1282.22,534.299 1280.84,532.58 C1281.13,531.708 1281.36,530.821 1281.51,529.923 C1282.83,529.844 1284.13,529.837 1285.43,529.917 Z M1296.21,526.681 C1302,522.959 1308.5,522.131 1314.58,522.53 C1309.47,526.344 1305.22,531.281 1301.79,536.298 C1299.28,533.26 1295.87,531.134 1292.27,529.872 C1293.5,528.665 1294.81,527.582 1296.21,526.681 Z M1327.73,517.662 C1328.83,517.401 1329.92,517.228 1331,517.093 C1330.13,517.544 1329.28,518.07 1328.49,518.697 C1326.57,519.678 1324.73,520.912 1322.93,522.32 C1321.5,522.007 1319.99,521.728 1318.44,521.51 C1321.29,519.795 1324.38,518.456 1327.73,517.662 Z M1361.14,525.236 C1362.49,525.955 1363.84,526.696 1365.2,527.448 L1379.02,535.111 C1378.24,538.241 1376.54,540.963 1374.39,543.174 C1371.4,535.336 1364.57,529.394 1358.1,524.303 C1357.74,524.019 1357.37,523.73 1357,523.442 C1358.38,524.036 1359.76,524.609 1361.14,525.236 Z M1372.59,517.23 C1376.83,520.789 1380.26,526.848 1379.35,533.436 C1373.79,529.773 1367.8,526.684 1361.76,523.948 C1360.04,523.037 1358.33,522.161 1356.62,521.34 C1361.93,519.948 1367.26,518.582 1372.59,517.23 Z M1379.96,515.366 C1385.05,514.092 1390.82,512.649 1396.12,513.801 C1410.52,516.936 1414.67,536.144 1415.61,551.712 C1416.3,562.989 1416.43,574.799 1413.42,585.977 C1410.72,583.807 1407.94,581.778 1405.07,579.893 C1404.4,578.957 1403.7,578.047 1402.97,577.164 C1403.82,575.531 1404.49,573.779 1404.8,571.916 C1405.46,567.847 1404.21,563.924 1403.21,561.328 C1402.47,559.394 1401.63,557.547 1400.7,555.781 C1400.34,551.615 1399.06,548.013 1396.87,545.211 C1394.32,541.959 1390.64,539.919 1387.39,538.119 L1381.26,534.717 C1381.01,534.543 1380.75,534.379 1380.5,534.208 C1381.75,527.251 1378.53,520.814 1374.25,516.812 C1376.15,516.33 1378.06,515.84 1379.96,515.366 Z M1411.36,592.234 C1410.3,588.921 1408.86,585.859 1407.14,583.024 C1409.14,584.431 1411.09,585.912 1413,587.464 C1412.52,589.069 1411.98,590.661 1411.36,592.234 Z M1410.55,594.182 C1409.38,596.838 1408.04,599.352 1406.55,601.735 C1405.1,600.962 1403.59,600.296 1402.05,599.735 C1403.72,593.588 1403.94,587.443 1402.61,581.728 C1402.44,581.031 1402.26,580.346 1402.06,579.672 C1402.76,580.106 1403.46,580.544 1404.15,580.995 C1406.91,584.877 1409.14,589.22 1410.52,594.098 C1410.53,594.125 1410.54,594.154 1410.55,594.182 Z M1406.88,603.551 C1408.71,604.609 1410.45,605.84 1412.08,607.226 C1411.85,616.362 1409.21,626.391 1404.33,636.603 C1401.73,635.185 1399.29,633.553 1397.12,632.005 C1397.02,631.93 1396.91,631.853 1396.81,631.777 C1398.8,625.48 1399.83,618.91 1399.75,612.509 C1402.37,609.737 1404.76,606.764 1406.88,603.551 Z M1412.09,605.398 C1410.68,604.269 1409.2,603.25 1407.65,602.351 C1408.89,600.371 1410.02,598.301 1411.04,596.136 C1411.71,599.083 1412.05,602.179 1412.09,605.398 Z M1421.8,595.497 C1426.52,600.297 1432.15,606.916 1433.85,615.571 C1435.31,622.99 1433.14,632.963 1426.19,637.804 C1426.35,631.75 1425.38,625.784 1423.21,620.417 C1421,614.938 1417.58,610.196 1413.37,606.481 C1413.43,602.157 1412.95,598.029 1411.92,594.167 C1411.96,594.068 1412.01,593.968 1412.05,593.868 C1412.82,592.045 1413.48,590.198 1414.05,588.334 C1416.73,590.579 1419.32,592.967 1421.8,595.497 Z M1413.32,608.34 C1417.02,611.815 1420.02,616.138 1422.02,621.083 C1424.2,626.487 1425.14,632.521 1424.88,638.625 C1418.65,642.122 1411.64,640.352 1405.45,637.189 C1410.22,627.207 1412.9,617.379 1413.32,608.34 Z M1417.41,662.55 C1416.34,664.217 1415.01,666.028 1413.24,666.817 C1411.13,667.756 1408.79,667.095 1406.57,666.339 C1401.05,664.459 1395.61,662.342 1390.26,659.997 C1393.13,657.345 1395.47,654.104 1397.58,650.932 C1400.35,646.788 1402.76,642.619 1404.82,638.473 C1411.12,641.693 1418.26,643.512 1424.8,640.174 C1424.22,647.982 1421.71,655.83 1417.41,662.55 Z M1388.98,659.426 C1385.27,657.765 1381.62,655.981 1378.02,654.106 C1378.9,652.971 1379.74,651.793 1380.54,650.586 C1381.92,651.374 1383.3,652.167 1384.69,652.93 L1385.13,653.168 L1385.48,652.739 C1390.21,647.054 1393.9,640.322 1396.34,633.194 C1396.34,633.196 1396.34,633.197 1396.35,633.199 C1398.55,634.779 1401.04,636.441 1403.71,637.888 C1401.68,641.976 1399.3,646.091 1396.57,650.185 C1394.38,653.458 1391.96,656.804 1388.98,659.426 Z M1387.52,660.607 C1382.25,664.554 1375.71,665.672 1371.25,666.171 C1368.56,666.471 1365.88,666.61 1363.22,666.607048 C1368.64,663.806 1373.26,659.88 1377.1,655.239 C1380.6,657.066 1384.14,658.81 1387.74,660.439 C1387.67,660.496 1387.6,660.551 1387.52,660.607 Z M1342.98,671.226 L1342.43,671.334 C1323.47,675.032 1305.32,677.674 1291.52,671.348 C1287.95,669.715 1284.68,667.483 1281.75,664.518 C1269.82,652.412 1269.34,632.307 1272.87,617.528 C1273.98,612.888 1275.49,608.375 1277.26,603.944 C1277.57,605.959 1277.97,607.951 1278.48,609.903 C1280.48,617.412 1283.86,623.736 1288.28,628.193 C1293.34,633.303 1300.16,636.389 1308.1,637.389 C1310.46,641.666 1313.33,645.631 1316.67,649.148 C1326.86,659.88 1341.38,666.406 1357.15,667.739 C1352.51,669.358 1347.69,670.308 1342.98,671.226 Z M1281.23,574.249 C1283,574.011 1284.71,573.61 1286.38,573.089 C1285.64,575.404 1285.11,577.787 1284.99,580.208 C1284.92,581.724 1285,583.255 1285.24,584.796 C1282.61,589.447 1280.18,594.144 1278.03,598.926 C1277.48,590.751 1278.61,582.287 1281.23,574.249 Z M1283.86,567.412 C1284.44,568.911 1285.13,570.378 1285.9,571.807 C1284.54,572.219 1283.15,572.566 1281.72,572.785 C1282.36,570.966 1283.07,569.172 1283.86,567.412 Z M1267.53,571.863 C1266.15,571.487 1264.78,570.978 1264.12,569.833 C1263.46,568.684 1263.63,567.02 1263.81,565.868 C1265.47,555.495 1273.67,547.538 1282.82,543.562 C1281.66,547.427 1281.09,551.507 1281.28,555.54 C1281.44,559.01 1282.13,562.441 1283.25,565.75 C1282.15,568.101 1281.17,570.509 1280.33,572.964 C1276.21,573.405 1271.86,573.048 1267.53,571.863 Z M1285.53,539.833 C1285.83,540.135 1286.12,540.452 1286.42,540.75 C1285.93,540.897 1285.43,541.069 1284.94,541.239 C1285.13,540.765 1285.32,540.297 1285.53,539.833 Z M1299.74,539.462 C1297.81,539.309 1295.85,539.281 1293.87,539.403 C1291.95,539.521 1289.98,539.829 1288.02,540.316 C1287.38,539.715 1286.76,539.105 1286.14,538.487 C1287.5,535.722 1289.19,533.193 1291.16,531.022 C1294.9,532.215 1298.46,534.347 1300.98,537.511 C1300.55,538.162 1300.14,538.813 1299.74,539.462 Z M1289.24,541.453 C1290.79,541.114 1292.32,540.895 1293.82,540.803 C1295.54,540.697 1297.24,540.707 1298.92,540.817 C1297.69,542.887 1296.61,544.916 1295.66,546.826 C1293.45,545.116 1291.3,543.329 1289.24,541.453 Z M1295.02,548.132 C1294.98,548.215 1294.94,548.299 1294.9,548.381 C1290.58,552.992 1286.96,558.31 1284.1,564.023 C1283.23,561.19 1282.71,558.274 1282.57,555.332 C1282.37,551.151 1283.01,546.914 1284.32,542.951 C1285.41,542.535 1286.5,542.161 1287.59,541.86 C1289.96,544.066 1292.45,546.15 1295.02,548.132 Z M1287.56,569.822 C1287.39,570.249 1287.22,570.675 1287.06,571.107 C1286.11,569.367 1285.31,567.565 1284.65,565.722 C1286.95,560.932 1289.78,556.407 1293.12,552.337 C1292.73,553.269 1292.38,554.13 1292.07,554.91 C1290.08,560.002 1288.59,564.995 1287.56,569.822 Z M1296.87,549.518 L1290.62,562.938 C1291.38,560.439 1292.25,557.907 1293.25,555.349 C1293.92,553.639 1294.81,551.517 1295.92,549.155 C1295.99,549.09 1296.05,549.026 1296.11,548.961 C1296.36,549.15 1296.62,549.331 1296.87,549.518 Z M1301.35,541.063 C1300.68,541.979 1300.09,542.948 1299.56,543.928 C1298.94,544.47 1298.31,545.011 1297.7,545.582 C1298.49,544.074 1299.36,542.513 1300.31,540.932 C1300.66,540.966 1301.01,541.021 1301.35,541.063 Z M1302.45,539.712 C1302.44,539.726 1302.43,539.741 1302.41,539.755 C1301.99,539.697 1301.56,539.642 1301.13,539.595 C1301.34,539.262 1301.56,538.93 1301.77,538.596 C1302.01,538.956 1302.24,539.33 1302.45,539.712 Z M1310.71,534.707 C1310.42,535.05 1310.14,535.393 1309.85,535.736 C1307.81,536.036 1305.85,536.774 1304.06,538.179 C1303.85,538.344 1303.66,538.53 1303.46,538.708 C1303.19,538.241 1302.9,537.788 1302.6,537.353 C1306.26,531.926 1310.9,526.58 1316.57,522.705 C1318.27,522.891 1319.93,523.158 1321.52,523.478 C1317.71,526.716 1314.14,530.696 1310.71,534.707 Z M1324.58,522.697 C1324.83,522.512 1325.09,522.337 1325.34,522.16 C1325.2,522.366 1325.06,522.563 1324.93,522.78 C1324.82,522.752 1324.7,522.725 1324.58,522.697 Z M1324.26,524.081 C1323.35,526.056 1322.95,528.123 1322.91,530.167 C1319.08,531.712 1315.35,533.422 1311.78,535.411 C1315.38,531.212 1319.12,527.06 1323.13,523.82 C1323.51,523.906 1323.89,523.991 1324.26,524.081 Z M1399.48,573.303 C1399.17,572.675 1398.83,572.06 1398.49,571.456 C1399.92,567.057 1400.7,562.869 1400.79,559.059 C1401.23,560.007 1401.64,560.978 1402.02,561.971 C1402.96,564.415 1404.13,568.092 1403.53,571.803 C1403.28,573.309 1402.76,574.751 1402.09,576.118 C1401.25,575.144 1400.38,574.214 1399.48,573.303 Z M1401.25,577.294 C1401.29,577.346 1401.34,577.393 1401.38,577.445 C1401.37,577.47 1401.35,577.496 1401.34,577.521 C1401.31,577.444 1401.28,577.371 1401.25,577.294 Z M1397.66,598.455 C1396.68,595.097 1395.37,591.871 1393.76,588.842 C1395.68,586.993 1397.55,584.899 1399.37,582.577 C1399.88,581.917 1400.4,581.214 1400.9,580.494 C1401.07,581.054 1401.22,581.618 1401.36,582.194 C1402.63,587.629 1402.42,593.477 1400.85,599.337 C1399.8,598.999 1398.74,598.691 1397.66,598.455 Z M1399.04,604.656 C1398.79,603.09 1398.49,601.537 1398.09,600.014 C1398.89,600.21 1399.68,600.445 1400.46,600.7 C1400.06,602.021 1399.59,603.341 1399.04,604.656 Z M1399.7,610.686 C1399.64,609.535 1399.55,608.389 1399.43,607.253 C1399.42,607.168 1399.4,607.084 1399.39,607 C1400.29,605.049 1401.05,603.083 1401.66,601.112 C1403.07,601.63 1404.44,602.235 1405.77,602.938 C1403.95,605.69 1401.91,608.264 1399.7,610.686 Z M1390.34,626.906 C1390.66,625.44 1390.95,623.975 1391.19,622.516 C1392.55,620.965 1393.7,619.286 1394.56,617.496 C1395.91,616.316 1397.21,615.098 1398.46,613.836 C1398.41,619.553 1397.47,625.387 1395.73,631.005 C1393.91,629.695 1392.09,628.349 1390.34,626.906 Z M1389.98,628.439 C1391.71,629.837 1393.49,631.152 1395.27,632.43 C1392.96,639.338 1389.44,645.876 1384.92,651.425 C1383.71,650.76 1382.52,650.069 1381.32,649.386 C1385.35,642.984 1388.21,635.737 1389.98,628.439 Z M1362.38,637.497 C1364.08,636.679 1365.77,635.838 1367.45,634.987 C1369.53,634.441 1371.6,633.707 1373.64,632.792 C1378.49,631.546 1383.34,629.257 1387.3,626.155 C1387.83,626.634 1388.36,627.092 1388.9,627.548 C1387.17,634.944 1384.3,642.298 1380.22,648.759 C1374.12,645.238 1368.16,641.488 1362.38,637.497 Z M1365.09,646.792 C1361.77,644.75 1358.66,642.689 1355.75,640.603 C1357.47,639.814 1359.18,639.017 1360.89,638.204 C1366.91,642.38 1373.1,646.296 1379.44,649.964 C1378.63,651.188 1377.75,652.365 1376.84,653.511 C1372.85,651.401 1368.93,649.161 1365.09,646.792 Z M1302.5,617.378 C1305.02,619.01 1307.67,620.434 1310.29,621.758 C1318.28,625.805 1325.95,628.89 1333.33,631.03 C1334.16,631.431 1335,631.813 1335.85,632.177 C1326.19,635.685 1316.98,636.972 1308.94,636.068 C1305.83,630.291 1303.66,623.949 1302.5,617.378 Z M1298.97,547.975 C1299.46,546.938 1299.97,545.855 1300.53,544.792 C1301.54,543.924 1302.56,543.081 1303.62,542.283 C1303.72,542.58 1303.82,542.881 1303.91,543.189 C1302.33,545.362 1300.9,547.563 1299.69,549.82 C1299.3,549.538 1298.91,549.246 1298.52,548.96 L1298.97,547.975 Z M1297.48,548.204 C1297.36,548.113 1297.23,548.026 1297.11,547.934 C1297.41,547.637 1297.71,547.347 1298.02,547.057 C1297.96,547.184 1297.89,547.317 1297.84,547.442 L1297.48,548.204 Z M1304.42,540.077 C1304.33,540.061 1304.24,540.045 1304.16,540.03 C1304.13,539.979 1304.1,539.932 1304.08,539.881 C1304.29,539.678 1304.51,539.472 1304.75,539.289 C1305.86,538.417 1307.06,537.833 1308.31,537.469 C1306.99,538.297 1305.69,539.161 1304.42,540.077 Z M1319.97,538.344 C1321.92,538.909 1323.86,539.51 1325.78,540.146 C1326.25,540.885 1326.78,541.575 1327.33,542.203 C1326.48,542.307 1325.64,542.441 1324.81,542.606 C1324.22,542.55 1323.63,542.518 1323.04,542.512 C1320.74,542.49 1318.51,542.886 1316.38,543.612 C1313.46,542.459 1310.46,541.45 1307.39,540.707 C1307.99,539.949 1308.61,539.193 1309.23,538.438 C1310.06,537.926 1310.92,537.463 1311.77,536.982 C1314.5,536.937 1317.33,537.578 1319.97,538.344 Z M1324.75,538.309 C1323.31,537.849 1321.86,537.408 1320.41,536.988 C1318.39,536.4 1316.25,535.882 1314.11,535.671 C1316.97,534.17 1319.91,532.812 1322.93,531.583 C1323.1,533.958 1323.75,536.265 1324.75,538.309 Z M1373.23,559.855 C1370.59,557.064 1367.73,554.572 1364.65,552.434 C1363.94,551.936 1363.21,551.457 1362.47,550.998 C1362.89,550.914 1363.32,550.813 1363.74,550.708 C1367.25,552.531 1370.71,554.454 1374.12,556.46 C1373.88,557.618 1373.6,558.757 1373.23,559.855 Z M1375.58,555.669 C1375.87,553.945 1375.99,552.168 1375.9,550.354 C1375.89,550.079 1375.87,549.808 1375.85,549.538 C1379.18,552.16 1382.39,554.937 1385.48,557.861 C1388.96,561.159 1392.83,565.181 1395.98,569.993 C1391.67,566.156 1387.08,562.895 1382.79,560.125 C1380.42,558.592 1378.01,557.114 1375.58,555.669 Z M1382.06,561.349 C1386.84,564.444 1392.05,568.122 1396.76,572.583 C1396.51,573.292 1396.26,573.959 1396.02,574.581 C1393.14,573.078 1390.18,571.707 1387.16,570.472 C1385.7,569.876 1383.06,568.918 1379.91,568.314 C1378.17,565.676 1376.26,563.196 1374.2,560.904 C1374.63,559.695 1375,558.445 1375.29,557.16 C1377.57,558.521 1379.83,559.909 1382.06,561.349 Z M1397.15,575.182 C1397.37,574.64 1397.58,574.101 1397.77,573.564 C1398,573.784 1398.21,574.015 1398.43,574.238 C1398.8,574.98 1399.16,575.732 1399.49,576.507 C1398.71,576.063 1397.94,575.605 1397.15,575.182 Z M1393.11,587.655 C1392.75,587.012 1392.38,586.378 1391.98,585.753 C1393.31,583.422 1394.54,581.043 1395.66,578.623 C1395.99,577.916 1396.31,577.21 1396.6,576.509 C1397.85,577.181 1399.08,577.883 1400.3,578.604 C1400.34,578.727 1400.38,578.853 1400.42,578.976 C1399.77,579.944 1399.09,580.868 1398.42,581.733 C1397.22,583.272 1395.4,585.433 1393.11,587.655 Z M1391.96,597.71 C1391.7,597.698 1391.42,597.691 1391.14,597.687 C1390.84,595.797 1390.48,593.926 1390.04,592.085 C1390.95,591.379 1391.84,590.624 1392.73,589.813 C1394.12,592.459 1395.28,595.258 1396.18,598.165 C1394.79,597.926 1393.38,597.772 1391.96,597.71 Z M1396.28,610.272 C1396.29,610.096 1396.3,609.922 1396.29,609.744 C1396.22,605.616 1394.66,602.154 1392.26,599.134 C1393.74,599.221 1395.2,599.408 1396.63,599.691 C1397.28,602.036 1397.74,604.451 1398.05,606.901 C1397.51,608.032 1396.92,609.156 1396.28,610.272 Z M1398.3,609.217 C1398.37,610.146 1398.43,611.078 1398.45,612.016 C1397.53,612.974 1396.58,613.907 1395.6,614.818 C1395.76,614.285 1395.88,613.74 1395.99,613.191 C1396.26,612.766 1396.54,612.341 1396.8,611.908 C1397.33,611.018 1397.82,610.119 1398.3,609.217 Z M1391.55,620.017 C1391.58,619.99 1391.62,619.964 1391.65,619.937 C1391.62,619.985 1391.58,620.031 1391.54,620.079 C1391.54,620.059 1391.55,620.038 1391.55,620.017 Z M1385.92,624.824 C1386.07,624.972 1386.21,625.122 1386.36,625.267 C1384.8,626.461 1383.09,627.522 1381.3,628.446 C1382.89,627.34 1384.43,626.126 1385.92,624.824 Z M1391.55,600.511 C1393.61,603.237 1394.94,606.313 1395.01,609.91 C1395.02,610.867 1394.93,611.8 1394.77,612.718 C1393.87,614.099 1392.93,615.451 1391.91,616.739 C1392.14,614.116 1392.23,611.547 1392.18,609.068 C1392.13,606.183 1391.9,603.328 1391.55,600.511 Z M1385.82,622.688 C1385.09,621.909 1384.41,621.094 1383.76,620.24 C1380.92,616.511 1379.5,611.179 1380.23,606.972 C1380.66,604.439 1381.81,602.449 1383.64,601.058 C1385.26,599.822 1387.33,599.192 1390.05,599.103 C1390.54,602.424 1390.83,605.809 1390.9,609.234 C1390.95,612.212 1390.81,615.322 1390.46,618.498 C1389.73,619.335 1388.98,620.136 1388.21,620.922 C1387.41,621.514 1386.63,622.116 1385.82,622.688 Z M1362.34,636.024 C1361.93,636.222 1361.53,636.428 1361.12,636.624 C1360.93,636.495 1360.75,636.362 1360.56,636.232 C1361.16,636.173 1361.75,636.107 1362.34,636.024 Z M1347.28,633.992 C1350.2,634.375 1353.07,634.594 1355.91,634.654 C1356.1,634.793 1356.29,634.928 1356.48,635.067 C1353.47,635.094 1350.52,634.813 1347.63,634.284 C1347.52,634.187 1347.39,634.09 1347.28,633.992 Z M1344.69,633.613 C1344.71,633.631 1344.73,633.648 1344.75,633.666 C1344.56,633.62 1344.37,633.57 1344.18,633.521 C1344.35,633.55 1344.52,633.586 1344.69,633.613 Z M1313.45,614.449 C1318.94,616.35 1324.75,617.376 1330.56,617.736 C1333.5,622.045 1336.96,626.169 1340.99,630.147 C1340.3,630.446 1339.6,630.737 1338.91,631.019 C1337.21,630.623 1335.49,630.157 1333.76,629.656 C1325.89,625.822 1318.95,620.335 1313.45,614.449 Z M1301.59,608.49 C1304.41,610.446 1307.43,612.063 1310.59,613.366 C1315,618.47 1320.5,623.392 1326.78,627.375 C1321.64,625.515 1316.36,623.228 1310.92,620.477 C1307.97,618.983 1304.99,617.364 1302.2,615.461 C1301.86,613.157 1301.67,610.828 1301.59,608.49 Z M1289.86,596.345 C1292.76,600.882 1296.31,604.549 1300.27,607.517 C1300.31,609.832 1300.46,612.141 1300.74,614.428 C1298.18,612.532 1295.82,610.358 1293.87,607.774 C1290.75,603.65 1288.71,598.488 1287.77,592.586 C1288.38,593.837 1289.05,595.09 1289.86,596.345 Z M1288.64,581.436 C1290.21,586.716 1293.91,591.751 1299.65,596.406 C1299.99,597.179 1300.35,597.936 1300.72,598.682 C1300.44,601.027 1300.29,603.382 1300.27,605.733 C1296.73,602.952 1293.56,599.574 1290.94,595.472 C1289.25,592.839 1288.02,590.221 1287.24,587.636 C1287.18,586.437 1287.16,585.208 1287.17,583.962 C1287.66,583.12 1288.14,582.277 1288.64,581.436 Z M1287.8,575.653 C1287.81,577.016 1287.92,578.368 1288.2,579.704 C1287.88,580.238 1287.57,580.775 1287.26,581.31 C1287.36,579.465 1287.54,577.579 1287.8,575.653 Z M1302.88,553.734 C1302.95,553.781 1303.02,553.831 1303.09,553.877 C1300.59,557.217 1298.6,561.036 1297.27,564.981 C1297.21,565.041 1297.16,565.105 1297.1,565.164 C1297.05,564.262 1297.06,563.347 1297.12,562.417 C1297.22,560.796 1297.5,559.213 1297.9,557.66 C1299.6,556.098 1301.32,554.788 1302.88,553.734 Z M1304.89,541.86 C1304.86,541.771 1304.83,541.684 1304.8,541.597 C1304.88,541.613 1304.97,541.63 1305.05,541.647 C1305,541.718 1304.94,541.788 1304.89,541.86 Z M1304.24,551.302 C1303.84,551.543 1303.42,551.807 1302.99,552.089 C1302.23,551.581 1301.48,551.075 1300.73,550.553 C1301.76,548.616 1302.96,546.713 1304.28,544.833 C1304.65,546.902 1304.6,549.095 1304.24,551.302 Z M1306.38,550.063 C1306.12,550.201 1305.88,550.353 1305.63,550.495 C1305.94,548.052 1305.87,545.637 1305.33,543.384 C1305.69,542.903 1306.05,542.422 1306.42,541.943 C1309.15,542.571 1311.82,543.416 1314.43,544.392 C1311.5,545.715 1308.78,547.664 1306.38,550.063 Z M1316.8,545.312 C1316.23,545.59 1315.67,545.877 1315.12,546.189 C1313.95,546.592 1312.8,547.032 1311.65,547.513 C1313.14,546.521 1314.71,545.729 1316.33,545.126 C1316.49,545.188 1316.64,545.249 1316.8,545.312 Z M1318.58,544.51 C1318.54,544.494 1318.5,544.479 1318.47,544.462 C1318.66,544.415 1318.85,544.348 1319.04,544.307 C1318.89,544.369 1318.74,544.445 1318.58,544.51 Z M1331.41,545.629 C1334.32,547.494 1337.62,548.661 1341.02,549.498 C1342.66,550.217 1344.29,550.963 1345.91,551.733 C1342.54,551.566 1339.05,551.93 1335.6,552.842 L1331.63,550.802 C1330.47,550.207 1329.3,549.604 1328.11,549.001 C1328.21,548.843 1328.31,548.687 1328.41,548.529 C1329.17,547.358 1329.94,546.317 1330.72,545.401 C1330.95,545.478 1331.18,545.55 1331.41,545.629 Z M1360.62,549.905 C1355.33,546.925 1349.55,544.916 1343.58,543.875 C1340.89,542.999 1338.17,542.421 1335.47,542.141 C1335.23,542.045 1334.98,541.958 1334.74,541.863 C1335.84,541.206 1336.96,540.777 1338.08,540.623 C1340.44,540.296 1342.67,541.099 1345.13,542.101 C1350.77,544.396 1356.32,546.944 1361.76,549.704 C1361.38,549.771 1361,549.854 1360.62,549.905 Z M1366.59,559.049 C1363.88,556.405 1360.99,553.844 1357.89,551.54 C1358.68,551.503 1359.47,551.44 1360.26,551.345 C1361.5,552.055 1362.71,552.818 1363.88,553.636 C1367.05,555.839 1370,558.427 1372.69,561.336 C1372.35,562.205 1371.97,563.05 1371.58,563.868 C1370.14,562.219 1368.48,560.614 1366.59,559.049 Z M1360.78,574.207 C1360.15,575.084 1359.63,576.021 1359.23,577 C1359.03,576.905 1358.82,576.81 1358.62,576.717 C1359.42,572.974 1359.05,569.279 1357.41,566.461 C1356.45,564.822 1355.11,563.537 1353.66,562.477 C1354.88,560.88 1355.81,559.083 1356.34,557.135 C1357.36,557.705 1358.39,558.272 1359.39,558.861 C1363.13,561.046 1366.9,563.442 1370.25,566.358 C1369.82,567.098 1369.38,567.805 1368.94,568.482 C1365.89,569.347 1363.01,571.084 1360.78,574.207 Z M1371.91,567.903 C1371.5,567.95 1371.09,568.009 1370.68,568.082 C1370.86,567.795 1371.04,567.51 1371.21,567.214 C1371.45,567.436 1371.67,567.676 1371.91,567.903 Z M1374.51,567.765 C1374.49,567.723 1374.47,567.68 1374.44,567.638 L1374.6,567.468 C1374.22,567.043 1373.83,566.617 1373.44,566.188 C1373.13,565.761 1372.8,565.337 1372.46,564.917 C1372.87,564.096 1373.27,563.247 1373.63,562.372 C1375.19,564.14 1376.64,566.03 1378.01,568.006 C1376.88,567.857 1375.71,567.77 1374.51,567.765 Z M1381.86,574.245 C1380.1,572.833 1378.26,571.554 1376.32,570.458 L1376.25,570.604 C1376.13,570.458 1376.02,570.305 1375.91,570.161 C1375.74,569.828 1375.52,569.505 1375.33,569.176 C1376.63,569.232 1377.9,569.389 1379.11,569.604 C1380.08,571.1 1380.99,572.653 1381.86,574.245 Z M1391.21,584.558 C1389.29,581.668 1387.08,579.02 1384.64,576.675 C1383.53,574.356 1382.29,572.13 1380.97,569.989 C1383.4,570.562 1385.42,571.304 1386.6,571.79 C1389.64,573.03 1392.6,574.405 1395.48,575.914 C1395.12,576.781 1394.79,577.516 1394.52,578.09 C1393.5,580.282 1392.4,582.439 1391.21,584.558 Z M1389.49,589.92 C1390.07,588.99 1390.65,588.053 1391.2,587.107 C1391.51,587.608 1391.8,588.113 1392.09,588.626 C1391.33,589.322 1390.52,590.007 1389.68,590.682 C1389.62,590.428 1389.55,590.173 1389.49,589.92 Z M1388.3,591.765 C1388.37,591.659 1388.44,591.551 1388.51,591.444 C1388.52,591.489 1388.53,591.533 1388.54,591.577 C1388.46,591.638 1388.39,591.704 1388.3,591.765 Z M1387.18,594.139 C1387.75,593.77 1388.32,593.338 1388.88,592.926 C1389.13,594.023 1389.36,595.13 1389.57,596.246 C1388.81,595.523 1388.02,594.816 1387.18,594.139 Z M1347.71,628.428 C1349.75,630.042 1351.81,631.625 1353.9,633.177 C1351.08,633.037 1348.22,632.738 1345.32,632.278 C1344.67,631.697 1344.04,631.113 1343.42,630.527 C1344.86,629.863 1346.29,629.162 1347.71,628.428 Z M1328.3,611.526 C1328.31,611.53 1328.32,611.533 1328.33,611.537 C1330.08,613.212 1331.85,614.853 1333.64,616.476 C1332.86,616.458 1332.08,616.42 1331.3,616.378 C1330.23,614.788 1329.23,613.172 1328.3,611.526 Z M1308.54,610.895 C1306.1,609.72 1303.76,608.326 1301.55,606.72 C1301.54,604.733 1301.62,602.745 1301.8,600.758 C1303.88,604.582 1306.24,607.992 1308.54,610.895 Z M1302.06,598.315 C1302.06,598.296 1302.07,598.276 1302.07,598.257 C1304.03,599.676 1306.18,601.058 1308.53,602.395 C1314.26,605.65 1320.21,608.718 1326.39,610.881 C1327.37,612.708 1328.43,614.499 1329.57,616.258 C1323.35,615.773 1317.15,614.494 1311.4,612.159 C1311.06,611.773 1310.74,611.389 1310.42,611.002 C1307.57,607.532 1304.55,603.244 1302.06,598.315 Z M1303.7,589.949 C1303.77,589.702 1303.86,589.464 1303.93,589.219 C1305.73,590.112 1307.58,590.887 1309.49,591.52 C1314.49,597.384 1319.69,603.018 1325.1,608.384 C1325.21,608.596 1325.32,608.803 1325.43,609.014 C1319.84,606.918 1314.43,604.107 1309.21,601.139 C1306.92,599.834 1304.56,598.325 1302.29,596.636 C1302.64,594.389 1303.1,592.155 1303.7,589.949 Z M1297.46,585.25 C1299.15,586.522 1300.93,587.642 1302.78,588.629 C1302.68,588.978 1302.57,589.323 1302.47,589.674 C1301.92,591.684 1301.48,593.715 1301.14,595.757 C1300.99,595.643 1300.84,595.536 1300.69,595.42 C1299.31,592.246 1298.18,588.843 1297.46,585.25 Z M1290.39,578.495 C1291.89,580.308 1293.56,582.012 1295.39,583.58 C1295.56,583.727 1295.73,583.872 1295.9,584.017 C1296.44,587.345 1297.33,590.521 1298.46,593.517 C1294.26,589.7 1290.84,585.132 1289.58,579.846 C1289.85,579.396 1290.12,578.945 1290.39,578.495 Z M1305.72,553.894 C1305.52,553.766 1305.32,553.644 1305.13,553.515 C1305.84,552.646 1306.59,551.805 1307.37,551.026 C1308.28,550.538 1309.21,550.077 1310.14,549.644 C1308.58,550.934 1307.12,552.367 1305.72,553.894 Z M1320.28,562.582 C1320.49,562.401 1320.7,562.222 1320.91,562.046 C1320.83,562.299 1320.76,562.555 1320.69,562.809 C1320.56,562.734 1320.42,562.658 1320.28,562.582 Z M1304.92,586.005 C1305.71,587.012 1306.51,588.004 1307.32,588.981 C1307.41,589.087 1307.5,589.19 1307.59,589.296 C1306.49,588.856 1305.41,588.375 1304.35,587.841 C1304.54,587.23 1304.71,586.608 1304.92,586.005 Z M1296.82,572.89 C1296.86,572.513 1296.91,572.134 1296.96,571.756 C1298.39,576.46 1300.99,580.772 1304.01,584.811 C1303.72,585.609 1303.45,586.415 1303.19,587.229 C1301.06,586.067 1299.01,584.719 1297.1,583.162 C1296.6,579.874 1296.47,576.44 1296.82,572.89 Z M1295.56,570.128 C1295.74,569.852 1295.91,569.576 1296.08,569.302 C1295.84,570.497 1295.65,571.692 1295.54,572.876 C1295.23,575.977 1295.28,578.989 1295.61,581.892 C1293.99,580.443 1292.51,578.88 1291.16,577.228 C1292.6,574.861 1294.08,572.497 1295.56,570.128 Z M1304.66,554.917 C1304.69,554.937 1304.72,554.956 1304.76,554.976 C1304.69,555.052 1304.63,555.133 1304.56,555.209 C1304.59,555.112 1304.63,555.015 1304.66,554.917 Z M1302.73,559.501 C1303.74,558.163 1304.77,556.874 1305.83,555.66 C1309.87,558.234 1313.97,560.645 1318,562.931 C1312.34,568.321 1307.7,575.356 1304.59,583.262 C1301.3,578.77 1298.6,573.946 1297.55,568.644 C1297.78,567.68 1298.04,566.717 1298.36,565.761 C1298.42,565.671 1298.47,565.586 1298.53,565.497 C1300.19,563.685 1301.6,561.651 1302.73,559.501 Z M1318.72,573.553 C1315.88,574.959 1313.09,577.129 1311.47,580.469 C1310.02,583.434 1309.83,586.874 1310.93,590.157 C1310.97,590.286 1311.04,590.406 1311.09,590.533 C1310.8,590.448 1310.53,590.35 1310.24,590.258 C1309.6,589.501 1308.95,588.75 1308.32,587.986 C1307.35,586.829 1306.4,585.651 1305.48,584.45 C1308.57,576.283 1313.33,569.034 1319.16,563.592 C1319.55,563.808 1319.93,564.022 1320.31,564.233 C1319.55,567.269 1319.02,570.388 1318.72,573.553 Z M1323.42,558.495 C1324.5,555.612 1325.81,552.844 1327.36,550.225 C1328.59,550.845 1329.8,551.467 1330.99,552.08 L1333.61,553.426 C1330.08,554.571 1326.63,556.268 1323.42,558.495 Z M1348.16,560.913 C1349.32,561.508 1350.54,562.134 1351.7,562.865 C1348.53,566.311 1343.86,568.514 1339.59,568.761 C1333.4,569.12 1327.79,566.682 1321.83,563.434 C1322.08,562.497 1322.36,561.568 1322.66,560.649 C1323.03,560.37 1323.4,560.096 1323.78,559.831 C1327.4,557.281 1331.34,555.431 1335.34,554.318 L1348.16,560.913 Z M1325.55,571.345 C1324.04,571.623 1322.08,572.107 1320.06,572.945 C1320.34,570.204 1320.81,567.5 1321.46,564.86 C1327.46,568.116 1333.16,570.529 1339.53,570.16 C1344.2,569.89 1349.31,567.425 1352.76,563.572 C1354.15,564.569 1355.4,565.762 1356.3,567.292 C1357.85,569.952 1358.05,573.129 1357.43,576.181 C1347.18,571.633 1336.68,569.297 1325.55,571.345 Z M1354.69,582.897 C1344.52,589.908 1332.47,593.163 1321.06,592.347 C1319.84,586.402 1319.46,580.354 1319.93,574.457 C1322.01,573.531 1324.09,573.013 1325.64,572.727 C1336.57,570.714 1346.94,573.059 1357.09,577.595 C1356.54,579.518 1355.69,581.331 1354.69,582.897 Z M1377.45,580.973 C1377.54,582.994 1377.33,585.026 1376.89,587.042 C1372.01,583.906 1367.13,580.97 1362.2,578.465 C1363.41,577.31 1364.58,576.093 1365.7,574.813 C1366.87,573.476 1368.27,571.738 1369.64,569.694 C1370.81,569.402 1372,569.243 1373.19,569.183 C1373.75,569.782 1374.3,570.397 1374.82,571.04 C1376.42,574.196 1377.29,577.501 1377.45,580.973 Z M1381.33,595.729 C1381.69,594.593 1381.96,593.423 1382.15,592.229 C1383.04,592.833 1383.93,593.433 1384.78,594.068 C1383.67,594.7 1382.51,595.254 1381.33,595.729 Z M1355.38,615.451 C1368.05,612.316 1376.42,606.615 1380.25,598.506 C1380.42,598.139 1380.58,597.762 1380.73,597.385 C1381.71,597.035 1382.7,596.618 1383.69,596.132 C1374.2,608.816 1361.82,619.483 1347.95,626.807 C1344.33,623.928 1340.78,620.942 1337.3,617.867 C1343.64,617.713 1349.81,616.828 1355.38,615.451 Z M1349.4,613.49 C1356.75,612.335 1364.21,608.264 1369.86,602.321 C1370.97,601.145 1371.99,599.924 1372.91,598.669 C1374.94,598.742 1377.03,598.48 1379.15,597.885 C1379.14,597.911 1379.13,597.938 1379.11,597.965 C1375.49,605.635 1367.45,611.059 1355.21,614.084 C1349.24,615.562 1342.57,616.46 1335.77,616.488 C1334.26,615.132 1332.75,613.768 1331.27,612.375 C1337.12,613.894 1343.16,614.468 1349.4,613.49 Z M1378.05,587.791 C1378.6,585.466 1378.84,583.111 1378.74,580.77 C1378.66,579.091 1378.43,577.451 1378.04,575.849 C1380.35,580.213 1381.41,585.129 1381.13,589.808 C1380.1,589.128 1379.08,588.457 1378.05,587.791 Z M1380.98,591.417 C1380.77,593.096 1380.38,594.727 1379.81,596.28 C1377.9,596.899 1375.91,597.273 1373.87,597.288 C1375.56,594.708 1376.84,592 1377.66,589.239 C1378.77,589.958 1379.88,590.683 1380.98,591.417 Z M1361.07,579.497 C1366.25,582.1 1371.39,585.197 1376.54,588.511 C1375.7,591.515 1374.28,594.455 1372.34,597.239 C1367.14,596.822 1362.31,592.758 1360.32,587.116 C1359.58,584.999 1359.33,582.855 1359.55,580.818 C1360.06,580.388 1360.57,579.948 1361.07,579.497 Z M1319.38,598.997 C1320.1,599.24 1320.82,599.434 1321.57,599.58 C1322.13,601.316 1322.75,603.036 1323.46,604.731 C1321.23,602.465 1319.04,600.157 1316.89,597.806 C1317.68,598.3 1318.52,598.7 1319.38,598.997 Z M1321.38,593.77 C1331.78,594.395 1342.68,591.75 1352.24,586.038 C1348.56,590.015 1343.84,592.588 1339.96,594.426 C1332.91,597.762 1327.3,599.03 1322.58,598.313 C1322.12,596.811 1321.73,595.293 1321.38,593.77 Z M1320,593.669 C1320.32,595.126 1320.68,596.578 1321.1,598.016 C1320.68,597.912 1320.28,597.792 1319.88,597.656 C1317.4,596.811 1315.22,595.005 1313.69,592.688 C1315.76,593.158 1317.87,593.48 1320,593.669 Z M1312.15,589.568 C1311.17,586.653 1311.33,583.62 1312.59,581.027 C1313.93,578.271 1316.2,576.388 1318.6,575.104 C1318.21,580.762 1318.58,586.546 1319.69,592.24 C1317.33,592.002 1315,591.582 1312.72,590.987 C1312.5,590.527 1312.31,590.054 1312.15,589.568 Z M1326.16,607.451 C1326.09,607.303 1326.02,607.155 1325.95,607.007 C1324.83,604.655 1323.87,602.248 1323.05,599.803 C1327.85,600.317 1333.46,598.976 1340.37,595.703 C1345.1,593.465 1351.05,590.18 1355.08,584.597 C1355.25,584.364 1355.39,584.12 1355.55,583.882 C1356.45,583.26 1357.33,582.616 1358.19,581.937 C1358.13,583.836 1358.43,585.793 1359.11,587.725 C1361.16,593.539 1366.04,597.791 1371.39,598.547 C1370.65,599.506 1369.87,600.451 1369.01,601.361 C1363.58,607.078 1356.41,610.993 1349.34,612.102 C1342.36,613.198 1335.61,612.289 1329.09,610.269 C1328.11,609.331 1327.13,608.404 1326.16,607.451 Z M1388.08,589.778 C1387.37,590.901 1386.63,592.014 1385.87,593.11 C1384.73,592.249 1383.55,591.424 1382.35,590.62 C1382.88,584.763 1381.44,578.508 1378.12,573.252 C1380.05,574.542 1381.88,576.007 1383.58,577.627 C1385.41,581.471 1386.92,585.543 1388.08,589.778 Z M1389.03,588.25 C1388.25,585.582 1387.34,582.984 1386.31,580.465 C1387.8,582.163 1389.2,583.975 1390.45,585.905 C1389.99,586.696 1389.5,587.47 1389.03,588.25 Z M1360.37,577.543 C1360.73,576.648 1361.19,575.795 1361.76,574.999 C1363.4,572.711 1365.44,571.245 1367.65,570.349 C1366.64,571.724 1365.67,572.924 1364.81,573.899 C1363.59,575.294 1362.31,576.606 1360.97,577.849 C1360.77,577.749 1360.57,577.642 1360.37,577.543 Z M1358.26,578.129 C1358.42,578.205 1358.59,578.282 1358.75,578.357 C1358.58,578.936 1358.46,579.527 1358.37,580.126 C1357.95,580.468 1357.53,580.808 1357.11,581.136 C1357.57,580.147 1357.96,579.142 1358.26,578.129 Z M1355.18,556.479 C1354.72,558.413 1353.84,560.201 1352.63,561.769 C1351.34,560.94 1350.01,560.256 1348.8,559.635 L1337.46,553.8 C1341.63,552.915 1345.81,552.848 1349.71,553.603 C1351.55,554.532 1353.38,555.488 1355.18,556.479 Z M1348.36,549.477 C1347.63,549.363 1346.9,549.24 1346.17,549.112 C1344.62,548.836 1343.06,548.528 1341.51,548.152 C1339.29,547.176 1337.04,546.245 1334.79,545.364 C1334,545.055 1333.19,544.748 1332.38,544.456 C1334.14,544.411 1335.91,544.451 1337.66,544.575 C1341.29,546.083 1344.85,547.719 1348.36,549.477 Z M1353.2,550.053 C1352.96,550.034 1352.72,550.014 1352.47,549.992 C1349.22,548.267 1345.91,546.646 1342.57,545.139 C1342.76,545.17 1342.95,545.203 1343.15,545.236 C1344.55,545.695 1345.94,546.237 1347.32,546.863 C1349.35,547.763 1351.31,548.864 1353.2,550.053 Z M1355.95,551.891 C1355.76,551.783 1355.56,551.675 1355.37,551.568 C1355.41,551.57 1355.45,551.57 1355.49,551.571 C1355.64,551.677 1355.8,551.783 1355.95,551.891 Z M1355.98,550.174 C1354.52,549.168 1353.02,548.226 1351.46,547.361 C1353.71,548.133 1355.91,549.062 1358.03,550.136 C1357.34,550.169 1356.66,550.18 1355.98,550.174 Z M1356.76,554.944 L1356.81,554.47 L1356.42,554.286 C1354.45,553.345 1352.34,552.69 1350.16,552.26 C1349.13,551.744 1348.12,551.205 1347.09,550.708 C1348.71,550.978 1350.35,551.212 1352.02,551.369 C1353.33,552.068 1354.63,552.784 1355.92,553.518 C1359.68,555.652 1362.94,557.859 1365.7,560.148 C1366.84,561.262 1367.95,562.391 1369.03,563.521 C1366.18,561.302 1363.12,559.388 1360.09,557.612 C1358.96,556.951 1357.8,556.333 1356.65,555.695 C1356.69,555.446 1356.73,555.198 1356.76,554.944 Z M1321.61,559.818 C1320.75,560.481 1319.92,561.18 1319.1,561.913 C1315.03,559.611 1310.89,557.184 1306.82,554.591 C1309.05,552.185 1311.45,550.054 1314.13,548.317 C1314.59,548.024 1315.05,547.743 1315.52,547.475 C1316.75,547.052 1318,546.688 1319.25,546.353 C1321.63,547.398 1323.96,548.52 1326.24,549.658 C1324.35,552.851 1322.81,556.259 1321.61,559.818 Z M1300.89,559.831 C1301.39,558.888 1301.94,557.974 1302.52,557.078 C1302.28,557.634 1302.01,558.185 1301.73,558.728 C1301.45,559.098 1301.17,559.453 1300.89,559.831 Z M1289.55,577.447 C1289.45,577.625 1289.34,577.803 1289.23,577.981 C1289.18,577.613 1289.14,577.243 1289.11,576.869 C1289.26,577.063 1289.41,577.255 1289.55,577.447 Z M1289.08,574.436 C1289.13,573.669 1289.21,572.888 1289.35,572.095 C1289.35,572.059 1289.36,572.025 1289.37,571.99 C1290.99,571.286 1292.54,570.446 1293.99,569.458 C1294.33,569.223 1294.65,568.953 1294.98,568.703 C1294.83,568.944 1294.68,569.174 1294.52,569.417 C1293.11,571.67 1291.71,573.919 1290.33,576.17 C1289.9,575.602 1289.48,575.023 1289.08,574.436 Z M1342.74,631.83 C1342.22,631.732 1341.7,631.628 1341.18,631.521 C1341.46,631.399 1341.74,631.278 1342.03,631.153 C1342.26,631.378 1342.5,631.604 1342.74,631.83 Z M1342.38,629.533 C1338.51,625.772 1335.18,621.884 1332.31,617.832 C1333.28,617.87 1334.25,617.887 1335.21,617.888 C1338.92,621.206 1342.7,624.427 1346.57,627.522 C1345.19,628.226 1343.79,628.896 1342.38,629.533 Z M1358.35,634.665 C1360.33,634.642 1362.28,634.512 1364.22,634.33 C1362.4,634.664 1360.59,634.874 1358.8,634.981 C1358.65,634.875 1358.5,634.771 1358.35,634.665 Z M1378.96,606.845 C1378.17,611.425 1379.69,617.19 1382.73,621.193 C1383.34,621.995 1383.98,622.761 1384.65,623.495 C1380.03,626.646 1375.12,629.501 1370.05,632.165 C1365.6,632.969 1361.06,633.334 1356.41,633.259 C1353.94,631.451 1351.5,629.599 1349.08,627.703 C1363.55,619.92 1376.4,608.544 1386.05,595.048 C1387.13,595.912 1388.17,596.81 1389.12,597.75 C1387.12,597.923 1384.9,598.471 1382.97,599.934 C1380.85,601.551 1379.46,603.94 1378.96,606.845 Z M1328.08,540.923 C1329.04,541.256 1330,541.598 1330.95,541.948 C1330.34,541.959 1329.73,541.987 1329.12,542.03 C1329.04,541.958 1328.97,541.884 1328.89,541.811 C1328.61,541.531 1328.34,541.234 1328.08,540.923 Z M1328.37,544.696 C1328.73,544.788 1329.08,544.894 1329.43,544.997 C1328.74,545.848 1328.05,546.765 1327.38,547.8 C1327.25,548.009 1327.11,548.22 1326.98,548.431 C1325.19,547.534 1323.36,546.65 1321.5,545.799 C1323.78,545.292 1326.07,544.917 1328.37,544.696 Z M1300.08,551.837 C1300.62,552.216 1301.17,552.578 1301.72,552.949 C1300.73,553.642 1299.68,554.427 1298.62,555.312 C1299.04,554.139 1299.52,552.98 1300.08,551.837 Z M1296.24,559.291 C1296.04,560.33 1295.9,561.383 1295.83,562.455 C1295.75,563.778 1295.76,565.069 1295.88,566.334 C1295.09,567.041 1294.26,567.695 1293.38,568.289 C1292.23,569.075 1291,569.737 1289.73,570.334 C1290.89,565.938 1293.41,562.249 1296.24,559.291 Z M1359.64,637.326 C1357.93,638.131 1356.22,638.921 1354.51,639.704 C1352.87,638.502 1351.31,637.287 1349.8,636.065 C1352.59,636.43 1355.45,636.55 1358.35,636.401 C1358.78,636.708 1359.2,637.021 1359.64,637.326 Z M1389.61,624.15 C1389.5,624.754 1389.36,625.358 1389.24,625.963 C1388.96,625.725 1388.68,625.493 1388.41,625.249 C1388.83,624.893 1389.22,624.524 1389.61,624.15 Z M1387.48,624.376 C1387.31,624.215 1387.14,624.051 1386.98,623.887 C1387.58,623.333 1388.16,622.758 1388.74,622.174 C1389.2,621.833 1389.66,621.484 1390.11,621.136 C1390.07,621.416 1390.02,621.698 1389.97,621.979 C1389.2,622.818 1388.37,623.622 1387.48,624.376 Z M1324.24,529.627 C1324.31,527.84 1324.71,526.059 1325.5,524.392 C1326.03,524.529 1326.55,524.668 1327.05,524.807 C1329.02,525.349 1330.97,525.935 1332.91,526.565 C1329.97,527.511 1327.07,528.521 1324.24,529.627 Z M1335.06,527.315 C1347.87,531.716 1360.05,537.999 1371.09,545.958 C1369.22,547.259 1367.22,548.24 1365.31,548.856 C1364.87,549 1364.42,549.103 1363.97,549.221 C1358,546.134 1351.89,543.311 1345.69,540.783 C1343.17,539.757 1340.69,538.867 1338.04,539.232 C1336.41,539.457 1334.81,540.165 1333.24,541.293 C1331.06,540.466 1328.87,539.669 1326.66,538.933 C1325.28,536.646 1324.39,533.891 1324.24,531.083 C1327.76,529.699 1331.38,528.46 1335.06,527.315 Z M1297.9,550.274 C1298.28,550.549 1298.65,550.831 1299.03,551.101 C1298.1,553.006 1297.33,554.954 1296.78,556.956 C1295.33,558.328 1293.9,559.874 1292.63,561.607 L1297.9,550.274 Z M1285.61,586.701 C1285.71,587.115 1285.85,587.532 1285.97,587.947 C1286.45,596.166 1288.73,603.301 1292.84,608.725 C1295.14,611.767 1297.96,614.248 1301.01,616.375 C1302.06,623.202 1304.18,629.811 1307.28,635.849 C1300.06,634.745 1293.85,631.817 1289.2,627.124 C1284.94,622.818 1281.66,616.688 1279.73,609.397 C1279.04,606.821 1278.56,604.177 1278.26,601.495 C1280.41,596.48 1282.9,591.567 1285.61,586.701 Z M1360.25,666.538 C1343.64,665.822 1328.22,659.278 1317.61,648.096 C1314.59,644.924 1311.98,641.379 1309.78,637.568 C1318.05,638.293 1327.45,636.828 1337.26,633.105 C1337.41,633.049 1337.56,632.989 1337.71,632.932 C1340.7,634.088 1343.8,634.996 1346.98,635.603 C1349.25,637.517 1351.67,639.402 1354.23,641.265 L1354.24,641.292 C1354.25,641.289 1354.25,641.287 1354.26,641.284 C1357.4,643.561 1360.76,645.806 1364.37,648.028 C1368.15,650.359 1372.01,652.564 1375.93,654.645 C1372.16,659.129 1367.65,662.915 1362.34,665.575 C1361.65,665.92 1360.95,666.235 1360.25,666.538 Z M1388.36,540.298 C1391.13,541.872 1393.84,543.616 1395.85,546.18 C1397.39,548.135 1398.36,550.35 1398.92,552.687 C1395.99,547.986 1392.4,543.903 1388.36,540.298 Z M1399.46,556.386 C1399.78,561.066 1398.82,565.921 1397.6,569.973 C1394.3,564.681 1390.12,560.309 1386.38,556.766 C1382.93,553.504 1379.33,550.423 1375.59,547.535 C1375.41,546.513 1375.17,545.521 1374.87,544.557 C1377.4,542.044 1379.26,539.002 1380.16,535.74 L1380.51,535.937 C1388.21,541.305 1394.93,547.893 1399.46,556.386 Z M1373.41,545.883 C1373.53,545.776 1373.66,545.667 1373.79,545.557 C1373.86,545.81 1373.93,546.064 1373.99,546.321 C1373.8,546.175 1373.6,546.029 1373.41,545.883 Z M1374.4,548.418 C1374.51,549.118 1374.58,549.833 1374.61,550.563 C1374.69,552.058 1374.59,553.524 1374.39,554.958 C1371.54,553.287 1368.65,551.683 1365.72,550.139 C1368.09,549.356 1370.29,548.215 1372.24,546.792 C1372.97,547.327 1373.69,547.868 1374.4,548.418 Z M1357.28,525.466 C1364,530.754 1370.62,536.522 1373.35,544.174 C1373,544.484 1372.65,544.782 1372.29,545.066 C1361.56,537.279 1349.76,531.064 1337.35,526.606 C1340.88,525.552 1344.45,524.564 1348.06,523.602 C1349.73,523.157 1351.41,522.713 1353.08,522.27 C1354.54,523.32 1355.94,524.411 1357.28,525.466 Z M1336.31,517.69 C1341.68,517.152 1346.93,519.228 1351.22,520.988 C1351.35,521.075 1351.49,521.159 1351.62,521.247 C1350.37,521.579 1349.12,521.909 1347.87,522.241 C1343.59,523.383 1339.35,524.565 1335.19,525.85 C1332.64,524.982 1330.08,524.162 1327.48,523.446 C1327.07,523.332 1326.64,523.217 1326.21,523.104 C1327,521.84 1327.97,520.792 1329.04,519.918 C1331.37,518.741 1333.78,517.943 1336.31,517.69 Z M1268.53,512.106 C1268.6,512.355 1268.68,512.604 1268.75,512.851 C1266.57,512.784 1264.42,513.362 1262.49,514.587 L1261.24,515.378 L1262.51,515.849 C1264.74,516.676 1267.27,516.717 1269.8,516.011 C1271.53,520.767 1273.83,525.124 1276.55,529.137 C1270.88,530.153 1265.29,532.146 1260.14,533.979 C1255.61,535.59 1250.6,537.7 1248.29,542.365 L1248.04,542.883 L1248.43,543.215 C1251.82,546.114 1256.22,547.699 1260.81,547.68 C1268.94,547.648 1277,541.667 1280.26,534.09 C1281.62,535.752 1283.08,537.331 1284.58,538.874 C1284.15,539.833 1283.75,540.813 1283.39,541.813 C1273.37,545.767 1264.38,554.273 1262.54,565.761 C1262.33,567.133 1262.14,569.134 1263.01,570.657 C1263.88,572.166 1265.49,572.784 1267.1,573.224 C1271.4,574.402 1275.73,574.785 1279.86,574.405 C1277.06,583.224 1276,592.527 1276.94,601.416 C1274.75,606.577 1272.93,611.849 1271.63,617.302 C1268,632.458 1268.52,653.102 1280.83,665.584 C1295.47,680.438 1318.37,677.429 1342.53,672.712 L1343.09,672.604 C1348.84,671.483 1354.77,670.328 1360.38,667.944 C1363.97,668.083 1367.6,667.972 1371.26,667.564 C1375.87,667.05 1382.63,665.886 1388.18,661.736 C1388.48,661.509 1388.78,661.275 1389.07,661.034 C1394.64,663.5 1400.32,665.719 1406.08,667.68 C1408.51,668.511 1411.11,669.229 1413.62,668.107 C1415.75,667.162 1417.25,665.132 1418.44,663.272 C1423.03,656.118 1425.63,647.728 1426.13,639.417 C1426.29,639.315 1426.45,639.211 1426.61,639.103 C1434.26,633.931 1436.68,623.14 1435.11,615.152 C1433.34,606.157 1427.57,599.353 1422.73,594.431 C1420.09,591.746 1417.34,589.218 1414.49,586.851 C1417.72,575.285 1417.6,563.101 1416.9,551.486 C1416.01,536.909 1412.34,519.21 1400.29,513.687 C1399.1,513.144 1397.84,512.719 1396.49,512.425 C1390.92,511.217 1385.01,512.695 1379.79,514 C1377.53,514.566 1375.25,515.149 1372.98,515.726 C1372.82,515.603 1372.67,515.472 1372.51,515.355 C1370.98,514.22 1369.33,513.285 1367.61,512.498 C1362.95,510.361 1357.79,509.326 1353.09,508.383 L1352.74,509.763 C1358.86,510.989 1365.75,512.393 1371.18,516.182 C1365.67,517.582 1360.17,518.998 1354.69,520.438 C1353.02,519.682 1351.35,518.986 1349.67,518.368 C1347.36,517.061 1344.9,515.998 1342.24,515.477 C1340.3,515.098 1338.11,515.074 1335.91,515.461 C1333.16,515.379 1330.38,515.626 1327.57,516.293 C1323.48,517.265 1319.76,519.014 1316.39,521.259 C1309.65,520.585 1302.24,521.251 1295.64,525.492 C1293.93,526.591 1292.33,527.928 1290.87,529.451 C1289.12,528.951 1287.35,528.625 1285.63,528.518 C1284.33,528.437 1283.02,528.441 1281.7,528.516 C1281.7,528.496 1281.71,528.476 1281.71,528.457 C1282.17,523.121 1279.53,517.783 1274.99,514.859 C1274.61,514.62 1274.24,514.402 1273.86,514.206 C1277.11,512.178 1279.61,509.069 1280.77,505.576 C1282.01,501.858 1281.73,497.675 1280.02,494.098 C1278.3,490.522 1275.38,488.031 1272,487.268 L1271.61,487.18 L1271.33,487.538 C1264.88,495.948 1267.22,507.521 1268.53,512.106 L1268.53,512.106 Z" id="Fill-8" fill="#13375B"></path>
            <path d="M2175.61,1701.36 L44.39,1701.36 C38.613,1701.36 33.929,1696.68 33.929,1690.9 C33.929,1685.13 38.613,1680.44 44.39,1680.44 L2175.61,1680.44 C2181.39,1680.44 2186.07,1685.13 2186.07,1690.9 C2186.07,1696.68 2181.39,1701.36 2175.61,1701.36" id="Fill-9" fill="#1D6E87"></path>
            <polygon id="Fill-10" fill="#13375B" points="609.191 1648.31 630.392 1648.31 630.392 1338.25 609.191 1338.25"></polygon>
            <path d="M512.642,1662.13 L723.309,1662.13 C733.011,1662.13 740.877,1670 740.877,1679.7 C740.877,1681.4 739.502,1682.78 737.805,1682.78 L498.146,1682.78 C496.449,1682.78 495.074,1681.4 495.074,1679.7 C495.074,1670 502.939,1662.13 512.642,1662.13" id="Fill-11" fill="#13375B"></path>
            <path d="M606.888,1646.23 L632.694,1646.23 C640.329,1646.23 646.519,1652.42 646.519,1660.06 C646.519,1667.69 640.329,1673.88 632.694,1673.88 L606.889,1673.88 C599.253,1673.88 593.064,1667.69 593.064,1660.06 C593.064,1652.42 599.253,1646.23 606.888,1646.23" id="Fill-12" fill="#13375B"></path>
            <path d="M727.076,1551.66 C727.076,1551.66 685.423,1600.94 685.123,1605.64 C684.823,1610.33 686.927,1661.56 692.326,1666.25 C697.725,1670.94 712.929,1668.6 707.83,1673.88 C703.977,1677.87 674.328,1677.02 654.679,1675.95 C648.943,1675.63 646.453,1635.25 644.182,1628.58 C640.882,1618.9 628.811,1597.8 631.81,1591.05 C633.272,1587.77 640.264,1581.01 650.117,1574.7 C660.481,1568.07 690.766,1525.5 690.766,1525.5 L727.076,1551.66" id="Fill-13" fill="#F48C7F"></path>
            <path d="M650.759,1574.38 C650.759,1574.38 681.243,1659.44 693.175,1663.55 C696.342,1664.63 711.546,1667.4 714.414,1674.06 C715.278,1676.07 714.414,1682.78 714.414,1682.78 L650.875,1682.78 C650.875,1682.78 642.839,1645.3 639.663,1628.83 C639.663,1628.83 622.844,1588.6 624.712,1584.95 C626.581,1581.29 650.759,1574.38 650.759,1574.38" id="Fill-14" fill="#8ACBE2"></path>
            <path d="M868.65,1252.77 C868.65,1252.77 822.743,1304.69 811.036,1312.92 C799.327,1321.14 686.964,1526.18 686.964,1526.18 L726.994,1555.14 C726.994,1555.14 827.416,1431.06 874.58,1364.69 C914.45,1308.57 899.76,1312.13 923.21,1277.97 C936.13,1259.16 933.2,1233.73 916.17,1218.48 C914.06,1216.58 911.76,1214.6 909.25,1212.53 C874.54,1183.86 636.613,1151.6 636.613,1151.6 L484.43,1166.37 C484.43,1166.37 608.769,1252.77 613.41,1255.07 C618.05,1257.37 785.116,1281.51 788.596,1281.51 C792.077,1281.51 868.65,1252.77 868.65,1252.77" id="Fill-15" fill="#8ACBE2"></path>
            <path d="M852.828,957.2 C854.396,952.66 832.313,949.07 831.122,944.48 C829.932,939.9 858.969,939.44 859.995,935.4 C861.885,927.97 828.162,933.95 828.814,930.47 C829.466,927 863.939,919.11 860.189,913.17 C856.439,907.22 825.296,925.07 824.337,921.03 C823.378,916.98 854.792,907.03 854.198,898.16 C853.88,893.43 802.666,921.98 796.706,919.43 C790.745,916.87 803.02,894.55 798.27,891.26 C793.521,887.97 780.091,936.6 776.827,938.24 C773.573,939.86 704.379,979.67 679.734,986.05 C676.71,977.8 655.033,934.07 652.363,926.27 C638.557,936.17 622.512,938.37 608.259,947.4 C618.697,973.3 654.475,1037.03 661.697,1040.26 C683.684,1050.1 768.34,979.39 785.245,967.28 C802.166,955.16 811.885,959.03 823.342,955.18 C834.798,951.33 851.259,961.75 852.828,957.2" id="Fill-16" fill="#F48C7F"></path>
            <path d="M770.308,934.79 L687.019,977.73 L670.569,951.3 C670.569,951.3 647.261,894.71 618.728,866.22 C601.336,848.86 603.664,902.28 594.463,904.7 C570.169,911.09 546.384,895.29 560.534,919.56 C574.684,943.83 621.484,977.73 621.484,977.73 L630.638,972.8 L630.682,972.96 L647.654,1008.16 L717.308,1019.6 L793.03,967 L770.308,934.79" id="Fill-17" fill="#8ACBE2"></path>
            <path d="M612.522,654.278 C591.015,645.063 566.943,635.72 544.894,643.548 C531.006,648.48 520.318,659.523 510.168,670.208 C499.041,681.922 487.218,695.251 486.943,711.406 C486.831,717.975 488.697,724.405 490.748,730.646 C494.744,742.799 499.618,754.88 507.495,764.961 C520.262,781.301 539.877,790.992 559.85,796.568 C577.523,801.504 581.91,799.763 600.243,798.971 C612.619,798.437 632.236,778.767 640.271,769.338 C653.039,754.355 651.928,689.424 638.457,673.053 C634.896,668.727 629.787,664.506 624.125,660.612 C620.457,658.089 616.651,655.806 612.743,653.736 C612.665,653.931 612.59,654.116 612.522,654.278" id="Fill-18" fill="#13375B"></path>
            <path d="M565.863,836.701 C565.863,836.701 502.146,832.061 479.628,850.7 C457.11,869.35 484.453,1035.1 484.43,1062.58 C484.407,1090.06 468.968,1167.69 468.968,1167.69 C468.968,1167.69 618.528,1193.64 642.286,1152.39 C642.286,1152.39 649.044,995.23 648.038,975.47 C647.032,955.7 624.857,874.88 618.728,866.22 C612.598,857.57 565.863,836.701 565.863,836.701" id="Fill-19" fill="#94DCF0"></path>
            <path d="M551.182,769.48 C551.182,769.48 550.922,770.943 550.457,773.43 C548.218,785.366 539.599,824.958 533.777,835.844 C526.741,849 557.866,890.95 587.823,885.83 C596.74,884.31 580.285,847.28 581.075,843.36 C582.589,835.855 584.642,825.612 586.743,815.112 C587.928,809.188 589.128,803.182 590.255,797.537 C593.459,781.495 596.072,768.374 596.072,768.374 L551.182,769.48" id="Fill-20" fill="#F7A491"></path>
            <path d="M550.457,773.43 C550.922,770.943 551.182,769.48 551.182,769.48 L596.072,768.374 C596.072,768.374 593.459,781.495 590.255,797.537 C589.134,803.151 587.941,809.121 586.762,815.013 C579.832,814.004 572.59,810.672 565.329,804.386 C557.413,797.533 552.226,789.298 549.094,780.505 C549.648,777.699 550.109,775.281 550.457,773.43" id="Fill-21" fill="#F47458"></path>
            <path d="M573.755,666.52 C573.755,666.52 552.462,666.84 541.488,685.368 C530.515,703.895 523.076,757.758 559.414,781.813 C595.751,805.868 623.887,769.668 624.277,735.1 C624.667,700.531 621.196,659.129 573.755,666.52" id="Fill-22" fill="#F7A491"></path>
            <path d="M575.382,660.654 C575.382,660.654 553.757,713.76 534,718.644 C514.241,723.528 515.013,750.158 515.013,750.158 C515.013,750.158 514.337,688.651 532.677,674.397 C551.017,660.144 575.382,660.654 575.382,660.654" id="Fill-23" fill="#13375B"></path>
            <path d="M1002.74,1575.69 C1002.74,1575.69 1039.82,1627.42 1036.55,1643.78 C1034.81,1652.54 1029.85,1662.41 1034.31,1670.66 C1038.77,1678.9 1045.68,1677.73 1045.68,1677.73 L1147.42,1679.57 C1153.72,1679.67 1158.84,1680.49 1153.76,1676.8 C1145.44,1670.75 1138.74,1666.76 1112.18,1654.05 C1110.45,1653.23 1104.14,1649.26 1101.87,1647.89 C1096.1,1644.4 1090.31,1638.92 1085.32,1633.43 C1077.02,1624.29 1040.51,1549.79 1040.51,1549.79 L1002.74,1575.69" id="Fill-24" fill="#F7A491"></path>
            <path d="M1101.85,1647.88 C1071.27,1655.64 1048.66,1650.36 1036.01,1645.32 C1032.75,1654.46 1028.43,1665.93 1030.72,1672.54 C1033.53,1680.64 1037.52,1682.47 1041.06,1682.56 C1068.99,1683.29 1143.39,1684.27 1164.69,1684.55035 C1167.66,1684.59 1169.3,1681.15 1167.39,1678.89 C1162.11,1672.65 1104.13,1649.25 1101.85,1647.88" id="Fill-25" fill="#8ACBE2"></path>
            <path d="M468.968,1167.69 C468.968,1167.69 442.864,1245.3 482.02,1281.51 C521.176,1317.73 753.791,1313.71 830.362,1313.71 C830.362,1313.71 861.688,1398.78 865.17,1412.58 C868.65,1426.38 1020.63,1604.58 1020.63,1604.58 L1062.4,1578.14 C1062.4,1578.14 898.81,1263.12 886.05,1249.32 C873.29,1235.53 691.142,1180.34 645.895,1167.69 C600.648,1155.05 468.968,1167.69 468.968,1167.69" id="Fill-26" fill="#C5EFF9"></path>
            <path d="M756.279,1302.56 L741.784,1242.22 C731.648,1200.02 694.277,1169.32 650.908,1167.56 L467.314,1160.14 L461.648,1141.45 L651.652,1149.13 C703.228,1151.22 747.666,1187.73 759.72,1237.91 L775.124,1302.03 C769.908,1302.25 763.546,1302.43 756.279,1302.56" id="Fill-27" fill="#355389"></path>
            <path d="M510.021,1270.42 C510.021,1270.42 762.259,1274.74 788.555,1270.42 C814.852,1266.1 826.234,1299.07 818.384,1316.34 C810.534,1333.61 788.948,1340.29 757.156,1341.85 C725.365,1343.42 460.83,1350.88 453.373,1343.82 C447.282,1338.05 367.087,1063.88 337.908,963.62 C332.076,943.58 343.578,922.64 363.604,916.76 C383.537,910.91 404.459,922.22 410.487,942.1 L510.021,1270.42" id="Fill-28" fill="#F47458"></path>
            <path d="M770.308,1029.87 L632.065,996.57 C632.065,996.57 583.173,931.59 536.087,875.57 C521.602,889.2 513.266,910.43 498.683,923.92 L602.287,1042.31 C606.023,1046.58 611.403,1049.09 617.104,1049.23 L764.288,1052.73 L770.308,1029.87" id="Fill-29" fill="#F7A491"></path>
            <path d="M864.333,1043.69 C865.78,1041.47 862.148,1037.72 859.42,1034.9 C856.399,1031.78 838.104,1023.95 834.993,1023 C831.882,1022.06 805.219,1025.79 795.012,1029.1 C784.805,1032.41 778.082,1031.05 778.082,1031.05 C775.405,1030.51 771.382,1029.78 768.258,1029.14 L761.859,1052.73 C785.819,1052.43 810.873,1054.2 813.144,1054.14 C820.343,1053.96 833.531,1046.5 836.591,1045.4 C839.65,1044.3 845.847,1045.17 850.013,1047.1 C854.178,1049.04 866.31,1053.64 868.34,1052.57 C870.37,1051.5 864.333,1043.69 864.333,1043.69" id="Fill-30" fill="#F7A491"></path>
            <path d="M1180.52,871.38 L951.42,871.38 C945.36,871.38 939.9,875.01 937.6,880.57 L867.06,1051.06 L740.761,1051.06 C737.229,1051.06 734.367,1053.9 734.367,1057.39 C734.367,1060.89 737.229,1063.73 740.761,1063.73 L1100.22,1063.73 C1110.11,1063.73 1119.07,1057.98 1123.12,1049.04 L1194.14,892.25 C1198.58,882.46 1191.35,871.38 1180.52,871.38" id="Fill-31" fill="#13375B"></path>
            <path d="M1057.17,970.66 C1055.63,978.32 1048.88,983.44 1042.12,982.1 C1035.35,980.76 1031.12,973.46 1032.67,965.81 C1034.21,958.15 1040.95,953.03 1047.72,954.37 C1054.49,955.71 1058.72,963 1057.17,970.66" id="Fill-32" fill="#FFFFFF"></path>
            <polygon id="Fill-33" fill="#355389" points="242.296 1081.83 1437.9 1081.83 1437.9 1063.22 242.296 1063.22"></polygon>
            <path d="M542.397,730.338 C545.39,738.841 542.928,747.454 536.899,749.576 C530.87,751.698 523.556,746.526 520.564,738.023 C517.571,729.521 520.033,720.907 526.062,718.785 C532.091,716.663 539.405,721.835 542.397,730.338" id="Fill-34" fill="#F7A491"></path>
            <path d="M636.382,992.12 C631.754,984.62 568.179,909.67 556.573,896 C532.986,868.07 505.219,839.568 492.504,842.91 C468.209,849.3 457.715,889.96 471.864,914.24 C477.428,923.78 490.969,937.86 505.351,951.43 C505.351,951.43 597.952,1052.55 608.259,1052.73 C618.566,1052.92 783.338,1051.06 783.338,1051.06 L788.184,1022.85 C788.184,1022.85 641.476,1000.39 636.382,992.12" id="Fill-35" fill="#C5EFF9"></path>
            <polyline id="Fill-36" fill="#C5EFF9" points="533.777 835.844 515.476 843.36 550.601 871.38 545.646 875.57 591.912 901.78 533.777 835.844"></polyline>
            <polyline id="Fill-37" fill="#C5EFF9" points="581.075 843.36 595.338 850.97 588.207 857.86 597.212 860.58 591.912 901.78 581.075 843.36"></polyline>
            <path d="M573.392,880.77 C573.392,880.77 579.989,883.79 587.709,879.12 L591.912,901.78 L573.392,880.77" id="Fill-38" fill="#8ACBE2"></path>
            <polyline id="Fill-39" fill="#13375B" points="1402.34 1681.72 1423.6 1681.72 1377.8 1080.57 1356.54 1080.57 1402.34 1681.72"></polyline>
            <polyline id="Fill-40" fill="#13375B" points="1221.71 1681.72 1200.45 1681.72 1246.25 1080.57 1267.51 1080.57 1221.71 1681.72"></polyline>
            <polyline id="Fill-41" fill="#13375B" points="450.12 1681.72 471.378 1681.72 425.574 1080.57 404.315 1080.57 450.12 1681.72"></polyline>
            <polyline id="Fill-42" fill="#13375B" points="269.484 1681.72 248.225 1681.72 294.029 1080.57 315.288 1080.57 269.484 1681.72"></polyline>
            <path d="M1990.24,1579.59 C1990.24,1579.59 1992.95,1629.91 1992.97,1630.02 C1994,1636.41 1998.1,1652.2 1998.08007,1658.01 C1998.02,1679.82 1900.55,1639.07 1922.45,1629.5 C1924.43,1628.64 1937.91,1617.14 1938.58,1609.71 C1939.62,1598.28 1939.15,1580.08 1939.15,1580.08 L1990.24,1579.59" id="Fill-43" fill="#F7A491"></path>
            <path d="M1922.69,1629.29 C1922.69,1629.29 1945.58,1636.07 1957.31,1637.79 C1969.04,1639.5 1984.56,1625.53 1992.84,1629.36 C2001.97,1633.57 2002.45,1681.67 2002.45,1681.67 C2002.45,1681.67 1869.93,1685.39 1851.58,1681.3 C1837.54,1678.18 1875.8,1644.63 1922.69,1629.29" id="Fill-44" fill="#184655"></path>
            <path d="M1802.08,1578.78 C1802.08,1578.78 1804.79,1629.1 1804.81,1629.2 C1805.84,1635.59 1809.94,1651.39 1809.92007,1657.2 C1809.86,1679.01 1712.39,1638.26 1734.29,1628.69 C1736.27,1627.82 1749.75,1616.33 1750.42,1608.91 C1751.46,1597.47 1750.98,1579.27 1750.98,1579.27 L1802.08,1578.78" id="Fill-45" fill="#F7A491"></path>
            <path d="M1734.53,1628.48 C1734.53,1628.48 1757.42,1635.25 1769.15,1636.97 C1780.88,1638.69 1796.39,1624.71 1804.68,1628.54 C1813.81,1632.76 1814.29,1680.86 1814.29,1680.86 C1814.29,1680.86 1678.24,1685.39 1663.42,1680.49 C1649.76,1675.98 1687.64,1643.82 1734.53,1628.48" id="Fill-46" fill="#184655"></path>
            <path d="M1507.12,334.629 C1512,358.908 1507.82,358.671 1508.52,361.769 C1509.36,365.433 1545.2,400.945 1545.2,400.945 C1545.2,400.945 1650.14,506.299 1656.01,511.795 L1798.18,567.42 L1792.64,645.674 C1792.64,645.674 1639.46,581.049 1632,576.276 C1624.54,571.5 1498.72,412.86 1487.21,399.242 C1487.21,399.242 1467.65,387.954 1455.59,380.464 C1443.53,372.977 1435.27,360.547 1432.18,357.922 C1431.73,357.535 1421.94,348.196 1412.84,333.544 C1405.01,320.917 1418.09,329.425 1418.09,329.425 C1418.09,329.425 1436.71,350.303 1438.06,348.581 C1439.09,347.253 1428.27,336.441 1419.45,322.557 C1417.19,318.985 1414.96,315.454 1412.95,312.194 C1407.65,303.638 1411.27,298.052 1418.2,306.153 C1420.65,309.015 1424.61,313.863 1426.95,317.709 C1429.49,321.866 1433.12,324.893 1435.77,328.071 C1441.04,334.381 1444.8,339.049 1444.93,338.693 C1445.11,338.234 1447.01,338.765 1444.72,334.902 C1441.97,330.26 1433.98,321.645 1430.45,314.514 C1428.45,310.472 1423.76,302.267 1423.76,302.267 C1423.76,302.267 1418.94,288.587 1419.63,288.056 C1423.38,285.172 1429.26,293.643 1431.28,299.478 C1434.44,302.574 1439.13,311.341 1439.13,311.341 C1439.13,311.341 1452.52,327.026 1454.7,325.206 C1455.64,324.432 1448.54,313.852 1443.18,302.419 C1438.19,291.805 1434.86,280.305 1436.77,279.046 C1440.01,276.912 1446.77,288.136 1446.77,288.136 C1446.77,288.136 1451.1,296.243 1452.74,298.83 C1454.66,301.863 1461.09,310.518 1461.09,310.518 C1461.09,310.518 1484.85,339.635 1486.76,337.73 C1488.68,335.827 1491.61,328.911 1490.74,326.608 C1489.88,324.307 1486.12,320.868 1485.26,318.566 C1484.39,316.264 1485.21,312.561 1487.91,311.347 C1490.61,310.132 1498.97,319.75 1498.97,319.75 C1498.97,319.75 1505.72,327.622 1507.12,334.629" id="Fill-47" fill="#F8A492"></path>
            <path d="M2079.96,192.055 C2086.56,215.923 2090.19,213.827 2090.96,216.911 C2091.86,220.558 2075.9,268.404 2075.9,268.404 C2075.9,268.404 2029.76,409.729 2027.01,417.273 L1925.2,530.987 L1965.46,598.337 C1965.46,598.337 2073.03,471.633 2077.53,464.011 C2082.03,456.387 2122.76,258.097 2126.89,240.753 C2126.89,240.753 2139.26,221.866 2146.64,209.748 C2154.02,197.63 2155.79,182.812 2157.37,179.077 C2157.6,178.527 2162.12,165.782 2163.63,148.606 C2164.92,133.803 2157.09,147.292 2157.09,147.292 C2157.09,147.292 2149.88,174.319 2147.91,173.387 C2146.38,172.669 2151.17,158.14 2152.77,141.775 C2153.18,137.568 2153.57,133.414 2153.9,129.596 C2154.77,119.572 2149.02,116.216 2146.48,126.571 C2145.59,130.229 2144.24,136.34 2143.89,140.829 C2143.5,145.681 2141.62,150.021 2140.69,154.052 C2138.84,162.056 2137.59,167.915 2137.31,167.661 C2136.94,167.329 2135.49,168.66 2135.79,164.181 C2136.15,158.796 2139.39,147.509 2139.32,139.552 C2139.29,135.043 2139.77,125.605 2139.77,125.605 C2139.77,125.605 2137.9,111.224 2137.05,111.06 C2132.4,110.175 2130.97,120.388 2131.8,126.504 C2130.38,130.692 2130.14,140.632 2130.14,140.632 C2130.14,140.632 2125.27,160.666 2122.5,160.024 C2121.32,159.753 2122.88,147.113 2122.51,134.491 C2122.17,122.772 2119.95,111.006 2117.68,110.742 C2113.83,110.297 2112.85,123.364 2112.85,123.364 C2112.85,123.364 2112.65,132.55 2112.35,135.597 C2112.01,139.169 2110.17,149.792 2110.17,149.792 C2110.17,149.792 2102.11,186.484 2099.54,185.648 C2096.97,184.813 2091.23,179.961 2090.96,177.516 C2090.7,175.072 2092.5,170.311 2092.23,167.865 C2091.96,165.421 2089.57,162.482 2086.61,162.616 C2083.65,162.746 2080.53,175.101 2080.53,175.101 C2080.53,175.101 2078.06,185.166 2079.96,192.055" id="Fill-48" fill="#F8A492"></path>
            <path d="M1963.91,939.31 C1963.91,939.31 1815,1288.52 1809.43,1320.01 C1805.37,1343 1809.77,1604.74 1809.77,1604.74 L1739.86,1603.32 L1716.21,1304.25 L1808.22,945.95 L1963.91,939.31" id="Fill-49" fill="#B75742"></path>
            <polyline id="Fill-50" fill="#F47458" points="2022.86 951.8 1960.29 1344.32 2003.56 1604.46 1923.93 1604.12 1862.23 1324.31 1840.06 964.48 1854.54 929.36 2022.86 951.8"></polyline>
            <path d="M1690.63,520.473 C1690.63,520.473 1686.76,580.415 1691.38,615.654 C1691.38,615.654 1763.89,635.074 1766.41,651.584 C1768.93,668.094 1792.61,977.17 1792.61,977.17 C1792.61,977.17 1956.52,1004.14 2033.34,966.28 C2033.34,966.28 1981.86,613.999 1992.28,593.143 C2002.69,572.287 2043.03,531.228 2043.03,531.228 C2043.03,531.228 1988.96,473.829 1980.92,465.303 C1980.92,465.303 1907.8,534.547 1896.43,550.092 C1883.62,567.599 1852.25,560.631 1844.48,560.051 C1844.48,560.051 1703.14,523.286 1690.63,520.473" id="Fill-51" fill="#13375B"></path>
            <path d="M1862.22,486.405 L1896.19,550.826 L1858.1,608.721 L1826.76,563.342 C1826.76,563.342 1823.15,528.722 1813.43,510.333 C1803.7,491.942 1862.22,486.405 1862.22,486.405" id="Fill-52" fill="#F8A492"></path>
            <path d="M1862.37,503.362 C1863.88,500.069 1864.72,496.154 1865.02,491.809 L1862.22,486.405 C1862.22,486.405 1861.52,486.471 1860.28,486.613 C1850.97,487.685 1811.25,493.075 1812.37,506.891 C1812.43,507.724 1812.64,508.585 1813.02,509.48 C1813.14,509.761 1813.27,510.045 1813.43,510.333 C1817.77,518.538 1820.89,529.972 1823.01,540.124 C1838.89,533.857 1854.75,519.99 1862.37,503.362" id="Fill-53" fill="#E8917F"></path>
            <path d="M1838.29,386.22 C1839.64,385.155 1877,460.335 1863.92,488.877 C1850.83,517.418 1813.47,537.881 1793.45,525.601 C1771.29,512.016 1743.49,427.063 1767.68,394.093 C1791.88,361.123 1838.29,386.22 1838.29,386.22" id="Fill-54" fill="#F8A492"></path>
            <path d="M1786.48,494.886 C1795.28,488.578 1805.89,495.678 1810.12,502.182 C1796.13,504.923 1791.46,507.182 1791.46,507.182 C1786.25,502.954 1786.48,494.886 1786.48,494.886" id="Fill-55" fill="#FFFFFF"></path>
            <path d="M1821.81,343.472 C1833.38,341.027 1858.01,349.795 1882.26,370.09 C1912.09,395.042 1900.96,441.739 1884.36,466.335 C1867.76,490.931 1874.9,510.542 1874.9,510.542 L1867.75,501.538 C1862.53,494.686 1858.69,486.849 1856.83,478.449 C1855.71,473.409 1854.99,467.795 1855.57,462.785 C1857.1,449.572 1837.6,447.69 1829.65,439.798 C1823.53,433.722 1817.7,417.069 1807.86,406.93 L1797.87,400.024 C1797.87,400.024 1779,408.232 1763.51,401.828 C1719.05,383.438 1758.12,326.155 1821.81,343.472" id="Fill-56" fill="#F7CC7F"></path>
            <path d="M1835.43,453.47 C1838.51,463.138 1845.6,469.521 1851.25,467.725 C1856.91,465.929 1858.99,456.636 1855.9,446.969 C1852.82,437.3 1845.73,430.918 1840.08,432.715 C1834.43,434.509 1832.34,443.801 1835.43,453.47" id="Fill-57" fill="#F8A492"></path>
            <polyline id="Fill-58" fill="#466EB6" points="2243.47 486.826 2238.79 504.553 2220.36 507.813 2216.52 528.059 2195.8 525.479 2190.44 548.181 2171.08 548.156 2162.35 569.147 2170.31 572.469 2176.84 556.775 2197.27 556.801 2202.42 534.979 2223.49 537.601 2227.72 515.259 2245.72 512.076 2250.06 495.646 2262.33 496.026 2262.57 487.418 2243.47 486.826"></polyline>
            <polyline id="Fill-59" fill="#F47458" points="1970.91 162.362 1970.7 180.695 1953.62 188.357 1954.84 208.929 1934.12 211.488 1934.47 234.81 1915.68 239.516 1912.35 262.002 1920.88 263.279 1923.37 246.466 1943.2 241.501 1942.86 219.083 1963.93 216.48 1962.58 193.78 1979.26 186.297 1979.45 169.304 1991.44 166.678 1989.57 158.271 1970.91 162.362"></polyline>
            <polyline id="Fill-60" fill="#50BFA5" points="1637.52 108.594 1652.47 76.846 1628.39 50.304 1621.45 56.58 1641.32 78.49 1625.87 111.289 1657.7 136.63 1644.74 157.163 1653.09 161.51 1670.11 134.549 1637.52 108.594"></polyline>
            <polyline id="Fill-61" fill="#F7CC7F" points="1383.94 170.906 1383.27 135.819 1349.92 122.701 1346.48 131.405 1374.01 142.234 1374.7 178.483 1414.46 187.088 1411.94 211.241 1421.36 211.434 1424.67 179.72 1383.94 170.906"></polyline>
        </g>
    </g>
</svg>