<?xml version="1.0" encoding="UTF-8"?>
<svg width="1440px" height="600px" viewBox="0 0 1440 600" version="1.1" xmlns="http://www.w3.org/2000/svg" xmlns:xlink="http://www.w3.org/1999/xlink">
    <title>conflict</title>
    <g id="conflict" stroke="none" stroke-width="1" fill="none" fill-rule="evenodd">
        <path d="M1045.5,177.5 C1013.41395,207.470105 973.5,215.5 940.5,207.5 C933.631273,205.834854 937.650498,189.722724 934.5,189.5 C927.596421,189.011952 928.619868,207.100763 923.5,207.5 C912.166636,208.383752 852.999969,187.050419 746,143.5 C854.121953,191.979601 909.455286,217.646268 912,220.5 C920.705076,230.26218 905.000481,238.184661 912,240 C920.003359,242.075687 926.16299,222.853372 936.5,220.5 C949.370159,217.56992 968.953913,238.951902 996,230.5 C1028,220.5 1052.89693,209.345305 1045.5,229 C1028,275.5 1044.94862,302.702432 1039.5,326 C1026.07936,383.384824 989.5,508 1003,508 C1016.5,508 1046,339 1091,339 C1136,339 1182,508 1195,508 C1208,508 1162.29422,357.117926 1149.5,320.5 C1136.70578,283.882074 1128.20578,250.548741 1124,220.5 C1133.24738,226.425061 1140.58071,228.925061 1163,236 M1176,214 C1159.5,208 1124.45314,185.235372 1105.5,162.5" id="Shape" stroke="#1A508B" stroke-width="8" stroke-linecap="round" stroke-linejoin="round"></path>
        <ellipse id="Oval" stroke="#1A508B" stroke-width="8" cx="1255.5" cy="236" rx="79.5" ry="81"></ellipse>
        <path d="M853,494.5 L949.5,494.5 L971.5,494.5 M1013,494.5 L1055,494.5 L1102,475.5 L1127,475.5 L1142,494.5 L1159.97904,492.54799 M1196.40346,488.593338 L1229.5,485 L1273,494.5 L1373.5,494.5" id="Shape" stroke="#1A508B" stroke-width="8" stroke-linecap="round" stroke-linejoin="round"></path>
        <path d="M1065,175 L1065,135.5 L1054,135.5 L1054,123 L1097,123 L1097,135.5 L1082.5,135.5 L1082.5,175 C1093.1085,168.801776 1100.19575,165.599112 1105.5,162.5 M1127,149 C1127,143 1127,131.833333 1127,115.5 C1127,91 1112,73 1084.5,73 C1057,73 1039.5,96.5 1039.5,115.5 C1039.5,128.166667 1039.5,139.333333 1039.5,149" id="Shape" stroke="#1A508B" stroke-width="8" stroke-linecap="round" stroke-linejoin="round"></path>
        <path d="M1141,229 L1293,475.5 C1262.83181,452.613658 1227.22244,432.436612 1199.5,435.5 M1160.16015,440.157152 C1148.44967,442.606828 1136.06296,449.554444 1104,461 C1090.54884,442.596546 1072.5,438 1053.5,437 M997.5,449 C984.684755,455.42707 983.96652,462.763653 971.5,475.5 L1039.5,251.5" id="Shape" stroke="#1A508B" stroke-width="8" stroke-linecap="round" stroke-linejoin="round"></path>
        <path d="M1076,73 C1072.95692,62.2432909 1071.79025,55.4099576 1072.5,52.5 C1073.20975,49.5900424 1076.04308,49.5900424 1081,52.5 C1081.55041,43.412025 1084.88375,37.2453583 1091,34 C1097.11625,30.7546417 1101.94959,32.587975 1105.5,39.5 C1117.24243,37.5835106 1125.07576,37.5835106 1129,39.5 C1132.92424,41.4164894 1132.25757,44.9164894 1127,50 C1139.06507,51.9720875 1145.8984,55.8054209 1147.5,61.5 C1149.1016,67.1945791 1145.26827,74.0279125 1136,82 C1147.21999,86.754469 1153.55332,90.4211357 1155,93 C1156.44668,95.5788643 1153.94668,98.745531 1147.5,102.5 C1157.55244,112.215135 1163.05244,118.715135 1164,122 C1164.94756,125.284865 1159.44756,127.118198 1147.5,127.5 C1157.80615,138.030774 1163.30615,145.030774 1164,148.5 C1164.69385,151.969226 1159.19385,152.635893 1147.5,150.5 C1155.28462,160.67543 1159.78462,168.842097 1161,175 C1162.21538,181.157903 1157.71538,183.657903 1147.5,182.5" id="Path-9" stroke="#1A508B" stroke-width="8" stroke-linecap="round" stroke-linejoin="round"></path>
        <polyline id="Path-10" stroke="#1A508B" stroke-width="8" stroke-linecap="round" stroke-linejoin="round" points="1246 175 1246 214 1204.5 214"></polyline>
        <polyline id="Path-10-Copy" stroke="#1A508B" stroke-width="8" stroke-linecap="round" stroke-linejoin="round" transform="translate(1285.250000, 194.500000) scale(-1, 1) translate(-1285.250000, -194.500000) " points="1306 175 1306 214 1264.5 214"></polyline>
        <polyline id="Path-10-Copy-2" stroke="#1A508B" stroke-width="8" stroke-linecap="round" stroke-linejoin="round" transform="translate(1285.250000, 268.000000) scale(-1, -1) translate(-1285.250000, -268.000000) " points="1306 236 1306 300 1264.5 300"></polyline>
        <polyline id="Path-10-Copy-3" stroke="#1A508B" stroke-width="8" stroke-linecap="round" stroke-linejoin="round" transform="translate(1225.250000, 268.000000) scale(1, -1) translate(-1225.250000, -268.000000) " points="1246 236 1246 300 1204.5 300"></polyline>
        <path d="M903.5,452 C909.633332,458.719997 913.799999,464.719997 916,470 C918.200001,475.280003 919.866668,483.280003 921,494 C914.727561,485.622434 908.894228,479.455767 903.5,475.5 C898.105772,471.544233 888.939105,466.710899 876,461" id="Path-11" stroke="#1A508B" stroke-width="8" stroke-linecap="round" stroke-linejoin="round"></path>
        <path d="M884.5,485 C889.177096,483.851887 893.843763,483.851887 898.5,485 C903.156237,486.148113 910.656237,489.148113 921,494 C925.249799,488.833735 928.083132,484.833735 929.5,482 C930.916868,479.166265 932.083534,475.166265 933,470" id="Path-12" stroke="#1A508B" stroke-width="8" stroke-linecap="round" stroke-linejoin="round"></path>
    </g>
</svg>