<?xml version="1.0" encoding="UTF-8"?>
<svg width="1440px" height="600px" viewBox="0 0 1440 600" version="1.1" xmlns="http://www.w3.org/2000/svg" xmlns:xlink="http://www.w3.org/1999/xlink">
    <title>goals</title>
    <g id="goals" stroke="none" stroke-width="1" fill="none" fill-rule="evenodd" stroke-linecap="round" stroke-linejoin="round">
        <g id="Group" transform="translate(896.798259, 70.500000)" stroke="#1A508B" stroke-width="8">
            <path d="M232,396.844251 C242.678928,411.821315 259.623852,421.5 278.701741,421.5 C311.010399,421.5 337.201741,393.741654 337.201741,359.5 C337.201741,351.024464 335.597082,342.94614 332.692185,335.587659" id="Path"></path>
            <path d="M332.701741,335.5 C309.368408,288.5 297.701741,232.666667 297.701741,168 C297.701741,103.333333 309.368408,47.3333333 332.701741,0" id="Path-2"></path>
            <path d="M0,434.844251 C10.6789281,449.821315 27.6238521,459.5 46.7017408,459.5 M101.85297,418.226567 C104.021474,411.745549 105.201741,404.768854 105.201741,397.5 C105.201741,389.024464 103.597082,380.94614 100.692185,373.587659" id="Shape"></path>
            <path d="M100.701741,373.5 C77.3684075,326.5 65.7017408,270.666667 65.7017408,206 C65.7017408,141.333333 77.3684075,85.3333333 100.701741,38" id="Path-2"></path>
            <line x1="0.201740835" y1="435" x2="232.201741" y2="397" id="Path-3"></line>
            <line x1="49.2017408" y1="459.5" x2="285.201741" y2="421.5" id="Path-4"></line>
            <line x1="100.701741" y1="38" x2="332.701741" y2="0" id="Path-5"></line>
            <path d="M279.868281,46.8692737 L115.848872,73.7345216 L279.868281,46.8692737 Z" id="Path-5-Copy"></path>
            <path d="M264.868281,82.8692737 L100.848872,109.734522 L264.868281,82.8692737 Z" id="Path-5-Copy-2"></path>
            <path d="M258.868281,118.869274 L94.848872,145.734522 L258.868281,118.869274 Z" id="Path-5-Copy-3"></path>
            <path d="M258.868281,154.869274 L94.848872,181.734522 L258.868281,154.869274 Z" id="Path-5-Copy-4"></path>
            <path d="M258.868281,190.869274 L94.848872,217.734522 L258.868281,190.869274 Z" id="Path-5-Copy-5"></path>
            <path d="M264.868281,229.869274 L100.848872,256.734522 L264.868281,229.869274 Z" id="Path-5-Copy-6"></path>
            <path d="M269.868281,268.869274 L105.848872,295.734522 L269.868281,268.869274 Z" id="Path-5-Copy-7"></path>
            <path d="M279.868281,304.869274 L115.848872,331.734522 L279.868281,304.869274 Z" id="Path-5-Copy-8"></path>
        </g>
        <path d="M897,319 C880.666667,289 851.5,257.666667 809.5,225 C767.5,192.333333 726.333333,171.333333 686,162 C659.258086,166.705033 646.591419,171.038367 648,175 C649.408581,178.961633 664.741914,182.1283 694,184.5 C688.515231,194.128135 689.848564,200.794802 698,204.5 C706.151436,208.205198 719.484769,208.205198 738,204.5 C731.053944,213.505047 733.72061,220.33838 746,225 C758.27939,229.66162 777.612723,228.828287 804,222.5 C795.666667,192.833333 789.333333,177 785,175 C780.666667,173 776.5,174 772.5,178 C760.833333,160.666667 749.333333,151 738,149 C726.666667,147 722,149.5 724,156.5 C709.666667,142.166667 698.666667,135 691,135 C683.333333,135 681.666667,144 686,162" id="Path-6" stroke="#1A508B" stroke-width="9"></path>
    </g>
</svg>