<?xml version="1.0" encoding="UTF-8"?>
<svg width="2027px" height="1788px" viewBox="0 0 2027 1788" version="1.1" xmlns="http://www.w3.org/2000/svg" xmlns:xlink="http://www.w3.org/1999/xlink">
    <title>goals</title>
    <g id="code-of-conduct" stroke="none" stroke-width="1" fill="none" fill-rule="evenodd">
        <g id="goals">
            <path d="M711.53,562.441 C673.165,634.955 583.28,662.637 510.767,624.272 C438.254,585.906 410.571,496.022 448.937,423.509 C487.302,350.996 577.187,323.313 649.699,361.678 L649.7,361.678 C722.213,400.043 749.896,489.928 711.53,562.441 Z M873.248,589.703 C858.079,579.613 842.548,570.055 827.59,559.668 C824.858,557.772 822.425,552.884 822.707,549.623 C824.523,528.599 827.549,507.677 829.222,486.645 C829.709,480.524 831.073,477.31 836.929,474.975 C857.548,466.753 877.946,457.975 898.418,449.384 C901.738,447.991 905.01,446.481 910.73,443.95 C900.717,412.509 890.813,381.419 880.662,349.548 C854.27,354.971 830.198,359.512 806.354,365.035 C797.946,366.982 793.35,366.037 787.877,358.266 C776.693,342.386 763.3,328.075 751.269,312.763 C749.424,310.415 748.607,305.657 749.651,302.898 C757.625,281.835 765.577,260.721 774.811,240.196 C779.243,230.347 776.965,225.079 768.134,220.57 C764.74,218.837 761.971,215.879 758.917,213.479 C743.678,205.416 728.438,197.353 713.198,189.29 C711.287,188.923 709.256,188.854 707.483,188.144 C688.904,180.689 692.476,180.819 682.058,196.354 C669.365,215.282 656.991,234.423 646.129,250.959 C617.729,248.497 591.187,246.195 563.774,243.819 C553.236,218.717 542.224,192.486 531.14,166.085 C497.74,170.807 467.086,181.538 437.04,196.04 C442.425,221.99 447.611,247.305 452.983,272.58 C453.947,277.116 453.688,279.867 449.258,283.227 C431.917,296.378 414.887,309.996 398.494,324.304 C393.768,328.428 390.711,328.468 385.591,326.355 C364.455,317.634 343.117,309.404 321.943,300.769 C316.684,298.623 313.289,298.807 309.438,303.962 C292.169,327.091 280.461,352.914 270.897,379.906 C269.004,385.248 271.584,387.54 275.627,390.129 C294.331,402.107 312.744,414.54 331.528,426.388 C336.941,429.802 338.606,432.761 337.577,439.732 C334.017,463.819 331.86,488.112 328.953,514.277 C306.136,523.856 280.245,534.725 254.362,545.591 C259.034,579.627 268.379,611.098 283.674,641.055 C311.96,635.043 339.479,629.194 364.404,623.897 C380.091,641.736 394.243,658.696 409.438,674.666 C415.179,680.7 416.222,685.273 412.938,692.8 C404.191,712.845 396.225,733.234 388.152,753.567 C386.557,757.585 383.394,762.272 389.672,765.533 C415.209,778.796 440.732,792.087 466.274,805.343 C471.703,808.16 475.104,806.317 478.344,801.2 C490.398,782.159 503.291,763.639 515.017,744.404 C519.541,736.983 524.459,736.667 532.135,737.647 C551.093,740.068 570.201,742.119 589.279,742.425 C597.502,742.558 600.529,744.68 603.354,751.973 C612.428,775.406 622.424,798.482 631.862,821.211 C652.239,821.068 707.628,803.304 727.548,790.738 C722.142,765.767 716.936,740.457 711.026,715.313 C709.547,709.023 711.399,706.303 716.193,702.479 C731.66,690.142 746.253,676.714 761.599,664.216 C764.18,662.114 769.444,660.929 772.414,662.068 C791.284,669.309 809.904,677.21 828.516,685.108 C838.921,689.524 843.104,691.345 847.068,688.649 L889.99,607.524 C890.049,600.942 885.52,597.867 873.248,589.703 L873.248,589.703 Z" id="Fill-3" fill="#CAE1F9" opacity="0.5"></path>
            <path d="M1393.18,571.061 C1389.71,562.717 1386.04,554.246 1382.71,545.644 C1381.67,542.967 1380.56,542.188 1377.54,542.139 C1370.54,542.028 1363.53,541.274 1356.57,540.386 C1355.88,540.298 1355.25,540.238 1354.67,540.238 C1352.88,540.238 1351.54,540.808 1350.28,542.866 C1345.98,549.927 1341.25,556.725 1336.82,563.715 C1336.01,564.998 1335.17,565.72 1334.08,565.72 C1333.58,565.72 1333.02,565.564 1332.39,565.236 C1323.01,560.37 1313.65,555.491 1304.27,550.622 C1301.97,549.425 1303.13,547.705 1303.71,546.229 C1306.68,538.766 1309.6,531.281 1312.81,523.923 C1314.02,521.16 1313.63,519.481 1311.53,517.266 C1305.95,511.404 1300.75,505.178 1294.99,498.629 C1285.85,500.574 1275.74,502.721 1265.36,504.928 C1259.75,493.931 1256.32,482.378 1254.6,469.884 C1264.1,465.896 1273.61,461.906 1281.98,458.39 C1283.05,448.784 1283.84,439.867 1285.15,431.025 C1285.53,428.466 1284.91,427.38 1282.93,426.126 C1276.03,421.777 1269.27,417.214 1262.41,412.816 C1260.92,411.866 1259.98,411.025 1260.67,409.064 C1264.18,399.155 1268.48,389.676 1274.82,381.185 C1275.7,380.01 1276.51,379.539 1277.46,379.539 C1278.04,379.539 1278.68,379.715 1279.41,380.013 C1287.18,383.183 1295.01,386.204 1302.77,389.406 C1303.55,389.727 1304.2,389.913 1304.81,389.913 C1305.69,389.913 1306.49,389.54 1307.51,388.653 C1313.53,383.401 1319.78,378.402 1326.14,373.574 C1327.77,372.341 1327.86,371.331 1327.51,369.665 C1325.54,360.388 1323.64,351.095 1321.66,341.569 C1332.69,336.246 1343.94,332.307 1356.2,330.573 C1360.27,340.265 1364.31,349.893 1368.18,359.108 C1378.24,359.98 1387.99,360.825 1398.41,361.729 C1402.4,355.659 1406.94,348.632 1411.6,341.684 C1413.87,338.299 1414.33,336.906 1415.76,336.906 C1416.74,336.906 1418.16,337.559 1420.93,338.67 C1421.59,338.931 1422.33,338.957 1423.03,339.091 C1428.63,342.051 1434.22,345.011 1439.82,347.971 C1440.94,348.851 1441.95,349.937 1443.2,350.574 C1446.44,352.229 1447.28,354.162 1445.65,357.779 C1442.26,365.312 1439.34,373.063 1436.41,380.795 C1436.03,381.808 1436.33,383.555 1437.01,384.417 C1441.42,390.037 1446.34,395.291 1450.45,401.12 C1451.89,403.167 1453.16,403.924 1454.91,403.923 C1455.6,403.923 1456.36,403.806 1457.23,403.605 C1465.98,401.578 1474.82,399.91 1484.51,397.919 C1488.23,409.619 1491.87,421.032 1495.54,432.574 C1493.44,433.502 1492.24,434.057 1491.02,434.568 C1483.51,437.722 1476.02,440.944 1468.45,443.962 C1466.3,444.819 1465.8,445.999 1465.62,448.246 C1465.01,455.967 1463.9,463.647 1463.23,471.365 C1463.13,472.561 1464.02,474.356 1465.02,475.052 C1470.52,478.865 1476.22,482.373 1481.78,486.077 C1486.29,489.074 1487.95,490.203 1487.93,492.619 L1472.17,522.399 C1471.71,522.716 1471.23,522.863 1470.68,522.863 C1469.5,522.863 1467.96,522.201 1465.36,521.1 C1458.53,518.2 1451.7,515.299 1444.77,512.641 C1444.48,512.53 1444.13,512.479 1443.75,512.479 C1442.72,512.479 1441.49,512.864 1440.8,513.43 C1435.17,518.017 1429.81,522.947 1424.13,527.476 C1422.37,528.879 1421.69,529.878 1422.24,532.187 C1424.4,541.417 1426.32,550.708 1428.3,559.875 C1420.99,564.487 1400.66,571.008 1393.18,571.061 M1374.27,396.032 C1354.72,396.032 1335.81,406.582 1326.03,425.069 L1326.03,425.07 C1311.94,451.688 1322.1,484.684 1348.72,498.767 C1356.85,503.069 1365.58,505.108 1374.18,505.108 C1393.73,505.108 1412.64,494.559 1422.42,476.07 C1436.5,449.451 1426.34,416.456 1399.72,402.373 C1391.59,398.071 1382.87,396.032 1374.27,396.032" id="Fill-4" fill="#EBF3FE" opacity="0.5"></path>
            <path d="M517.376,1518.06 C517.376,1518.06 232.437,1377.57 183.434,1304.29 C134.432,1231.01 206.465,1226.86 206.465,1226.86 C206.465,1226.86 79.31,1103.2 97.199,1051.13 C115.089,999.07 180.959,1046.82 180.959,1046.82 C180.959,1046.82 99.198,864.817 137.749,846.521 C209.555,812.442 310.288,1008.27 310.288,1008.27 C310.288,1008.27 288.64,923.2 338.086,925.96 C412.656,930.13 409.575,1122.56 409.575,1122.56 C409.575,1122.56 417.997,1048.78 462.942,1072.75 C543.583,1115.75 517.376,1518.06 517.376,1518.06" id="Fill-5" fill="#3C8F7C"></path>
            <path d="M479.167,1042.98 C444.071,1023.51 409.115,1080.43 409.115,1080.43 C409.115,1080.43 412.656,930.13 338.086,925.96 C288.64,923.2 310.288,1008.27 310.288,1008.27 C310.288,1008.27 209.555,812.442 137.749,846.521 L517.704,1514.94 C520.388,1468.26 548.694,1081.56 479.167,1042.98" id="Fill-6" fill="#50BFA5"></path>
            <path d="M510.012,1519.8 C510.012,1519.8 276.97,1548.75 216.63,1522.95 C156.291,1497.16 199.533,1465.3 199.533,1465.3 C199.533,1465.3 69.97,1439.83 59.974,1400.09 C49.978,1360.35 109.746,1363.52 109.746,1363.52 C109.746,1363.52 -14.488,1283.07 2.123,1255.99 C33.063,1205.56 175.465,1286.77 175.465,1286.77 C175.465,1286.77 127.396,1242.5 159.36,1224.14 C207.566,1196.44 283.838,1317.71 283.838,1317.71 C283.838,1317.71 279.101,1287.82 316.873,1284.51 C384.646,1278.56 510.012,1519.8 510.012,1519.8" id="Fill-7" fill="#3C8F7C"></path>
            <path d="M318.402,1262.79 C280.63,1266.1 283.838,1317.71 283.838,1317.71 C283.838,1317.71 206.188,1173.95 157.981,1201.65 C126.017,1220.02 163.834,1280.35 163.834,1280.35 C163.834,1280.35 33.063,1205.56 2.123,1255.99 L510.72,1518.51 C493.427,1488.31 381.707,1257.23 318.402,1262.79" id="Fill-8" fill="#50BFA5"></path>
            <path d="M1850.04,1179.46 L1862.56,1149.21 C1872.27,1126.96 1897.12,1116.34 1918.07,1125.48 C1970.85,1148.52 1993.79,1212.65 1969.32,1268.71 L1951.43,1309.71 C1943.59,1327.66 1946.32,1347.42 1956.89,1361.35 C1966.49,1374 1968.06,1391.59 1961.4,1406.84 L1951.96,1428.45 C1941.75,1451.85 1921.88,1469.17 1898.31,1476.32 C1884.53,1480.5 1872.35,1490.84 1865.92,1505.59 L1852.56,1536.19 C1837.79,1570.02 1800.01,1586.17 1768.16,1572.27 L1749.99,1564.34 C1718.15,1550.44 1704.3,1511.75 1719.07,1477.92 C1742.95,1437.47 1741.05,1407.28 1732.58,1386.8 C1720.14,1356.7 1720.29,1322.06 1733.75,1291.22 L1735.63,1286.9 C1749.84,1254.35 1777.27,1230.06 1809.94,1219.65 C1824.37,1215.06 1839.4,1203.84 1850.04,1179.46" id="Fill-9" fill="#50BFA5"></path>
            <path d="M1025.48,1777.02 C991.66,1733.17 806.167,1498.21 685.221,1459.06 C551.718,1415.84 677.544,1587.49 677.544,1587.49 C677.544,1587.49 440.713,1328.52 353.804,1351.87 C274.137,1373.27 353.804,1533.79 353.804,1533.79 C353.804,1533.79 264.076,1444.9 155.263,1444.9 C49.362,1444.9 229.249,1760.15 238.954,1777.02 L1025.48,1777.02" id="Fill-10" fill="#96D9C9"></path>
            <path d="M2024.63,836.397 C2024.63,836.397 1990.49,880.476 1970.38,897.775 C1950.28,915.07 1931.12,931.63 1905.49,986.66 C1879.86,1041.69 1880.6,1047.99 1873.79,1062.16 C1866.98,1076.33 1831.22,1131.83 1828.52,1142.9 C1825.81,1153.98 1767.42,1207.02 1749.35,1234 C1731.28,1260.98 1701.63,1298.63 1697.74,1320.4 L1703.02,1320.29 C1703.02,1320.29 1718.74,1271.07 1765.07,1228.41 C1811.39,1185.75 1808.68,1175.02 1853.96,1158.1 C1899.23,1141.18 1941.29,1075.13 1941.29,1075.13 C1941.29,1075.13 1999.36,1006.26 2006.95,965.21 C2014.54,924.15 2033.65,889.98 2024.63,836.397" id="Fill-11" fill="#256653"></path>
            <path d="M1989.19,748.151 C1989.19,748.151 1980.34,780.261 1965.4,797.087 C1950.47,813.914 1938.74,823.516 1931.99,843.909 C1925.25,864.303 1906.19,916.49 1870.94,935.94 C1835.68,955.38 1813.68,1033.09 1785.96,1051.7 C1758.24,1070.31 1751.37,1086.72 1745.98,1128.44 C1740.6,1170.16 1741.39,1229.89 1692.04,1296.15 L1689.03,1276.12 C1689.03,1276.12 1726.17,1220.8 1728.86,1183.98 C1731.54,1147.16 1724.62,1088.97 1737.71,1064.88 C1750.8,1040.79 1725.56,1029.62 1750.51,994.38 C1775.47,959.14 1772.08,944.09 1801.56,915.46 C1801.56,915.46 1804.15,914.4 1816.46,887.242 C1828.78,860.082 1886.81,818.545 1912.09,805.646 C1937.38,792.748 1974.5,771.283 1989.19,748.151" id="Fill-12" fill="#256653"></path>
            <path d="M1865.74,888.628 C1865.74,888.628 1830.34,926.09 1823.49,953.91 C1816.64,981.73 1814.38,1005.13 1792.69,1040.37 C1770.99,1075.6 1790.8,1105.67 1778.56,1125.06 C1766.33,1144.46 1759.95,1169.3 1755.77,1188.3 C1751.59,1207.29 1707.78,1263.18 1695.95,1293.89 C1684.13,1324.6 1689.79,1326.02 1689.79,1326.02 C1689.79,1326.02 1704.38,1285.24 1714.32,1272.95 C1724.27,1260.66 1755.83,1217.64 1764.9,1200.26 C1773.98,1182.89 1789.69,1174.04 1808.14,1145.33 C1826.59,1116.63 1848.6,1093.95 1857.71,1049.25 C1866.83,1004.55 1895.61,961.83 1865.74,888.628" id="Fill-13" fill="#3C8F7C"></path>
            <path d="M1713.37,1300.85 C1713.37,1300.85 1737.98,1248.57 1789.05,1254.66 C1840.12,1260.74 1867.08,1277.39 1911.6,1245.37 C1956.13,1213.35 1991.39,1154.32 2005.19,1145.95 C2005.19,1145.95 1989.63,1132.74 1953.85,1153.38 C1918.08,1174.02 1892.6,1190.06 1871.87,1202.1 C1851.13,1214.14 1839.75,1200.49 1819.33,1206.86 C1802.23,1212.2 1776.82,1233.21 1765.14,1244.6 C1761.35,1248.3 1757.12,1251.52 1752.51,1254.13 C1748.32,1256.52 1743.3,1259.46 1740,1261.72 C1733.39,1266.24 1709.48,1300.15 1709.48,1300.15 L1713.37,1300.85" id="Fill-14" fill="#3C8F7C"></path>
            <path d="M1698.08,1287.06 C1698.08,1287.06 1731.28,1223.85 1727.18,1188.19 C1723.08,1152.53 1691.95,1119.6 1698.24,1099.26 C1704.53,1078.92 1741.15,1028.51 1731.57,982.41 C1731.57,982.41 1715.62,1017.84 1706.48,1024.42 C1697.34,1031 1640.04,1052.78 1638.6,1098.81 C1637.15,1144.83 1682.93,1166.32 1691.79,1182.03 C1700.64,1197.73 1716.66,1201.44 1714.76,1210.08 C1712.86,1218.71 1708.7,1250.74 1696.2,1280.4 L1698.08,1287.06" id="Fill-15" fill="#3C8F7C"></path>
            <path d="M1727.74,1246.49 L1768.91,1181.21 C1768.91,1181.21 1796.67,1127.46 1816.14,1081.78 C1835.62,1036.1 1865.74,888.628 1865.74,888.628 C1865.74,888.628 1830.34,926.09 1823.49,953.91 C1816.64,981.73 1814.38,1005.13 1792.69,1040.37 C1770.99,1075.6 1790.8,1105.67 1778.56,1125.06 C1766.33,1144.46 1759.95,1169.3 1755.77,1188.3 C1751.59,1207.29 1707.78,1263.18 1695.95,1293.89 C1689.47,1310.71 1688.25,1318.73 1688.46,1322.56 C1690.96,1293.88 1727.74,1246.49 1727.74,1246.49" id="Fill-16" fill="#327F6B"></path>
            <path d="M1859.01,1232.43 C1836,1231.7 1816.68,1225.63 1786.06,1238.99 C1755.43,1252.35 1735.25,1269.54 1735.25,1269.54 C1735.25,1269.54 1718.64,1287.78 1711.21,1297.71 C1710.12,1299.24 1709.48,1300.15 1709.48,1300.15 L1713.37,1300.85 C1713.37,1300.85 1737.98,1248.57 1789.05,1254.66 C1840.12,1260.74 1867.08,1277.39 1911.6,1245.37 C1956.13,1213.35 1991.39,1154.32 2005.19,1145.95 C2005.19,1145.95 1961,1166.35 1931.89,1186.74 C1902.78,1207.12 1882.03,1233.15 1859.01,1232.43" id="Fill-17" fill="#327F6B"></path>
            <path d="M1706.48,1024.42 C1697.34,1031 1640.04,1052.78 1638.6,1098.81 C1637.15,1144.83 1682.93,1166.32 1691.79,1182.03 C1700.64,1197.73 1716.66,1201.44 1714.76,1210.08 C1712.86,1218.71 1708.7,1250.74 1696.2,1280.4 L1697.02,1283.31 C1702.42,1271.85 1710.3,1254.33 1714.72,1240.67 C1721.9,1218.47 1720.41,1208.25 1717.4,1188.21 C1714.39,1168.18 1677.86,1120.31 1671.09,1098.03 C1664.33,1075.75 1705.14,1050.64 1716.19,1036.5 C1727.24,1022.36 1731.57,982.41 1731.57,982.41 C1731.57,982.41 1715.62,1017.84 1706.48,1024.42" id="Fill-18" fill="#327F6B"></path>
            <path d="M1093.89,1777.02 C1127.71,1733.17 1313.2,1498.21 1434.15,1459.06 C1567.65,1415.84 1441.82,1587.49 1441.82,1587.49 C1441.82,1587.49 1678.66,1328.52 1765.56,1351.87 C1845.23,1373.27 1765.56,1533.79 1765.56,1533.79 C1765.56,1533.79 1855.29,1444.9 1964.11,1444.9 C2070.01,1444.9 1890.12,1760.15 1880.42,1777.02 L1093.89,1777.02" id="Fill-19" fill="#96D9C9"></path>
            <path d="M498.754,1775.68 C390.625,1628.64 259.168,1492.73 102.857,1374.55 C101.297,1373.37 99.191,1376.09 100.762,1377.29 C249.011,1491.25 380.168,1625.82 490.533,1777.88 L498.754,1775.68" id="Fill-20" fill="#256653"></path>
            <path d="M190.086,1506.18 C193.699,1503.62 203.063,1493.89 215.559,1490.85 C227.39,1486.85 242.353,1489.53 241.836,1489.86 C242.147,1490.57 231.981,1479.01 216.108,1475.66 C200.86,1471.2 179.904,1474.94 173.056,1480.99 C157.514,1491.51 156.27,1509.38 163.973,1512.69 C171.627,1516.22 181.853,1511.35 190.086,1506.18" id="Fill-21" fill="#256653"></path>
            <path d="M126.423,1450.09 C130.037,1447.53 139.401,1437.81 151.896,1434.76 C163.728,1430.76 178.69,1433.44 178.174,1433.77 C178.484,1434.48 168.319,1422.93 152.446,1419.57 C137.197,1415.12 116.242,1418.86 109.394,1424.91 C93.851,1435.42 92.607,1453.29 100.31,1456.61 C107.965,1460.13 118.191,1455.27 126.423,1450.09" id="Fill-22" fill="#256653"></path>
            <path d="M297.237,1481.27 C293.851,1483.38 281.803,1487.62 276.267,1497.25 C269.845,1505.92 269.937,1519.97 270.382,1519.66 C271.082,1520.21 260.679,1506.77 260.03,1491.65 C258.105,1476.64 265.932,1459.95 273.616,1456.42 C287.647,1447.14 306.854,1453.2 308.957,1461.21 C311.294,1469.26 304.245,1476.19 297.237,1481.27" id="Fill-23" fill="#256653"></path>
            <path d="M313.716,1280.83 C410.479,1431.96 481.1,1599.84 521.478,1778.19 L528.111,1776.41 C487.902,1601.79 417.754,1434.21 321.152,1283.25 C298.701,1248.17 274.458,1206.54 232.421,1192.86 C231.61,1192.59 231.303,1193.83 232.076,1194.12 C270.471,1208.59 292.71,1248.03 313.716,1280.83" id="Fill-24" fill="#256653"></path>
            <path d="M304.873,1187.11 C302.382,1190.78 292.847,1200.33 290.045,1212.88 C286.282,1224.79 289.253,1239.7 289.573,1239.18 C290.292,1239.47 278.54,1229.54 274.868,1213.73 C270.115,1198.58 273.442,1177.55 279.354,1170.58 C289.564,1154.84 307.404,1153.24 310.868,1160.88 C314.545,1168.46 309.882,1178.78 304.873,1187.11" id="Fill-25" fill="#256653"></path>
            <path d="M281.724,1322.01 C285.336,1319.45 294.701,1309.72 307.196,1306.67 C319.028,1302.68 333.99,1305.36 333.474,1305.68 C333.785,1306.4 323.619,1294.84 307.746,1291.48 C292.498,1287.03 271.542,1290.77 264.694,1296.82 C249.151,1307.34 247.908,1325.21 255.61,1328.52 C263.266,1332.05 273.491,1327.18 281.724,1322.01" id="Fill-26" fill="#256653"></path>
            <path d="M316.658,1381.13 C320.271,1378.57 329.636,1368.84 342.131,1365.8 C353.962,1361.8 368.924,1364.48 368.409,1364.81 C368.719,1365.52 358.553,1353.97 342.68,1350.61 C327.432,1346.15 306.477,1349.89 299.628,1355.94 C284.086,1366.46 282.842,1384.33 290.545,1387.64 C298.2,1391.17 308.425,1386.3 316.658,1381.13" id="Fill-27" fill="#256653"></path>
            <path d="M353.753,1254.01 C350.715,1257.24 339.793,1265.17 335.048,1277.12 C329.455,1288.29 330.039,1303.48 330.436,1303.01 C331.099,1303.42 321.061,1291.75 319.926,1275.57 C317.623,1259.85 324.223,1239.61 331.159,1233.67 C343.725,1219.73 361.593,1220.96 363.81,1229.05 C366.245,1237.12 360.013,1246.57 353.753,1254.01" id="Fill-28" fill="#256653"></path>
            <path d="M405.124,1321.06 C400.8,1323.35 385.697,1327.51 378.101,1338.81 C369.502,1348.87 368.41,1366.07 368.981,1365.72 C369.791,1366.46 358.216,1349.13 358.716,1330.58 C357.646,1312.05 368.651,1292.3 378.353,1288.64 C396.314,1278.48 419.292,1287.54 421.178,1297.52 C423.349,1307.57 414.132,1315.45 405.124,1321.06" id="Fill-29" fill="#256653"></path>
            <path d="M459.191,1422.61 C454.543,1424.14 438.956,1425.7 429.567,1435.57 C419.4,1444.04 415.431,1460.81 416.053,1460.56 C416.726,1461.42 408.231,1442.39 411.844,1424.19 C413.906,1405.74 428.075,1388.13 438.254,1386.15 C457.667,1379.16 478.794,1391.96 478.976,1402.11 C479.425,1412.38 469.015,1418.59 459.191,1422.61" id="Fill-30" fill="#256653"></path>
            <path d="M215.906,1210.89 C217.932,1209.22 223.046,1203.05 230.304,1200.71 C237.128,1197.82 246.096,1198.75 245.806,1198.97 C246.021,1199.38 239.501,1192.99 229.964,1191.69 C220.75,1189.73 208.517,1192.86 204.73,1196.73 C195.996,1203.64 196.042,1214.26 200.744,1215.88 C205.426,1217.64 211.263,1214.31 215.906,1210.89" id="Fill-31" fill="#256653"></path>
            <path d="M235.306,1167.74 C235.216,1170.36 233.459,1178.17 236.029,1185.36 C237.913,1192.52 244.123,1199.06 244.118,1198.69 C244.572,1198.62 235.531,1197.35 228.685,1190.59 C221.501,1184.49 216.513,1172.89 217.271,1167.53 C217.407,1156.39 225.849,1149.94 230.005,1152.68 C234.25,1155.32 235.18,1161.97 235.306,1167.74" id="Fill-32" fill="#256653"></path>
            <path d="M80.577,1392.96 C82.602,1391.29 87.716,1385.13 94.975,1382.78 C101.799,1379.9 110.767,1380.83 110.476,1381.04 C110.691,1381.45 104.172,1375.06 94.635,1373.77 C85.42,1371.8 73.188,1374.93 69.4,1378.81 C60.667,1385.71 60.713,1396.34 65.414,1397.96 C70.097,1399.71 75.933,1396.38 80.577,1392.96" id="Fill-33" fill="#256653"></path>
            <path d="M103.979,1349.44 C103.675,1352.05 101.284,1359.69 103.257,1367.06 C104.547,1374.35 110.202,1381.38 110.226,1381.01 C110.685,1380.97 101.778,1378.97 95.509,1371.67 C88.849,1365.01 84.827,1353.04 86.023,1347.75 C87.07,1336.67 96.012,1330.93 99.93,1334 C103.945,1336.98 104.326,1343.68 103.979,1349.44" id="Fill-34" fill="#256653"></path>
            <path d="M124.798,1639.77 C223.604,1650.6 315.626,1694.21 404.213,1736.74 C463.951,1765.42 460.938,1773.59 473.107,1777.86 C475.078,1778.56 477.049,1776.41 476.09,1774.52 C471.408,1765.24 459.136,1758.97 450.596,1753.64 C440.656,1747.43 430.271,1741.94 419.733,1736.83 C397.185,1725.88 374.049,1716.03 351.064,1706.04 C304.306,1685.73 256.79,1666.62 207.391,1653.68 C180.311,1646.59 152.753,1641.48 124.863,1638.96 C124.344,1638.92 124.283,1639.71 124.798,1639.77" id="Fill-35" fill="#256653"></path>
            <path d="M205.392,1607.85 C204.749,1611.9 200.526,1623.67 203.131,1635.3 C204.675,1646.77 213.046,1658.09 213.108,1657.52 C213.827,1657.49 200.058,1653.8 190.745,1642 C180.781,1631.17 175.275,1612.24 177.481,1604.06 C179.827,1586.84 194.15,1578.46 200.066,1583.5 C206.14,1588.4 206.302,1598.89 205.392,1607.85" id="Fill-36" fill="#256653"></path>
            <path d="M292.437,1639.02 C291.794,1643.07 287.571,1654.84 290.175,1666.47 C291.72,1677.93 300.091,1689.25 300.153,1688.69 C300.872,1688.66 287.103,1684.96 277.79,1673.17 C267.826,1662.34 262.319,1643.4 264.526,1635.23 C266.872,1618 281.194,1609.63 287.11,1614.66 C293.185,1619.57 293.347,1630.06 292.437,1639.02" id="Fill-37" fill="#256653"></path>
            <path d="M380.882,1678.44 C380.239,1682.49 376.016,1694.26 378.621,1705.89 C380.165,1717.36 388.537,1728.68 388.598,1728.11 C389.317,1728.08 375.547,1724.39 366.235,1712.59 C356.271,1701.76 350.765,1682.83 352.972,1674.65 C355.317,1657.43 369.64,1649.05 375.556,1654.08 C381.63,1658.99 381.792,1669.48 380.882,1678.44" id="Fill-38" fill="#256653"></path>
            <path d="M179.406,1689.18 C181.195,1685.83 184.652,1674.8 193.06,1667.69 C200.597,1660.1 213.084,1656.43 212.815,1656.88 C213.326,1657.31 201.118,1652.34 187.671,1655.84 C174.285,1658.26 159.66,1669.14 156.725,1676.39 C148.839,1690.39 154.72,1704.56 161.889,1704.15 C169.103,1703.93 175.077,1696.29 179.406,1689.18" id="Fill-39" fill="#256653"></path>
            <path d="M269.947,1721.22 C271.735,1717.88 275.192,1706.85 283.601,1699.73 C291.137,1692.15 303.625,1688.48 303.356,1688.93 C303.867,1689.35 291.659,1684.39 278.212,1687.88 C264.826,1690.3 250.2,1701.18 247.266,1708.44 C239.38,1722.44 245.26,1736.61 252.429,1736.2 C259.643,1735.97 265.617,1728.34 269.947,1721.22" id="Fill-40" fill="#256653"></path>
            <path d="M110.453,1656.19 C112.018,1654.32 115.646,1647.85 121.865,1644.5 C127.6,1640.73 135.927,1640.07 135.698,1640.32 C135.962,1640.66 128.952,1635.93 120.047,1636.34 C111.322,1636.1 100.7,1641 97.899,1645.16 C91.098,1652.91 92.918,1662.59 97.474,1663.28 C102.034,1664.09 106.794,1660.08 110.453,1656.19" id="Fill-41" fill="#256653"></path>
            <path d="M120.901,1613.62 C121.26,1616.03 120.967,1623.44 124.511,1629.55 C127.427,1635.77 134.18,1640.68 134.114,1640.35 C134.515,1640.2 126.066,1640.57 118.696,1635.55 C111.13,1631.2 104.642,1621.47 104.435,1616.45 C102.694,1606.29 109.306,1599 113.55,1600.79 C117.86,1602.48 119.821,1608.39 120.901,1613.62" id="Fill-42" fill="#256653"></path>
            <path d="M1757.69,1078.35 C1757.69,1464.72 1444.47,1777.93 1058.1,1777.93 C671.735,1777.93 358.52,1464.72 358.52,1078.35 C358.52,691.978 671.735,378.763 1058.1,378.763 C1444.47,378.763 1757.69,691.978 1757.69,1078.35" id="Fill-43" fill="#B75742"></path>
            <path d="M1696.07,1078.35 C1696.07,1430.68 1410.44,1716.31 1058.1,1716.31 C705.767,1716.31 420.142,1430.68 420.142,1078.35 C420.142,726.01 705.767,440.384 1058.1,440.384 C1410.44,440.384 1696.07,726.01 1696.07,1078.35" id="Fill-44" fill="#F47458"></path>
            <path d="M1594.57,1078.35 C1594.57,1374.63 1354.39,1614.82 1058.1,1614.82 C761.821,1614.82 521.636,1374.63 521.636,1078.35 C521.636,782.063 761.821,541.878 1058.1,541.878 C1354.39,541.878 1594.57,782.063 1594.57,1078.35" id="Fill-45" fill="#FCF5EB"></path>
            <path d="M1461.36,1078.35 C1461.36,1301.06 1280.82,1481.61 1058.1,1481.61 C835.392,1481.61 654.847,1301.06 654.847,1078.35 C654.847,855.634 835.392,675.089 1058.1,675.089 C1280.82,675.089 1461.36,855.634 1461.36,1078.35" id="Fill-46" fill="#F47458"></path>
            <path d="M1344.46,1078.35 C1344.46,1236.5 1216.26,1364.71 1058.1,1364.71 C899.953,1364.71 771.746,1236.5 771.746,1078.35 C771.746,920.2 899.953,791.989 1058.1,791.989 C1216.26,791.989 1344.46,920.2 1344.46,1078.35" id="Fill-47" fill="#FCF5EB"></path>
            <path d="M1131.13,1078.35 C1131.13,1118.68 1098.43,1151.37 1058.1,1151.37 C1017.78,1151.37 985.08,1118.68 985.08,1078.35 C985.08,1038.02 1017.78,1005.33 1058.1,1005.33 C1098.43,1005.33 1131.13,1038.02 1131.13,1078.35" id="Fill-48" fill="#B75742"></path>
            <polyline id="Fill-49" fill="#184655" points="1506.44 715.889 1503.85 668.447 1664.45 542.83 1656.06 611.523 1498.67 734.628 1506.44 715.889"></polyline>
            <polyline id="Fill-50" fill="#12353D" points="1518.32 731.865 1563.74 745.809 1724.34 620.192 1655.65 611.795 1498.25 734.9 1518.32 731.865"></polyline>
            <path d="M1052.63,1084.4 L1052.63,1084.4 C1056.28,1089.07 1063.02,1089.9 1067.69,1086.24 L1520.17,732.334 L1506.94,715.426 L1054.47,1069.34 C1049.8,1072.99 1048.97,1079.73 1052.63,1084.4" id="Fill-51" fill="#184655"></path>
            <path d="M1727.75,1215.8 C1727.75,1220.34 1729.45,1224.01 1731.54,1224.01 C1733.63,1224.01 1735.33,1220.34 1735.33,1215.8 C1735.33,1211.27 1733.63,1207.59 1731.54,1207.59 C1729.45,1207.59 1727.75,1211.27 1727.75,1215.8" id="Fill-52" fill="#F7A491"></path>
            <path d="M1692.08,1748.23 C1693.07,1741.16 1693.38,1730.3 1693.27,1717.77 L1718.03,1717.77 C1715.46,1735.52 1713.44,1749.33 1713.44,1749.33 L1714.06,1754.94 L1714.07,1771.5 L1659.91,1771.5 C1659.91,1771.5 1671.4,1766.35 1687.48,1756.17 C1688.67,1755.42 1691.41,1753.02 1692.08,1748.23" id="Fill-53" fill="#F7A491"></path>
            <path d="M1797.68,1744.07 L1790.48,1723.44 L1809.33,1723.44 C1810.31,1736.68 1810.67,1745.62 1810.67,1745.62 L1815.46,1759.18 L1820.33,1775.3 C1820.33,1775.3 1804.3,1779.43 1795.89,1774.79 L1796.82,1758.74 L1797.68,1744.07" id="Fill-54" fill="#F7A491"></path>
            <path d="M1699.91,1295.74 C1706.44,1286.8 1733.41,1260.92 1736.41,1260.96993 C1745.14,1261.12 1773.81,1261.13 1779.41,1263.98 L1779.14,1313.25 C1778.23,1317.39 1758.44,1381.81 1759.59,1395.92 L1759.45,1396.05 C1742.86,1412.07 1716.7,1410.81 1701.53,1393.26 C1701.53,1393.26 1701.6,1373.72 1699.26,1355.89 C1695.6,1327.97 1683.67,1317.93 1699.91,1295.74" id="Fill-55" fill="#F7CC7F"></path>
            <path d="M1745.2,1233.23 C1745.2,1233.23 1744.44,1251.41 1746.07,1258.3 C1747.71,1265.2 1749.88,1265.72 1735.87,1267.81 C1730.36,1268.64 1725.05,1269.87 1725.05,1269.87 C1725.05,1269.87 1726.49,1259.74 1726.71,1255.47 C1727.06,1248.44 1725.09,1226.71 1725.09,1226.71 L1745.2,1233.23" id="Fill-56" fill="#F7A491"></path>
            <path d="M1734.52,1242.28 C1731.64,1243.84 1728.94,1244.76 1726.46,1245.14 C1725.98,1236.56 1725.09,1226.71 1725.09,1226.71 L1744.27,1232.93 C1742.04,1236.65 1738.88,1239.92 1734.52,1242.28" id="Fill-57" fill="#F47458"></path>
            <path d="M1796.83,1758.68 C1804.22,1761.97 1812.19,1759.99 1815.39,1758.93 L1816.46,1761.8 L1820.53,1775.4 C1820.53,1775.4 1804.3,1779.43 1795.89,1774.79 L1796.83,1758.68" id="Fill-58" fill="#E25A44"></path>
            <path d="M1714.63,1775.62 L1658.32,1775.62 C1656.24,1775.43 1655.73,1773.72 1656.45,1772.68 C1657.94,1770.52 1664.51,1768.93 1671.89,1765.49 C1684.84,1766.85 1712.02,1757.91 1714.07,1754.91 C1715.25,1760.92 1715.79,1775.36 1714.63,1775.62" id="Fill-59" fill="#E25A44"></path>
            <path d="M1718.9,1396.86 L1751.9,1631.63 L1781.95,1739.87 L1814.65,1739.87 C1814.65,1739.87 1807.06,1652.66 1790.8,1621.77 C1790.8,1621.77 1783.69,1538.98 1776.59,1488.35 C1775.53,1480.78 1780.78,1461.14 1779.41,1456.06 C1768.87,1417.04 1759.59,1395.92 1759.59,1395.92 L1718.9,1396.86" id="Fill-60" fill="#355389"></path>
            <path d="M1739.3,1498.37 L1731.66,1588.55 C1731.66,1588.55 1739.47,1640.09 1734.11,1674.29 C1728.75,1708.49 1721.65,1739.87 1721.65,1739.87 L1691.6,1739.87 L1685.63,1569.57 C1685.63,1569.57 1674.07,1477.03 1678.07,1451.93 C1682.07,1426.84 1701.53,1393.26 1701.53,1393.26 L1748.81,1395.42 C1748.81,1395.42 1761.63,1441.36 1759.46,1456.78 C1757.85,1468.23 1739.3,1498.37 1739.3,1498.37" id="Fill-61" fill="#466EB6"></path>
            <path d="M1785.78,1343.69 C1821.51,1332.97 1811.95,1301.47 1811.75,1302.67 C1811.85,1301.69 1815.22,1297.73 1816.88,1294.34 C1823.82,1280.21 1814.67,1263.21 1804.18,1257.32 C1811.14,1239.36 1804.23,1222.14 1791.14,1214.96 C1784.53,1211.33 1778.97,1206.18 1774.5,1200.22 C1764.59,1186.99 1746.56,1173.68 1724.88,1178.02 C1703.43,1183.51 1732.15,1195.94 1729.31,1216.57 C1727.87,1227.03 1732.01,1225.53 1738.47,1233.94 C1729.17,1250.29 1734.54,1277.73 1748.81,1290.18 C1741.82,1319.64 1749.32,1354.64 1785.78,1343.69" id="Fill-62" fill="#184655"></path>
            <path d="M1759.23,1199.7 C1763.46,1217.11 1740.61,1229.75 1722.52,1230.21 C1710.76,1230.51 1705.36,1229.3 1703.46,1216.91 C1700.38,1196.82 1708.65,1184.57 1720.25,1179.5 C1735.22,1172.95 1755.75,1185.34 1759.23,1199.7" id="Fill-63" fill="#184655"></path>
            <path d="M1732.67,1187.99 C1732.67,1187.99 1740.62,1190.66 1744.86,1198.69 C1749.1,1206.72 1746.99,1232.44 1729.35,1240.92 C1711.71,1249.4 1703.61,1230.14 1704.89,1215.93 C1706.17,1201.72 1711.28,1183.13 1732.67,1187.99" id="Fill-64" fill="#F7A491"></path>
            <path d="M1721.65,1227.57 L1709.13,1227.38 C1709.13,1227.38 1709.35,1232.22 1714.85,1232.47 C1721.56,1232.77 1721.65,1227.57 1721.65,1227.57" id="Fill-65" fill="#FFFFFF"></path>
            <path d="M1751.13,1218.15 C1753.74,1204.87 1752.71,1194.79 1743.27,1189.93 C1733.83,1185.07 1725.76,1180.25 1717.31,1188.99 L1715.4,1190.06 C1715.4,1190.06 1731.35,1194.47 1732.24,1202.94 C1733.13,1211.4 1741.6,1221.47 1740.3,1225.63 C1738.99,1229.79 1737.49,1238.08 1737.49,1238.08 L1740.98,1235.21 C1740.98,1235.21 1748.52,1231.44 1751.13,1218.15" id="Fill-66" fill="#184655"></path>
            <path d="M1734.69,1213.07 C1733.38,1216.74 1734.37,1220.42 1736.92,1221.3 C1739.46,1222.17 1742.59,1219.91 1743.91,1216.24 C1745.23,1212.57 1744.23,1208.88 1741.69,1208.01 C1739.14,1207.13 1736.01,1209.4 1734.69,1213.07" id="Fill-67" fill="#F7A491"></path>
            <path d="M396.111,1515.34 L422.871,1344.78 L585.327,1344.78 L558.517,1515.34 L396.111,1515.34 Z M730.583,420.685 L703.772,591.248 L541.09,591.248 L567.849,420.685 L730.583,420.685 Z M614.379,1159.96 L587.568,1330.52 L425.107,1330.52 L451.866,1159.96 L614.379,1159.96 Z M643.43,975.14 L616.619,1145.7 L454.103,1145.7 L480.862,975.14 L643.43,975.14 Z M512.094,776.066 L538.853,605.504 L701.532,605.504 L674.722,776.066 L512.094,776.066 Z M672.481,790.323 L645.671,960.88 L483.099,960.88 L509.857,790.323 L672.481,790.323 Z M393.875,1529.6 L556.276,1529.6 L517.518,1776.17 L534.271,1776.17 L752.871,385.476 L736.117,385.476 L732.824,406.429 L570.085,406.429 L573.373,385.476 L556.619,385.476 L337.808,1776.17 L354.561,1776.17 L393.875,1529.6 L393.875,1529.6 Z" id="Fill-68" fill="#F7CC7F"></path>
            <path d="M1085.74,155.993 C1085.57,156.617 1084.21,160.896 1082.14,167.27 L1103.86,171.651 C1104.09,168.097 1104.31,165.127 1104.57,162.974 C1106.35,147.908 1113.43,143.817 1117.07,135.451 C1120.72,127.085 1134.85,121.779 1133.1,118.942 C1131.36,116.105 1118.2,127.596 1115.04,126.365 C1111.87,125.134 1126.3,107.846 1124.56,105.542 C1121.37,101.298 1107.66,123.671 1106.05,121.823 C1104.44,119.976 1117.47,96.361 1112.25,96.063 C1107.04,95.766 1101.26,121.619 1098.52,120.481 C1095.78,119.343 1106.1,96.658 1100.85,93.273 C1098.05,91.465 1088.09,133.643 1083.66,136.076 C1079.22,138.508 1072.96,121.882 1068.73,123.292 C1064.49,124.704 1086.48,153.384 1085.74,155.993" id="Fill-69" fill="#F79C8D"></path>
            <path d="M883.516,66.33 C883.419,66.972 882.885,71.426 882.143,78.087 L860.548,73.12 C861.808,69.789 862.834,66.993 863.489,64.926 C868.073,50.463 863.313,43.818 863.446,34.694 C863.579,25.57 852.894,14.908 855.652,13.042 C858.41,11.177 865.663,27.074 869.05,27.257 C872.438,27.44 866.43,5.742 868.96,4.358 C873.62,1.81 876.88,27.846 879.109,26.826 C881.338,25.807 879.211,-1.079 884.084,0.801 C888.958,2.682 883.561,28.617 886.527,28.711 C889.493,28.805 889.443,3.88 895.62,2.962 C898.921,2.471 890.591,45 893.632,49.047 C896.673,53.094 909.23,40.526 912.5,43.559 C915.78,46.592 883.919,63.648 883.516,66.33" id="Fill-70" fill="#F79C8D"></path>
            <path d="M1106.46,165.22 C1106.46,165.22 1080.59,159.027 1080.34,161.105 C1074.9,206.626 1072.46,223.09 1071.54,223.563 C1068.4,225.176 1026.83,187.163 1019.42,184.587 C1015.87,183.354 1012.02,183.56 1008.32,183.669 C999.5,183.929 997.76,183.962 997.76,183.962 C997.51,183.978 997.44,183.983 997.44,183.983 L997.48,192.277 C1007.42,201.215 1030.16,336.599 1032.08,336.509 C1034.22,336.409 1079.17,347.721 1078.38,343.934 C1078.25,343.318 1047.9,318.486 1039.29,282.648 C1036.4,270.617 1034.98,257.662 1033.41,246.324 C1043.4,251.332 1082.41,270.529 1088.59,267.993 C1107.82,260.103 1106.46,165.22 1106.46,165.22" id="Fill-71" fill="#F7CC7F"></path>
            <path d="M1183.87,405.601 C1183.87,405.601 1225.7,438.36 1227.09,444.168 C1229.1,452.534 1267.4,441.536 1258.16,439.833 C1256.04,439.442 1249.24,437.717 1248.68,437.418 C1245.69,435.82 1208.47,390.977 1208.47,390.977 L1183.87,405.601" id="Fill-72" fill="#F7A491"></path>
            <path d="M1276.12,439.833 L1249.42,437.659 C1249.42,437.659 1241.79,443.976 1227.12,444.272 C1227.12,444.272 1224.77,450.972 1225.89,458.805 C1226.08,460.156 1226.31,464.239 1227.67,464.147 C1232.6,463.812 1245.75,460.541 1260.72,457.546 C1260.72,457.546 1280.85,453.284 1292.47,446.329 C1304.1,439.375 1276.12,439.833 1276.12,439.833" id="Fill-73" fill="#F7CC7F"></path>
            <path d="M996.49,323.426 C996.49,323.426 1027.11,328.572 1060.98,320.648 C1100.18,311.479 1143.51,303.002 1156.21,310.385 C1166.43,316.327 1230.26,412.77 1230.26,412.77 L1205.61,430.755 L1135.33,352.062 C1135.33,352.062 1045.67,385.144 1025.53,381.478 C979.67,373.127 979.02,336.501 996.49,323.426" id="Fill-74" fill="#355389"></path>
            <path d="M1092.24,470.305 C1092.24,470.305 1090.38,520.886 1089.22,529.452 C1088.07,537.979 1110.69,563.668 1107.8,554.733 C1107.13,552.678 1105.42,545.875 1105.42,545.24 C1105.41,541.85 1113.81,484.148 1113.81,484.148 L1092.24,470.305" id="Fill-75" fill="#F7A491"></path>
            <path d="M1122.26,573.16 L1105.56,546.006 C1105.56,546.006 1096.38,542.292 1089.14,529.525 C1089.14,529.525 1082.14,530.646 1075.77,535.348 C1074.67,536.159 1067.2,541.629 1067.72,542.891 C1069.63,547.536 1079.82,557.486 1090.96,568.353 C1090.96,568.353 1106.74,581.086 1118.39,588.011 C1130.03,594.935 1122.26,573.16 1122.26,573.16" id="Fill-76" fill="#F7CC7F"></path>
            <path d="M1141.88,370.58 C1131.17,356.299 1044.74,342.736 1044.74,342.736 L1020.64,296.415 L967.35,329.278 C967.35,329.278 972.68,371.685 976.68,383.015 C982,398.114 1017.82,398.883 1039.69,398.659 C1059.82,398.452 1096.58,402.555 1096.58,402.555 L1084.15,512.248 C1084.15,512.248 1108.59,517.81 1115.46,516.911 C1116.23,516.809 1155.2,388.344 1141.88,370.58" id="Fill-77" fill="#466EB6"></path>
            <path d="M997.73,184.058 L967.67,185.737 C967.67,185.737 966.98,185.948 966.77,185.987 C964.32,186.44 966.54,274.061 968.73,306.786 C970.91,339.512 975.34,353.26 975.34,353.26 C975.34,353.26 1016.12,346.02 1028.64,341.162 C1033.83,339.146 1046.4,323.431 1046.4,323.431 C1046.4,323.431 1033.56,306.167 1027.09,278.123 C1022.1,256.493 1015.95,218.152 1012.43,210.148 C1004.34,191.768 997.73,184.058 997.73,184.058" id="Fill-78" fill="#184655"></path>
            <path d="M968.52,159.19 L967.67,185.737 C967.67,185.737 987.13,219.273 997.12,214.6 C1005.51,210.678 998.07,185.168 998.07,185.168 C998.07,185.168 996.61,179.319 994.6,172.599 C993.19,167.904 992.02,162.817 992.11,159.085 C992.32,150.012 968.52,159.19 968.52,159.19" id="Fill-79" fill="#F7A491"></path>
            <path d="M992.11,159.085 C992.32,150.012 968.52,159.19 968.52,159.19 L968.44,161.784 C969.24,162.992 970.12,164.016 971.1,164.805 C977.49,170 986.75,172.338 994.27,171.476 C993.02,167.106 992.03,162.521 992.11,159.085" id="Fill-80" fill="#F47458"></path>
            <path d="M991.77,98.643 C991.77,98.643 1001.69,113.594 1002.43,126.176 C1003.17,138.759 1000.51,147.345 1000.51,147.345 L968.68,109.301 L991.77,98.643" id="Fill-81" fill="#F7CC7F"></path>
            <path d="M1005.73,123.602 C1006.18,128.007 1004.46,131.791 1001.9,132.052 C999.34,132.313 996.9,128.954 996.46,124.548 C996.01,120.142 997.72,116.358 1000.28,116.097 C1002.84,115.836 1005.28,119.196 1005.73,123.602" id="Fill-82" fill="#F48C7F"></path>
            <path d="M958.38,115.396 C957.65,115.24 957.73,151.866 968.34,160.486 C978.96,169.105 997.43,169.861 1002.83,161.18 C1008.8,151.577 1003.12,112.983 987.33,104.787 C971.54,96.59 958.38,115.396 958.38,115.396" id="Fill-83" fill="#F7A491"></path>
            <path d="M955.69,92.684 C947.59,99.79 943.66,104.98 938.18,117.614 C931.44,133.147 944.81,149.241 956.03,155.637 C967.25,162.032 968.18,169.765 968.18,169.765 L968.64,164.998 C968.87,163.254 968.8,161.84 968.5,160.614 C968.15,159.173 967.49,157.985 966.91,156.746 C965.95,154.705 962.88,147.711 961.69,145.865 C958.53,140.997 957.91,139.943 959.47,135.318 C960.67,131.756 959.28,123.905 961.13,118.035 L976.23,114.778 C976.23,114.778 985.68,112.506 990.45,107.002 C1004.15,91.196 977.07,73.572 955.69,92.684" id="Fill-84" fill="#F7CC7F"></path>
            <path d="M963.06,139.325 C964.92,143.345 964.53,147.479 962.2,148.561 C959.86,149.643 956.46,147.261 954.6,143.242 C952.74,139.222 953.13,135.087 955.46,134.006 C957.8,132.924 961.2,135.306 963.06,139.325" id="Fill-85" fill="#F7A491"></path>
            <path d="M967.67,185.737 C967.67,185.737 937.86,184.348 930.17,180.869 C925.51,178.76 887.203,147.896 887.203,147.896 L887.633,65.261 L860.695,63.212 C860.695,63.212 846.728,154.551 851.566,164.549 C856.562,174.874 912.63,217.379 923.84,235.824 C930.3,246.45 943.77,390.965 945.81,392.267 C960.32,399.816 1005.12,407.357 1004.06,402.777 C974.9,276.208 967.67,185.737 967.67,185.737" id="Fill-86" fill="#F7CC7F"></path>
            <path d="M980.39,148.863 L997.74,143.354 C997.74,143.354 999.43,150.072 991.87,152.715 C982.65,155.938 980.39,148.863 980.39,148.863" id="Fill-87" fill="#FFFFFF"></path>
            <path d="M1720.78,470.437 C1723.02,470.059 1724.14,467.107 1723,465.249 C1721.17,462.26 1719.38,459.24 1717.58,456.231 C1713.6,449.586 1713.24,449.448 1713.56,448.69 C1714.34,446.882 1717.74,447.707 1718.97,448.127 C1721.69,449.061 1724.19,450.689 1727.08,451.057 C1732.72,451.774 1736.83,447.462 1734.32,441.998 C1732.02,436.997 1729.43,432.088 1726.8,427.219 C1732.85,428.457 1738.87,429.868 1744.93,431.018 C1747.08,431.425 1748.55,429.511 1747.69,427.522 C1745.76,423.098 1740.07,409.998 1738.19,405.679 C1737.7,404.563 1734.82,399.625 1735.82,398.68 C1736.71,397.831 1740.86,398.981 1741.81,399.12 C1747.07,399.885 1748.94,400.082 1766.1,402.178 C1768.14,402.428 1769.85,399.634 1768.63,397.933 C1756.65,381.186 1758.74,379.661 1754.47,377.315 C1753.51,376.789 1752.6,377.438 1752.45,378.426 C1752.07,380.945 1752.16,381.574 1756.67,389.562 C1757.84,391.627 1759.06,393.662 1760.33,395.665 C1739.53,392.723 1734.36,391.484 1731.55,396.151 C1729.6,399.39 1730.54,400.271 1741.39,425.036 C1735.12,423.41 1728.78,422.172 1722.43,420.808 C1720.01,420.29 1718.24,422.569 1719.28,424.793 C1727.59,442.666 1728.54,442.793 1728.84,444.565 C1728.85,444.614 1729.94,444.864 1728.31,444.719 C1725.55,444.471 1720.46,440.453 1715.17,441.066 C1710.52,441.606 1706.09,445.409 1707.14,450.479 C1707.75,453.425 1708.85,454.468 1714.39,464.312 C1708.93,465.392 1703.62,467.118 1698.18,469.613 C1695.82,470.695 1694.41,471.71 1692.94,473.864 C1691.73,475.623 1693.23,478.469 1695.4,478.347 C1701.56,478 1704.24,473.228 1720.78,470.437" id="Fill-88" fill="#F7CC7F"></path>
            <path d="M1830.02,519.867 C1829.25,514.625 1828.87,509.607 1829.02,504.107 C1829.04,503.071 1828.86,501.139 1829.91,500.488 C1832.44,498.923 1836.21,503.262 1845.91,505.382 C1850.12,506.302 1858.75,508.574 1860.59,502.917 C1861.54,500.019 1860.92,496.357 1860.91,493.352 C1860.91,491.069 1860.99,488.788 1861.02,486.507 C1876.77,490.951 1875.87,491.874 1879.44,490.316 C1880.37,489.912 1880.85,488.496 1880.3,487.623 C1878.25,484.384 1878.67,485.309 1858.87,479.504 C1857.06,478.975 1854.84,480.228 1854.85,482.28 C1854.86,485.369 1855.67,499.361 1855.5,501.092 C1855.34,500.981 1854.58,501.124 1854.42,501.118 C1847.84,500.89 1842.31,498.509 1836.35,496.048 C1831.46,494.03 1824.82,493.993 1823.29,500.25 C1822.45,503.646 1822.8,510.653 1823.3,516.049 C1813.71,512.981 1804.14,509.841 1794.54,506.837 C1792.66,506.249 1789.96,507.643 1790.11,509.896 C1790.53,516.152 1790.75,522.405 1790.91,528.667 C1785.27,526.813 1779.94,524.083 1775.11,520.595 C1771.55,518.024 1767.02,523.013 1776.45,528.882 C1781.62,532.335 1787.29,534.855 1793.38,536.459 C1795.4,536.99 1797.82,535.704 1797.82,533.393 C1797.84,527.192 1797.58,520.979 1797.2,514.783 C1806.78,517.72 1816.41,520.561 1826,523.503 C1828.35,524.225 1830.37,522.193 1830.02,519.867" id="Fill-89" fill="#F47458"></path>
            <path d="M1863.2,645.498 C1863.24,647.406 1864.46,648.623 1866.26,648.948 C1875.06,650.537 1883.78,651.354 1892.63,649.846 C1897.23,649.062 1895.59,642.211 1891.09,642.698 C1884.03,643.461 1876.75,643.865 1869.63,642.95 C1869.8,637.658 1870.48,632.425 1871.78,627.303 C1872.28,625.357 1870.99,622.741 1868.71,622.804 C1863.02,622.962 1841.51,624.209 1841.32,624.441 C1841.34,624.4 1841.38,624.251 1841.31,623.868 C1840.89,621.578 1842.57,613.807 1842.4,610.255 C1842.2,606.269 1836.9,604.82 1833.69,604.512 C1827.18,603.886 1819.96,608.584 1813.62,606.056 C1807.52,603.625 1814.38,594.059 1809.46,586.581 C1805.67,580.818 1799.15,582.55 1788.87,584.534 C1786.34,585.02 1783.88,585.523 1782.61,588.008 C1782.3,588.621 1782.24,589.524 1782.81,590.054 C1785.91,592.932 1789.62,591.634 1799.02,590.08 C1800.22,589.881 1802.24,589.173 1803.31,590.057 C1806.86,593.003 1801.66,601.102 1805.86,607.932 C1809.14,613.252 1815.69,614.23 1821.25,613.559 C1825.61,613.034 1830.99,610.497 1835.41,612.069 C1835.17,615.854 1834.82,619.673 1834.87,623.45 C1834.92,627.577 1837.03,630.452 1841.19,630.794 C1845.78,631.172 1850.56,630.541 1855.15,630.331 C1858.24,630.189 1861.32,630.061 1864.41,629.893 C1863.53,635.034 1863.1,640.228 1863.2,645.498" id="Fill-90" fill="#3CB4C5"></path>
            <path d="M1609.82,405.205 C1585.22,385.029 1572.69,403.183 1579.77,411.559 C1582.8,415.146 1588.19,415.439 1590.91,411.377 C1592.15,409.517 1590.32,406.443 1588,407.168 C1586.08,407.768 1585.63,405.591 1587.67,404.749 C1590.41,403.614 1593.74,405.625 1596.1,406.875 C1601.61,409.794 1608.8,413.502 1609.74,420.413 C1611.13,430.725 1600.65,441.634 1585.11,435.622 C1562.7,426.949 1563.76,390.279 1587.53,384.19 C1600.47,380.878 1614.36,386.371 1622.3,397.008 C1623.85,399.087 1626.62,396.653 1625.78,394.569 C1619.44,378.777 1599.28,372.757 1583.99,378.109 C1568.31,383.599 1560.5,400.127 1562.84,416.104 C1565.3,432.859 1579.62,446.797 1597.1,445.008 C1616.27,443.046 1627.02,419.311 1609.82,405.205" id="Fill-91" fill="#3CB4C5"></path>
            <path d="M1852.1,701.356 C1848.09,698.551 1839.81,696.825 1837.11,702.29 C1835.86,704.828 1836.56,707.963 1839.51,708.931 C1842.4,709.878 1845.1,708.326 1847.33,710.999 C1849.24,713.291 1848.09,716.581 1846.34,718.635 C1841.02,724.898 1829.67,722.978 1823.32,719.501 C1813.22,713.98 1811.46,699.528 1822.35,692.611 C1825.76,690.448 1829.72,689.976 1833.57,689.078 C1835.69,688.582 1836.72,685.212 1834.47,684.077 C1825.82,679.708 1815.15,685.314 1810.03,692.669 C1804.65,700.388 1804.86,711.386 1809.85,719.253 C1815.42,728.042 1826.66,732.417 1836.77,732.306 C1857.77,732.074 1865.11,710.445 1852.1,701.356" id="Fill-92" fill="#3C8F7C"></path>
            <path d="M1437.15,1349.66 C1436.5,1351.88 1436.13,1352.61 1435.32,1354.1 C1430.04,1363.71 1417.78,1377.43 1417.78,1377.43 L1408.31,1356.08 C1408.31,1356.08 1409.85,1349.37 1412.53,1339.79 C1421.68,1342.18 1430.4,1343.56 1437.15,1349.66" id="Fill-93" fill="#F8A492"></path>
            <path d="M1382.81,1331.14 C1382.81,1331.14 1435.67,1353.9 1437.38,1353.47 C1438.48,1353.19 1459.06,1318.74 1459.28048,1286.34 C1459.38,1271.38 1443.85,1253.38 1426.51,1256.94 C1417.78,1258.73 1417.92,1261.16 1405,1279.92 C1392.09,1298.69 1382.81,1331.14 1382.81,1331.14" id="Fill-94" fill="#466EB6"></path>
            <path d="M1337.69,1739.24 L1338.95,1760.05 C1339.41,1762.68 1341.23,1769.19 1341.23,1771.59 C1341.23,1780.59 1298.49,1763.95 1308.07,1759.96 C1308.93,1759.6 1313.48,1756.87 1313.76,1753.8 C1314.2,1749.08 1315.31,1739.53 1315.31,1739.53 L1337.69,1739.24" id="Fill-95" fill="#F7A491"></path>
            <path d="M1308.17,1759.87 C1308.17,1759.87 1318.21,1762.63 1323.35,1763.32 C1328.49,1764 1335.26,1758.21 1338.9,1759.77 C1342.9,1761.5 1342.74,1777.01 1342.74,1777.01 C1342.74,1777.01 1288.93,1781.42 1273.8,1776.86 C1267.8,1775.05 1287.66,1766.29 1308.17,1759.87" id="Fill-96" fill="#3C8F7C"></path>
            <path d="M1425.13,1739.24 L1426.39,1760.05 C1426.85,1762.68 1428.67,1769.19 1428.67,1771.59 C1428.67,1780.59 1385.92,1763.95 1395.5,1759.96 C1396.37,1759.6 1402.26,1754.83 1402.54,1751.77 C1402.98,1747.04 1402.75,1739.53 1402.75,1739.53 L1425.13,1739.24" id="Fill-97" fill="#F7A491"></path>
            <path d="M1395.61,1759.87 C1395.61,1759.87 1405.64,1762.63 1410.78,1763.32 C1415.92,1764 1422.7,1758.21 1426.33,1759.77 C1430.33,1761.5 1430.5,1777.01 1430.5,1777.01 C1430.5,1777.01 1376.44,1782.16 1361.23,1776.86 C1355.33,1774.8 1375.09,1766.29 1395.61,1759.87" id="Fill-98" fill="#3C8F7C"></path>
            <path d="M1421.16,1223.07 L1426.01,1253.72 C1426.01,1253.72 1407.54,1268.54 1396.78,1265.42 C1387.75,1262.79 1393.94,1250.98 1393.94,1250.98 C1393.94,1250.98 1398.75,1234.62 1397.27,1226.05 C1395.8,1217.47 1421.16,1223.07 1421.16,1223.07" id="Fill-99" fill="#F7A491"></path>
            <path d="M1417.68,1232.33 C1413.05,1234.52 1403.9,1237.5 1396.78,1238.22 C1397.46,1233.94 1397.85,1229.4 1397.27,1226.05 C1396.59,1222.09 1401.63,1221.15 1407.25,1221.29 C1414.6,1221.92 1421.16,1223.07 1421.16,1223.07 L1422.09,1228.96 C1420.69,1230.43 1419.22,1231.61 1417.68,1232.33" id="Fill-100" fill="#FE875E"></path>
            <path d="M1444.46,1187.72 C1445.22,1187.72 1437.16,1221.96 1424.69,1227.85 C1412.21,1233.74 1393.61,1230.67 1390.12,1221.45 C1386.26,1211.25 1400.34,1176.32 1417.89,1171.88 C1435.43,1167.44 1444.46,1187.72 1444.46,1187.72" id="Fill-101" fill="#F7A491"></path>
            <path d="M1430.03,1156.26 C1439.99,1162.01 1444.57,1170.53 1446.1,1174.02 C1450.78,1176.24 1456.44,1181.04 1459.16,1193.98 C1462.5,1209.88 1450.62,1222.14 1438.03,1225.83 C1425.44,1229.52 1423.5,1237.85 1423.5,1237.85 L1422.07,1228.88 C1422.07,1228.88 1424.87,1221.08 1429.08,1217.17 C1433.29,1213.26 1427.09,1207.57 1426.54,1202.92 C1426.12,1199.35 1428.75,1192.4 1428.18,1186.54 C1428.18,1186.54 1421.19,1175.93 1414.29,1173.31 C1402.54,1168.85 1417.24,1148.89 1430.03,1156.26" id="Fill-102" fill="#13375B"></path>
            <path d="M1424.72,1208.88 C1423.09,1212.84 1423.76,1216.76 1426.21,1217.65 C1428.67,1218.54 1431.98,1216.06 1433.61,1212.1 C1435.24,1208.15 1434.57,1204.22 1432.12,1203.33 C1429.67,1202.45 1426.35,1204.93 1424.72,1208.88" id="Fill-103" fill="#F7A491"></path>
            <path d="M1378.25,1362.01 L1305.64,1350.17 C1305.64,1350.17 1313.9,1329.37 1316.86,1329.37 C1319.81,1329.37 1371.76,1352.05 1371.76,1352.05 L1375.89,1360.35 L1378.25,1362.01" id="Fill-104" fill="#F8A492"></path>
            <path d="M1415.45,1411.8 C1415.45,1411.8 1422.69,1446.82 1419.74,1473.37 C1416.79,1499.92 1416.56,1594.25 1416.56,1594.25 L1427.82,1745.16 L1401.09,1745.75 C1401.09,1745.75 1369.4,1594.9 1369.99,1598.77 C1370.58,1602.65 1359.36,1492.56 1359.36,1492.56 L1397.15,1408.48 L1415.45,1411.8" id="Fill-105" fill="#184655"></path>
            <path d="M1408.36,1410.14 C1408.36,1410.14 1413.09,1441.67 1407.18,1455.5 C1401.28,1469.33 1356.55,1605.02 1355.96,1616.08 C1355.37,1627.15 1340.49,1749.44 1340.49,1749.44 L1309.41,1748.56 L1302.69,1612.6 L1316.76,1441.72 L1330.43,1398.52 L1408.36,1410.14" id="Fill-106" fill="#13375B"></path>
            <path d="M1426.01,1253.72 C1426.01,1253.72 1418.34,1258.75 1411.19,1258.16 C1404.05,1257.58 1393.94,1250.98 1393.94,1250.98 L1395.34,1246.22 C1395.34,1246.22 1413.84,1243.53 1414.3,1243.82 C1414.77,1244.11 1426.01,1253.72 1426.01,1253.72" id="Fill-107" fill="#F7A491"></path>
            <path d="M1344.32,1328.34 C1344.32,1328.34 1316.86,1354.26 1304.46,1349.84 C1292.06,1345.41 1286.93,1330.29 1317.18,1308.15 C1344.25,1288.35 1344.32,1328.34 1344.32,1328.34" id="Fill-108" fill="#F8A492"></path>
            <path d="M1325.71,1360.35 C1329.79,1338.15 1359.36,1269.07 1361.72,1256.35 C1362.87,1250.16 1378.82,1250.03 1394.02,1250.83 C1410.06,1251.69 1426.01,1253.72 1426.01,1253.72 C1426.01,1253.72 1440.21,1256.05 1446.46,1261.91 C1452.71,1267.76 1454.38,1283.96 1445.39,1314.71 C1438.3,1338.98 1429.5,1352.31 1425.15,1369.99 C1424.27,1375.92 1423.52,1381.77 1422.51,1388.61 C1420.92,1415.04 1422.53,1449.97 1422.53,1449.97 C1422.53,1449.97 1345.19,1466.01 1316.26,1441.67 C1316.26,1441.67 1321.53,1383.09 1325.71,1360.35" id="Fill-109" fill="#50BFA5"></path>
            <path d="M1305.99,1312.62 C1305.99,1312.62 1336.34,1337.67 1338.11,1337.67 C1339.25,1337.67 1381.42,1306.65 1391.15,1281.17 C1396.53,1267.08 1385.24,1251.32 1372.35,1251.36988 C1363.42,1251.41 1359.44,1253.71 1341.73,1268.65 C1324.02,1283.58 1305.99,1312.62 1305.99,1312.62" id="Fill-110" fill="#466EB6"></path>
            <path d="M1392.28,1206.64 L1403.67,1212.88 C1403.67,1212.88 1400.69,1217.67 1395.59,1215.09 C1389.37,1211.94 1392.28,1206.64 1392.28,1206.64" id="Fill-111" fill="#FFFFFF"></path>
            <path d="M671.01,1340.14 C670.118,1337.59 682.544,1335.53 683.205,1332.94 C683.867,1330.36 667.516,1330.16 666.931,1327.88 C665.852,1323.7 684.852,1327 684.478,1325.05 C684.103,1323.09 664.679,1318.72 666.778,1315.37 C668.877,1312.01 686.447,1322 686.979,1319.72 C687.511,1317.44 669.805,1311.9 670.122,1306.91 C670.291,1304.24 699.184,1320.22 702.534,1318.77 C705.885,1317.31 698.93,1304.77 701.598,1302.91 C704.266,1301.05 711.923,1328.4 713.764,1329.32 C715.599,1330.23 754.636,1352.51 768.524,1356.05 C770.211,1351.4 790.101,1322.6 791.589,1318.2 C799.382,1323.75 807.375,1324.51 815.418,1329.56 C809.592,1344.16 782.847,1384.7 778.787,1386.53 C766.427,1392.12 718.623,1352.47 709.081,1345.68 C699.53,1338.89 694.065,1341.09 687.607,1338.95 C681.149,1336.8 671.902,1342.7 671.01,1340.14" id="Fill-112" fill="#F7A491"></path>
            <path d="M936.24,1234.36 C929.09,1215.3 910.39,1203.76 890.929,1207.32 C884.956,1197.68 874.997,1190.53 864.163,1188.21 C842.791,1183.63 813.889,1192.07 814.668,1214.7 C806.378,1229.9 806.059,1251.64 818.746,1263.2 C814.332,1283.64 833.479,1303.41 858.368,1302.69 C867.035,1316.98 883.547,1326.17 899.968,1324.21 C903.909,1323.74 909.92,1322.76 910.92,1323 C909.66,1322.77 937.29,1343.95 960.7,1311.38 C984.59,1278.14 967.81,1237.91 936.24,1234.36" id="Fill-113" fill="#184655"></path>
            <path d="M869.15,1418.19 C869.86,1418.49 859.758,1431.5 849.918,1440.71 C841.983,1450.67 834.541,1462.46 831.98,1475.31 C828.085,1494.85 831.325,1591.39 827.935,1598.26 C798.817,1626.73 777.731,1698.17 771.813,1719.97 C770.659,1724.22 768.322,1728.04 765.082,1731.02 L766.377,1755.65 L780.845,1768.98 C780.845,1768.98 777.627,1748.91 784.058,1734.02 C784.058,1734.02 857.37,1623 861.722,1614.51 C870.037,1590.34 900.315,1466.52 900.315,1466.52 L907.34,1438.05 L869.15,1418.19" id="Fill-114" fill="#F7A491"></path>
            <path d="M749.233,1738.95 C749.233,1738.95 758.39,1753.06 759.172,1758.56 C759.955,1764.06 764.832,1776.53 770.226,1777.32 C771.451,1777.5 792.431,1779.04 792.278,1776.42 C792.162,1774.41 784.567,1771.55 781.041,1769.12 C774.945,1764.91 765.484,1730.62 765.484,1730.62 C765.484,1730.62 749.628,1734.55 749.233,1738.95" id="Fill-115" fill="#355389"></path>
            <path d="M872.213,1267.4 C872.213,1267.4 902.894,1212.22 910.36,1200.49 C917.82,1188.76 937.27,1142.15 937.96,1140.32 C938.66,1138.48 924.57,1116.42 927.71,1115.67 C930.86,1114.91 934.34,1127.29 937.69,1125.82 C941.05,1124.34 950.85,1094.52 952.76,1096 C956.33,1098.77 947.48,1114.5 949.38,1115.49 C951.29,1116.48 957.06,1098.18 960.81,1098.72 C964.55,1099.26 953.69,1115.49 954.74,1116.92 C955.78,1118.36 967.06,1103.06 969.1,1106.32 C970.21,1108.09 958.73,1119.67 960.94,1120.76 C963.14,1121.84 973.35,1114.37 974.43,1116.52 C975.52,1118.68 964.99,1121.63 961.84,1127.44 C958.7,1133.25 953.34,1135.76 951.11,1146.52 C948.88,1157.28 945.56,1196.22 934.15,1215.64 C922.75,1235.07 897.677,1278.06 897.677,1278.06 L872.213,1267.4" id="Fill-116" fill="#F79C8D"></path>
            <path d="M931.81,1460.98 C931.81,1460.98 979.03,1561.94 979.33,1579.69 C979.59,1594.91 971.08,1680.28 973.46,1751.37 C973.54,1753.94 976.79,1757.35 981.52,1759.52 C984.19,1760.74 997.05,1766.48 997.05,1766.48 L998.81,1771.08 L954.53,1767.93 L953.9,1755.84 C953.9,1755.84 936.27,1649.49 938.07,1619.41 C938.35,1614.68 940.65,1586.4 940.65,1586.4 L887.391,1483.58 L920.88,1439.56 L931.81,1460.98" id="Fill-117" fill="#F7A491"></path>
            <polyline id="Fill-118" fill="#F47458" points="823.573 1582.26 823.591 1582.26 823.573 1582.26"></polyline>
            <path d="M891.118,1297.27 C892.388,1289.51 904.4,1270.08 906.3,1265.32 C906.3,1265.32 892.37,1247.62 881.064,1248.96 C881.064,1248.96 865.871,1274.15 857.232,1274.99 C848.595,1275.84 818.211,1277.16 812.885,1280.39 C807.56,1283.62 784.96,1318.32 784.96,1318.32 C784.96,1318.32 805.268,1339.06 813.438,1339.01 C813.438,1339.01 817.781,1330.46 819.511,1328.59 C820.742,1332.57 839.663,1393.87 839.636,1407.76 L839.782,1407.88 C857.47,1422.22 883.277,1418.9 896.919,1400.53 C896.919,1400.53 895.315,1381.42 896.224,1363.8 C897.649,1336.19 903.237,1321.52 891.118,1297.27" id="Fill-119" fill="#3C8F7C"></path>
            <path d="M989.6,1534.43 L896.919,1400.53 C891.201,1402.85 885.799,1404.86 879.689,1406.04 C866.4,1408.61 853.092,1408.19 839.636,1407.76 C839.636,1408.26 839.609,1408.7 839.557,1409.07 C838.011,1420.11 823.369,1437.2 820.351,1470.7 C816.925,1508.72 818.997,1574.77 820.157,1579.11 C881.773,1571.62 972.12,1552.78 989.6,1534.43" id="Fill-120" fill="#F7CC7F"></path>
            <path d="M841.603,1252.67 C841.603,1252.67 844.861,1270.23 844.209,1277.15 C843.557,1284.08 846.695,1306.39 860.771,1306.47013 C874.847,1306.54 863.444,1278.09 862.118,1271.31 C860.792,1264.52 860.478,1243.52 860.478,1243.52 L841.603,1252.67" id="Fill-121" fill="#F7A491"></path>
            <path d="M860.769,1254.05 C860.55,1248.31 860.478,1243.52 860.478,1243.52 L841.603,1252.67 C841.603,1252.67 842.269,1256.26 842.938,1260.83 C851.201,1262.56 857.188,1259.38 860.769,1254.05" id="Fill-122" fill="#F47458"></path>
            <path d="M834.703,1204.22 C834.703,1204.22 827.429,1208.42 824.77,1217.53 C822.111,1226.64 825.138,1250.14 843.927,1255.81 C862.716,1261.48 870.856,1242.87 866.986,1228.32 C863.116,1213.77 854.698,1195.35 834.703,1204.22" id="Fill-123" fill="#F7A491"></path>
            <path d="M869.335,1222.68 C868.968,1226.59 866.897,1229.58 864.711,1229.35 C862.525,1229.13 861.052,1225.78 861.42,1221.88 C861.788,1217.97 863.858,1214.98 866.044,1215.2 C868.23,1215.43 869.704,1218.78 869.335,1222.68" id="Fill-124" fill="#F7A491"></path>
            <path d="M830.18,1237.74 C832.388,1241.16 832.379,1245.19 830.162,1246.74 C827.945,1248.29 824.359,1246.78 822.151,1243.37 C819.944,1239.95 819.952,1235.92 822.169,1234.37 C824.386,1232.82 827.973,1234.33 830.18,1237.74" id="Fill-125" fill="#F7A491"></path>
            <path d="M954.38,1776.36 L1010.32,1776.36 C1012.39,1776.17 1012.9,1774.5 1012.18,1773.47 C1010.7,1771.36 1004.17,1769.8 996.84,1766.42 C983.97,1767.76 955.95,1758.97 953.92,1756.02 C952.75,1761.93 953.23,1776.11 954.38,1776.36" id="Fill-126" fill="#355389"></path>
            <path d="M844.282,1241.63 L856.29,1238.09 C856.29,1238.09 857.379,1242.82 852.145,1244.53 C845.761,1246.62 844.282,1241.63 844.282,1241.63" id="Fill-127" fill="#FFFFFF"></path>
            <path d="M539.581,964.439929 C541.144,964.51 545.429,965.94 551.695,977.78 C559.697,992.91 571.392,1038.59 571.392,1038.59 L536.483,1051.59 L531.998,1042.05 L524.612,968.65 C524.612,968.65 539.147,964.42 539.581,964.439929" id="Fill-128" fill="#3C8F7C"></path>
            <path d="M493.435,957.859767 C503.417,957.87 528.116,960.78 539.58,964.45 C539.58,964.45 548.001,1036.83 531.998,1091.83 C528.416,1104.14 534.961,1142.87 534.961,1142.87 L431.522,1141.5 C431.522,1141.5 443.777,1047.88 439.16,1032.76 C434.544,1017.64 434.434,964.93 434.434,964.93 C434.434,964.93 435.143,964.82 457.674,960.93 C468.183,959.11 482.777,957.84 493.435,957.859767" id="Fill-129" fill="#96D9C9"></path>
            <path d="M481.382,1277.21 C481.382,1277.21 483.67,1303.62 487.877,1310.94 C492.085,1318.25 487.656,1330.69 487.435,1332.39 C487.213,1334.1 478.577,1336.54 464.848,1335.07 C451.118,1333.61 451.339,1330.44 452.447,1325.32 C453.554,1320.2 460.861,1313.62 461.304,1308.74 C461.747,1303.87 457.097,1286.31 457.097,1286.31 L481.382,1277.21" id="Fill-130" fill="#F7A491"></path>
            <path d="M523.29,1121.07 C523.29,1121.07 594.694,1117.1 610.639,1126.76 C626.583,1136.42 599.311,1183.81 599.311,1183.81 C599.311,1183.81 549.625,1181.52 452.306,1187.14 C429.261,1188.47 427.274,1127.05 431.583,1121.96 C435.893,1116.88 523.29,1121.07 523.29,1121.07" id="Fill-131" fill="#355389"></path>
            <path d="M463.135,1337.12 C448.997,1335.62 450.746,1328.67 451.886,1323.4 C452.6,1320.1 456.655,1316.21 459.073,1312.53 C460.337,1313.53 462.393,1315.31 468.532,1317.12 C474.907,1319.01 483.647,1315.28 489.216,1312.95 C491.201,1320.33 491.292,1329.75 491.106,1331.18 C490.878,1332.94 477.273,1338.63 463.135,1337.12" id="Fill-132" fill="#13375B"></path>
            <path d="M470.938,1172.15 C473.791,1193.74 487.916,1301.2 487.916,1301.2 L455.143,1305.26 C455.143,1305.26 414.84,1165 416.906,1143.54 C418.973,1122.09 434.059,1120.28 434.059,1120.28 C434.059,1120.28 463.388,1115.01 470.938,1172.15" id="Fill-133" fill="#466EB6"></path>
            <path d="M433.308,972.98 C442.979,969.35 447.71,1056.49 449.015,1092.36 C466.141,1094.01 495.993,1092.37 503.426,1091.81 C506.922,1091.55 514.982,1088.6 518.459,1088.14 C522.022,1087.68 525.251,1087.43 527.003,1087.74 C527.646,1087.85 545.498,1095.15 547.025,1096.75 C548.919,1098.74 554.039,1103.75 553.174,1105.91 C552.311,1108.08 543.327,1099.88 543.327,1099.88 L538.938,1097.41 C544.402,1102.75 554.827,1109.78 553.325,1112.34 C551.861,1114.84 542.458,1107.71 535.756,1102.84 C541.504,1108.03 548.646,1117.33 547,1118.77 C545.521,1120.08 537.398,1109.32 528.717,1106.22 C525.5,1105.07 522.293,1108.25 519.763,1108.64 C517.903,1108.92 515.031,1109.52 513.207,1109 L503.808,1106.34 C500.605,1106.63 500.525,1108.52 497.292,1109.21 C493.538,1110.01 487.379,1110.85 482.599,1112.02 C455.071,1118.74 445.889,1121.87 437.461,1121.86002 C411.932,1121.84 410.451,981.55 433.308,972.98" id="Fill-134" fill="#F7A491"></path>
            <path d="M414.954,1054.79 C413.142,1018.05 413.407,972.77 434.002,965.04 C442.129,961.99 456.454,980.32 453.878,1055.54 C442.883,1056.44 426.742,1057.17 414.954,1054.79" id="Fill-135" fill="#3C8F7C"></path>
            <path d="M577.219,1299.8 C577.219,1299.8 574.359,1308.97 579.48,1315.04 C584.601,1321.1 605.878,1327.05 608.671,1330.33 C611.464,1333.62 611.252,1336.41 611.252,1336.41 L551.533,1334.77 L552.184,1316.73 L554.934,1303.77 L577.219,1299.8" id="Fill-136" fill="#F7A491"></path>
            <path d="M583.194,1318.06 C583.194,1318.06 567.849,1324.27 560.437,1320.59 C553.025,1316.92 553.249,1315.9 551.104,1317.27 C548.959,1318.64 548.191,1335.55 548.191,1335.55 L615.344,1337.52 C620.017,1337.41 622.38,1333.97 618.583,1331.02 C615.98,1329 612.971,1327.65 611.261,1326.67 C606.008,1323.66 583.194,1318.06 583.194,1318.06" id="Fill-137" fill="#13375B"></path>
            <path d="M574.956,1137.99 C579.571,1128.28 590.069,1115.63 608.54,1123.25 C626.156,1130.51 630.885,1148.37 625.326,1166.65 C619.769,1184.93 583.177,1292.41 581.901,1307.19 L552.686,1307.38 C552.686,1307.38 557.995,1222.28 559.298,1201.71 C560.551,1181.92 566.967,1154.8 574.956,1137.99" id="Fill-138" fill="#466EB6"></path>
            <path d="M622.384,1039 L524.723,1039 C522.139,1039 519.811,1040.57 518.831,1042.97 L488.76,1116.56 L434.919,1116.56 C433.413,1116.56 432.192,1117.78 432.192,1119.29 C432.192,1120.8 433.413,1122.03 434.919,1122.03 L588.156,1122.03 C592.369,1122.03 596.189,1119.54 597.915,1115.69 L628.194,1048.01 C630.085,1043.78 627.003,1039 622.384,1039" id="Fill-139" fill="#12353D"></path>
            <path d="M569.803,1081.86 C569.144,1085.16 566.27,1087.37 563.385,1086.79 C560.5,1086.21 558.696,1083.07 559.356,1079.76 C560.016,1076.45 562.889,1074.24 565.774,1074.82 C568.659,1075.4 570.463,1078.55 569.803,1081.86" id="Fill-140" fill="#FFFFFF"></path>
            <path d="M516.644,869.453 C513.701,868.461 510.803,867.343 508.004,865.993 C504.842,864.468 500.743,862.682 498.153,862.282 C492.703,861.44 483.34,862.001 478.169,867.61 C471.727,874.599 460.281,868.873 462.586,905.47 C465.197,946.9 488.231,942.35 488.79,941.65 C489.349,940.95 509.333,915.15 509.333,915.15 C509.333,915.15 516.321,930.43 516.321,929.87 C516.321,929.33 552,881.359 516.644,869.453" id="Fill-141" fill="#0E2E35"></path>
            <path d="M499.157,944.71 L501.146,959.51 C501.146,959.51 505.6,980.84 499.869,984.95 C494.139,989.06 475.499,958.9 475.499,958.9 L477.468,921.4 L499.157,944.71" id="Fill-142" fill="#F7A491"></path>
            <path d="M476.832,933.55 C481.565,946.35 492.84,954.21 500.843,957.26 L499.157,944.71 L477.468,921.4 L476.832,933.55" id="Fill-143" fill="#F47458"></path>
            <path d="M497.98,880.579 C510.123,878.619 521.015,888.385 520.711,900.541 C520.58,905.82 520.146,912.42 519.048,919.53 C516.408,936.62 504.75,951.66 497.042,950.32 C489.333,948.97 469.937,934.23 473.352,909.92 C475.46,894.904 485.237,882.636 497.98,880.579" id="Fill-144" fill="#F7A491"></path>
            <path d="M478.701,912.82 C478.05,916.58 475.041,919.19 471.978,918.66 C468.916,918.12 466.961,914.64 467.611,910.89 C468.262,907.13 471.271,904.52 474.334,905.05 C477.396,905.58 479.351,909.06 478.701,912.82" id="Fill-145" fill="#F7A491"></path>
            <path d="M474.334,905.05 C474.334,905.05 483.654,907.37 487.113,901.37 C490.572,895.375 502.94,882.439 518.662,887.803 C534.384,893.167 504.827,874.762 503.569,874.762 C502.311,874.762 487.218,874.657 487.218,874.657 C487.218,874.657 475.583,884.228 475.164,885.279 C474.745,886.331 471.391,897.794 471.391,897.794 L474.334,905.05" id="Fill-146" fill="#0E2E35"></path>
            <path d="M491.386,930.06 L508.345,933.3 C508.345,933.3 506.727,939.69 499.228,938.48 C490.084,937.01 491.386,930.06 491.386,930.06" id="Fill-147" fill="#FFFFFF"></path>
            <path d="M1960.91,1775.23 L192.492,1775.23 C189.029,1775.23 186.221,1778.04 186.221,1781.5 C186.221,1784.96 189.029,1787.77 192.492,1787.77 L1960.91,1787.77 C1964.38,1787.77 1967.18,1784.96 1967.18,1781.5 C1967.18,1778.04 1964.38,1775.23 1960.91,1775.23" id="Fill-148" fill="#12353D"></path>
            <path d="M1598.96,1319.73 C1598.07,1317.18 1610.5,1315.11 1611.16,1312.53 C1611.82,1309.94 1595.47,1309.74 1594.89,1307.47 C1593.81,1303.29 1612.81,1306.59 1612.43,1304.64 C1612.06,1302.68 1592.63,1298.31 1594.73,1294.95 C1596.83,1291.6 1614.4,1301.59 1614.93,1299.31 C1615.47,1297.03 1597.76,1291.49 1598.08,1286.5 C1598.25,1283.83 1627.14,1299.8 1630.49,1298.35 C1633.84,1296.9 1626.88,1284.36 1629.55,1282.5 C1632.22,1280.64 1639.88,1307.99 1641.72,1308.9 C1643.55,1309.81 1682.59,1332.09 1696.48,1335.64 C1698.17,1330.98 1701.81,1324.71 1703.3,1320.31 C1711.09,1325.86 1716.88,1328.64 1724.92,1333.7 C1719.09,1348.3 1710.8,1364.29 1706.74,1366.12 C1694.38,1371.7 1646.58,1332.06 1637.04,1325.27 C1627.48,1318.48 1622.02,1320.68 1615.56,1318.54 C1609.1,1316.39 1599.86,1322.29 1598.96,1319.73" id="Fill-149" fill="#F7A491"></path>
            <path d="M1743.17,1291.89 C1746.86,1307.1 1727.17,1341 1727.17,1341 C1727.17,1341 1699.11,1327.76 1694.17,1322.05 C1694.17,1322.05 1713.24,1289.16 1714.49,1287.16 C1720.14,1278.1 1727.82,1278.09 1732.83,1278.68 C1736.85,1279.15 1743.17,1291.89 1743.17,1291.89" id="Fill-150" fill="#EAB765"></path>
        </g>
    </g>
</svg>