<?xml version="1.0" encoding="UTF-8"?>
<svg width="2521px" height="1702px" viewBox="0 0 2521 1702" version="1.1" xmlns="http://www.w3.org/2000/svg" xmlns:xlink="http://www.w3.org/1999/xlink">
    <title>harmony</title>
    <g id="code-of-conduct" stroke="none" stroke-width="1" fill="none" fill-rule="evenodd">
        <g id="harmony">
            <path d="M2199.74,487.277 C2199.74,487.277 2162.46,568.443 2137.37,602.729 C2112.28,637.014 2088.38,669.8 2068.37,764.96 C2048.35,860.12 2051.78,869.68 2046.3,894.26 C2040.82,918.84 2005.17,1018.42 2004.96,1036.68 C2004.75,1054.94 1932.9,1158.89 1914.49,1207.55 C1896.09,1256.2 1863.48,1325.7 1865.32,1361.08 L1873.51,1359 C1873.51,1359 1880.18,1276.5 1936.98,1193.12 C1993.79,1109.74 1985.66,1094 2050.17,1051.16 C2114.67,1008.33 2156.33,890.01 2156.33,890.01 C2156.33,890.01 2221.95,761.486 2218.9,694.675 C2215.85,627.863 2233.26,567.609 2199.74,487.277" id="Fill-5" fill="#256653"></path>
            <path d="M2112.43,362.442 C2112.43,362.442 2110.26,415.759 2093.06,447.432 C2075.87,479.105 2061.05,498.342 2057.93,532.61 C2054.81,566.878 2044.01,655.225 1996.05,698.355 C1948.09,741.485 1941.97,870.72 1905.46,909.81 C1868.96,948.91 1864.19,977.01 1870.93,1044.06 C1877.67,1111.11 1900.57,1204.03 1847.62,1325.32 L1835.65,1295.15 C1835.65,1295.15 1873.53,1195.37 1864.36,1136.94 C1855.19,1078.52 1823.28,990.23 1834.96,947.89 C1846.64,905.55 1803.2,897.28 1829.36,833.24 C1855.51,769.201 1844.77,746.951 1880.38,691.581 C1880.38,691.581 1884.03,688.988 1893.39,642.142 C1902.75,595.294 1978.22,509.43 2013,480.129 C2047.77,450.828 2097.89,403.869 2112.43,362.442" id="Fill-6" fill="#256653"></path>
            <path d="M1970.78,626.425 C1970.78,626.425 1929.13,697.729 1928.54,743.623 C1927.95,789.517 1932.92,826.85 1911.85,889.69 C1890.78,952.54 1932.6,992.27 1920.54,1026.97 C1908.49,1061.67 1907.56,1102.75 1907.92,1133.9 C1908.29,1165.06 1860.22,1268.16 1852.9,1320.36 C1845.59,1372.57 1854.94,1372.74 1854.94,1372.74 C1854.94,1372.74 1862.91,1303.82 1873.97,1281.03 C1885.03,1258.24 1918.66,1179.66 1926.52,1149.26 C1934.37,1118.86 1955.67,1099.35 1974.04,1047.87 C1992.41,996.38 2018.53,953.02 2016.54,879.96 C2014.54,806.908 2043.94,729.8 1970.78,626.425" id="Fill-7" fill="#3C8F7C"></path>
            <path d="M1882.61,1324.9 C1882.61,1324.9 1902.03,1234.41 1983.92,1225.37 C2065.82,1216.34 2113.93,1232.53 2171.78,1166.42 C2229.64,1100.3 2263.24,995.39 2281.72,977.33 C2281.72,977.33 2252.65,962.37 2204.33,1007.55 C2156,1052.73 2122.05,1087.01 2094.07,1113.31 C2066.1,1139.62 2043.38,1122.47 2013.84,1139.81 C1989.08,1154.34 1957.07,1196.35 1942.97,1218.35 C1938.39,1225.5 1932.96,1232.06 1926.72,1237.81 C1921.05,1243.05 1914.29,1249.47 1909.96,1254.19 C1901.29,1263.64 1876.28,1325.23 1876.28,1325.23 L1882.61,1324.9" id="Fill-8" fill="#3C8F7C"></path>
            <path d="M1853.74,1308.94 C1853.74,1308.94 1882.61,1198.27 1863.27,1144.11 C1843.94,1089.96 1783.42,1049.88 1785.85,1015.86 C1788.28,981.84 1827.14,889.89 1795.46,821.44 C1795.46,821.44 1783.42,882.5 1771.55,896.08 C1759.67,909.67 1678.18,964.44 1692.63,1036.79 C1707.07,1109.13 1786.3,1126.04 1805.81,1147.34 C1825.32,1168.63 1851.67,1168.61 1851.83,1182.77 C1852,1196.93 1857.14,1248.42 1848.39,1299.23 L1853.74,1308.94" id="Fill-9" fill="#3C8F7C"></path>
            <path d="M1885.3,1234.88 L1925.85,1118.08 C1925.85,1118.08 1949.67,1024.13 1963.47,945.79 C1977.28,867.45 1970.78,626.425 1970.78,626.425 C1970.78,626.425 1929.13,697.729 1928.54,743.623 C1927.95,789.517 1932.92,826.85 1911.85,889.69 C1890.78,952.54 1932.6,992.27 1920.54,1026.97 C1908.49,1061.67 1907.56,1102.75 1907.92,1133.9 C1908.29,1165.06 1860.22,1268.16 1852.9,1320.36 C1848.9,1348.96 1849.89,1361.93 1851.61,1367.82 C1845.11,1322.16 1885.3,1234.88 1885.3,1234.88" id="Fill-10" fill="#327F6B"></path>
            <path d="M2085.02,1165.3 C2048.85,1172.52 2016.51,1170.06 1973.57,1202.02 C1930.63,1233.98 1905.38,1268.11 1905.38,1268.11 C1905.38,1268.11 1886.08,1302.6 1878.1,1320.79 C1876.95,1323.57 1876.28,1325.23 1876.28,1325.23 L1882.61,1324.9 C1882.61,1324.9 1902.03,1234.41 1983.92,1225.37 C2065.82,1216.34 2113.93,1232.53 2171.78,1166.42 C2229.64,1100.3 2263.24,995.39 2281.72,977.33 C2281.72,977.33 2220.19,1025.2 2182.16,1067.57 C2144.14,1109.93 2121.2,1158.07 2085.02,1165.3" id="Fill-11" fill="#327F6B"></path>
            <path d="M1771.55,896.08 C1759.67,909.67 1678.18,964.44 1692.63,1036.79 C1707.07,1109.13 1786.3,1126.04 1805.81,1147.34 C1825.32,1168.63 1851.67,1168.61 1851.83,1182.77 C1852,1196.93 1857.14,1248.42 1848.39,1299.23 L1850.73,1303.47 C1855,1283.64 1860.93,1253.44 1862.87,1230.51 C1866.02,1193.28 1859.99,1177.86 1848.02,1147.7 C1836.05,1117.53 1761.68,1056.09 1743.04,1023.79 C1724.41,991.48 1778.98,937.49 1791.09,911.42 C1803.2,885.35 1795.46,821.44 1795.46,821.44 C1795.46,821.44 1783.42,882.5 1771.55,896.08" id="Fill-12" fill="#327F6B"></path>
            <path d="M1964.88,1255.47 L1977.61,1224.7 C1987.49,1202.07 2012.76,1191.27 2034.06,1200.57 C2087.75,1224 2111.08,1289.22 2086.19,1346.25 L2067.99,1387.94 C2060.02,1406.2 2062.79,1426.3 2073.55,1440.46 C2083.31,1453.33 2084.9,1471.22 2078.13,1486.73 L2068.54,1508.71 C2058.15,1532.5 2037.94,1550.13 2013.97,1557.4 C1999.95,1561.65 1987.57,1572.17 1981.02,1587.17 L1967.44,1618.29 C1952.42,1652.69 1913.99,1669.12 1881.6,1654.99 L1863.12,1646.92 C1830.73,1632.78 1816.65,1593.43 1831.67,1559.02 C1855.96,1517.88 1854.02,1487.18 1845.41,1466.35 C1832.76,1435.73 1832.91,1400.5 1846.6,1369.14 L1848.52,1364.74 C1862.96,1331.64 1890.87,1306.93 1924.09,1296.35 C1938.76,1291.68 1954.05,1280.27 1964.88,1255.47" id="Fill-13" fill="#50BFA5"></path>
            <path d="M1735.66,1689.96 C1761.71,1656.18 1904.56,1475.24 1997.7,1445.08 C2100.52,1411.8 2003.61,1544 2003.61,1544 C2003.61,1544 2186,1344.56 2252.94,1362.54 C2314.29,1379.02 2252.94,1502.64 2252.94,1502.64 C2252.94,1502.64 2322.04,1434.18 2405.84,1434.18 C2487.39,1434.18 2348.86,1676.96 2341.38,1689.96 L1735.66,1689.96" id="Fill-14" fill="#96D9C9"></path>
            <path d="M2285.32,1298.52 C2210.8,1414.91 2156.41,1544.2 2125.32,1681.55 L2120.21,1680.18 C2151.17,1545.7 2205.2,1416.64 2279.59,1300.38 C2296.88,1273.37 2315.55,1241.31 2347.93,1230.77 C2348.55,1230.57 2348.79,1231.52 2348.19,1231.74 C2318.62,1242.88 2301.5,1273.26 2285.32,1298.52" id="Fill-15" fill="#3C8F7C"></path>
            <path d="M2143.28,1686.37 C2226.56,1573.13 2327.79,1468.46 2448.17,1377.44 C2449.38,1376.53 2451,1378.63 2449.79,1379.56 C2335.62,1467.32 2234.61,1570.95 2149.61,1688.06 L2143.28,1686.37" id="Fill-16" fill="#3C8F7C"></path>
            <path d="M2292.13,1226.35 C2294.05,1229.17 2301.39,1236.53 2303.55,1246.19 C2306.45,1255.36 2304.16,1266.84 2303.91,1266.44 C2303.36,1266.67 2312.41,1259.02 2315.24,1246.85 C2318.9,1235.17 2316.34,1218.98 2311.78,1213.62 C2303.92,1201.49 2290.18,1200.26 2287.51,1206.14 C2284.68,1211.98 2288.27,1219.93 2292.13,1226.35" id="Fill-17" fill="#3C8F7C"></path>
            <path d="M2309.96,1330.23 C2307.18,1328.26 2299.96,1320.77 2290.34,1318.42 C2281.23,1315.35 2269.71,1317.41 2270.1,1317.66 C2269.87,1318.21 2277.69,1309.31 2289.92,1306.73 C2301.66,1303.3 2317.8,1306.18 2323.07,1310.84 C2335.04,1318.94 2336,1332.7 2330.07,1335.25 C2324.17,1337.96 2316.3,1334.22 2309.96,1330.23" id="Fill-18" fill="#3C8F7C"></path>
            <path d="M2283.05,1375.76 C2280.27,1373.79 2273.06,1366.3 2263.44,1363.96 C2254.33,1360.88 2242.8,1362.94 2243.2,1363.19 C2242.96,1363.74 2250.79,1354.84 2263.01,1352.26 C2274.76,1348.83 2290.9,1351.71 2296.17,1356.37 C2308.14,1364.47 2309.1,1378.23 2303.17,1380.78 C2297.27,1383.5 2289.39,1379.75 2283.05,1375.76" id="Fill-19" fill="#3C8F7C"></path>
            <path d="M2379.02,1481.38 C2376.24,1479.4 2369.03,1471.91 2359.4,1469.57 C2350.29,1466.49 2338.77,1468.55 2339.17,1468.8 C2338.93,1469.35 2346.75,1460.45 2358.98,1457.87 C2370.72,1454.44 2386.86,1457.32 2392.13,1461.98 C2404.1,1470.08 2405.06,1483.84 2399.13,1486.39 C2393.23,1489.11 2385.36,1485.36 2379.02,1481.38" id="Fill-20" fill="#3C8F7C"></path>
            <path d="M2428.05,1438.18 C2425.27,1436.21 2418.05,1428.72 2408.43,1426.37 C2399.32,1423.29 2387.8,1425.36 2388.19,1425.61 C2387.95,1426.16 2395.78,1417.26 2408.01,1414.67 C2419.75,1411.25 2435.89,1414.13 2441.16,1418.78 C2453.13,1426.88 2454.09,1440.64 2448.16,1443.2 C2442.26,1445.91 2434.39,1442.17 2428.05,1438.18" id="Fill-21" fill="#3C8F7C"></path>
            <path d="M2254.49,1277.87 C2256.83,1280.35 2265.24,1286.46 2268.89,1295.67 C2273.2,1304.26 2272.75,1315.96 2272.44,1315.6 C2271.93,1315.92 2279.66,1306.93 2280.54,1294.47 C2282.31,1282.36 2277.23,1266.78 2271.89,1262.2 C2262.21,1251.46 2248.45,1252.42 2246.74,1258.64 C2244.87,1264.86 2249.67,1272.14 2254.49,1277.87" id="Fill-22" fill="#3C8F7C"></path>
            <path d="M2214.92,1329.5 C2218.25,1331.27 2229.89,1334.47 2235.74,1343.18 C2242.36,1350.92 2243.2,1364.17 2242.76,1363.9 C2242.14,1364.47 2251.05,1351.12 2250.66,1336.83 C2251.49,1322.56 2243.01,1307.35 2235.54,1304.54 C2221.71,1296.71 2204.01,1303.69 2202.56,1311.38 C2200.89,1319.12 2207.99,1325.18 2214.92,1329.5" id="Fill-23" fill="#3C8F7C"></path>
            <path d="M2173.29,1407.71 C2176.87,1408.89 2188.87,1410.09 2196.1,1417.69 C2203.93,1424.21 2206.99,1437.13 2206.51,1436.94 C2205.99,1437.6 2212.53,1422.95 2209.75,1408.93 C2208.16,1394.72 2197.25,1381.15 2189.41,1379.63 C2174.46,1374.25 2158.19,1384.1 2158.05,1391.92 C2157.7,1399.83 2165.72,1404.62 2173.29,1407.71" id="Fill-24" fill="#3C8F7C"></path>
            <path d="M2296.5,1462.19 C2299.11,1463.82 2308.39,1467.08 2312.65,1474.5 C2317.59,1481.17 2317.52,1492 2317.18,1491.75 C2316.64,1492.18 2324.65,1481.83 2325.15,1470.19 C2326.64,1458.63 2320.61,1445.77 2314.69,1443.05 C2303.88,1435.9 2289.09,1440.57 2287.47,1446.74 C2285.67,1452.94 2291.1,1458.28 2296.5,1462.19" id="Fill-25" fill="#3C8F7C"></path>
            <path d="M2360.65,1244.66 C2359.09,1243.37 2355.15,1238.62 2349.56,1236.81 C2344.3,1234.59 2337.4,1235.31 2337.62,1235.48 C2337.46,1235.79 2342.47,1230.87 2349.82,1229.88 C2356.92,1228.36 2366.34,1230.77 2369.25,1233.76 C2375.98,1239.07 2375.94,1247.25 2372.32,1248.5 C2368.72,1249.85 2364.22,1247.29 2360.65,1244.66" id="Fill-26" fill="#3C8F7C"></path>
            <path d="M2345.71,1211.42 C2345.78,1213.45 2347.13,1219.46 2345.15,1224.99 C2343.7,1230.51 2338.92,1235.54 2338.92,1235.27 C2338.57,1235.21 2345.53,1234.23 2350.8,1229.02 C2356.34,1224.33 2360.18,1215.39 2359.59,1211.26 C2359.49,1202.69 2352.99,1197.72 2349.79,1199.83 C2346.52,1201.86 2345.8,1206.98 2345.71,1211.42" id="Fill-27" fill="#3C8F7C"></path>
            <path d="M2463.36,1394.18 C2461.8,1392.9 2457.86,1388.15 2452.27,1386.34 C2447.01,1384.12 2440.11,1384.84 2440.33,1385 C2440.16,1385.32 2445.18,1380.4 2452.53,1379.4 C2459.63,1377.89 2469.05,1380.3 2471.96,1383.28 C2478.69,1388.6 2478.65,1396.78 2475.03,1398.03 C2471.43,1399.38 2466.93,1396.82 2463.36,1394.18" id="Fill-28" fill="#3C8F7C"></path>
            <path d="M2445.33,1360.66 C2445.57,1362.67 2447.41,1368.56 2445.89,1374.23 C2444.89,1379.85 2440.54,1385.26 2440.52,1384.98 C2440.17,1384.95 2447.03,1383.41 2451.86,1377.79 C2456.98,1372.65 2460.08,1363.44 2459.16,1359.37 C2458.36,1350.83 2451.47,1346.41 2448.45,1348.77 C2445.36,1351.07 2445.07,1356.23 2445.33,1360.66" id="Fill-29" fill="#3C8F7C"></path>
            <path d="M2432.79,1577.28 C2356.7,1585.62 2285.83,1619.21 2217.6,1651.96 C2171.6,1674.05 2173.92,1680.34 2164.55,1683.63 C2163.03,1684.16 2161.51,1682.51 2162.25,1681.05 C2165.85,1673.91 2175.31,1669.08 2181.88,1664.97 C2189.54,1660.19 2197.54,1655.96 2205.65,1652.02 C2223.02,1643.59 2240.83,1636.01 2258.53,1628.32 C2294.54,1612.67 2331.14,1597.95 2369.18,1587.99 C2390.04,1582.53 2411.26,1578.59 2432.74,1576.66 C2433.14,1576.62 2433.19,1577.23 2432.79,1577.28" id="Fill-30" fill="#3C8F7C"></path>
            <path d="M2364.21,1553.68 C2364.7,1556.81 2367.96,1565.87 2365.95,1574.82 C2364.76,1583.65 2358.31,1592.37 2358.27,1591.94 C2357.71,1591.91 2368.32,1589.07 2375.49,1579.98 C2383.16,1571.64 2387.4,1557.06 2385.7,1550.77 C2383.9,1537.5 2372.87,1531.05 2368.31,1534.93 C2363.63,1538.71 2363.51,1546.78 2364.21,1553.68" id="Fill-31" fill="#3C8F7C"></path>
            <path d="M2297.17,1577.69 C2297.67,1580.81 2300.92,1589.87 2298.91,1598.83 C2297.72,1607.66 2291.28,1616.38 2291.23,1615.94 C2290.68,1615.91 2301.28,1613.07 2308.45,1603.99 C2316.13,1595.65 2320.37,1581.06 2318.67,1574.77 C2316.86,1561.5 2305.83,1555.05 2301.27,1558.93 C2296.6,1562.71 2296.47,1570.79 2297.17,1577.69" id="Fill-32" fill="#3C8F7C"></path>
            <path d="M2229.06,1608.05 C2229.55,1611.17 2232.8,1620.23 2230.8,1629.19 C2229.61,1638.02 2223.16,1646.74 2223.12,1646.3 C2222.56,1646.28 2233.17,1643.43 2240.34,1634.35 C2248.01,1626.01 2252.25,1611.42 2250.55,1605.13 C2248.75,1591.87 2237.71,1585.41 2233.16,1589.29 C2228.48,1593.07 2228.36,1601.15 2229.06,1608.05" id="Fill-33" fill="#3C8F7C"></path>
            <path d="M2384.22,1616.32 C2382.84,1613.74 2380.18,1605.25 2373.71,1599.77 C2367.9,1593.92 2358.28,1591.1 2358.49,1591.44 C2358.1,1591.77 2367.5,1587.95 2377.85,1590.64 C2388.16,1592.5 2399.43,1600.88 2401.69,1606.47 C2407.76,1617.25 2403.23,1628.16 2397.71,1627.85 C2392.16,1627.68 2387.55,1621.79 2384.22,1616.32" id="Fill-34" fill="#3C8F7C"></path>
            <path d="M2314.49,1641 C2313.12,1638.42 2310.45,1629.93 2303.98,1624.45 C2298.17,1618.6 2288.55,1615.78 2288.76,1616.12 C2288.37,1616.45 2297.77,1612.63 2308.13,1615.32 C2318.44,1617.18 2329.7,1625.56 2331.96,1631.15 C2338.03,1641.93 2333.5,1652.84 2327.98,1652.53 C2322.43,1652.36 2317.83,1646.47 2314.49,1641" id="Fill-35" fill="#3C8F7C"></path>
            <path d="M2437.32,1590.91 C2436.12,1589.47 2433.32,1584.49 2428.53,1581.91 C2424.12,1579 2417.71,1578.5 2417.88,1578.69 C2417.68,1578.95 2423.08,1575.31 2429.93,1575.63 C2436.65,1575.44 2444.83,1579.21 2446.99,1582.42 C2452.23,1588.39 2450.83,1595.84 2447.32,1596.37 C2443.81,1597 2440.14,1593.91 2437.32,1590.91" id="Fill-36" fill="#3C8F7C"></path>
            <path d="M2429.28,1558.13 C2429,1559.98 2429.23,1565.69 2426.5,1570.4 C2424.25,1575.18 2419.05,1578.97 2419.1,1578.71 C2418.79,1578.6 2425.3,1578.88 2430.97,1575.02 C2436.8,1571.67 2441.8,1564.17 2441.96,1560.31 C2443.3,1552.48 2438.21,1546.86 2434.94,1548.25 C2431.62,1549.55 2430.11,1554.1 2429.28,1558.13" id="Fill-37" fill="#3C8F7C"></path>
            <path d="M469.497,1112.04 C380.084,1032.31 334.109,917.82 311.286,835.8 C286.509,746.769 282.9,675.712 282.866,675.004 L278.006,674.704 C278.04,675.417 281.665,746.997 306.592,836.63 C329.627,919.45 376.086,1035.12 466.607,1115.83 L469.497,1112.04" id="Fill-38" fill="#3C8F7C"></path>
            <path d="M293.05,654.392 C297.457,674.893 293.768,694.257 284.372,708.24 C269.639,697.395 258.053,680.017 253.646,659.516 C249.24,639.016 252.929,619.651 262.325,605.668 C277.058,616.513 288.644,633.892 293.05,654.392" id="Fill-39" fill="#3C8F7C"></path>
            <path d="M265.626,712.768 C281.031,727.101 290.036,745.927 291.781,764.055 C274.87,764.824 256.264,757.961 240.859,743.628 C225.454,729.295 216.449,710.47 214.704,692.342 C231.615,691.572 250.221,698.436 265.626,712.768" id="Fill-40" fill="#3C8F7C"></path>
            <path d="M258.398,774.101 C277.542,780.107 293.243,793.44 302.535,809.635 C288.641,818.556 270.028,821.12 250.884,815.117 C231.739,809.111 216.039,795.778 206.747,779.583 C220.641,770.662 239.253,768.094 258.398,774.101" id="Fill-41" fill="#3C8F7C"></path>
            <path d="M287.882,847.88 C303.046,852.67 315.171,864.9 322.039,880.35 C310.542,890.01 295.487,893.67 280.322,888.89 C265.158,884.1 253.033,871.87 246.164,856.42 C257.661,846.76 272.717,843.1 287.882,847.88" id="Fill-42" fill="#3C8F7C"></path>
            <path d="M313.776,742.579 C325.71,730.564 341.517,725.443 356.817,727.085 C357.665,743.279 352.081,759.691 340.146,771.706 C328.212,783.72 312.405,788.842 297.104,787.199 C296.257,771.006 301.841,754.593 313.776,742.579" id="Fill-43" fill="#3C8F7C"></path>
            <path d="M327.609,795.456 C339.544,783.441 355.351,778.319 370.651,779.962 C371.499,796.155 365.915,812.567 353.98,824.58 C342.046,836.6 326.239,841.72 310.938,840.08 C310.091,823.88 315.675,807.47 327.609,795.456" id="Fill-44" fill="#3C8F7C"></path>
            <path d="M415.611,1220.16 C333.043,1208.13 262.382,1159.21 217.645,1120.29 C169.077,1078.05 139.713,1038.13 139.422,1037.73 L136.481,1039.42 C136.775,1039.82 166.349,1080.04 215.232,1122.57 C260.404,1161.88 331.796,1211.29 415.388,1223.48 L415.611,1220.16" id="Fill-45" fill="#50BFA5"></path>
            <path d="M137.433,1021.84 C147.861,1032.06 153.147,1044.74 153.051,1056.47 C140.325,1055.82 126.921,1050.16 116.493,1039.94 C106.066,1029.71 100.779,1017.04 100.875,1005.3 C113.602,1005.96 127.005,1011.61 137.433,1021.84" id="Fill-46" fill="#50BFA5"></path>
            <path d="M143.891,1066.3 C158.346,1068.72 170.804,1076.2 178.775,1086.07 C169.24,1093.01 155.791,1096.16 141.336,1093.74 C126.881,1091.32 114.422,1083.83 106.452,1073.96 C115.987,1067.03 129.437,1063.88 143.891,1066.3" id="Fill-47" fill="#50BFA5"></path>
            <path d="M163.224,1104.72 C176.658,1100.87 190.9,1102.59 202.516,1108.44 C197.863,1118.96 188.028,1127.59 174.595,1131.45 C161.161,1135.3 146.919,1133.58 135.303,1127.73 C139.956,1117.21 149.791,1108.58 163.224,1104.72" id="Fill-48" fill="#50BFA5"></path>
            <path d="M208.675,1136.3 C219.326,1133.26 231.068,1135.72 240.989,1142.06 C238.012,1152.09 230.665,1160 220.015,1163.03 C209.364,1166.07 197.622,1163.61 187.7,1157.27 C190.678,1147.24 198.024,1139.34 208.675,1136.3" id="Fill-49" fill="#50BFA5"></path>
            <path d="M183.32,1065.15 C185.647,1053.58 192.87,1044.54 202.395,1039.63 C209.101,1048.71 212.153,1060.4 209.826,1071.96 C207.499,1083.52 200.275,1092.57 190.75,1097.48 C184.044,1088.4 180.992,1076.71 183.32,1065.15" id="Fill-50" fill="#50BFA5"></path>
            <path d="M211.651,1090.58 C213.979,1079.01 221.202,1069.97 230.727,1065.05 C237.433,1074.14 240.484,1085.83 238.157,1097.39 C235.83,1108.95 228.606,1118 219.082,1122.91 C212.376,1113.82 209.324,1102.14 211.651,1090.58" id="Fill-51" fill="#50BFA5"></path>
            <path d="M465.329,1467.29 C370.084,1503.45 265.24,1484.35 194.058,1461.96 C116.783,1437.65 61.375,1404.33 60.823,1404 L58.712,1408.03 C59.266,1408.37 115.079,1441.95 192.865,1466.43 C264.745,1489.05 370.669,1508.33 467.094,1471.72 L465.329,1467.29" id="Fill-52" fill="#96D9C9"></path>
            <path d="M49.102,1384.65 C66.392,1391.37 79.682,1404.47 86.669,1419.74 C72.717,1426.87 55.019,1427.94 37.729,1421.23 C20.439,1414.51 7.149,1401.41 0.162,1386.14 C14.113,1379.01 31.812,1377.94 49.102,1384.65" id="Fill-53" fill="#96D9C9"></path>
            <path d="M82.847,1438.21 C99.71,1432.29 117.509,1434.18 131.964,1441.98 C125.997,1456.94 113.571,1469.45 96.707,1475.38 C79.844,1481.3 62.045,1479.4 47.59,1471.61 C53.558,1456.65 65.984,1444.14 82.847,1438.21" id="Fill-54" fill="#96D9C9"></path>
            <path d="M126.665,1475.89 C138.648,1462.47 154.866,1455.78 170.777,1456.08 C172.174,1472.63 166.914,1489.98 154.93,1503.39 C142.946,1516.81 126.729,1523.5 110.818,1523.2 C109.421,1506.66 114.682,1489.3 126.665,1475.89" id="Fill-55" fill="#96D9C9"></path>
            <path d="M187.973,1495.34 C199.956,1481.93 216.174,1475.24 232.084,1475.54 C233.482,1492.08 228.221,1509.43 216.238,1522.85 C204.254,1536.26 188.037,1542.95 172.126,1542.66 C170.729,1526.11 175.989,1508.76 187.973,1495.34" id="Fill-56" fill="#96D9C9"></path>
            <path d="M130.289,1432.49 C119.743,1418.76 115.043,1402.21 116.16,1387.2 C130.049,1388.82 144.249,1396.89 154.794,1410.62 C165.339,1424.35 170.04,1440.9 168.922,1455.91 C155.034,1454.29 140.834,1446.22 130.289,1432.49" id="Fill-57" fill="#96D9C9"></path>
            <path d="M193.979,1452.42 C183.236,1438.85 178.28,1422.36 179.153,1407.3 C193.037,1408.68 207.336,1416.51 218.08,1430.08 C228.824,1443.65 233.78,1460.15 232.907,1475.21 C219.022,1473.83 204.723,1466 193.979,1452.42" id="Fill-58" fill="#96D9C9"></path>
            <path d="M268.545,1500.67 C271.362,1493.52 276.958,1488.55 283.515,1486.5 C286.66,1493.11 287.208,1500.96 284.391,1508.11 C281.574,1515.26 275.978,1520.23 269.421,1522.28 C266.275,1515.67 265.729,1507.82 268.545,1500.67" id="Fill-59" fill="#96D9C9"></path>
            <path d="M669.75,1682.98 C669.75,1682.98 791.101,1203.04 750.859,1154.82 C695.247,1088.17 649.372,1309.26 644.871,1290.48 C602.361,1113.14 591.038,886.23 453.905,862.22 C375.951,848.56 471.912,1030.95 466.138,1080.28 C460.365,1129.61 319.883,965.83 234.517,880.03 C149.15,794.226 105.062,848.55 159,956.44 C211.158,1060.77 379.889,1174.78 345.108,1188.31 C310.328,1201.84 99.176,1067.1 73.319,1124.7 C41.615,1195.32 358.353,1291.42 328.527,1307.29 C298.701,1323.15 147.319,1270.9 151.455,1324.9 C155.59,1378.91 359.09,1376.89 355.612,1400.65 C349.981,1439.11 215.387,1352.05 209.471,1405.27 C203.42,1459.7 386.542,1449.77 383.37,1492.23 C381.547,1516.63 342.254,1479.82 336.464,1513.62 C323.263,1590.67 564.664,1684.54 564.664,1684.54 L669.75,1682.98" id="Fill-60" fill="#3C8F7C"></path>
            <path d="M762.279,1685.91 C762.279,1685.91 646.791,1508.84 591.217,1475.41 C532.002,1439.79 577.083,1546.44 577.083,1546.44 C577.083,1546.44 456.077,1402.45 422.438,1431.7 C388.8,1460.96 419.332,1494.84 419.332,1494.84 C419.332,1494.84 310.696,1462.65 291.17,1502.52 C261.167,1563.8 440.021,1614.61 440.021,1614.61 C440.021,1614.61 363.242,1613.79 377.368,1655.16 C398.671,1717.55 762.279,1685.91 762.279,1685.91" id="Fill-61" fill="#50BFA5"></path>
            <path d="M291.17,1502.52 C310.696,1462.65 419.332,1494.84 419.332,1494.84 C419.332,1494.84 388.8,1460.96 422.438,1431.7 C456.077,1402.45 552.875,1490.02 552.875,1490.02 C552.875,1490.02 542.729,1417.8 615.622,1481.42 C667.686,1526.86 762.279,1685.91 762.279,1685.91 L291.17,1502.52" id="Fill-62" fill="#96D9C9"></path>
            <path d="M622.092,1241.32 L627.275,1237.78 C533.247,1095.38 504.545,926.31 497.023,809.552 C488.862,682.848 503.188,588.675 503.334,587.739 L496.912,585.874 C496.764,586.816 482.33,681.619 490.522,809.078 C498.09,926.83 527.06,1097.4 622.092,1241.32" id="Fill-63" fill="#96D9C9"></path>
            <path d="M521.844,565.555 C522.049,594.163 512.125,617.814 496.281,632.002 C480.19,611.545 469.898,583.924 469.692,555.317 C469.488,526.71 479.412,503.058 495.255,488.87 C511.347,509.328 521.639,536.949 521.844,565.555" id="Fill-64" fill="#96D9C9"></path>
            <path d="M470.913,629.856 C486.94,655.147 493.519,683.546 490.928,707.919 C468.927,701.661 446.781,684.73 430.754,659.438 C414.727,634.147 408.148,605.748 410.739,581.375 C432.74,587.633 454.886,604.564 470.913,629.856" id="Fill-65" fill="#96D9C9"></path>
            <path d="M445.222,706.678 C468.291,722.725 484.965,746.84 492.616,771.935 C472.329,777.595 447.655,772.95 424.585,756.904 C401.516,740.857 384.841,716.742 377.19,691.648 C397.479,685.987 422.152,690.632 445.222,706.678" id="Fill-66" fill="#96D9C9"></path>
            <path d="M475.308,840.8 C485.369,846.8 493.012,856.43 496.937,866.77 C488.677,869.85 478.289,868.72 468.228,862.71 C458.167,856.71 450.523,847.08 446.599,836.74 C454.859,833.66 465.247,834.79 475.308,840.8" id="Fill-67" fill="#96D9C9"></path>
            <path d="M483.486,890.48 C493.546,896.49 501.19,906.11 505.115,916.46 C496.854,919.53 486.467,918.4 476.406,912.4 C466.345,906.4 458.701,896.77 454.777,886.42 C463.037,883.35 473.425,884.48 483.486,890.48" id="Fill-68" fill="#96D9C9"></path>
            <path d="M525.008,689.375 C543.597,678.842 565.336,678.954 584.617,687.663 C581.385,709.13 569.806,728.12 551.217,738.654 C532.628,749.187 510.89,749.075 491.608,740.366 C494.84,718.899 506.419,699.908 525.008,689.375" id="Fill-69" fill="#96D9C9"></path>
            <path d="M528.719,764.221 C547.308,753.688 569.046,753.8 588.328,762.509 C585.096,783.975 573.517,802.966 554.928,813.499 C536.339,824.03 514.601,823.92 495.319,815.211 C498.551,793.745 510.13,774.754 528.719,764.221" id="Fill-70" fill="#96D9C9"></path>
            <path d="M525.032,871.34 C537.131,864.49 551.28,864.56 563.83,870.23 C561.726,884.2 554.19,896.56 542.091,903.42 C529.992,910.27 515.842,910.2 503.293,904.53 C505.396,890.56 512.933,878.2 525.032,871.34" id="Fill-71" fill="#96D9C9"></path>
            <path d="M1851.85,1293.63 C1862.77,1295.41 1862.13,1297.19 1863.53,1297.38 C1865.19,1297.6 1884.91,1287.7 1884.91,1287.7 C1884.91,1287.7 1943.24,1258.91 1946.33,1257.24 L1988.43,1204.27 L2020.88,1219.24 C2020.88,1219.24 1973.53,1275.55 1970.53,1278.03 C1967.54,1280.51 1883.91,1309.84 1876.64,1312.67 C1876.64,1312.67 1869.3,1319.37 1864.56,1323.42 C1859.81,1327.46 1853.47,1329.07 1851.96,1329.99 C1851.73,1330.13 1846.5,1332.89 1839.1,1334.5 C1832.73,1335.89 1838.04,1331.56 1838.04,1331.56 C1838.04,1331.56 1849.32,1326.8 1848.76,1325.94 C1848.33,1325.27 1842.34,1328.25 1835.31,1329.86 C1833.5,1330.27 1831.71,1330.68 1830.07,1331.03 C1825.75,1331.96 1823.86,1329.49 1828.19,1327.77 C1829.72,1327.17 1832.29,1326.22 1834.23,1325.82 C1836.32,1325.38 1838.08,1324.28 1839.77,1323.64 C1843.13,1322.36 1845.6,1321.47 1845.47,1321.36 C1845.29,1321.21 1845.77,1320.46 1843.83,1320.84 C1841.51,1321.3 1836.81,1323.39 1833.33,1323.78 C1831.36,1324.01 1827.27,1324.73 1827.27,1324.73 C1827.27,1324.73 1820.03,1325.42 1819.97834,1324.41 C1819.88,1322.19 1824.33,1320.96 1827.07,1321.01 C1828.79,1320.13 1833.12,1319.5 1833.12,1319.5 C1833.12,1319.5 1841.51,1316.18 1841.02,1314.94 C1840.83,1314.45 1835.75,1315.21 1830.36,1315.58 C1824.66,1315.97 1820.53,1315.97 1820.22,1314.86 C1819.74,1313.11 1824.28,1312.45 1824.28,1312.45 C1824.28,1312.45 1828.28,1311.87 1829.59,1311.57 C1831.12,1311.22 1835.63,1309.8 1835.63,1309.8 C1835.63,1309.8 1851.07,1304.13 1850.51,1303 C1849.95,1301.86 1847.4,1299.47 1846.31,1299.48 C1845.22,1299.48 1843.28,1300.57 1842.19,1300.58 C1841.1,1300.58 1838.76,1300.37 1838.6,1299 C1838.43,1297.63 1844.48,1294.8 1844.48,1294.8 C1844.48,1294.8 1848.69,1293.12 1851.85,1293.63" id="Fill-72" fill="#F8A492"></path>
            <path d="M1959.13,1237.08 C1959.13,1237.08 1969.64,1246.62 1974.01,1249.76 C1977.64,1252.37 1995.34,1260.9 1995.34,1260.9 C1995.34,1260.9 2012.94,1233.94 2020.64,1220.42 C2029.98,1204.01 2036.45,1179.62 2034.24,1178.96 C2028.04,1177.1 2019.52,1175.97 2011.65,1179.58 C1984.41,1192.08 1959.13,1237.08 1959.13,1237.08" id="Fill-73" fill="#355389"></path>
            <path d="M1862.05,1307.72 C1857.37,1308.46 1852.59,1307.57 1850.52,1303.29 C1850.06,1308.37 1857.75,1310.89 1862.05,1307.72" id="Fill-74" fill="#FE875E"></path>
            <path d="M556.617,1118.6 C557.266,1102.9 554.963,1087.39 547.968,1072.78 C541.95,1060.2 527.059,1053.06 513.479,1053.04995 C470.359,1052.99 464.875,1110.21 437.427,1132.28 C429.04,1139.02 419.665,1144.51 411.729,1151.79 C382.423,1178.64 395.623,1228.35 422.532,1251.9 C441.206,1268.23 470.554,1277.52 493.568,1264.74 C505.582,1258.08 514.702,1247 521.199,1234.85 C530.421,1217.62 536.365,1197.74 542.924,1179.37 C549.905,1159.82 555.754,1139.47 556.617,1118.6" id="Fill-75" fill="#13375B"></path>
            <path d="M563.66,1194.63 C550.191,1153.77 532.411,1154.40941 532.411,1154.40941 L546.777,1241.41 C555.095,1239.14 565.924,1234.08 574.232,1231.73 C571.478,1218.81 566.978,1204.69 563.66,1194.63" id="Fill-76" fill="#F7CC7F"></path>
            <path d="M631.729,1333.98 L582.488,1296.42 C582.488,1296.42 577.535,1261.37 570.902,1230.28 C562.594,1232.62 555.095,1239.14 546.777,1241.41 L559.298,1311.05 L623.836,1344.35 L642.065,1367.77 L646.211,1343.72 L631.729,1333.98" id="Fill-77" fill="#F48C7F"></path>
            <path d="M1080.58,1275.31 C1095.87,1275.31 1110.21,1279.34 1122.62,1286.39 C1124.19,1287.28 1125.89,1288.09 1127.7,1288.84 C1165.54,1304.38 1206.94,1275.6 1206.94,1234.69 L1206.94,1033.52 L1005.77,1033.52 C964.86,1033.52 936.08,992.11 951.62,954.28 C952.37,952.46 953.18,950.76 954.07,949.19 C961.12,936.79 965.15,922.44 965.15,907.15 C965.15,858.7 924.75,819.68 875.798,821.95 C831.501,824 795.828,860.39 794.591,904.72 C794.151,920.48 797.996,935.31 805.043,948.14 C805.92,949.73 806.726,951.46 807.464,953.3 C822.879,991.76 793.638,1033.52 752.207,1033.52 L552.765,1033.52 L552.765,1491.91 C552.765,1600.04 640.422,1687.69 748.552,1687.69 L1206.94,1687.69 L1206.94,1487.19 C1206.94,1446.08 1165.41,1417.12 1127.33,1432.61 C1125.51,1433.35 1123.8,1434.16 1122.23,1435.04 C1108.66,1442.66 1092.81,1446.67 1075.95,1445.78 C1032.51,1443.48 997.43,1408.18 995.38,1364.74 C993.07,1315.75 1032.1,1275.31 1080.58,1275.31" id="Fill-78" fill="#F47458"></path>
            <path d="M1516.59,1163.72 C1517.3,1148.44 1522,1134.3 1529.62,1122.24 C1530.58,1120.71 1531.47,1119.05 1532.3,1117.28 C1549.59,1080.21 1522.78,1037.51 1481.92,1035.6 L1280.96,1026.2 L1271.57,1227.16 C1269.65999,1268.02 1226.95,1294.83 1189.88,1277.54 C1188.11,1276.71 1186.45,1275.82 1184.92,1274.86 C1172.86,1267.24 1158.72,1262.54 1143.44,1261.83 C1095.04,1259.57 1054.18,1298.1 1054.15999,1347.1 C1054.14,1391.45 1088.82,1428.78 1133.05,1432.09 C1148.77,1433.26 1163.77,1430.11 1176.9,1423.67 C1178.54,1422.87 1180.31,1422.15 1182.18,1421.5 C1221.32,1407.89 1261.65999,1439.05 1259.73,1480.44 L1250.41,1679.66 L1708.3,1701.07 C1816.31,1706.12 1907.97,1622.65 1913.02,1514.64 L1934.42,1056.75 L1734.14,1047.39 C1693.08,1045.47 1662.21,1085.6 1675.9,1124.36 C1676.56,1126.22 1677.29,1127.96 1678.09,1129.57 C1685.07,1143.48 1688.33,1159.5 1686.65999,1176.3 C1682.33,1219.58 1645.44,1252.98 1601.94,1253 C1552.9,1253.02 1514.32,1212.14 1516.59,1163.72" id="Fill-79" fill="#F7CC7F"></path>
            <path d="M956.64,847.31 C957.41,862.58 954.11,877.11 947.69,889.85 C946.88,891.46 946.15,893.2 945.5,895.05 C931.88,933.62 962.7,973.53 1003.55,971.47 L1204.47,961.37 L1194.37,760.45 C1192.32,719.596 1232.22,688.773 1270.79,702.393 C1272.64,703.045 1274.38,703.772 1275.99,704.584 C1288.73,711.002 1303.26,714.304 1318.54,713.536 C1366.93,711.103 1403.87,668.795 1399.14,620.02 C1394.87,575.881 1356.74,542.081 1312.4,543.072 C1296.63,543.424 1282.02,548.009 1269.56,555.69 C1268.01,556.647 1266.33,557.538 1264.52,558.368 C1226.89,575.695 1183.72,548.588 1181.64,507.209 L1171.62,308.019 L713.81,331.039 C605.816,336.469 522.672,428.418 528.102,536.412 L551.123,994.22 L751.374,984.15 C792.429,982.09 819.266,939.15 801.884,901.9 C801.054,900.12 800.16,898.46 799.198,896.93 C790.913,883.76 786.11,868.13 786.154,851.25 C786.267,807.751 819.758,770.938 863.045,766.708 C911.85,761.939 954.21,798.891 956.64,847.31" id="Fill-80" fill="#50BFA5"></path>
            <path d="M1367.88,736.42 C1352.58,736.42 1338.24,732.393 1325.83,725.342 C1324.27,724.451 1322.57,723.637 1320.75,722.893 C1282.92,707.353 1241.51,736.133 1241.51,777.038 L1241.51,978.21 L1442.69,978.21 C1483.59,978.21 1512.37,1019.62 1496.83,1057.46 C1496.09,1059.27 1495.27,1060.97 1494.38,1062.54 C1487.33,1074.94 1483.3,1089.29 1483.3,1104.58 C1483.3,1153.03 1523.7,1192.05 1572.66,1189.78 C1616.95,1187.73 1652.63,1151.34 1653.86,1107.01 C1654.3,1091.25 1650.46,1076.42 1643.41,1063.59 C1642.53,1062 1641.73,1060.27 1640.99,1058.43 C1625.57,1019.97 1654.81,978.21 1696.25,978.21 L1895.69,978.21 L1895.69,519.824 C1895.69,411.693 1808.03,324.036 1699.9,324.036 L1241.51,324.036 L1241.51,524.541 C1241.51,565.647 1283.05,594.606 1321.12,579.118 C1322.94,578.377 1324.65,577.568 1326.23,576.685 C1339.79,569.071 1355.65,565.06 1372.51,565.951 C1415.94,568.248 1451.02,603.545 1453.07,646.991 C1455.39,695.978 1416.35,736.42 1367.88,736.42" id="Fill-81" fill="#184655"></path>
            <path d="M421.825,1624.09 C421.825,1624.09 418.788,1645.21 413.561,1652.02 C411.806,1654.31 408.602,1657.2 406.499,1661.34 C403.225,1667.77 405.035,1677.35 407.45,1682.63 C408.689,1685.34 407.363,1685.33 410.186,1686.21 C418.545,1688.79 427.438,1684.44 430.998,1676.41 C432.986,1671.93 434.73,1665.95 435.081,1658.42 C435.974,1639.24 441.924,1629.49 441.924,1629.49 L421.825,1624.09" id="Fill-82" fill="#F7A491"></path>
            <path d="M513.261,1633.75 C513.261,1633.75 515.136,1657.56 513.614,1665.3 C512.799,1669.45 508.259,1677.98 510.341,1681.88 C512.424,1685.78 514.804,1686.75 514.804,1686.75 L568.778,1687.63 C571.718,1687.67 569.775,1685.78 567.404,1684.03 C563.524,1681.17 560.393,1679.28 547.999,1673.27 C547.19,1672.88 544.247,1671 543.186,1670.35 C540.495,1668.71 537.792,1666.11 535.465,1663.52 C531.59,1659.19 531.251,1638.22 531.251,1638.22 L513.261,1633.75" id="Fill-83" fill="#F7A491"></path>
            <path d="M555.446,1317.19 C555.446,1317.19 562.243,1355.85 557.78,1381.2 C553.318,1406.55 531.898,1641.53 531.898,1641.53 L508.095,1642.87 C508.095,1642.87 503.106,1544.72 503.999,1531.07 C504.891,1517.42 511.955,1494.58 511.955,1494.58 L509.585,1415.33 L539.623,1311.22 L555.446,1317.19" id="Fill-84" fill="#355389"></path>
            <path d="M485.488,1309.05 C485.488,1309.05 466.746,1337.33 462.283,1360.73 C457.821,1384.13 465.559,1456.04 456.975,1486.71 C452.327,1503.3 434.715,1528.94 432.038,1550.39 C429.36,1571.84 418.856,1628.02 418.856,1628.02 L442.648,1632.75 L497.942,1492.43 L541.314,1365.6 L552.425,1300.28 L485.488,1309.05" id="Fill-85" fill="#466EB6"></path>
            <path d="M500.661,1148.18 C500.661,1148.18 475.845,1146.6 466.028,1157.32 C456.21,1168.05 487.806,1252.89 489.591,1266.54 C491.375,1280.19 480.491,1316.48 480.491,1316.48 C480.491,1316.48 538.785,1328.24 555.446,1317.19 C555.446,1317.19 557.231,1219.03 555.446,1209.28 C553.661,1199.53 538.785,1159.88 535.215,1155.98 C531.645,1152.08 500.661,1148.18 500.661,1148.18" id="Fill-86" fill="#F7CC7F"></path>
            <path d="M508.922,1114.95 C508.922,1114.95 508.793,1115.68 508.563,1116.92 C507.456,1122.9 503.196,1142.74 500.317,1148.19 C496.839,1154.79 512.226,1175.8 527.035,1173.24 C531.444,1172.47 523.309,1153.93 523.7,1151.96 C524.448,1148.2 525.463,1143.07 526.501,1137.81 C527.087,1134.84 527.681,1131.83 528.238,1129 C529.822,1120.96 531.114,1114.39 531.114,1114.39 L508.922,1114.95" id="Fill-87" fill="#F7A491"></path>
            <path d="M508.563,1116.92 C508.793,1115.68 508.922,1114.95 508.922,1114.95 L531.114,1114.39 C531.114,1114.39 529.822,1120.96 528.238,1129 C527.684,1131.81 527.094,1134.81 526.511,1137.76 C523.085,1137.25 519.505,1135.58 515.916,1132.43 C512.002,1129 509.438,1124.88 507.89,1120.47 C508.163,1119.06 508.391,1117.85 508.563,1116.92" id="Fill-88" fill="#F47458"></path>
            <path d="M523.858,1064.39 C523.858,1064.39 513.398,1063.18 506.841,1071.68 C500.285,1080.18 493.218,1106.46 509.505,1120.75 C525.793,1135.04 541.886,1118.86 544.272,1101.71 C546.659,1084.56 547.586,1063.77 523.858,1064.39" id="Fill-89" fill="#F7A491"></path>
            <path d="M549.091,1101.46 C547.147,1105.25 543.884,1107.35 541.802,1106.15 C539.721,1104.95 539.609,1100.9 541.554,1097.11 C543.498,1093.33 546.761,1091.23 548.842,1092.43 C550.923,1093.63 551.035,1097.67 549.091,1101.46" id="Fill-90" fill="#F7A491"></path>
            <path d="M525.028,1061.58 C525.028,1061.58 511.054,1086.57 501.057,1087.73 C491.06,1088.88 489.748,1102.16 489.748,1102.16 C489.748,1102.16 493.321,1071.56 503.218,1065.66 C513.115,1059.76 525.028,1061.58 525.028,1061.58" id="Fill-91" fill="#13375B"></path>
            <path d="M432.619,1672.19 C419.652,1674.56 411.024,1666.96 406.535,1661.27 C403.239,1667.71 401.631,1677.33 404.056,1682.63 C406.19,1687.3 412.43,1687.16 417.343,1687.35 C422.538,1687.54 426.557,1684.65 429.134,1680.11 C430.337,1678 431.579,1675.36 432.619,1672.19" id="Fill-92" fill="#F47458"></path>
            <path d="M543.178,1670.35 C528.904,1674.02 518.353,1671.52 512.45,1669.14 C510.928,1673.46 508.91,1678.89 509.98,1682.01 C511.29,1685.84 513.156,1686.71 514.804,1686.75 C527.842,1687.1 562.563,1687.56 572.505,1687.69018 C573.894,1687.71 574.659,1686.09 573.767,1685.02 C571.301,1682.07 544.242,1671 543.178,1670.35" id="Fill-93" fill="#F47458"></path>
            <path d="M503.679,1094.01 C504.491,1098.45 502.856,1102.52 500.026,1103.1 C497.196,1103.68 494.243,1100.56 493.43,1096.12 C492.617,1091.68 494.252,1087.61 497.082,1087.03 C499.912,1086.44 502.865,1089.57 503.679,1094.01" id="Fill-94" fill="#F7A491"></path>
            <path d="M520.004,1109.38 L532.621,1109.95 C532.621,1109.95 532.113,1114.73 526.558,1114.64 C519.783,1114.53 520.004,1109.38 520.004,1109.38" id="Fill-95" fill="#FFFFFF"></path>
            <path d="M1595.96,103.254943 C1597.54,103.32 1601.84,104.761 1608.14,116.66 C1616.18,131.855 1627.93,177.759 1627.93,177.759 L1592.85,190.822 L1588.34,181.241 L1580.92,107.479 C1580.92,107.479 1595.53,103.237 1595.96,103.254943" id="Fill-96" fill="#DD513A"></path>
            <path d="M1549.59,96.6388857 C1559.63,96.652 1584.44,99.579 1595.96,103.259 C1595.96,103.259 1604.43,175.992 1588.34,231.259 C1584.75,243.631 1591.32,282.544 1591.32,282.544 L1487.38,281.173 C1487.38,281.173 1499.7,187.098 1495.06,171.902 C1490.42,156.707 1490.31,103.748 1490.31,103.748 C1490.31,103.748 1491.02,103.637 1513.66,99.724 C1524.22,97.898 1538.89,96.625 1549.59,96.6388857" id="Fill-97" fill="#F47458"></path>
            <path d="M1537.48,417.54 C1537.48,417.54 1539.78,444.08 1544.01,451.429 C1548.24,458.778 1543.79,471.272 1543.57,472.987 C1543.34,474.702 1534.67,477.152 1520.87,475.682 C1507.07,474.212 1507.29,471.028 1508.41,465.883 C1509.52,460.738 1516.86,454.124 1517.31,449.224 C1517.75,444.325 1513.08,426.686 1513.08,426.686 L1537.48,417.54" id="Fill-98" fill="#F7A491"></path>
            <path d="M1579.59,260.639 C1579.59,260.639 1651.34,256.655 1667.37,266.358 C1683.39,276.062 1655.98,323.685 1655.98,323.685 C1655.98,323.685 1606.06,321.384 1508.27,327.027 C1485.11,328.364 1483.11,266.647 1487.44,261.54 C1491.77,256.433 1579.59,260.639 1579.59,260.639" id="Fill-99" fill="#E0973F"></path>
            <path d="M1519.15,477.743 C1504.94,476.229 1506.7,469.25 1507.84,463.952 C1508.56,460.635 1512.64,456.725 1515.07,453.026 C1516.34,454.037 1518.4,455.823 1524.57,457.646 C1530.98,459.538 1539.76,455.792 1545.36,453.447 C1547.35,460.87 1547.44,470.336 1547.25,471.772 C1547.03,473.538 1533.35,479.256 1519.15,477.743" id="Fill-100" fill="#DD513A"></path>
            <path d="M1526.99,311.969 C1529.86,333.661 1544.05,441.646 1544.05,441.646 L1511.12,445.729 C1511.12,445.729 1470.62,304.783 1472.7,283.225 C1474.77,261.666 1489.93,259.853 1489.93,259.853 C1489.93,259.853 1519.4,254.548 1526.99,311.969" id="Fill-101" fill="#F7CC7F"></path>
            <path d="M1489.18,111.833 C1498.89,108.187 1503.65,195.75 1504.96,231.791 C1522.17,233.447 1552.17,231.804 1559.63,231.243 C1563.15,230.979 1571.25,228.013 1574.74,227.555 C1578.32,227.086 1581.57,226.842 1583.33,227.148 C1583.97,227.261 1601.91,234.596 1603.44,236.205 C1605.35,238.2 1610.49,243.232 1609.62,245.409 C1608.76,247.585 1599.73,239.346 1599.73,239.346 L1595.32,236.871 C1600.81,242.235 1611.28,249.301 1609.78,251.874 C1608.3,254.383 1598.86,247.212 1592.12,242.326 C1597.9,247.543 1605.07,256.879 1603.42,258.334 C1601.93,259.642 1593.77,248.834 1585.05,245.721 C1581.82,244.568 1578.59,247.762 1576.05,248.148 C1574.18,248.432 1571.3,249.035 1569.46,248.515 L1560.02,245.836 C1556.8,246.127 1556.72,248.031 1553.47,248.722 C1549.7,249.525 1543.51,250.37 1538.71,251.544 C1511.04,258.302 1501.82,261.441 1493.35,261.436006 C1467.7,261.42 1466.21,120.448 1489.18,111.833" id="Fill-102" fill="#F7A491"></path>
            <path d="M1470.73,194.039 C1468.91,157.122 1469.18,111.619 1489.88,103.856 C1498.04,100.792 1512.44,119.211 1509.85,194.789 C1498.8,195.701 1482.58,196.436 1470.73,194.039" id="Fill-103" fill="#DD513A"></path>
            <path d="M1633.79,440.241 C1633.79,440.241 1630.91,449.455 1636.06,455.547 C1641.2,461.64 1662.58,467.617 1665.39,470.917 C1668.2,474.217 1667.98,477.028 1667.98,477.028 L1607.97,475.376 L1608.63,457.253 L1611.39,444.229 L1633.79,440.241" id="Fill-104" fill="#F7A491"></path>
            <path d="M1639.79,458.585 C1639.79,458.585 1624.37,464.822 1616.92,461.129 C1609.47,457.437 1609.7,456.414 1607.54,457.791 C1605.39,459.167 1604.62,476.157 1604.62,476.157 L1672.09,478.14 C1676.79,478.032 1679.16,474.574 1675.35,471.613 C1672.73,469.583 1669.71,468.224 1667.99,467.239 C1662.71,464.212 1639.79,458.585 1639.79,458.585" id="Fill-105" fill="#DD513A"></path>
            <path d="M1631.51,277.646 C1636.15,267.885 1646.7,255.177 1665.26,262.831 C1682.96,270.131 1687.71,288.072 1682.13,306.443 C1676.54,324.815 1639.77,432.812 1638.49,447.66 L1609.13,447.855 C1609.13,447.855 1614.47,362.341 1615.78,341.671 C1617.04,321.783 1623.48,294.539 1631.51,277.646" id="Fill-106" fill="#F7CC7F"></path>
            <path d="M1679.17,178.177 L1581.03,178.177 C1578.44,178.177 1576.1,179.751 1575.11,182.162 L1544.9,256.109 L1490.79,256.109 C1489.28,256.109 1488.06,257.339 1488.06,258.855 C1488.06,260.373 1489.28,261.602 1490.79,261.602 L1644.78,261.602 C1649.01,261.602 1652.85,259.109 1654.58,255.234 L1685.01,187.227 C1686.91,182.979 1683.81,178.177 1679.17,178.177" id="Fill-107" fill="#000000"></path>
            <path d="M1626.33,221.237 C1625.67,224.559 1622.78,226.78 1619.88,226.198 C1616.99,225.617 1615.17,222.452 1615.83,219.131 C1616.5,215.81 1619.39,213.588 1622.29,214.17 C1625.18,214.751 1627,217.916 1626.33,221.237" id="Fill-108" fill="#FFFFFF"></path>
            <path d="M1572.92,7.805 C1569.96,6.809 1567.05,5.685 1564.24,4.329 C1561.06,2.796 1556.94,1.001 1554.34,0.6 C1548.86,-0.246 1539.45,0.318 1534.25,5.954 C1527.78,12.976 1516.28,7.222 1518.6,43.999 C1521.22,85.626 1544.37,81.058 1544.93,80.353 C1545.49,79.648 1565.57,53.722 1565.57,53.722 C1565.57,53.722 1572.59,69.081 1572.59,68.517 C1572.59,67.973 1608.44,19.77 1572.92,7.805" id="Fill-109" fill="#0E2E35"></path>
            <path d="M1555.34,83.427 L1557.34,98.301 C1557.34,98.301 1561.82,119.731 1556.06,123.862 C1550.3,127.993 1531.57,97.69 1531.57,97.69 L1533.55,60 L1555.34,83.427" id="Fill-110" fill="#F7A491"></path>
            <path d="M1532.91,72.215 C1537.67,85.071 1549,92.973 1557.04,96.038 L1555.34,83.427 L1533.55,60 L1532.91,72.215" id="Fill-111" fill="#F47458"></path>
            <path d="M1554.16,18.985 C1566.36,17.016 1577.31,26.829 1577,39.044 C1576.87,44.354 1576.44,50.983 1575.33,58.122 C1572.68,75.292 1560.96,90.412 1553.22,89.062 C1545.47,87.712 1525.98,72.9 1529.41,48.466 C1531.53,33.38 1541.36,21.053 1554.16,18.985" id="Fill-112" fill="#F7A491"></path>
            <path d="M1534.79,51.382 C1534.14,55.158 1531.11,57.784 1528.03,57.248 C1524.96,56.711 1522.99,53.215 1523.65,49.439 C1524.3,45.664 1527.32,43.038 1530.4,43.574 C1533.48,44.11 1535.44,47.606 1534.79,51.382" id="Fill-113" fill="#F7A491"></path>
            <path d="M1530.4,43.574 C1530.4,43.574 1539.77,45.901 1543.24,39.877 C1546.72,33.854 1559.15,20.855 1574.94,26.245 C1590.74,31.634 1561.04,13.14 1559.78,13.14 C1558.51,13.14 1543.35,13.035 1543.35,13.035 C1543.35,13.035 1531.66,22.652 1531.24,23.708 C1530.81,24.765 1527.44,36.284 1527.44,36.284 L1530.4,43.574" id="Fill-114" fill="#0E2E35"></path>
            <path d="M1547.54,68.707 L1564.58,71.965 C1564.58,71.965 1562.95,78.384 1555.42,77.168 C1546.23,75.687 1547.54,68.707 1547.54,68.707" id="Fill-115" fill="#FFFFFF"></path>
            <path d="M1259.27,1255.18 C1259.92,1257.43 1260.29,1258.17 1261.12,1259.68 C1266.46,1269.41 1278.86,1283.29 1278.86,1283.29 L1288.46,1261.68 C1288.46,1261.68 1286.89,1254.89 1284.18,1245.19 C1274.92,1247.61 1266.09,1249.01 1259.27,1255.18" id="Fill-116" fill="#F8A492"></path>
            <path d="M1314.26,1236.44 C1314.26,1236.44 1260.76,1259.48 1259.03,1259.04 C1257.92,1258.75 1237.09,1223.89 1236.85953,1191.1 C1236.76,1175.96 1252.49,1157.74 1270.03,1161.35 C1278.87,1163.16 1278.73,1165.62 1291.8,1184.61 C1304.87,1203.6 1314.26,1236.44 1314.26,1236.44" id="Fill-117" fill="#13375B"></path>
            <path d="M1359.92,1649.47 L1358.65,1670.52 C1358.18,1673.19 1356.34,1679.78 1356.34,1682.21 C1356.34,1691.32 1399.6,1674.47 1389.91,1670.43 C1389.03,1670.07 1384.43,1667.31 1384.14,1664.21 C1383.7,1659.43 1382.57,1649.76 1382.57,1649.76 L1359.92,1649.47" id="Fill-118" fill="#F7A491"></path>
            <path d="M1389.8,1670.35 C1389.8,1670.35 1379.64,1673.13 1374.44,1673.83 C1369.24,1674.53 1362.38,1668.66 1358.7,1670.25 C1354.65,1671.99 1354.81,1687.69 1354.81,1687.69 C1354.81,1687.69 1409.27,1692.16 1424.59,1687.54 C1430.66,1685.7 1410.56,1676.84 1389.8,1670.35" id="Fill-119" fill="#DD513A"></path>
            <path d="M1271.43,1649.47 L1270.15,1670.52 C1269.69,1673.19 1267.85,1679.78 1267.85,1682.21 C1267.85,1691.32 1311.11,1674.47 1301.41,1670.43 C1300.54,1670.07 1294.58,1665.24 1294.29,1662.14 C1293.84,1657.37 1294.08,1649.76 1294.08,1649.76 L1271.43,1649.47" id="Fill-120" fill="#F7A491"></path>
            <path d="M1301.31,1670.35 C1301.31,1670.35 1291.15,1673.13 1285.95,1673.83 C1280.75,1674.53 1273.89,1668.66 1270.21,1670.25 C1266.16,1671.99 1266,1687.69 1266,1687.69 C1266,1687.69 1320.71,1692.9 1336.1,1687.54 C1342.07,1685.45 1322.07,1676.84 1301.31,1670.35" id="Fill-121" fill="#DD513A"></path>
            <path d="M1284.65,1266.83 L1322.75,1213.45 C1322.91,1212.99 1323.26,1212.03 1323.79,1210.57 C1325.71,1205.27 1329.7,1194.25 1333.18,1183.29 L1333.21,1183.17 C1334.31,1179.34 1336.62,1172.66 1338.86,1166.19 C1341.35,1159 1344.44,1150.08 1344.55,1148.56 C1344.46,1148.3 1344.28,1147.83 1344.04,1147.21 C1342.64,1143.59 1340.75,1134.95 1340.08,1131.2 C1339.66,1128.81 1339.23,1122.99 1342.08,1122.99 C1346.54,1122.99 1344.42,1128.8 1346.48,1132.42 C1347.23,1130 1348.76,1125.19 1349.57,1120.33 L1350.32,1108.98 C1350.46,1108.13 1349.55,1101.87 1352.69,1101.87 L1352.84,1101.87 C1355.65,1102.08 1355.59,1108.73 1356.76,1119.99 C1357.13,1118.69 1357.5,1117.13 1357.78,1115.7 C1357.75,1114.93 1358.31,1111.54 1358.73,1109.76 C1358.17,1106.62 1358.5,1101.67 1361.84,1102.14 C1363.51,1102.37 1363.37,1109.28 1363.37,1109.28 C1363.36,1110.22 1363.26,1117.52 1363.31,1118.97 C1363.65,1116.52 1364.99,1106.07 1367.61,1106.07 C1369.78,1106.07 1369.96,1108.88 1369.91,1111.11 C1369.89,1112.42 1368.52,1123.74 1368.45,1125.06 C1369.47,1123.34 1370.68,1113.37 1371.7,1113.37 C1375.93,1113.37 1374.4,1127.55 1372.84,1131.24 C1372.7,1131.62 1372.54,1132.36 1372.36,1133.22 C1371.83,1135.75 1370.95,1139.98 1368.73,1143.77 C1366.07,1148.32 1362.4,1155.56 1361.84,1156.67 C1361.43,1158.93 1360.15,1167.06 1358.55,1177.29 C1357.86,1181.66 1357.11,1186.46 1356.33,1191.43 L1356.29,1191.42 C1356.14,1192.5 1355.35,1195.92 1352.33,1208.75 C1348.21,1226.31 1347.78,1227.07 1347.6,1227.39 C1345.81,1230.56 1304.73,1286.34 1302.98,1288.72 L1301.95,1290.12 L1284.65,1266.83" id="Fill-122" fill="#F7A491"></path>
            <path d="M1355.51,1142.35 C1355.51,1142.35 1352.42,1134.44 1346.92,1134.42 C1346.92,1134.42 1349.99,1133.31 1352.63,1135.4 C1355.27,1137.49 1355.51,1142.35 1355.51,1142.35" id="Fill-123" fill="#F47458"></path>
            <path d="M1275.45,1127.07 L1270.54,1158.08 C1270.54,1158.08 1289.23,1173.09 1300.12,1169.92 C1309.26,1167.27 1303,1155.32 1303,1155.32 C1303,1155.32 1298.13,1138.76 1299.62,1130.08 C1301.11,1121.4 1275.45,1127.07 1275.45,1127.07" id="Fill-124" fill="#F7A491"></path>
            <path d="M1278.97,1136.44 C1283.65,1138.66 1292.91,1141.67 1300.12,1142.41 C1299.43,1138.06 1299.04,1133.47 1299.62,1130.08 C1300.31,1126.08 1295.21,1125.13 1289.53,1125.27 C1282.08,1125.9 1275.45,1127.07 1275.45,1127.07 L1274.5,1133.03 C1275.92,1134.52 1277.41,1135.71 1278.97,1136.44" id="Fill-125" fill="#FE875E"></path>
            <path d="M1251.86,1091.29 C1251.09,1091.29 1259.25,1125.94 1271.88,1131.9 C1284.5,1137.86 1303.33,1134.76 1306.86,1125.42 C1310.77,1115.1 1296.52,1079.75 1278.76,1075.26 C1261,1070.77 1251.86,1091.29 1251.86,1091.29" id="Fill-126" fill="#F7A491"></path>
            <path d="M1266.47,1059.45 C1256.39,1065.27 1251.76,1073.9 1250.2,1077.43 C1245.47,1079.68 1239.74,1084.53 1236.99,1097.63 C1233.61,1113.72 1245.63,1126.13 1258.37,1129.86 C1271.11,1133.59 1273.08,1142.02 1273.08,1142.02 L1274.53,1132.95 C1274.53,1132.95 1271.69,1125.05 1267.43,1121.09 C1263.17,1117.14 1269.45,1111.38 1270,1106.68 C1270.43,1103.06 1267.76,1096.03 1268.34,1090.09 C1268.34,1090.09 1275.42,1079.36 1282.4,1076.71 C1294.3,1072.19 1279.41,1051.99 1266.47,1059.45" id="Fill-127" fill="#13375B"></path>
            <path d="M1271.84,1112.71 C1273.49,1116.71 1272.81,1120.69 1270.33,1121.59 C1267.85,1122.48 1264.5,1119.97 1262.85,1115.97 C1261.2,1111.97 1261.87,1107.99 1264.36,1107.09 C1266.84,1106.19 1270.19,1108.71 1271.84,1112.71" id="Fill-128" fill="#F7A491"></path>
            <path d="M1318.87,1267.68 L1392.36,1255.7 C1392.36,1255.7 1384,1234.65 1381.01,1234.65 C1378.02,1234.65 1325.44,1257.61 1325.44,1257.61 L1321.26,1266 L1318.87,1267.68" id="Fill-129" fill="#F8A492"></path>
            <path d="M1281.23,1318.07 C1281.23,1318.07 1273.9,1353.51 1276.88,1380.39 C1279.87,1407.26 1280.11,1502.72 1280.11,1502.72 L1268.7,1655.46 L1295.75,1656.05 C1295.75,1656.05 1327.83,1503.38 1327.23,1507.3 C1326.64,1511.22 1337.99,1399.81 1337.99,1399.81 L1299.75,1314.71 L1281.23,1318.07" id="Fill-130" fill="#184655"></path>
            <path d="M1288.4,1316.39 C1288.4,1316.39 1283.62,1348.3 1289.59,1362.3 C1295.57,1376.3 1340.84,1513.63 1341.44,1524.82 C1342.04,1536.02 1357.09,1659.78 1357.09,1659.78 L1388.54,1658.9 L1395.35,1521.3 L1381.1,1348.36 L1367.27,1304.63 L1288.4,1316.39" id="Fill-131" fill="#13375B"></path>
            <path d="M1270.54,1158.08 C1270.54,1158.08 1278.3,1163.17 1285.53,1162.58 C1292.77,1162 1303,1155.32 1303,1155.32 L1301.57,1150.5 C1301.57,1150.5 1282.86,1147.77 1282.39,1148.07 C1281.92,1148.36 1270.54,1158.08 1270.54,1158.08" id="Fill-132" fill="#F7A491"></path>
            <path d="M1353.21,1233.61 C1353.21,1233.61 1381.01,1259.85 1393.56,1255.37 C1406.11,1250.89 1411.3,1235.58 1380.68,1213.18 C1353.28,1193.13 1353.21,1233.61 1353.21,1233.61" id="Fill-133" fill="#F8A492"></path>
            <path d="M1372.05,1266 C1367.92,1243.54 1337.99,1173.63 1335.6,1160.75 C1334.44,1154.49 1318.29,1154.35 1302.92,1155.17 C1286.68,1156.03 1270.54,1158.08 1270.54,1158.08 C1270.54,1158.08 1256.16,1160.45 1249.84,1166.37 C1243.51,1172.3 1241.83,1188.69 1250.92,1219.81 C1258.1,1244.38 1267,1257.87 1271.41,1275.76 C1272.3,1281.76 1273.06,1287.68 1274.08,1294.6 C1275.69,1321.36 1274.06,1356.7 1274.06,1356.7 C1274.06,1356.7 1352.33,1372.94 1381.61,1348.3 C1381.61,1348.3 1376.28,1289.02 1372.05,1266" id="Fill-134" fill="#355389"></path>
            <path d="M1392,1217.7 C1392,1217.7 1361.29,1243.05 1359.5,1243.05 C1358.35,1243.05 1315.67,1211.66 1305.82,1185.87 C1300.38,1171.61 1311.8,1155.66 1324.84,1155.70988 C1333.89,1155.75 1337.91,1158.08 1355.83,1173.19 C1373.76,1188.31 1392,1217.7 1392,1217.7" id="Fill-135" fill="#466EB6"></path>
            <path d="M851.719,86.034 C856.752,73.922 861.872,61.785 874.93,55.651 C885.498,50.687 896.54,52.556 905.93,59.617 C932.54,79.625 909.35,101.668 939.64,139.608 C949.05,151.397 960.44,160.916 966.08,174.731 C973.97,194.068 964.57,203.354 949.5,212.615 C877.414,256.927 839.625,165.946 840.981,145.133 C841.991,129.65 848.479,93.831 851.719,86.034" id="Fill-136" fill="#13375B"></path>
            <path d="M776.903,321.85 C779.943,321.369 787.324,316.082 789.93,315.601 C791.95,315.228 796.317,314.567 798.178,314.288 C800.458,305.774 812.037,259.358 813.334,245.752 C814.739,231.012 825.162,167.243 825.162,167.243 L852.153,172.149 C852.153,172.149 840.944,221.205 837.844,244.993 C835.183,265.423 812.766,311.36 809.916,316.208 C809.912,316.325 809.911,316.438 809.903,316.562 C809.469,323.772 805.996,321.369 805.996,321.369 L800.351,322.811 C800.351,322.811 780.377,324.733 779.074,325.214 C777.772,325.695 773.864,322.33 776.903,321.85" id="Fill-137" fill="#F7A491"></path>
            <path d="M848.697,129.966 C829.616,136.436 818.767,188.308 818.767,188.308 C818.767,188.308 848.703,196.665 856.373,192.282 C856.373,192.282 865.079,153.693 868.198,155.042 L848.697,129.966" id="Fill-138" fill="#6A97CE"></path>
            <path d="M701.103,411.471 C695.264,426.868 692.235,441.7 691.962,443.494 C691.831,444.356 693.049,448.542 692.936,449.438 C681.216,465.423 664.373,468.92 649.936,469.939 C657.294,462.756 668.099,455.95 668.618,453.675 C669.444,450.053 673.889,433.928 676.075,411.581 C685.055,415.736 691.148,412.443 701.103,411.471" id="Fill-139" fill="#F7A491"></path>
            <path d="M867.16,239.212 L892.947,311.837 C892.947,311.837 851.509,319.637 836.017,322.478 C820.526,325.318 733.97,329.1 731.777,330.636 C730.149,331.777 712.269,389.606 704.282,421.494 C695.221,423.488 679.711,421.093 671.46,418.25 C675.918,372.625 692.02,300.341 697.176,292.472 C705.573,279.656 867.16,239.212 867.16,239.212" id="Fill-140" fill="#256653"></path>
            <path d="M766.426,443.307 C763.576,459.525 763.38,474.662 763.449,476.475 C763.481,477.347 765.462,481.229 765.519,482.131 C757.002,500.03 741.113,506.621 727.122,510.328 C733.004,501.893 742.342,493.182 742.426,490.85 C742.559,487.137 743.903,470.465 741.862,448.105 C751.462,450.503 756.831,446.127 766.426,443.307" id="Fill-141" fill="#F7A491"></path>
            <path d="M897.26,242.982 L907.27,260.065 C922.49,286.073 910.82,319.534 882.723,330.435 C882.571,330.494 882.421,330.552 882.274,330.608 C867.59,336.302 783.276,356.236 781.41,358.156 C780.024,359.582 773.298,419.737 771.428,452.557 C762.901,456.213 747.217,456.767 738.58,455.52 C734.409,409.868 736.68,335.848 740.27,327.152 C746.117,312.989 897.26,242.982 897.26,242.982" id="Fill-142" fill="#327F6B"></path>
            <path d="M762.156,476.98 C764.401,474.501 772.643,488.146 774.702,491.058 C777.018,494.333 776.359,496.801 776.082,497.313 C775.351,498.664 731.891,524.232 721.292,526.053 C720.291,526.225 718.556,525.593 718.119,525.206 C713.977,521.539 733.043,494.465 741.605,490.907 C747.138,488.607 752.057,488.135 762.156,476.98" id="Fill-143" fill="#13375B"></path>
            <path d="M690.575,443.985 C693.245,441.97 698.784,456.918 700.261,460.164 C701.923,463.814 700.813,466.116 700.444,466.567 C699.473,467.757 651.991,484.729 641.239,484.531 C640.224,484.512 638.638,483.565 638.282,483.104 C634.899,478.726 658.702,455.704 667.778,453.813 C673.645,452.591 678.565,453.049 690.575,443.985" id="Fill-144" fill="#13375B"></path>
            <path d="M866.792,129.817 L866.791,129.817 C866.298,129.82 865.591,129.647 864.867,129.42 C861.324,128.786 853.577,127.858 847.548,130.402 C840.216,133.495 828.854,162.397 829.53,192.065 C829.802,196.6 830.077,200.661 830.311,203.492 C832.162,225.901 838.591,267.953 838.938,268.176 C847.684,273.805 900.45,251.981 904.08,247.188 C907.71,242.393 909.85,184.145 911.61,181.241 L915.08,130.583 C908.96,128.756 876.174,129.75 866.792,129.817" id="Fill-145" fill="#9BC1F9"></path>
            <path d="M888.178,111.162 C888.178,111.162 884.78,128.735 885.46,135.667 C886.14,142.6 882.869,164.941 868.196,165.01514 C853.523,165.088 865.41,136.61 866.792,129.817 C868.174,123.024 868.501,101.996 868.501,101.996 L888.178,111.162" id="Fill-146" fill="#F7A491"></path>
            <path d="M868.198,112.546 C868.427,106.793 868.501,101.996 868.501,101.996 L888.178,111.162 C888.178,111.162 887.483,114.755 886.785,119.333 C878.172,121.064 871.93,117.876 868.198,112.546" id="Fill-147" fill="#F47458"></path>
            <path d="M895.369,62.66 C895.369,62.66 902.95,66.866 905.72,75.983 C908.5,85.1 905.34,108.625 885.754,114.301 C866.168,119.978 857.684,101.35 861.718,86.786 C865.751,72.222 874.526,53.779 895.369,62.66" id="Fill-148" fill="#F7A491"></path>
            <path d="M859.268,81.141 C859.652,85.053 861.81,88.042 864.089,87.819 C866.368,87.596 867.903,84.243 867.52,80.332 C867.136,76.42 864.978,73.43 862.699,73.654 C860.421,73.877 858.885,77.229 859.268,81.141" id="Fill-149" fill="#F7A491"></path>
            <path d="M893.073,61.471 C893.073,61.471 896.62,87.714 905.11,92.45 C913.59,97.186 910.04,108.827 910.04,108.827 C910.04,108.827 917.74,81.795 911.03,73.113 C904.32,64.431 893.073,61.471 893.073,61.471" id="Fill-150" fill="#13375B"></path>
            <path d="M900.08,96.217 C897.78,99.636 897.79,103.668 900.1,105.224 C902.41,106.779 906.15,105.268 908.45,101.849 C910.75,98.429 910.75,94.397 908.43,92.842 C906.12,91.287 902.38,92.798 900.08,96.217" id="Fill-151" fill="#F7A491"></path>
            <path d="M871.547,97.677 L885.351,101.151 C885.351,101.151 883.692,106.394 877.576,105.044 C870.119,103.398 871.547,97.677 871.547,97.677" id="Fill-152" fill="#FFFFFF"></path>
            <path d="M940.08,319.661 C940.74,319.628 999.59,316.669 999.59,316.669 C999.59,316.669 975.17,334.217 974.67,334.217 C974.17,334.217 955.22,326.738 954.39,326.738 C953.56,326.738 940.08,319.661 940.08,319.661" id="Fill-153" fill="#50BFA5"></path>
            <path d="M2131.53,1650.33 L2132.7,1671.01 C2133.13,1673.63 2134.82,1680.11 2134.82,1682.49 C2134.82,1691.44 2095.11,1674.89 2104.01,1670.93 C2104.81,1670.57 2109.03,1667.85 2109.3,1664.81 C2109.71,1660.11 2110.74,1650.62 2110.74,1650.62 L2131.53,1650.33" id="Fill-154" fill="#F7A491"></path>
            <path d="M2103.63,1671.02 C2103.63,1671.02 2112.95,1673.75 2117.72,1674.44 C2122.5,1675.12 2128.79,1669.36 2132.17,1670.92 C2135.89,1672.63 2135.74,1688.05 2135.74,1688.05 C2135.74,1688.05 2085.75,1692.44 2071.69,1687.9 C2066.12,1686.1 2084.57,1677.39 2103.63,1671.02" id="Fill-155" fill="#F7CC7F"></path>
            <path d="M2197.65,1649.26 L2198.83,1669.94 C2199.25,1672.56 2200.94,1679.04 2200.94,1681.42 C2200.94,1690.37 2161.23,1673.82 2170.13,1669.86 C2170.94,1669.5 2176.41,1664.76 2176.67,1661.71 C2177.08,1657.02 2176.87,1649.55 2176.87,1649.55 L2197.65,1649.26" id="Fill-156" fill="#F7A491"></path>
            <path d="M2170.23,1669.77 C2170.23,1669.77 2179.55,1672.51 2184.33,1673.19 C2189.1,1673.88 2195.4,1668.12 2198.77,1669.67 C2202.49,1671.39 2202.64,1686.81 2202.64,1686.81 C2202.64,1686.81 2153,1688.85 2138.29,1686.66 C2132.51,1685.8 2151.17,1676.15 2170.23,1669.77" id="Fill-157" fill="#F7CC7F"></path>
            <path d="M2185.88,1321.4 C2185.88,1321.4 2192.61,1356.22 2189.86,1382.63 C2187.12,1409.03 2186.91,1502.82 2186.91,1502.82 L2199.56,1652.83 L2172.54,1653.46 C2172.54,1653.46 2143.1,1503.47 2143.64,1507.32 C2144.19,1511.17 2133.77,1401.71 2133.77,1401.71 L2168.87,1318.1 L2185.88,1321.4" id="Fill-158" fill="#355389"></path>
            <path d="M2176.46,1298.92 C2176.46,1298.92 2206.95,1331.03 2195.61,1366.1 C2191.05,1380.19 2148.57,1514.78 2148.02,1525.78 C2147.47,1536.78 2133.65,1658.37 2133.65,1658.37 L2104.78,1657.5 L2098.53,1522.31 L2106.78,1340.16 L2124.31,1309.44 L2176.46,1298.92" id="Fill-159" fill="#466EB6"></path>
            <path d="M1991.37,1194.4 C2001.36,1183.26 2023.08,1167.41 2023.08,1167.41 C2023.08,1167.41 2036.03,1156.36 2041.3,1154.54 C2049.07,1151.86 2062.37,1144.72 2081.62,1173.88 C2095.38,1194.75 2182.27,1302.8 2196.53,1306.43 L2103.39,1350.99 C2100.84,1329.71 2054.81,1289.5 2048.19,1282 C2033.38,1265.24 1981.92,1204.95 1991.37,1194.4" id="Fill-160" fill="#F47458"></path>
            <path d="M1995.72,1149.13 L2024.73,1166.11 C2024.73,1166.11 2025.55,1190.88 2016.06,1197.31 C2008.1,1202.71 2002.05,1189.75 2002.05,1189.75 C2002.05,1189.75 1991.26,1174.8 1983.06,1170.15 C1974.87,1165.49 1995.72,1149.13 1995.72,1149.13" id="Fill-161" fill="#F7A491"></path>
            <path d="M2000.58,1160.03 C1999.49,1165.2 1996.97,1172.67 1993.05,1178.82 C1989.86,1175.36 1986.26,1171.97 1983.06,1170.15 C1979.28,1168 1981.69,1163.36 1985.37,1158.98 C1990.58,1153.56 1995.72,1149.13 1995.72,1149.13 L2001.29,1152.39 C2001.65,1154.51 2000.95,1158.31 2000.58,1160.03" id="Fill-162" fill="#F47458"></path>
            <path d="M1980.6,1106.56 C1981.09,1105.96 2004.94,1135.65 2002,1149.57 C1999.06,1163.5 1984.64,1176.2 1974.62,1172.71 C1963.54,1168.84 1942.93,1133.89 1950.32,1116.92 C1957.71,1099.96 1980.6,1106.56 1980.6,1106.56" id="Fill-163" fill="#F7A491"></path>
            <path d="M1954.49,1097.2 C1964.89,1091.41 1981.85,1089.75 1994.52,1096.39 C2010.1,1104.54 2013.65,1125.07 2008.77,1137.59 C2003.89,1150.11 2009.48,1157.18 2009.48,1157.18 L2001.21,1152.36 C2001.21,1152.36 1996.38,1144.82 1995.75,1138.82 C1995.12,1132.81 1986.36,1133.88 1982.09,1131.15 C1978.79,1129.05 1974.59,1122.24 1969.26,1118.7 C1969.26,1118.7 1955.85,1117.06 1949.25,1120.76 C1938,1127.07 1939.6,1105.48 1954.49,1097.2" id="Fill-164" fill="#13375B"></path>
            <path d="M1988.79,1136.16 C1988.71,1140.61 1990.82,1144.25 1993.49,1144.3 C1996.17,1144.34 1998.39,1140.77 1998.47,1136.31 C1998.55,1131.86 1996.44,1128.21 1993.77,1128.17 C1991.1,1128.13 1988.87,1131.7 1988.79,1136.16" id="Fill-165" fill="#F7A491"></path>
            <path d="M1964.36,1159.79 L1976.99,1150.35 C1976.99,1150.35 1980.33,1155.46 1974.9,1159.77 C1968.27,1165.03 1964.36,1159.79 1964.36,1159.79" id="Fill-166" fill="#FFFFFF"></path>
            <path d="M1932.65,1347.61 C1935.81,1342.99 1937.19,1336.32 1941.57,1331.23 C1943.03,1329.52 1945.37,1327.6 1948.03,1325.68 C1969.07,1313.37 2023.87,1281.64 2026,1279.18 C2028.53,1276.26 2065.93,1214.12 2065.93,1214.12 L2032.34,1206.51 L1999.51,1264.48 C1996.77,1266.65 1944.66,1305.17 1944.66,1305.17 C1944.66,1305.17 1934.3,1313.26 1928.63,1317.05 C1925.77,1318.72 1923,1319.8 1920.57,1320.65 C1917.51,1321.71 1911.69,1324.62 1910.51,1325.65 C1909.14,1326.86 1906.4,1329.43 1904.77,1331 C1903.14,1332.58 1901.17,1334.35 1900.41,1335.29 C1899.94,1335.86 1898.5,1336.64 1897.45,1337.17 C1895.87,1337.95 1896.08,1340.28 1897.77,1340.76 C1899.36,1341.21 1901.52,1340.21 1902.85,1339.59 C1906.63,1337.81 1911.24,1333.03 1911.48,1333.61 C1911.72,1334.2 1907.04,1344.45 1906.58,1345.66 C1906.13,1346.87 1900.75,1358.82 1900.47,1361.48 C1900.2,1364.15 1901.8,1364.76 1903,1363.79 C1904.03,1362.95 1912.67,1346.99 1912.67,1346.99 C1912.67,1346.99 1913.78,1344.96 1914.21,1346.12 C1914.64,1347.29 1906.82,1361.79 1906.05,1364.17 C1905.29,1366.55 1905.9,1368.5 1908.1,1367.67 C1910.78,1366.65 1918.17,1350.66 1918.17,1350.66 C1918.17,1350.66 1919.13,1348.67 1919.79,1349.36 C1920.44,1350.05 1913.59,1362.28 1913.51,1363.69 C1913.43,1365.1 1914.71,1366.49 1916.56,1365.31 C1918.73,1363.92 1925.21,1349.59 1925.21,1349.59 C1925.21,1349.59 1926.01,1348.64 1926.26,1349.31 C1926.51,1349.97 1921.41,1360.82 1921.79,1362.4 C1922.11,1363.73 1923.31,1363.46 1923.31,1363.46 C1925.98,1363.46 1929.49,1352.23 1932.65,1347.61" id="Fill-167" fill="#F8A492"></path>
            <path d="M2056.73,1246.95 C2056.73,1246.95 2045.79,1243.47 2038.78,1240.25 C2034.08,1238.1 2013.58,1227.9 2013.58,1227.9 C2013.58,1227.9 2022.42,1190.62 2028.39,1177.21 C2050.32,1128.02 2075.23,1161.95 2078.61,1169.86 C2086.18,1187.54 2056.73,1246.95 2056.73,1246.95" id="Fill-168" fill="#355389"></path>
            <path d="M1292.61,1118.13 L1303.02,1110.34 C1303.02,1110.34 1305.78,1114.55 1301.3,1118.11 C1295.84,1122.45 1292.61,1118.13 1292.61,1118.13" id="Fill-169" fill="#FFFFFF"></path>
            <path d="M2514.76,1686.95 L96.07,1686.95 C93.046,1686.95 90.595,1690.08 90.595,1693.94 C90.595,1697.8 93.046,1700.92 96.07,1700.92 L2514.76,1700.92 C2517.78,1700.92 2520.23,1697.8 2520.23,1693.94 C2520.23,1690.08 2517.78,1686.95 2514.76,1686.95" id="Fill-170" fill="#184655"></path>
            <path d="M1000.94,316.612 C1000.69,315.984 1000.14,315.971 999.58,315.954 C994.12,315.787 988.66,315.542 983.25,314.732 C982.34,314.597 981.45,314.394 980.62,314.062 C979.11,313.46 977.63,313.475 976.1,313.896 C975.28,314.124 974.44,314.167 973.59,314.163 C970.85,314.151 963.01,311.485 958.99,310.782 C958.07,310.621 957.34,309.926 957.11,309.021 C953.15,293.361 944.66,258.226 943.56,246.672 C942.15,231.897 931.95,165.283 931.95,165.283 L904.65,172.896 C904.65,172.896 915.88,222.067 918.99,245.91 C921.39,264.321 939.79,303.39 945.56,314.624 C948.37,322.985 954.7,323.218 956.16,323.397 C957,323.5 957.78,323.912 958.33,324.555 C959.32,325.716 960.46,326.727 961.77,327.551 C962.74,328.162 963.48,328.958 964.12,329.889 C965.28,331.583 966.32,333.352 967.35,335.127 C968.03,336.304 968.74,336.676 969.75,336.399 C970.83,336.102 971.35,335.301 971.33,333.981 C971.3,332.032 970.67,330.267 969.7,328.604 C968.78,327.046 968.85,326.14 969.91,324.706 C970.53,323.882 971.16,323.083 971.96,322.428 C972.78,321.761 973.65,321.255 974.76,321.411 C976.72,321.901 978.7,322.298 980.71,322.521 L982.36,322.857 L983.26,323.049 C983.4,323.085 986.31,323.403 987.3,323.404 C988.1,323.405 989.39,323.458 990.49,323.512 C991.49,323.56 993.6,323.04 993.67,323.038 C994.64,323.016 995.5,322.666 996.22,322.016 C996.51,321.75 996.8,321.451 996.65,321 C996.51,320.584 996.19,320.408 995.76,320.332 C995.11,320.214 991.72,319.802 991.75,319.658 C992.76,319.658 995.91,319.584 996.92,319.557 C998.28,319.521 999.45,319.035 1000.39,318.032 C1000.76,317.635 1001.19,317.243 1000.94,316.612" id="Fill-171" fill="#F7A491"></path>
            <path d="M915.41,130.475 C928.88,128.025 940,188.308 940,188.308 C940,188.308 910.06,196.665 902.39,192.282 C902.39,192.282 893.685,153.693 890.565,155.042 L915.41,130.475" id="Fill-172" fill="#9BC1F9"></path>
            <path d="M589.625,1214.03 C590.517,1211.47 578.091,1209.41 577.43,1206.83 C576.768,1204.24 593.119,1204.04 593.704,1201.77 C594.783,1197.59 575.783,1200.89 576.157,1198.93 C576.532,1196.98 595.957,1192.61 593.857,1189.25 C591.757,1185.89 574.188,1195.88 573.655,1193.61 C573.124,1191.33 590.83,1185.79 590.513,1180.79 C590.344,1178.12 561.452,1194.1 558.101,1192.65 C554.75,1191.2 561.705,1178.66 559.037,1176.79 C556.369,1174.93 548.712,1202.29 546.871,1203.2 C545.036,1204.11 505.999,1226.39 492.11,1229.93 C490.424,1225.28 486.778,1219.01 485.29,1214.61 C477.497,1220.15 471.711,1222.94 463.668,1227.99 C469.495,1242.59 477.788,1258.58 481.848,1260.42 C494.208,1266 542.012,1226.35 551.554,1219.57 C561.104,1212.78 566.57,1214.98 573.028,1212.83 C579.485,1210.69 588.733,1216.58 589.625,1214.03" id="Fill-173" fill="#F7A491"></path>
            <path d="M462,1235 C462,1235 451.3,1187.75 453.156,1174.04 C455.012,1160.33 471.305,1147.56 482.594,1152.29 C493.883,1157.04 499,1223 499,1223 L462,1235" id="Fill-174" fill="#F7CC7F"></path>
        </g>
    </g>
</svg>