<?xml version="1.0" encoding="UTF-8"?>
<svg width="1440px" height="600px" viewBox="0 0 1440 600" version="1.1" xmlns="http://www.w3.org/2000/svg" xmlns:xlink="http://www.w3.org/1999/xlink">
    <title>harmony</title>
    <g id="harmony" stroke="none" stroke-width="1" fill="none" fill-rule="evenodd" stroke-linecap="round" stroke-linejoin="round">
        <path d="M1044,535.5 C1044,524.5 1044,496 1044,450 C1044,422.812168 1030.5,398 1017,384.5 C997.487275,364.987275 976.5,332 987.5,332 C998.5,332 1012.8337,367.949833 1030.5,360 C1050.5,351 1034.5,191.5 1050.5,191.5 C1066.5,191.5 1055.5,340.5 1062,340.5 C1068.5,340.5 1059,173.5 1074.5,173.5 C1090,173.5 1081,340.5 1086,340.5 C1091,340.5 1086.5,213 1097.5,213 C1108.5,213 1103.5,340.5 1108.5,340.5 C1113.5,340.5 1108.5,228 1118,228 C1127.5,228 1127.5,370.511071 1127.5,398 C1127.5,416.325952 1122.83333,433.659286 1113.5,450 L1113.5,535.5" id="Path-7" stroke="#1A508B" stroke-width="8"></path>
        <path d="M1146.83484,412.871724 C1146.83484,401.871724 1146.83484,373.371724 1146.83484,327.371724 C1146.83484,300.183892 1133.33484,275.371724 1119.83484,261.871724 C1100.32212,242.358999 1079.33484,209.371724 1090.33484,209.371724 C1101.33484,209.371724 1115.66855,245.321557 1133.33484,237.371724 C1140.39178,234.196104 1142.96668,212.283113 1144.04678,185.250959 M1146.5498,90.3669061 C1147.67227,77.28966 1149.65912,68.871724 1153.33484,68.871724 C1156.2375,68.871724 1158.25154,73.7755944 1159.64266,81.8040508 M1162.53839,193.75997 C1162.6581,208.188892 1163.17785,217.871724 1164.83484,217.871724 C1166.30883,217.871724 1166.96005,209.283964 1167.26659,196.003303 M1169.85767,75.8556798 C1171.25839,60.8179247 1173.55214,50.871724 1177.33484,50.871724 C1180.3311,50.871724 1182.41185,57.1120953 1183.8552,67.1802263 M1187.07953,184.660378 C1187.11955,204.190766 1187.40374,217.871724 1188.83484,217.871724 C1190.46926,217.871724 1191.08858,204.247973 1191.566,185.907234 M1208.49222,174.118618 C1208.94753,198.09459 1209.36561,217.871724 1211.33484,217.871724 C1213.36627,217.871724 1213.74702,199.301552 1214.12017,177.250804 M1229.25396,183.689965 C1230.33484,221.723812 1230.33484,262.051552 1230.33484,275.371724 C1230.33484,293.697676 1225.66818,311.03101 1216.33484,327.371724 L1216.33484,412.871724" id="Shape" stroke="#1A508B" stroke-width="8" transform="translate(1158.817155, 231.871724) rotate(-120.000000) translate(-1158.817155, -231.871724) "></path>
        <path d="M999.146422,395.396225 C999.146422,384.396225 999.146422,355.896225 999.146422,309.896225 C999.146422,282.708393 985.646422,257.896225 972.146422,244.396225 C952.633697,224.8835 931.646422,191.896225 942.646422,191.896225 C953.646422,191.896225 967.980127,227.846058 985.646422,219.896225 C990.97531,217.498226 993.748464,204.415837 995.252143,186.512891 M997.924329,89.2479849 C998.738121,67.2523636 1000.60169,51.3962251 1005.64642,51.3962251 C1010.10302,51.3962251 1012.46487,62.9560975 1013.69362,79.6361306 M1014.86013,177.399644 C1014.99746,191.210101 1015.53249,200.396225 1017.14642,200.396225 C1018.78251,200.396225 1019.40491,189.815794 1019.66743,173.981246 M1021.03056,75.2152365 C1022.18756,51.2168017 1024.58311,33.3962251 1029.64642,33.3962251 C1034.0084,33.3962251 1036.43008,46.6219837 1037.76951,65.6295645 M1039.38555,161.596615 C1039.38822,184.055285 1039.58237,200.396225 1041.14642,200.396225 C1043.01535,200.396225 1043.55698,182.582423 1044.0769,160.271924 M1060.7062,151.505181 C1061.20779,177.72653 1061.5381,200.396225 1063.64642,200.396225 C1065.99177,200.396225 1066.13686,175.643179 1066.61027,149.358932 M1080.5991,139.919086 C1082.64642,183.589571 1082.64642,241.41541 1082.64642,257.896225 C1082.64642,276.222178 1077.97976,293.555511 1068.64642,309.896225 L1068.64642,395.396225" id="Shape" stroke="#1A508B" stroke-width="8" transform="translate(1011.128735, 214.396225) rotate(120.000000) translate(-1011.128735, -214.396225) "></path>
    </g>
</svg>