<?xml version="1.0" encoding="UTF-8"?>
<svg width="2131px" height="1024px" viewBox="0 0 2131 1024" version="1.1" xmlns="http://www.w3.org/2000/svg" xmlns:xlink="http://www.w3.org/1999/xlink">
    <title>logo-type-dark</title>
    <g id="logo-type-dark" stroke="none" stroke-width="1" fill="none" fill-rule="evenodd">
        <g transform="translate(256.000000, 256.000000)">
            <g id="Group-3" transform="translate(650.000000, 140.000000)" fill="#3676BD" fill-rule="nonzero">
                <path d="M12.272,89 L12.272,0.68 L1.52,0.68 L1.52,89 L12.272,89 Z M43.76,89 L43.76,33.704 C45.1253333,32.168 47.2586667,31.4 50.16,31.4 L50.16,31.4 L68.08,31.4 L68.08,26.28 L62.96,22.44 L50.16,22.44 C42.0533333,22.44 36.5066667,25 33.52,30.12 L33.52,30.12 L33.52,89 L43.76,89 Z M131.056,89 L131.056,41.64 C131.056,28.84 124.656,22.44 111.856,22.44 L111.856,22.44 L89.584,22.44 L84.464,26.28 L84.464,31.4 L111.856,31.4 C117.829333,31.4 120.816,34.3866667 120.816,40.36 L120.816,40.36 L120.816,50.344 L97.392,50.344 C84.5066667,50.344 78.064,56.7866667 78.064,69.672 C78.064,82.5573333 84.5066667,89 97.392,89 L97.392,89 L131.056,89 Z M120.816,80.04 L97.264,80.04 C91.2906667,80.04 88.304,77.0533333 88.304,71.08 L88.304,71.08 L88.304,68.264 C88.304,62.2906667 91.2906667,59.304 97.264,59.304 L97.264,59.304 L120.816,59.304 L120.816,80.04 Z M161.264,89 L161.264,31.4 L186.864,31.4 C192.837333,31.4 195.824,34.3866667 195.824,40.36 L195.824,40.36 L195.824,89 L206.064,89 L206.064,41.64 C206.064,28.84 199.664,22.44 186.864,22.44 L186.864,22.44 L151.024,22.44 L151.024,89 L161.264,89 Z M49.776,217 C62.832,217 69.36,210.472 69.36,197.416 L69.36,197.416 L69.36,148.264 C69.36,135.208 62.832,128.68 49.776,128.68 L49.776,128.68 L19.824,128.68 C6.768,128.68 0.24,135.208 0.24,148.264 L0.24,148.264 L0.24,197.416 C0.24,210.472 6.768,217 19.824,217 L19.824,217 L49.776,217 Z M49.904,207.272 L19.696,207.272 C13.8933333,207.272 10.992,204.370667 10.992,198.568 L10.992,198.568 L10.992,147.112 C10.992,141.309333 13.8933333,138.408 19.696,138.408 L19.696,138.408 L49.904,138.408 C55.7066667,138.408 58.608,141.309333 58.608,147.112 L58.608,147.112 L58.608,198.568 C58.608,204.370667 55.7066667,207.272 49.904,207.272 L49.904,207.272 Z M100.08,242.6 L100.08,217 L125.68,217 C138.48,217 144.88,210.6 144.88,197.8 L144.88,197.8 L144.88,169.64 C144.88,156.84 138.48,150.44 125.68,150.44 L125.68,150.44 L89.84,150.44 L89.84,242.6 L100.08,242.6 Z M125.68,208.04 L100.08,208.04 L100.08,159.4 L125.68,159.4 C131.653333,159.4 134.64,162.386667 134.64,168.36 L134.64,168.36 L134.64,199.08 C134.64,205.053333 131.653333,208.04 125.68,208.04 L125.68,208.04 Z M210.672,217 L215.792,213.16 L215.792,208.04 L182.512,208.04 C176.538667,208.04 173.552,205.053333 173.552,199.08 L173.552,199.08 L173.552,188.072 L218.352,188.072 L218.352,169.64 C218.352,156.84 211.952,150.44 199.152,150.44 L199.152,150.44 L182.512,150.44 C169.712,150.44 163.312,156.84 163.312,169.64 L163.312,169.64 L163.312,197.8 C163.312,210.6 169.712,217 182.512,217 L182.512,217 L210.672,217 Z M208.112,179.112 L173.552,179.112 L173.552,168.36 C173.552,162.386667 176.538667,159.4 182.512,159.4 L182.512,159.4 L199.152,159.4 C205.125333,159.4 208.112,162.386667 208.112,168.36 L208.112,168.36 L208.112,179.112 Z M248.048,217 L248.048,159.4 L273.648,159.4 C279.621333,159.4 282.608,162.386667 282.608,168.36 L282.608,168.36 L282.608,217 L292.848,217 L292.848,169.64 C292.848,156.84 286.448,150.44 273.648,150.44 L273.648,150.44 L237.808,150.44 L237.808,217 L248.048,217 Z M380.272,217 C393.328,217 399.856,210.472 399.856,197.416 L399.856,197.416 L399.856,188.84 C399.856,178.088 395.162667,171.773333 385.776,169.896 L385.776,169.896 L358.256,164.392 C353.904,163.538667 351.728,160.68 351.728,155.816 L351.728,155.816 L351.728,147.112 C351.728,141.309333 354.629333,138.408 360.432,138.408 L360.432,138.408 L397.296,138.408 L397.296,133.16 L391.536,128.68 L360.56,128.68 C347.504,128.68 340.976,135.208 340.976,148.264 L340.976,148.264 L340.976,155.048 C340.976,165.8 345.669333,172.114667 355.056,173.992 L355.056,173.992 L382.576,179.496 C386.928,180.349333 389.104,183.208 389.104,188.072 L389.104,188.072 L389.104,198.568 C389.104,204.370667 386.202667,207.272 380.4,207.272 L380.4,207.272 L340.976,207.272 L340.976,212.52 L346.736,217 L380.272,217 Z M453.872,217 C466.672,217 473.072,210.6 473.072,197.8 L473.072,197.8 L473.072,169.64 C473.072,156.84 466.672,150.44 453.872,150.44 L453.872,150.44 L435.952,150.44 C423.152,150.44 416.752,156.84 416.752,169.64 L416.752,169.64 L416.752,197.8 C416.752,210.6 423.152,217 435.952,217 L435.952,217 L453.872,217 Z M453.872,208.04 L435.952,208.04 C429.978667,208.04 426.992,205.053333 426.992,199.08 L426.992,199.08 L426.992,168.36 C426.992,162.386667 429.978667,159.4 435.952,159.4 L435.952,159.4 L453.872,159.4 C459.845333,159.4 462.832,162.386667 462.832,168.36 L462.832,168.36 L462.832,199.08 C462.832,205.053333 459.845333,208.04 453.872,208.04 L453.872,208.04 Z M547.056,217 L547.056,150.44 L536.816,150.44 L536.816,208.04 L511.216,208.04 C505.242667,208.04 502.256,205.053333 502.256,199.08 L502.256,199.08 L502.256,150.44 L492.016,150.44 L492.016,197.8 C492.016,210.6 498.416,217 511.216,217 L511.216,217 L547.056,217 Z M577.264,217 L577.264,161.704 C578.629333,160.168 580.762667,159.4 583.664,159.4 L583.664,159.4 L601.584,159.4 L601.584,154.28 L596.464,150.44 L583.664,150.44 C575.557333,150.44 570.010667,153 567.024,158.12 L567.024,158.12 L567.024,217 L577.264,217 Z M658.416,217 L663.536,213.16 L663.536,208.04 L633.328,208.04 C627.354667,208.04 624.368,205.053333 624.368,199.08 L624.368,199.08 L624.368,168.36 C624.368,162.386667 627.354667,159.4 633.328,159.4 L633.328,159.4 L663.536,159.4 L663.536,154.28 L658.416,150.44 L633.328,150.44 C620.528,150.44 614.128,156.84 614.128,169.64 L614.128,169.64 L614.128,197.8 C614.128,210.6 620.528,217 633.328,217 L633.328,217 L658.416,217 Z M726,217 L731.12,213.16 L731.12,208.04 L697.84,208.04 C691.866667,208.04 688.88,205.053333 688.88,199.08 L688.88,199.08 L688.88,188.072 L733.68,188.072 L733.68,169.64 C733.68,156.84 727.28,150.44 714.48,150.44 L714.48,150.44 L697.84,150.44 C685.04,150.44 678.64,156.84 678.64,169.64 L678.64,169.64 L678.64,197.8 C678.64,210.6 685.04,217 697.84,217 L697.84,217 L726,217 Z M723.44,179.112 L688.88,179.112 L688.88,168.36 C688.88,162.386667 691.866667,159.4 697.84,159.4 L697.84,159.4 L714.48,159.4 C720.453333,159.4 723.44,162.386667 723.44,168.36 L723.44,168.36 L723.44,179.112 Z M12.272,345 L12.272,303.528 L57.328,303.528 L57.328,345 L68.08,345 L68.08,256.68 L57.328,256.68 L57.328,293.8 L12.272,293.8 L12.272,256.68 L1.52,256.68 L1.52,345 L12.272,345 Z M139.248,345 L139.248,297.64 C139.248,284.84 132.848,278.44 120.048,278.44 L120.048,278.44 L97.776,278.44 L92.656,282.28 L92.656,287.4 L120.048,287.4 C126.021333,287.4 129.008,290.386667 129.008,296.36 L129.008,296.36 L129.008,306.344 L105.584,306.344 C92.6986667,306.344 86.256,312.786667 86.256,325.672 C86.256,338.557333 92.6986667,345 105.584,345 L105.584,345 L139.248,345 Z M129.008,336.04 L105.456,336.04 C99.4826667,336.04 96.496,333.053333 96.496,327.08 L96.496,327.08 L96.496,324.264 C96.496,318.290667 99.4826667,315.304 105.456,315.304 L105.456,315.304 L129.008,315.304 L129.008,336.04 Z M202.48,345 L207.6,341.16 L207.6,336.04 L177.392,336.04 C171.418667,336.04 168.432,333.053333 168.432,327.08 L168.432,327.08 L168.432,296.36 C168.432,290.386667 171.418667,287.4 177.392,287.4 L177.392,287.4 L207.6,287.4 L207.6,282.28 L202.48,278.44 L177.392,278.44 C164.592,278.44 158.192,284.84 158.192,297.64 L158.192,297.64 L158.192,325.8 C158.192,338.6 164.592,345 177.392,345 L177.392,345 L202.48,345 Z M233.968,345 L233.968,325.8 L245.104,313.768 L266.608,345 L276.592,345 L277.488,343.08 L251.888,306.344 L275.696,280.36 L274.8,278.44 L264.816,278.44 L233.968,312.36 L233.968,250.28 L223.728,250.28 L223.728,345 L233.968,345 Z M340.72,345 L340.72,297.64 C340.72,284.84 334.32,278.44 321.52,278.44 L321.52,278.44 L299.248,278.44 L294.128,282.28 L294.128,287.4 L321.52,287.4 C327.493333,287.4 330.48,290.386667 330.48,296.36 L330.48,296.36 L330.48,306.344 L307.056,306.344 C294.170667,306.344 287.728,312.786667 287.728,325.672 C287.728,338.557333 294.170667,345 307.056,345 L307.056,345 L340.72,345 Z M330.48,336.04 L306.928,336.04 C300.954667,336.04 297.968,333.053333 297.968,327.08 L297.968,327.08 L297.968,324.264 C297.968,318.290667 300.954667,315.304 306.928,315.304 L306.928,315.304 L330.48,315.304 L330.48,336.04 Z M390.896,345 L396.016,341.16 L396.016,336.04 L379.376,336.04 C373.402667,336.04 370.416,333.053333 370.416,327.08 L370.416,327.08 L370.416,287.4 L394.736,287.4 L394.736,278.44 L370.416,278.44 L370.416,256.68 L360.176,256.68 L360.176,325.8 C360.176,338.6 366.576,345 379.376,345 L379.376,345 L390.896,345 Z M421.104,345 L421.104,287.4 L446.704,287.4 C452.677333,287.4 455.664,290.386667 455.664,296.36 L455.664,296.36 L455.664,345 L465.904,345 L465.904,297.64 C465.904,284.84 459.504,278.44 446.704,278.44 L446.704,278.44 L421.104,278.44 L421.104,250.28 L410.864,250.28 L410.864,345 L421.104,345 Z M521.968,345 C534.768,345 541.168,338.6 541.168,325.8 L541.168,325.8 L541.168,297.64 C541.168,284.84 534.768,278.44 521.968,278.44 L521.968,278.44 L504.048,278.44 C491.248,278.44 484.848,284.84 484.848,297.64 L484.848,297.64 L484.848,325.8 C484.848,338.6 491.248,345 504.048,345 L504.048,345 L521.968,345 Z M521.968,336.04 L504.048,336.04 C498.074667,336.04 495.088,333.053333 495.088,327.08 L495.088,327.08 L495.088,296.36 C495.088,290.386667 498.074667,287.4 504.048,287.4 L504.048,287.4 L521.968,287.4 C527.941333,287.4 530.928,290.386667 530.928,296.36 L530.928,296.36 L530.928,327.08 C530.928,333.053333 527.941333,336.04 521.968,336.04 L521.968,336.04 Z M570.864,345 L570.864,287.4 L596.464,287.4 C602.437333,287.4 605.424,290.386667 605.424,296.36 L605.424,296.36 L605.424,345 L615.664,345 L615.664,297.64 C615.664,284.84 609.264,278.44 596.464,278.44 L596.464,278.44 L560.624,278.44 L560.624,345 L570.864,345 Z" id="IranOpenSourceHackathon"></path>
            </g>
            <g id="colored">
                <path d="M256,32 C397.384896,32 512,146.615104 512,288 C512,397.730074 442.962165,491.335498 345.952887,527.750254 L295.770961,394.000843 L296,362 L308.66701,383.999386 L352,384 L351.998916,340.666712 C365.135861,325.782504 374.865417,307.81941 379.966911,287.997943 C374.948902,268.50296 365.453554,250.805479 352.642378,236.067279 L351.999061,235.332841 L352,192 L308.664657,191.999271 C293.780851,178.863243 275.818498,169.134349 255.997943,164.033089 C236.503831,169.050874 218.80706,178.545598 204.069254,191.355906 L203.334835,191.999179 L160,192 L159.999271,235.335343 C146.863243,250.219149 137.134349,268.181502 132.033089,288.002057 C137.05083,307.495996 146.545429,325.192626 159.355588,339.930589 L159.998854,340.665016 L160,384 L216,362 L216.230108,394.000632 L166.048114,527.750254 C69.0383102,491.336142 0,397.730452 0,288 C0,146.615104 114.615104,32 256,32 Z" id="volume" fill="#093A6F"></path>
                <path d="M256,-2.84217094e-14 C397.384896,-2.84217094e-14 512,114.615104 512,256 C512,365.730074 442.962165,459.335498 345.952887,495.750254 L295.770961,362.000843 C299.907758,359.194429 303.871601,356.152205 307.64318,352.893482 L308.66701,351.999386 L352,352 L351.998916,308.666712 C365.135861,293.782504 374.865417,275.81941 379.966911,255.997943 C374.948902,236.50296 365.453554,218.805479 352.642378,204.067279 L351.999061,203.332841 L352,160 L308.664657,159.999271 C293.780851,146.863243 275.818498,137.134349 255.997943,132.033089 C236.503831,137.050874 218.80706,146.545598 204.069254,159.355906 L203.334835,159.999179 L160,160 L159.999271,203.335343 C146.863243,218.219149 137.134349,236.181502 132.033089,256.002057 C137.05083,275.495996 146.545429,293.192626 159.355588,307.930589 L159.998854,308.665016 L160,352 L203.333288,351.998916 C207.069954,355.296933 211.000669,358.380198 215.106121,361.229396 L216.230108,362.000632 L166.048114,495.750254 C69.0383102,459.336142 0,365.730452 0,256 C0,114.615104 114.615104,-2.84217094e-14 256,-2.84217094e-14 Z" id="surface" fill="#3676BD"></path>
            </g>
        </g>
    </g>
</svg>