<?xml version="1.0" encoding="UTF-8"?>
<svg width="1024px" height="1024px" viewBox="0 0 960 960" version="1.1" xmlns="http://www.w3.org/2000/svg" xmlns:xlink="http://www.w3.org/1999/xlink">
    <title>logo-dark</title>
    <g id="logo-dark" stroke="none" stroke-width="1" fill="none" fill-rule="evenodd">
        <g transform="translate(256.000000, 256.000000)">
            <path d="M256,32 C397.384896,32 512,146.615104 512,288 C512,397.730074 442.962165,491.335498 345.952887,527.750254 L295.770961,394.000843 L296,362 L308.66701,383.999386 L352,384 L351.998916,340.666712 C365.135861,325.782504 374.865417,307.81941 379.966911,287.997943 C374.948902,268.50296 365.453554,250.805479 352.642378,236.067279 L351.999061,235.332841 L352,192 L308.664657,191.999271 C293.780851,178.863243 275.818498,169.134349 255.997943,164.033089 C236.503831,169.050874 218.80706,178.545598 204.069254,191.355906 L203.334835,191.999179 L160,192 L159.999271,235.335343 C146.863243,250.219149 137.134349,268.181502 132.033089,288.002057 C137.05083,307.495996 146.545429,325.192626 159.355588,339.930589 L159.998854,340.665016 L160,384 L216,362 L216.230108,394.000632 L166.048114,527.750254 C69.0383102,491.336142 0,397.730452 0,288 C0,146.615104 114.615104,32 256,32 Z" id="volume" fill="#093A6F"></path>
            <path d="M256,-2.84217094e-14 C397.384896,-2.84217094e-14 512,114.615104 512,256 C512,365.730074 442.962165,459.335498 345.952887,495.750254 L295.770961,362.000843 C299.907758,359.194429 303.871601,356.152205 307.64318,352.893482 L308.66701,351.999386 L352,352 L351.998916,308.666712 C365.135861,293.782504 374.865417,275.81941 379.966911,255.997943 C374.948902,236.50296 365.453554,218.805479 352.642378,204.067279 L351.999061,203.332841 L352,160 L308.664657,159.999271 C293.780851,146.863243 275.818498,137.134349 255.997943,132.033089 C236.503831,137.050874 218.80706,146.545598 204.069254,159.355906 L203.334835,159.999179 L160,160 L159.999271,203.335343 C146.863243,218.219149 137.134349,236.181502 132.033089,256.002057 C137.05083,275.495996 146.545429,293.192626 159.355588,307.930589 L159.998854,308.665016 L160,352 L203.333288,351.998916 C207.069954,355.296933 211.000669,358.380198 215.106121,361.229396 L216.230108,362.000632 L166.048114,495.750254 C69.0383102,459.336142 0,365.730452 0,256 C0,114.615104 114.615104,-2.84217094e-14 256,-2.84217094e-14 Z" id="surface" fill="#3676BD"></path>
        </g>
    </g>
</svg>