<?xml version="1.0" encoding="UTF-8"?>
<svg width="842px" height="1191px" viewBox="0 0 842 1191" version="1.1" xmlns="http://www.w3.org/2000/svg" xmlns:xlink="http://www.w3.org/1999/xlink">
    <title>poster-2</title>
    <g id="poster-2" stroke="none" stroke-width="1" fill="none" fill-rule="evenodd">
        <rect fill="#212121" x="0" y="0" width="842" height="1191"></rect>
        <g id="lines-bounded" transform="translate(422.000000, 596.500000) rotate(-90.000000) translate(-422.000000, -596.500000) translate(-174.500000, 174.500000)" stroke="#424242" stroke-linecap="round" stroke-linejoin="round">
            <path d="M1190.5,502 L1108.64952,436.535917 C971.148253,326.56228 788.536016,290.82988 619.725,340.866279 C445.268258,392.576099 258.429396,383.572227 89.7533733,315.326642 L0.5,279.215116 L0.5,279.215116" id="Path-10"></path>
            <path d="M1190.5,494 L1104.29409,422.325265 C969.581119,310.31999 788.46135,271.595192 619.725,318.72067 C445.381889,367.412031 259.613476,354.841554 93.4192881,283.106897 L0.5,243 L0.5,243" id="Path-10-Copy-36"></path>
            <path d="M1190.5,484 L1100.11565,406.05958 C968.052133,292.178296 788.419439,250.548268 619.725,294.728643 C445.478276,340.363139 260.808549,324.295389 97.0617063,249.252739 L0.5,205 L0.5,205" id="Path-10-Copy-37"></path>
            <path d="M1191,474.5 L1096.81285,390.643827 C967.10763,275.165409 788.948734,230.775361 620.225,271.89726 C446.033655,314.351743 262.499465,294.899315 101.077553,216.873844 L1,168.5 L1,168.5" id="Path-10-Copy-38"></path>
            <path d="M1190.5,466 L1092.10428,375.068794 C965.084933,257.685411 788.381603,210.429707 619.725,248.740586 C445.646036,288.28317 263.207429,265.402707 104.284625,184.09684 L0.5,131 L0.5,131" id="Path-10-Copy-39"></path>
            <path d="M1190.5,456 L1088.27497,358.368855 C963.649997,239.344388 788.384992,189.361342 619.725,224.745174 C445.716891,261.251008 264.404988,235.052698 107.848172,150.782528 L0.5,93 L0.5,93" id="Path-10-Copy-40"></path>
            <path d="M1191,446.5 L1085.29318,342.540514 C962.804828,222.076903 788.94391,169.491061 620.225,201.876344 C446.25298,235.269952 266.075648,205.869038 111.743546,118.903533 L1,56.5 L1,56.5" id="Path-10-Copy-41"></path>
            <path d="M1190.5,437 L1080.97321,325.619127 C960.883784,203.496815 788.43406,148.213006 619.725,177.752508 C445.831817,208.199706 266.781779,175.535339 114.841788,85.6459064 L0.5,18 L0.5,18" id="Path-10-Copy-42"></path>
            <path d="M1190.5,428 L1077.66591,309.945235 C959.635733,186.453968 788.578753,128.64677 619.833928,155.224956 C446.002633,182.604286 268.113204,146.835937 118.374036,54.3960732 L33.5,2 L33.5,2" id="Path-10-Copy-43"></path>
            <path d="M1190.5,419 L1074.03759,293.229963 C958.214237,168.150048 788.483993,107.711696 619.673116,131.4377 C445.85329,155.867702 269.047218,116.918941 121.582138,21.7128104 L89.5,1 L89.5,1" id="Path-10-Copy-44"></path>
            <path d="M1191.5,409 L1080.9172,286.420424 C960.385417,152.812528 790.783193,87.0864554 620.546131,108.012491 L611.548548,109.1185 C448.534296,129.156687 284.130683,91.1538296 142.5,1" id="Path-10-Copy-45"></path>
            <path d="M1190.5,399 L1076.9395,269.702714 C958.260069,134.577126 789.821472,66.2843516 619.544096,84.2535239 L611.77798,85.0730731 C468.711427,100.170719 325.222327,70.7286811 197.5,1" id="Path-10-Copy-46"></path>
            <path d="M1191,390.5 L1074.63235,254.378154 C957.817596,117.733297 790.63295,46.8916053 620.418321,61.9125698 L613.645841,62.5102222 C492.338531,73.2152527 371.189933,51.9578257 260,1.5" id="Path-10-Copy-47"></path>
            <path d="M1190,381.5 L1070.75395,238.061766 C955.575737,99.5166451 789.388817,25.9406476 618.988305,38.0513943 L612.959708,38.4798602 C518.044448,45.2257008 423.507621,32.4317809 334,1.5" id="Path-10-Copy-48"></path>
            <path d="M1191,371.5 L1069.14494,221.08207 C955.71231,81.0608011 790.749162,4.98717977 620.408182,14.1447608 L614.895203,14.4411401 C553.916174,17.7193906 493.209061,12.9413046 434,0.5" id="Path-10-Copy-49"></path>
            <path d="M1191,361.5 L1066.52608,204.332421 C981.229554,96.6323556 865.656643,25.4684821 740,0.5" id="Path-10-Copy-50"></path>
            <path d="M1191.5,354 L1064.63825,189.712364 C997.637565,102.945602 911.232838,39.0385389 815.5,3" id="Path-10-Copy-51"></path>
            <path d="M1192.5,344 L1062.83357,172.552029 C1006.99643,98.7228637 937.236167,40.8534444 859.5,2" id="Path-10-Copy-52"></path>
            <path d="M1191,334.5 L1059.1241,155.760552 C1012.34269,92.3548522 955.438302,40.2970171 892,1.5" id="Path-10-Copy-53"></path>
            <path d="M1191,325.5 L1056.94577,139.582152 C1017.62958,85.0550971 970.920738,38.6268194 919,1.5" id="Path-10-Copy-54"></path>
            <path d="M1191,315.5 L1054.69345,122.06756 C1021.98057,75.6447553 983.989175,34.8787609 942,0.5" id="Path-10-Copy-55"></path>
            <path d="M1191,306.5 L1052.87902,106.259529 C1025.75217,66.932452 994.876733,31.5326752 961,0.5" id="Path-10-Copy-56"></path>
            <path d="M1192.5,297 L1051.59291,89.2443141 C1029.88992,57.2450728 1005.73057,27.7527195 979.5,1" id="Path-10-Copy-57"></path>
            <path d="M1192,287.5 L1049.65998,71.9879985 C1032.89232,46.6006777 1014.61175,22.7334008 995,0.5" id="Path-10-Copy-58"></path>
            <path d="M1192.5,278 L1048.13941,55.6994765 C1035.749,36.6195119 1022.51112,18.3704513 1008.5,1" id="Path-10-Copy-59"></path>
            <path d="M1192.5,269 L1045.90486,39.3602769 C1037.49476,26.1859418 1028.68535,13.3940463 1019.5,1" id="Path-10-Copy-60"></path>
            <path d="M1191,260.5 L1043.84289,22.943275 C1039.34532,15.6828061 1034.72979,8.53420906 1030,1.5" id="Path-10-Copy-61"></path>
            <path d="M1190.5,250 L1041.52982,5.91805622 C1040.52587,4.27313129 1039.51592,2.6337696 1038.5,1" id="Path-10-Copy-62"></path>
            <path d="M1191,240.5 C1127,133.833333 1079,53.8333333 1047,0.5" id="Path-10-Copy-63"></path>
            <path d="M1190.5,232 C1130.05556,129.333333 1084.72222,52.3333333 1054.5,1" id="Path-10-Copy-64"></path>
            <path d="M1191.5,222 C1134.61111,123.777778 1091.94444,50.1111111 1063.5,1" id="Path-10-Copy-65"></path>
            <path d="M1191,213.5 C1137.66667,119.277778 1097.66667,48.6111111 1071,1.5" id="Path-10-Copy-66"></path>
            <path d="M1191,203.5 C1140.77778,113.277778 1103.11111,45.6111111 1078,0.5" id="Path-10-Copy-67"></path>
            <path d="M1191.5,195 C1144.38889,109.222222 1109.05556,44.8888889 1085.5,2" id="Path-10-Copy-68"></path>
            <path d="M1191,184.5 C1147,103.166667 1114,42.1666667 1092,1.5" id="Path-10-Copy-69"></path>
            <path d="M1191,176.5 C1149.66667,98.7222222 1118.66667,40.3888889 1098,1.5" id="Path-10-Copy-70"></path>
            <path d="M1190.5,166 C1152.27778,92.6666667 1123.61111,37.6666667 1104.5,1" id="Path-10-Copy-71"></path>
            <path d="M1191,157.5 C1155.44444,88.1666667 1128.77778,36.1666667 1111,1.5" id="Path-10-Copy-72"></path>
            <path d="M1191,147.5 C1158.11111,82.6111111 1133.44444,33.9444444 1117,1.5" id="Path-10-Copy-73"></path>
            <path d="M1191.5,139 C1161.27778,78.1111111 1138.61111,32.4444444 1123.5,2" id="Path-10-Copy-74"></path>
            <path d="M1191.5,128 C1163.5,71.1111111 1142.5,28.4444444 1128.5,4.26325641e-14" id="Path-10-Copy-75"></path>
            <path d="M1191.5,120 C1165.72222,67.1111111 1146.38889,27.4444444 1133.5,1" id="Path-10-Copy-76"></path>
            <path d="M1191.5,111 C1168.38889,62.5555556 1151.05556,26.2222222 1139.5,2" id="Path-10-Copy-77"></path>
            <path d="M1191.5,101 C1170.61111,56.5555556 1154.94444,23.2222222 1144.5,1" id="Path-10-Copy-78"></path>
            <path d="M1191.5,92 C1172.83333,51.5555556 1158.83333,21.2222222 1149.5,1" id="Path-10-Copy-79"></path>
            <path d="M1191,82.5 C1174.55556,46.5 1162.22222,19.5 1154,1.5" id="Path-10-Copy-80"></path>
            <path d="M1191.5,72 C1177.27778,40.4444444 1166.61111,16.7777778 1159.5,1" id="Path-10-Copy-81"></path>
            <path d="M1191,63.5 C1178.55556,35.9444444 1169.22222,15.2777778 1163,1.5" id="Path-10-Copy-82"></path>
            <path d="M1192.5,54 C1181.83333,30.4444444 1173.83333,12.7777778 1168.5,1" id="Path-10-Copy-83"></path>
            <path d="M1191.5,44 C1183.05556,24.4444444 1176.72222,9.77777778 1172.5,4.26325641e-14" id="Path-10-Copy-84"></path>
            <path d="M1191.5,36 C1184.83333,20.8888889 1179.83333,9.55555556 1176.5,2" id="Path-10-Copy-85"></path>
            <path d="M1191.5,27 C1187.05556,15.8888889 1183.72222,7.55555556 1181.5,2" id="Path-10-Copy-86"></path>
            <path d="M1191.5,17 C1188.38889,9.88888889 1186.05556,4.55555556 1184.5,1" id="Path-10-Copy-87"></path>
            <path d="M1191,8.5 C1189.66667,5.38888889 1188.66667,3.05555556 1188,1.5" id="Path-10-Copy-88"></path>
            <path d="M1190.5,512 L1113.2381,452.769933 C972.755044,345.073642 788.664728,312.444243 619.725,365.296371 C445.127227,419.918596 257.272959,414.548195 86.0808879,350.040485 L0.5,317.792339 L0.5,317.792339" id="Path-10-Copy"></path>
            <path d="M1191,521.5 L1118.15477,467.831563 C974.843635,362.247654 789.234208,332.7056 620.225,388.579832 C445.519752,446.337168 256.609189,444.637445 82.971485,383.745893 L1,355 L1,355" id="Path-10-Copy-2"></path>
            <path d="M1190.5,530 L1122.17837,481.704945 C975.957262,378.344468 788.818165,351.968708 619.725,410.888158 C444.905968,471.80275 254.957143,473.84442 78.8691671,416.70156 L0.5,391.269737 L0.5,391.269737" id="Path-10-Copy-3"></path>
            <path d="M1190,540.5 L1126.30526,497.378033 C977.093806,396.360405 788.416527,373.234069 619.225,435.224771 C444.286361,499.321178 253.319664,505.176482 74.7827644,451.918125 L0,429.610092 L0,429.610092" id="Path-10-Copy-4"></path>
            <path d="M1190,549.382353 L1131.26238,511.588648 C978.744083,413.453392 788.632225,393.742367 619.225,458.5 C444.112054,525.438703 252.283982,535.129593 71.3164977,486.179585 L0,466.88914 L0,466.88914" id="Path-10-Copy-5"></path>
            <path d="M1190,558.642857 L1136.00688,525.467909 C980.408346,429.86364 788.738224,413.556306 619.225,481.5 L617.885541,482.036877 C443.525029,551.923443 251.667131,565.50184 69.2017137,520.868985 L0,503.941558 L0,503.941558" id="Path-10-Copy-6"></path>
            <path d="M1190.5,567.518672 L1141.48447,538.967635 C982.561352,446.396577 789.444486,433.639201 619.725,504.5 L611.611792,507.887403 C441.498839,578.912481 253.678488,595.986627 73.5466497,556.801181 L0.5,540.910788 L0.5,540.910788" id="Path-10-Copy-7"></path>
            <path d="M1191,577.444223 L1146.99052,553.207538 C984.704686,463.834282 790.163905,454.709494 620.225,528.5 L605.222967,535.01415 C439.439082,607.000473 255.821911,627.404587 78.2788568,593.569827 L1,578.842629 L1,578.842629" id="Path-10-Copy-8"></path>
            <path d="M1191,586.557471 L1151.96682,566.212486 C986.384719,479.907314 790.325985,474.482668 620.225,551.5 L599.046608,561.089029 C437.161926,634.386231 257.201456,658.118852 81.8494186,629.295367 L1,616.005747 L1,616.005747" id="Path-10-Copy-9"></path>
            <path d="M1190.5,596.505535 L1156.52731,579.875118 C987.50422,497.13442 790.074272,495.5253 619.725,575.5 L591.407169,588.79451 C434.026868,662.680604 258.614517,689.400543 86.3729354,665.724577 L0.5,653.920664 L0.5,653.920664" id="Path-10-Copy-10"></path>
            <path d="M1190,605.492883 L1161.07627,592.247154 C988.59866,513.260405 789.833939,515.554107 619.225,598.5 L583.7099,615.766573 C430.880823,690.068332 260.138607,719.583951 91.2352335,700.898971 L0,690.80605 L0,690.80605" id="Path-10-Copy-11"></path>
            <path d="M1190.5,615.515464 L1166.59818,605.321309 C990.662589,530.284575 790.604177,536.568924 619.725,622.5 L576.973065,643.998932 C428.730702,718.546493 262.764939,750.660676 97.4143286,736.792993 L0.5,728.664948 L0.5,728.664948" id="Path-10-Copy-12"></path>
            <path d="M1190.5,624.495017 L1171.65459,617.021582 C992.276417,545.886437 790.829215,556.280693 619.725,645.5 L570.262392,671.291414 C426.289212,746.363716 264.68835,781.08871 102.584687,771.786582 L0.5,765.928571 L0.5,765.928571" id="Path-10-Copy-13"></path>
            <path d="M1190.5,633.411576 L1176.70499,628.356805 C993.862833,561.35974 791.069977,575.97562 619.725,668.5 L563.436872,698.894962 C423.813774,774.289881 266.739137,811.430109 108.13524,806.550832 L0.5,803.23955 L0.5,803.23955" id="Path-10-Copy-14"></path>
            <path d="M1190,642.434579 L1181.09395,639.451326 C994.814022,577.053298 790.872994,595.945355 619.225,691.5 L555.588389,726.925837 C420.652032,802.043497 268.656176,841.174882 114.2214,840.555921 L0,840.098131 L0,840.098131" id="Path-10-Copy-15"></path>
            <path d="M1191,652.662226 L1182.64164,650.126153 C994.229755,592.958672 793.072781,616.388003 619.788627,715.683261 L509.216725,779.043154 C462.757877,805.664996 414.088177,826.89158 364,842.5" id="Path-10-Copy-16"></path>
            <path d="M1191,661.401089 L1186.6144,660.202707 C995.512636,607.983487 793.595256,635.929542 620.185069,738.598461 L504.41121,807.143322 C482.429537,820.157751 459.930684,831.95195 437,842.5" id="Path-10-Copy-17"></path>
            <path d="M1191,670.487317 L1190.4674,670.359118 C996.474157,623.664508 793.57309,655.969011 619.794069,761.217776 L498.67828,834.571205 C494.802123,836.918788 490.909205,839.228438 487,841.5" id="Path-10-Copy-18"></path>
            <path d="M1191,679.934279 C996.65853,638.751345 795.392743,675.557805 623.430827,783.728433 C581.906015,809.84913 550.762406,829.439652 530,842.5" id="Path-10-Copy-19"></path>
            <path d="M1191.5,689.481956 L1189.3768,689.101641 C995.81089,654.429514 797.261211,694.802233 627.975764,803.255874 C601.097647,820.475485 580.939059,833.390194 567.5,842" id="Path-10-Copy-20"></path>
            <path d="M1191,699.061614 L1182.63587,697.823191 C992.995009,669.744289 800.265706,713.182791 636.234631,820.974426 C622.352573,830.096904 611.941029,836.938761 605,841.5" id="Path-10-Copy-21"></path>
            <path d="M1192.5,708.044997 L1177.46716,706.274917 C991.576286,684.386723 804.336142,731.010547 645.208549,838.810232 C643.11586,840.227907 641.546344,841.291163 640.5,842" id="Path-10-Copy-22"></path>
            <path d="M1191,718.294973 L1168.97503,716.378602 C995.511704,701.285726 822.268106,745.818023 673,843.5" id="Path-10-Copy-23"></path>
            <path d="M1192,727.328362 L1162.58267,725.689547 C1003.69034,716.837789 846.146498,757.546209 708,842.5" id="Path-10-Copy-24"></path>
            <path d="M1191.5,736.14738 L1154.3957,735.234072 C1010.62181,731.695135 868.901888,768.34663 742.5,841" id="Path-10-Copy-25"></path>
            <path d="M1192,745.5 L1146.9794,745.779361 C1018.06171,746.579319 891.560881,779.90469 777,842.5" id="Path-10-Copy-26"></path>
            <path d="M1191,754.5 L1137.83656,756.469254 C1024.62386,760.662824 913.867146,789.78615 812,841.5" id="Path-10-Copy-27"></path>
            <path d="M1191,764.5 L1129.52232,768.706749 C1032.41651,775.351433 937.556102,800.477128 849,842.5" id="Path-10-Copy-28"></path>
            <path d="M1191.5,774 L1121.51259,780.890393 C1040.5219,788.86408 961.399351,809.555599 886.5,842" id="Path-10-Copy-29"></path>
            <path d="M1191.5,783 L1112.89352,793.233408 C1048.66757,801.594683 985.8108,818.021589 925.5,842" id="Path-10-Copy-30"></path>
            <path d="M1192,792.5 L1104.74294,806.613941 C1057.49035,814.257107 1011.08574,826.291762 966,842.5" id="Path-10-Copy-31"></path>
            <path d="M1192,802.5 L1096.22935,820.826017 C1067.08457,826.402962 1038.30425,833.645606 1010,842.5" id="Path-10-Copy-32"></path>
            <path d="M1192.5,811 L1087.57351,834.277327 C1080.18752,835.915866 1071.82968,838.49009 1062.5,842" id="Path-10-Copy-33"></path>
            <path d="M1191,820.5 C1153.22222,829.833333 1124.88889,836.833333 1106,841.5" id="Path-10-Copy-34"></path>
            <path d="M1191.5,829 C1171.94444,834.777778 1157.27778,839.111111 1147.5,842" id="Path-10-Copy-35"></path>
        </g>
        <g id="texts" transform="translate(141.000000, 400.000000)" font-weight="normal">
            <text id="name:-Iran-Open-Sour" font-family="Oxanium-Regular, Oxanium" font-size="27" line-spacing="31.5">
                <tspan x="63.75" y="21" fill="#FFD271">name:</tspan>
                <tspan x="140.916" y="21" fill="#FFFFFF"> </tspan>
                <tspan x="147.396" y="21" font-family="Oxanium-Bold, Oxanium" font-weight="bold" fill="#FFFFFF">Iran Open Source Hackathon</tspan>
                <tspan x="510.222" y="21" fill="#FFFFFF"></tspan>
                <tspan x="63.75" y="52.5" fill="#FFD271">dates:</tspan>
                <tspan x="140.7" y="52.5" fill="#FFFFFF"></tspan>
                <tspan x="63.75" y="84" fill="#616161">|</tspan>
                <tspan x="71.148" y="84" fill="#FFFFFF">   </tspan>
                <tspan x="90.588" y="84" fill="#FFD271">start:</tspan>
                <tspan x="156.954" y="84" fill="#FFFFFF"> </tspan>
                <tspan x="163.434" y="84" fill="#C3F584">06 Jul.</tspan>
                <tspan x="247.296" y="84" fill="#FFFFFF"></tspan>
                <tspan x="63.75" y="115.5" fill="#616161">|</tspan>
                <tspan x="71.148" y="115.5" fill="#FFFFFF">   </tspan>
                <tspan x="90.588" y="115.5" fill="#FFD271">end:</tspan>
                <tspan x="144.642" y="115.5" fill="#FFFFFF">   </tspan>
                <tspan x="164.082" y="115.5" fill="#C3F584">06 Sep.</tspan>
                <tspan x="255.666" y="115.5" fill="#FFFFFF"></tspan>
                <tspan x="63.75" y="147" fill="#616161">|</tspan>
                <tspan x="71.148" y="147" fill="#FFFFFF">   </tspan>
                <tspan x="90.588" y="147" fill="#FFD271">year:</tspan>
                <tspan x="151.824" y="147" fill="#FFFFFF">  </tspan>
                <tspan x="164.784" y="147" fill="#C3F584">2021</tspan>
                <tspan x="227.208" y="147" fill="#FFFFFF"></tspan>
                <tspan x="63.75" y="178.5" fill="#FFD271">website:</tspan>
                <tspan x="169.428" y="178.5" fill="#FFFFFF"> </tspan>
                <tspan x="175.908" y="178.5" fill="#3676BD">https</tspan>
                <tspan x="242.112" y="178.5" fill="#6AA3E3">://</tspan>
                <tspan x="270.192" y="178.5" fill="#FFFFFF">osshack</tspan>
                <tspan x="371.28" y="178.5" fill="#A4C7EE">.dev</tspan>
                <tspan x="63.75" y="210" fill="#FFD271">logo:</tspan>
            </text>
            <text id="1-2-3-4-5-6-7" font-family="Oxanium-Regular, Oxanium" font-size="27" line-spacing="31.5">
                <tspan x="24.144" y="21" fill="#424242">1</tspan>
                <tspan x="24.144" y="52.5" fill="#424242">2</tspan>
                <tspan x="24.144" y="84" fill="#424242">3</tspan>
                <tspan x="24.144" y="115.5" fill="#424242">4</tspan>
                <tspan x="24.144" y="147" fill="#757575">5</tspan>
                <tspan x="39.75" y="147" fill="#424242"></tspan>
                <tspan x="24.144" y="178.5" fill="#424242">6</tspan>
                <tspan x="24.144" y="210" fill="#424242">7</tspan>
            </text>
            <text id="۱۵-تیر-#" font-family="IRANSans" font-size="24" line-spacing="28" fill="#757575">
                <tspan x="315.347656" y="99">۱۵ تیر </tspan>
                <tspan x="302" y="99">#</tspan>
            </text>
            <text id="۱۵-شهریور-#" font-family="IRANSans" font-size="24" line-spacing="28" fill="#757575">
                <tspan x="315.347656" y="131">۱۵ شهریور </tspan>
                <tspan x="302" y="131">#</tspan>
            </text>
        </g>
        <g id="logo-inv" transform="translate(293.000000, 780.000000)">
            <path d="M128,16 C198.692448,16 256,73.307552 256,144 C256,198.865037 221.481082,245.667749 172.976443,263.875127 L147.885481,197.000421 L148,181 L154.333505,191.999693 L176,192 L175.999458,170.333356 C182.567931,162.891252 187.432708,153.909705 189.983456,143.998972 C187.474451,134.25148 182.726777,125.40274 176.321189,118.03364 L175.99953,117.66642 L176,96 L154.332329,95.9996354 C146.890426,89.4316216 137.909249,84.5671743 127.998972,82.0165445 C118.251915,84.525437 109.40353,89.272799 102.034627,95.6779529 L101.667417,95.9995894 L80,96 L79.9996354,117.667671 C73.4316216,125.109574 68.5671743,134.090751 66.0165445,144.001028 C68.5254148,153.747998 73.2727147,162.596313 79.6777942,169.965294 L79.9994269,170.332508 L80,192 L108,181 L108.115054,197.000316 L83.0240569,263.875127 C34.5191551,245.668071 0,198.865226 0,144 C0,73.307552 57.307552,16 128,16 Z" id="volume" fill="#111111"></path>
            <path d="M128,-1.42108547e-14 C198.692448,-1.42108547e-14 256,57.307552 256,128 C256,182.865037 221.481082,229.667749 172.976443,247.875127 L147.885481,181.000421 C149.953879,179.597215 151.935801,178.076103 153.82159,176.446741 L154.333505,175.999693 L176,176 L175.999458,154.333356 C182.567931,146.891252 187.432708,137.909705 189.983456,127.998972 C187.474451,118.25148 182.726777,109.40274 176.321189,102.03364 L175.99953,101.66642 L176,80 L154.332329,79.9996354 C146.890426,73.4316216 137.909249,68.5671743 127.998972,66.0165445 C118.251915,68.525437 109.40353,73.272799 102.034627,79.6779529 L101.667417,79.9995894 L80,80 L79.9996354,101.667671 C73.4316216,109.109574 68.5671743,118.090751 66.0165445,128.001028 C68.5254148,137.747998 73.2727147,146.596313 79.6777942,153.965294 L79.9994269,154.332508 L80,176 L101.666644,175.999458 C103.534977,177.648467 105.500334,179.190099 107.553061,180.614698 L108.115054,181.000316 L83.0240569,247.875127 C34.5191551,229.668071 0,182.865226 0,128 C0,57.307552 57.307552,-1.42108547e-14 128,-1.42108547e-14 Z" id="surface" fill="#424242"></path>
        </g>
        <g id="qr-code-4" transform="translate(32.000000, 32.000000)" fill="#FFFFFF">
            <g id="Content" transform="translate(0.307187, 0.698091)" fill-rule="nonzero">
                <path d="M43.1516989,121.840091 C44.3377411,121.840091 45.2991305,122.801541 45.2991305,123.987523 C45.2991305,125.173565 44.3377411,126.134954 43.1516989,126.134954 C41.9657176,126.134954 41.0042673,125.173565 41.0042673,123.987523 C41.0042673,122.801541 41.9657176,121.840091 43.1516989,121.840091 Z M58.7726139,121.840091 C59.9585342,121.840091 60.9200455,122.801521 60.9200455,123.987523 C60.9200455,125.173433 59.9585342,126.134954 58.7726139,126.134954 L58.7726139,126.134954 L52.9141362,126.134954 C51.7277183,126.134954 50.7667046,125.173077 50.7667046,123.987523 C50.7667046,122.801836 51.7277183,121.840091 52.9141362,121.840091 L52.9141362,121.840091 Z M93.5274998,126.134954 C92.3410819,126.134954 91.3800682,125.173077 91.3800682,123.987523 C91.3800682,122.801836 92.3410819,121.840091 93.5274998,121.840091 L93.5274998,121.840091 L124.76933,121.840091 C125.95525,121.840091 126.916761,122.801521 126.916761,123.987523 C126.916761,125.173433 125.95525,126.134954 124.76933,126.134954 L124.76933,126.134954 Z M48.2283693,116.76342 C49.4144115,116.76342 50.3758009,117.724871 50.3758009,118.910852 C50.3758009,120.096894 49.4144115,121.058284 48.2283693,121.058284 C47.042388,121.058284 46.0809377,120.096894 46.0809377,118.910852 C46.0809377,117.724871 47.042388,116.76342 48.2283693,116.76342 Z M58.3817102,116.76342 C59.5677525,116.76342 60.5291418,117.724871 60.5291418,118.910852 C60.5291418,120.096894 59.5677525,121.058284 58.3817102,121.058284 C57.195729,121.058284 56.2342786,120.096894 56.2342786,118.910852 C56.2342786,117.724871 57.195729,116.76342 58.3817102,116.76342 Z M84.1559661,116.76342 C85.3418865,116.76342 86.3033978,117.72485 86.3033978,118.910852 C86.3033978,120.096762 85.3418865,121.058284 84.1559661,121.058284 L84.1559661,121.058284 L73.220818,121.058284 C72.0344001,121.058284 71.0733864,120.096407 71.0733864,118.910852 C71.0733864,117.725165 72.0344001,116.76342 73.220818,116.76342 L73.220818,116.76342 Z M109.539318,116.76342 C110.725239,116.76342 111.68675,117.72485 111.68675,118.910852 C111.68675,120.096762 110.725239,121.058284 109.539318,121.058284 L109.539318,121.058284 L98.6041703,121.058284 C97.4177524,121.058284 96.4567387,120.096407 96.4567387,118.910852 C96.4567387,117.725165 97.4177524,116.76342 98.6041703,116.76342 L98.6041703,116.76342 Z M124.378426,116.76342 C125.564468,116.76342 126.525858,117.724871 126.525858,118.910852 C126.525858,120.096894 125.564468,121.058284 124.378426,121.058284 C123.192445,121.058284 122.230995,120.096894 122.230995,118.910852 C122.230995,117.724871 123.192445,116.76342 124.378426,116.76342 Z M124.378426,111.68675 C125.564468,111.68675 126.525858,112.6482 126.525858,113.834182 C126.525858,115.020224 125.564468,115.981613 124.378426,115.981613 C123.192445,115.981613 122.230995,115.020224 122.230995,113.834182 C122.230995,112.6482 123.192445,111.68675 124.378426,111.68675 Z M48.619273,111.68675 C49.8051933,111.68675 50.7667046,112.64818 50.7667046,113.834182 C50.7667046,115.020092 49.8051933,115.981613 48.619273,115.981613 L48.619273,115.981613 L42.7607953,115.981613 C41.5743774,115.981613 40.6133636,115.019736 40.6133636,113.834182 C40.6133636,112.648495 41.5743774,111.68675 42.7607953,111.68675 L42.7607953,111.68675 Z M63.8492843,111.68675 C65.0352047,111.68675 65.9967159,112.64818 65.9967159,113.834182 C65.9967159,115.020092 65.0352047,115.981613 63.8492843,115.981613 L63.8492843,115.981613 L57.9908066,115.981613 C56.8043887,115.981613 55.843375,115.019736 55.843375,113.834182 C55.843375,112.648495 56.8043887,111.68675 57.9908066,111.68675 L57.9908066,111.68675 Z M78.6883921,111.68675 C79.8744343,111.68675 80.8358237,112.6482 80.8358237,113.834182 C80.8358237,115.020224 79.8744343,115.981613 78.6883921,115.981613 C77.5024108,115.981613 76.5409605,115.020224 76.5409605,113.834182 C76.5409605,112.6482 77.5024108,111.68675 78.6883921,111.68675 Z M114.615989,111.68675 C115.801909,111.68675 116.76342,112.64818 116.76342,113.834182 C116.76342,115.020092 115.801909,115.981613 114.615989,115.981613 L114.615989,115.981613 L108.757511,115.981613 C107.571093,115.981613 106.61008,115.019736 106.61008,113.834182 C106.61008,112.648495 107.571093,111.68675 108.757511,111.68675 L108.757511,111.68675 Z M53.3050398,106.61008 C54.491082,106.61008 55.4524714,107.57153 55.4524714,108.757511 C55.4524714,109.943553 54.491082,110.904943 53.3050398,110.904943 C52.1190585,110.904943 51.1576082,109.943553 51.1576082,108.757511 C51.1576082,107.57153 52.1190585,106.61008 53.3050398,106.61008 Z M94.3093071,106.61008 C95.4952274,106.61008 96.4567387,107.57151 96.4567387,108.757511 C96.4567387,109.943421 95.4952274,110.904943 94.3093071,110.904943 L94.3093071,110.904943 L88.4508294,110.904943 C87.2644115,110.904943 86.3033978,109.943066 86.3033978,108.757511 C86.3033978,107.571824 87.2644115,106.61008 88.4508294,106.61008 L88.4508294,106.61008 Z M124.76933,106.61008 C125.95525,106.61008 126.916761,107.57151 126.916761,108.757511 C126.916761,109.943421 125.95525,110.904943 124.76933,110.904943 L124.76933,110.904943 L103.680841,110.904943 C102.494423,110.904943 101.533409,109.943066 101.533409,108.757511 C101.533409,107.571824 102.494423,106.61008 103.680841,106.61008 L103.680841,106.61008 Z M43.1516989,106.61008 C44.3377411,106.61008 45.2991305,107.57153 45.2991305,108.757511 C45.2991305,109.943553 44.3377411,110.904943 43.1516989,110.904943 C41.9657176,110.904943 41.0042673,109.943553 41.0042673,108.757511 C41.0042673,107.57153 41.9657176,106.61008 43.1516989,106.61008 Z M124.378426,101.533409 C125.564468,101.533409 126.525858,102.494859 126.525858,103.680841 C126.525858,104.866883 125.564468,105.828272 124.378426,105.828272 C123.192445,105.828272 122.230995,104.866883 122.230995,103.680841 C122.230995,102.494859 123.192445,101.533409 124.378426,101.533409 Z M53.6959434,101.533409 C54.8818638,101.533409 55.843375,102.494839 55.843375,103.680841 C55.843375,104.866751 54.8818638,105.828272 53.6959434,105.828272 L53.6959434,105.828272 L42.7607953,105.828272 C41.5743774,105.828272 40.6133636,104.866396 40.6133636,103.680841 C40.6133636,102.495154 41.5743774,101.533409 42.7607953,101.533409 L42.7607953,101.533409 Z M63.4583807,101.533409 C64.6444229,101.533409 65.6058123,102.494859 65.6058123,103.680841 C65.6058123,104.866883 64.6444229,105.828272 63.4583807,105.828272 C62.2723994,105.828272 61.3109491,104.866883 61.3109491,103.680841 C61.3109491,102.494859 62.2723994,101.533409 63.4583807,101.533409 Z M104.462648,101.533409 C105.648568,101.533409 106.61008,102.494839 106.61008,103.680841 C106.61008,104.866751 105.648568,105.828272 104.462648,105.828272 L104.462648,105.828272 L73.220818,105.828272 C72.0344001,105.828272 71.0733864,104.866396 71.0733864,103.680841 C71.0733864,102.495154 72.0344001,101.533409 73.220818,101.533409 L73.220818,101.533409 Z M114.225085,101.533409 C115.411127,101.533409 116.372517,102.494859 116.372517,103.680841 C116.372517,104.866883 115.411127,105.828272 114.225085,105.828272 C113.039104,105.828272 112.077654,104.866883 112.077654,103.680841 C112.077654,102.494859 113.039104,101.533409 114.225085,101.533409 Z M109.539318,96.4567387 C110.725239,96.4567387 111.68675,97.4181687 111.68675,98.6041703 C111.68675,99.7900805 110.725239,100.751602 109.539318,100.751602 L109.539318,100.751602 L103.680841,100.751602 C102.494423,100.751602 101.533409,99.7897251 101.533409,98.6041703 C101.533409,97.4184834 102.494423,96.4567387 103.680841,96.4567387 L103.680841,96.4567387 Z M119.301756,96.4567387 C120.487798,96.4567387 121.449187,97.418189 121.449187,98.6041703 C121.449187,99.7902125 120.487798,100.751602 119.301756,100.751602 C118.115774,100.751602 117.154324,99.7902125 117.154324,98.6041703 C117.154324,97.418189 118.115774,96.4567387 119.301756,96.4567387 Z M53.6959434,96.4567387 C54.8818638,96.4567387 55.843375,97.4181687 55.843375,98.6041703 C55.843375,99.7900805 54.8818638,100.751602 53.6959434,100.751602 L53.6959434,100.751602 L42.7607953,100.751602 C41.5743774,100.751602 40.6133636,99.7897251 40.6133636,98.6041703 C40.6133636,97.4184834 41.5743774,96.4567387 42.7607953,96.4567387 L42.7607953,96.4567387 Z M68.9259548,96.4567387 C70.1118752,96.4567387 71.0733864,97.4181687 71.0733864,98.6041703 C71.0733864,99.7900805 70.1118752,100.751602 68.9259548,100.751602 L68.9259548,100.751602 L63.0674771,100.751602 C61.8810592,100.751602 60.9200455,99.7897251 60.9200455,98.6041703 C60.9200455,97.4184834 61.8810592,96.4567387 63.0674771,96.4567387 L63.0674771,96.4567387 Z M83.7650625,96.4567387 C84.9511047,96.4567387 85.9124941,97.418189 85.9124941,98.6041703 C85.9124941,99.7902125 84.9511047,100.751602 83.7650625,100.751602 C82.5790812,100.751602 81.6176309,99.7902125 81.6176309,98.6041703 C81.6176309,97.418189 82.5790812,96.4567387 83.7650625,96.4567387 Z M104.071744,91.3800682 C105.257787,91.3800682 106.219176,92.3415185 106.219176,93.5274998 C106.219176,94.713542 105.257787,95.6749314 104.071744,95.6749314 C102.885763,95.6749314 101.924313,94.713542 101.924313,93.5274998 C101.924313,92.3415185 102.885763,91.3800682 104.071744,91.3800682 Z M124.76933,91.3800682 C125.95525,91.3800682 126.916761,92.3414982 126.916761,93.5274998 C126.916761,94.71341 125.95525,95.6749314 124.76933,95.6749314 L124.76933,95.6749314 L113.834182,95.6749314 C112.647764,95.6749314 111.68675,94.7130547 111.68675,93.5274998 C111.68675,92.341813 112.647764,91.3800682 113.834182,91.3800682 L113.834182,91.3800682 Z M48.2283693,91.3800682 C49.4144115,91.3800682 50.3758009,92.3415185 50.3758009,93.5274998 C50.3758009,94.713542 49.4144115,95.6749314 48.2283693,95.6749314 C47.042388,95.6749314 46.0809377,94.713542 46.0809377,93.5274998 C46.0809377,92.3415185 47.042388,91.3800682 48.2283693,91.3800682 Z M74.0026252,91.3800682 C75.1885456,91.3800682 76.1500568,92.3414982 76.1500568,93.5274998 C76.1500568,94.71341 75.1885456,95.6749314 74.0026252,95.6749314 L74.0026252,95.6749314 L68.1441475,95.6749314 C66.9577296,95.6749314 65.9967159,94.7130547 65.9967159,93.5274998 C65.9967159,92.341813 66.9577296,91.3800682 68.1441475,91.3800682 L68.1441475,91.3800682 Z M83.7650625,91.3800682 C84.9511047,91.3800682 85.9124941,92.3415185 85.9124941,93.5274998 C85.9124941,94.713542 84.9511047,95.6749314 83.7650625,95.6749314 C82.5790812,95.6749314 81.6176309,94.713542 81.6176309,93.5274998 C81.6176309,92.3415185 82.5790812,91.3800682 83.7650625,91.3800682 Z M93.9184034,91.3800682 C95.1044456,91.3800682 96.065835,92.3415185 96.065835,93.5274998 C96.065835,94.713542 95.1044456,95.6749314 93.9184034,95.6749314 C92.7324221,95.6749314 91.7709718,94.713542 91.7709718,93.5274998 C91.7709718,92.3415185 92.7324221,91.3800682 93.9184034,91.3800682 Z M84.1559661,86.3033978 C85.3418865,86.3033978 86.3033978,87.2648278 86.3033978,88.4508294 C86.3033978,89.6367396 85.3418865,90.598261 84.1559661,90.598261 L84.1559661,90.598261 L63.0674771,90.598261 C61.8810592,90.598261 60.9200455,89.6363842 60.9200455,88.4508294 C60.9200455,87.2651425 61.8810592,86.3033978 63.0674771,86.3033978 L63.0674771,86.3033978 Z M53.3050398,86.3033978 C54.491082,86.3033978 55.4524714,87.2648481 55.4524714,88.4508294 C55.4524714,89.6368716 54.491082,90.598261 53.3050398,90.598261 C52.1190585,90.598261 51.1576082,89.6368716 51.1576082,88.4508294 C51.1576082,87.2648481 52.1190585,86.3033978 53.3050398,86.3033978 Z M109.539318,86.3033978 C110.725239,86.3033978 111.68675,87.2648278 111.68675,88.4508294 C111.68675,89.6367396 110.725239,90.598261 109.539318,90.598261 L109.539318,90.598261 L103.680841,90.598261 C102.494423,90.598261 101.533409,89.6363842 101.533409,88.4508294 C101.533409,87.2651425 102.494423,86.3033978 103.680841,86.3033978 L103.680841,86.3033978 Z M43.1516989,86.3033978 C44.3377411,86.3033978 45.2991305,87.2648481 45.2991305,88.4508294 C45.2991305,89.6368716 44.3377411,90.598261 43.1516989,90.598261 C41.9657176,90.598261 41.0042673,89.6368716 41.0042673,88.4508294 C41.0042673,87.2648481 41.9657176,86.3033978 43.1516989,86.3033978 Z M104.462648,81.2267273 C105.648568,81.2267273 106.61008,82.1881573 106.61008,83.3741589 C106.61008,84.5600691 105.648568,85.5215905 104.462648,85.5215905 L104.462648,85.5215905 L78.2974884,85.5215905 C77.1110706,85.5215905 76.1500568,84.5597138 76.1500568,83.3741589 C76.1500568,82.1884721 77.1110706,81.2267273 78.2974884,81.2267273 L78.2974884,81.2267273 Z M58.7726139,81.2267273 C59.9585342,81.2267273 60.9200455,82.1881573 60.9200455,83.3741589 C60.9200455,84.5600691 59.9585342,85.5215905 58.7726139,85.5215905 L58.7726139,85.5215905 L47.8374657,85.5215905 C46.6510478,85.5215905 45.6900341,84.5597138 45.6900341,83.3741589 C45.6900341,82.1884721 46.6510478,81.2267273 47.8374657,81.2267273 L47.8374657,81.2267273 Z M114.225085,81.2267273 C115.411127,81.2267273 116.372517,82.1881776 116.372517,83.3741589 C116.372517,84.5602011 115.411127,85.5215905 114.225085,85.5215905 C113.039104,85.5215905 112.077654,84.5602011 112.077654,83.3741589 C112.077654,82.1881776 113.039104,81.2267273 114.225085,81.2267273 Z M2.53833523,81.2267273 C3.72437744,81.2267273 4.68576683,82.1881776 4.68576683,83.3741589 C4.68576683,84.5602011 3.72437744,85.5215905 2.53833523,85.5215905 C1.35235394,85.5215905 0.390903625,84.5602011 0.390903625,83.3741589 C0.390903625,82.1881776 1.35235394,81.2267273 2.53833523,81.2267273 Z M12.6916761,81.2267273 C13.8777184,81.2267273 14.8391077,82.1881776 14.8391077,83.3741589 C14.8391077,84.5602011 13.8777184,85.5215905 12.6916761,85.5215905 C11.5056948,85.5215905 10.5442445,84.5602011 10.5442445,83.3741589 C10.5442445,82.1881776 11.5056948,81.2267273 12.6916761,81.2267273 Z M38.465932,81.2267273 C39.6518524,81.2267273 40.6133636,82.1881573 40.6133636,83.3741589 C40.6133636,84.5600691 39.6518524,85.5215905 38.465932,85.5215905 L38.465932,85.5215905 L27.5307839,85.5215905 C26.344366,85.5215905 25.3833523,84.5597138 25.3833523,83.3741589 C25.3833523,82.1884721 26.344366,81.2267273 27.5307839,81.2267273 L27.5307839,81.2267273 Z M88.841733,76.1500568 C90.0277752,76.1500568 90.9891646,77.1115072 90.9891646,78.2974884 C90.9891646,79.4835307 90.0277752,80.44492 88.841733,80.44492 C87.6557517,80.44492 86.6943014,79.4835307 86.6943014,78.2974884 C86.6943014,77.1115072 87.6557517,76.1500568 88.841733,76.1500568 Z M38.0750284,76.1500568 C39.2610706,76.1500568 40.22246,77.1115072 40.22246,78.2974884 C40.22246,79.4835307 39.2610706,80.44492 38.0750284,80.44492 C36.8890471,80.44492 35.9275968,79.4835307 35.9275968,78.2974884 C35.9275968,77.1115072 36.8890471,76.1500568 38.0750284,76.1500568 Z M58.7726139,76.1500568 C59.9585342,76.1500568 60.9200455,77.1114868 60.9200455,78.2974884 C60.9200455,79.4833987 59.9585342,80.44492 58.7726139,80.44492 L58.7726139,80.44492 L52.9141362,80.44492 C51.7277183,80.44492 50.7667046,79.4830433 50.7667046,78.2974884 C50.7667046,77.1118016 51.7277183,76.1500568 52.9141362,76.1500568 L52.9141362,76.1500568 Z M2.53833523,76.1500568 C3.72437744,76.1500568 4.68576683,77.1115072 4.68576683,78.2974884 C4.68576683,79.4835307 3.72437744,80.44492 2.53833523,80.44492 C1.35235394,80.44492 0.390903625,79.4835307 0.390903625,78.2974884 C0.390903625,77.1115072 1.35235394,76.1500568 2.53833523,76.1500568 Z M104.462648,76.1500568 C105.648568,76.1500568 106.61008,77.1114868 106.61008,78.2974884 C106.61008,79.4833987 105.648568,80.44492 104.462648,80.44492 L104.462648,80.44492 L98.6041703,80.44492 C97.4177524,80.44492 96.4567387,79.4830433 96.4567387,78.2974884 C96.4567387,77.1118016 97.4177524,76.1500568 98.6041703,76.1500568 L98.6041703,76.1500568 Z M124.378426,76.1500568 C125.564468,76.1500568 126.525858,77.1115072 126.525858,78.2974884 C126.525858,79.4835307 125.564468,80.44492 124.378426,80.44492 C123.192445,80.44492 122.230995,79.4835307 122.230995,78.2974884 C122.230995,77.1115072 123.192445,76.1500568 124.378426,76.1500568 Z M27.9216875,76.1500568 C29.1077297,76.1500568 30.0691191,77.1115072 30.0691191,78.2974884 C30.0691191,79.4835307 29.1077297,80.44492 27.9216875,80.44492 C26.7357062,80.44492 25.7742559,79.4835307 25.7742559,78.2974884 C25.7742559,77.1115072 26.7357062,76.1500568 27.9216875,76.1500568 Z M12.6916761,76.1500568 C13.8777184,76.1500568 14.8391077,77.1115072 14.8391077,78.2974884 C14.8391077,79.4835307 13.8777184,80.44492 12.6916761,80.44492 C11.5056948,80.44492 10.5442445,79.4835307 10.5442445,78.2974884 C10.5442445,77.1115072 11.5056948,76.1500568 12.6916761,76.1500568 Z M73.6117216,76.1500568 C74.7977638,76.1500568 75.7591532,77.1115072 75.7591532,78.2974884 C75.7591532,79.4835307 74.7977638,80.44492 73.6117216,80.44492 C72.4257403,80.44492 71.46429,79.4835307 71.46429,78.2974884 C71.46429,77.1115072 72.4257403,76.1500568 73.6117216,76.1500568 Z M43.1516989,71.0733864 C44.3377411,71.0733864 45.2991305,72.0348367 45.2991305,73.220818 C45.2991305,74.4068602 44.3377411,75.3682496 43.1516989,75.3682496 C41.9657176,75.3682496 41.0042673,74.4068602 41.0042673,73.220818 C41.0042673,72.0348367 41.9657176,71.0733864 43.1516989,71.0733864 Z M32.998358,71.0733864 C34.1844002,71.0733864 35.1457896,72.0348367 35.1457896,73.220818 C35.1457896,74.4068602 34.1844002,75.3682496 32.998358,75.3682496 C31.8123767,75.3682496 30.8509264,74.4068602 30.8509264,73.220818 C30.8509264,72.0348367 31.8123767,71.0733864 32.998358,71.0733864 Z M22.8450171,71.0733864 C24.0310593,71.0733864 24.9924487,72.0348367 24.9924487,73.220818 C24.9924487,74.4068602 24.0310593,75.3682496 22.8450171,75.3682496 C21.6590358,75.3682496 20.6975854,74.4068602 20.6975854,73.220818 C20.6975854,72.0348367 21.6590358,71.0733864 22.8450171,71.0733864 Z M124.76933,71.0733864 C125.95525,71.0733864 126.916761,72.0348164 126.916761,73.220818 C126.916761,74.4067282 125.95525,75.3682496 124.76933,75.3682496 L124.76933,75.3682496 L118.910852,75.3682496 C117.724434,75.3682496 116.76342,74.4063728 116.76342,73.220818 C116.76342,72.0351311 117.724434,71.0733864 118.910852,71.0733864 L118.910852,71.0733864 Z M12.6916761,71.0733864 C13.8777184,71.0733864 14.8391077,72.0348367 14.8391077,73.220818 C14.8391077,74.4068602 13.8777184,75.3682496 12.6916761,75.3682496 C11.5056948,75.3682496 10.5442445,74.4068602 10.5442445,73.220818 C10.5442445,72.0348367 11.5056948,71.0733864 12.6916761,71.0733864 Z M84.1559661,71.0733864 C85.3418865,71.0733864 86.3033978,72.0348164 86.3033978,73.220818 C86.3033978,74.4067282 85.3418865,75.3682496 84.1559661,75.3682496 L84.1559661,75.3682496 L78.2974884,75.3682496 C77.1110706,75.3682496 76.1500568,74.4063728 76.1500568,73.220818 C76.1500568,72.0351311 77.1110706,71.0733864 78.2974884,71.0733864 L78.2974884,71.0733864 Z M109.539318,71.0733864 C110.725239,71.0733864 111.68675,72.0348164 111.68675,73.220818 C111.68675,74.4067282 110.725239,75.3682496 109.539318,75.3682496 L109.539318,75.3682496 L93.5274998,75.3682496 C92.3410819,75.3682496 91.3800682,74.4063728 91.3800682,73.220818 C91.3800682,72.0351311 92.3410819,71.0733864 93.5274998,71.0733864 L93.5274998,71.0733864 Z M2.53833523,71.0733864 C3.72437744,71.0733864 4.68576683,72.0348367 4.68576683,73.220818 C4.68576683,74.4068602 3.72437744,75.3682496 2.53833523,75.3682496 C1.35235394,75.3682496 0.390903625,74.4068602 0.390903625,73.220818 C0.390903625,72.0348367 1.35235394,71.0733864 2.53833523,71.0733864 Z M63.8492843,71.0733864 C65.0352047,71.0733864 65.9967159,72.0348164 65.9967159,73.220818 C65.9967159,74.4067282 65.0352047,75.3682496 63.8492843,75.3682496 L63.8492843,75.3682496 L52.9141362,75.3682496 C51.7277183,75.3682496 50.7667046,74.4063728 50.7667046,73.220818 C50.7667046,72.0351311 51.7277183,71.0733864 52.9141362,71.0733864 L52.9141362,71.0733864 Z M53.6959434,65.9967159 C54.8818638,65.9967159 55.843375,66.9581459 55.843375,68.1441475 C55.843375,69.3300577 54.8818638,70.2915791 53.6959434,70.2915791 L53.6959434,70.2915791 L47.8374657,70.2915791 C46.6510478,70.2915791 45.6900341,69.3297024 45.6900341,68.1441475 C45.6900341,66.9584607 46.6510478,65.9967159 47.8374657,65.9967159 L47.8374657,65.9967159 Z M38.0750284,65.9967159 C39.2610706,65.9967159 40.22246,66.9581662 40.22246,68.1441475 C40.22246,69.3301897 39.2610706,70.2915791 38.0750284,70.2915791 C36.8890471,70.2915791 35.9275968,69.3301897 35.9275968,68.1441475 C35.9275968,66.9581662 36.8890471,65.9967159 38.0750284,65.9967159 Z M98.9950739,65.9967159 C100.181116,65.9967159 101.142505,66.9581662 101.142505,68.1441475 C101.142505,69.3301897 100.181116,70.2915791 98.9950739,70.2915791 C97.8090926,70.2915791 96.8476423,69.3301897 96.8476423,68.1441475 C96.8476423,66.9581662 97.8090926,65.9967159 98.9950739,65.9967159 Z M89.2326366,65.9967159 C90.418557,65.9967159 91.3800682,66.9581459 91.3800682,68.1441475 C91.3800682,69.3300577 90.418557,70.2915791 89.2326366,70.2915791 L89.2326366,70.2915791 L83.3741589,70.2915791 C82.187741,70.2915791 81.2267273,69.3297024 81.2267273,68.1441475 C81.2267273,66.9584607 82.187741,65.9967159 83.3741589,65.9967159 L83.3741589,65.9967159 Z M28.3125911,65.9967159 C29.4985115,65.9967159 30.4600227,66.9581459 30.4600227,68.1441475 C30.4600227,69.3300577 29.4985115,70.2915791 28.3125911,70.2915791 L28.3125911,70.2915791 L12.3007725,70.2915791 C11.1143546,70.2915791 10.1533409,69.3297024 10.1533409,68.1441475 C10.1533409,66.9584607 11.1143546,65.9967159 12.3007725,65.9967159 L12.3007725,65.9967159 Z M119.301756,65.9967159 C120.487798,65.9967159 121.449187,66.9581662 121.449187,68.1441475 C121.449187,69.3301897 120.487798,70.2915791 119.301756,70.2915791 C118.115774,70.2915791 117.154324,69.3301897 117.154324,68.1441475 C117.154324,66.9581662 118.115774,65.9967159 119.301756,65.9967159 Z M109.148415,65.9967159 C110.334457,65.9967159 111.295846,66.9581662 111.295846,68.1441475 C111.295846,69.3301897 110.334457,70.2915791 109.148415,70.2915791 C107.962434,70.2915791 107.000983,69.3301897 107.000983,68.1441475 C107.000983,66.9581662 107.962434,65.9967159 109.148415,65.9967159 Z M2.53833523,65.9967159 C3.72437744,65.9967159 4.68576683,66.9581662 4.68576683,68.1441475 C4.68576683,69.3301897 3.72437744,70.2915791 2.53833523,70.2915791 C1.35235394,70.2915791 0.390903625,69.3301897 0.390903625,68.1441475 C0.390903625,66.9581662 1.35235394,65.9967159 2.53833523,65.9967159 Z M124.76933,60.9200455 C125.95525,60.9200455 126.916761,61.8814755 126.916761,63.0674771 C126.916761,64.2533873 125.95525,65.2149087 124.76933,65.2149087 L124.76933,65.2149087 L113.834182,65.2149087 C112.647764,65.2149087 111.68675,64.2530319 111.68675,63.0674771 C111.68675,61.8817902 112.647764,60.9200455 113.834182,60.9200455 L113.834182,60.9200455 Z M104.071744,60.9200455 C105.257787,60.9200455 106.219176,61.8814958 106.219176,63.0674771 C106.219176,64.2535193 105.257787,65.2149087 104.071744,65.2149087 C102.885763,65.2149087 101.924313,64.2535193 101.924313,63.0674771 C101.924313,61.8814958 102.885763,60.9200455 104.071744,60.9200455 Z M63.8492843,60.9200455 C65.0352047,60.9200455 65.9967159,61.8814755 65.9967159,63.0674771 C65.9967159,64.2533873 65.0352047,65.2149087 63.8492843,65.2149087 L63.8492843,65.2149087 L52.9141362,65.2149087 C51.7277183,65.2149087 50.7667046,64.2530319 50.7667046,63.0674771 C50.7667046,61.8817902 51.7277183,60.9200455 52.9141362,60.9200455 L52.9141362,60.9200455 Z M38.465932,60.9200455 C39.6518524,60.9200455 40.6133636,61.8814755 40.6133636,63.0674771 C40.6133636,64.2533873 39.6518524,65.2149087 38.465932,65.2149087 L38.465932,65.2149087 L32.6074543,65.2149087 C31.4210365,65.2149087 30.4600227,64.2530319 30.4600227,63.0674771 C30.4600227,61.8817902 31.4210365,60.9200455 32.6074543,60.9200455 L32.6074543,60.9200455 Z M94.3093071,60.9200455 C95.4952274,60.9200455 96.4567387,61.8814755 96.4567387,63.0674771 C96.4567387,64.2533873 95.4952274,65.2149087 94.3093071,65.2149087 L94.3093071,65.2149087 L88.4508294,65.2149087 C87.2644115,65.2149087 86.3033978,64.2530319 86.3033978,63.0674771 C86.3033978,61.8817902 87.2644115,60.9200455 88.4508294,60.9200455 L88.4508294,60.9200455 Z M13.0825798,60.9200455 C14.2685001,60.9200455 15.2300114,61.8814755 15.2300114,63.0674771 C15.2300114,64.2533873 14.2685001,65.2149087 13.0825798,65.2149087 L13.0825798,65.2149087 L2.1474316,65.2149087 C0.961013717,65.2149087 3.55271368e-15,64.2530319 3.55271368e-15,63.0674771 C3.55271368e-15,61.8817902 0.961013717,60.9200455 2.1474316,60.9200455 L2.1474316,60.9200455 Z M73.6117216,60.9200455 C74.7977638,60.9200455 75.7591532,61.8814958 75.7591532,63.0674771 C75.7591532,64.2535193 74.7977638,65.2149087 73.6117216,65.2149087 C72.4257403,65.2149087 71.46429,64.2535193 71.46429,63.0674771 C71.46429,61.8814958 72.4257403,60.9200455 73.6117216,60.9200455 Z M124.378426,55.843375 C125.564468,55.843375 126.525858,56.8048253 126.525858,57.9908066 C126.525858,59.1768488 125.564468,60.1382382 124.378426,60.1382382 C123.192445,60.1382382 122.230995,59.1768488 122.230995,57.9908066 C122.230995,56.8048253 123.192445,55.843375 124.378426,55.843375 Z M8.00590931,55.843375 C9.19182968,55.843375 10.1533409,56.804805 10.1533409,57.9908066 C10.1533409,59.1767168 9.19182968,60.1382382 8.00590931,60.1382382 L8.00590931,60.1382382 L2.1474316,60.1382382 C0.961013717,60.1382382 3.55271368e-15,59.1763615 3.55271368e-15,57.9908066 C3.55271368e-15,56.8051198 0.961013717,55.843375 2.1474316,55.843375 L2.1474316,55.843375 Z M23.2359207,55.843375 C24.421841,55.843375 25.3833523,56.804805 25.3833523,57.9908066 C25.3833523,59.1767168 24.421841,60.1382382 23.2359207,60.1382382 L23.2359207,60.1382382 L17.377443,60.1382382 C16.1910251,60.1382382 15.2300114,59.1763615 15.2300114,57.9908066 C15.2300114,56.8051198 16.1910251,55.843375 17.377443,55.843375 L17.377443,55.843375 Z M104.462648,55.843375 C105.648568,55.843375 106.61008,56.804805 106.61008,57.9908066 C106.61008,59.1767168 105.648568,60.1382382 104.462648,60.1382382 L104.462648,60.1382382 L98.6041703,60.1382382 C97.4177524,60.1382382 96.4567387,59.1763615 96.4567387,57.9908066 C96.4567387,56.8051198 97.4177524,55.843375 98.6041703,55.843375 L98.6041703,55.843375 Z M43.1516989,55.843375 C44.3377411,55.843375 45.2991305,56.8048253 45.2991305,57.9908066 C45.2991305,59.1768488 44.3377411,60.1382382 43.1516989,60.1382382 C41.9657176,60.1382382 41.0042673,59.1768488 41.0042673,57.9908066 C41.0042673,56.8048253 41.9657176,55.843375 43.1516989,55.843375 Z M88.841733,55.843375 C90.0277752,55.843375 90.9891646,56.8048253 90.9891646,57.9908066 C90.9891646,59.1768488 90.0277752,60.1382382 88.841733,60.1382382 C87.6557517,60.1382382 86.6943014,59.1768488 86.6943014,57.9908066 C86.6943014,56.8048253 87.6557517,55.843375 88.841733,55.843375 Z M68.5350512,55.843375 C69.7210934,55.843375 70.6824828,56.8048253 70.6824828,57.9908066 C70.6824828,59.1768488 69.7210934,60.1382382 68.5350512,60.1382382 C67.3490699,60.1382382 66.3876196,59.1768488 66.3876196,57.9908066 C66.3876196,56.8048253 67.3490699,55.843375 68.5350512,55.843375 Z M124.76933,50.7667046 C125.95525,50.7667046 126.916761,51.7281346 126.916761,52.9141362 C126.916761,54.1000464 125.95525,55.0615678 124.76933,55.0615678 L124.76933,55.0615678 L118.910852,55.0615678 C117.724434,55.0615678 116.76342,54.099691 116.76342,52.9141362 C116.76342,51.7284493 117.724434,50.7667046 118.910852,50.7667046 L118.910852,50.7667046 Z M109.539318,50.7667046 C110.725239,50.7667046 111.68675,51.7281346 111.68675,52.9141362 C111.68675,54.1000464 110.725239,55.0615678 109.539318,55.0615678 L109.539318,55.0615678 L93.5274998,55.0615678 C92.3410819,55.0615678 91.3800682,54.099691 91.3800682,52.9141362 C91.3800682,51.7284493 92.3410819,50.7667046 93.5274998,50.7667046 L93.5274998,50.7667046 Z M84.1559661,50.7667046 C85.3418865,50.7667046 86.3033978,51.7281346 86.3033978,52.9141362 C86.3033978,54.1000464 85.3418865,55.0615678 84.1559661,55.0615678 L84.1559661,55.0615678 L57.9908066,55.0615678 C56.8043887,55.0615678 55.843375,54.099691 55.843375,52.9141362 C55.843375,51.7284493 56.8043887,50.7667046 57.9908066,50.7667046 L57.9908066,50.7667046 Z M48.2283693,50.7667046 C49.4144115,50.7667046 50.3758009,51.7281549 50.3758009,52.9141362 C50.3758009,54.1001784 49.4144115,55.0615678 48.2283693,55.0615678 C47.042388,55.0615678 46.0809377,54.1001784 46.0809377,52.9141362 C46.0809377,51.7281549 47.042388,50.7667046 48.2283693,50.7667046 Z M17.7683466,50.7667046 C18.9543888,50.7667046 19.9157782,51.7281549 19.9157782,52.9141362 C19.9157782,54.1001784 18.9543888,55.0615678 17.7683466,55.0615678 C16.5823653,55.0615678 15.620915,54.1001784 15.620915,52.9141362 C15.620915,51.7281549 16.5823653,50.7667046 17.7683466,50.7667046 Z M38.465932,50.7667046 C39.6518524,50.7667046 40.6133636,51.7281346 40.6133636,52.9141362 C40.6133636,54.1000464 39.6518524,55.0615678 38.465932,55.0615678 L38.465932,55.0615678 L27.5307839,55.0615678 C26.344366,55.0615678 25.3833523,54.099691 25.3833523,52.9141362 C25.3833523,51.7284493 26.344366,50.7667046 27.5307839,50.7667046 L27.5307839,50.7667046 Z M119.301756,45.6900341 C120.487798,45.6900341 121.449187,46.6514844 121.449187,47.8374657 C121.449187,49.0235079 120.487798,49.9848973 119.301756,49.9848973 C118.115774,49.9848973 117.154324,49.0235079 117.154324,47.8374657 C117.154324,46.6514844 118.115774,45.6900341 119.301756,45.6900341 Z M88.841733,45.6900341 C90.0277752,45.6900341 90.9891646,46.6514844 90.9891646,47.8374657 C90.9891646,49.0235079 90.0277752,49.9848973 88.841733,49.9848973 C87.6557517,49.9848973 86.6943014,49.0235079 86.6943014,47.8374657 C86.6943014,46.6514844 87.6557517,45.6900341 88.841733,45.6900341 Z M17.7683466,45.6900341 C18.9543888,45.6900341 19.9157782,46.6514844 19.9157782,47.8374657 C19.9157782,49.0235079 18.9543888,49.9848973 17.7683466,49.9848973 C16.5823653,49.9848973 15.620915,49.0235079 15.620915,47.8374657 C15.620915,46.6514844 16.5823653,45.6900341 17.7683466,45.6900341 Z M68.9259548,45.6900341 C70.1118752,45.6900341 71.0733864,46.6514641 71.0733864,47.8374657 C71.0733864,49.0233759 70.1118752,49.9848973 68.9259548,49.9848973 L68.9259548,49.9848973 L57.9908066,49.9848973 C56.8043887,49.9848973 55.843375,49.0230206 55.843375,47.8374657 C55.843375,46.6517789 56.8043887,45.6900341 57.9908066,45.6900341 L57.9908066,45.6900341 Z M7.61500568,45.6900341 C8.8010479,45.6900341 9.76243729,46.6514844 9.76243729,47.8374657 C9.76243729,49.0235079 8.8010479,49.9848973 7.61500568,49.9848973 C6.42902439,49.9848973 5.46757408,49.0235079 5.46757408,47.8374657 C5.46757408,46.6514844 6.42902439,45.6900341 7.61500568,45.6900341 Z M27.9216875,45.6900341 C29.1077297,45.6900341 30.0691191,46.6514844 30.0691191,47.8374657 C30.0691191,49.0235079 29.1077297,49.9848973 27.9216875,49.9848973 C26.7357062,49.9848973 25.7742559,49.0235079 25.7742559,47.8374657 C25.7742559,46.6514844 26.7357062,45.6900341 27.9216875,45.6900341 Z M98.9950739,45.6900341 C100.181116,45.6900341 101.142505,46.6514844 101.142505,47.8374657 C101.142505,49.0235079 100.181116,49.9848973 98.9950739,49.9848973 C97.8090926,49.9848973 96.8476423,49.0235079 96.8476423,47.8374657 C96.8476423,46.6514844 97.8090926,45.6900341 98.9950739,45.6900341 Z M43.5426025,45.6900341 C44.7285229,45.6900341 45.6900341,46.6514641 45.6900341,47.8374657 C45.6900341,49.0233759 44.7285229,49.9848973 43.5426025,49.9848973 L43.5426025,49.9848973 L37.6841248,49.9848973 C36.4977069,49.9848973 35.5366932,49.0230206 35.5366932,47.8374657 C35.5366932,46.6517789 36.4977069,45.6900341 37.6841248,45.6900341 L37.6841248,45.6900341 Z M33.3892616,40.6133636 C34.575182,40.6133636 35.5366932,41.5747937 35.5366932,42.7607953 C35.5366932,43.9467055 34.575182,44.9082269 33.3892616,44.9082269 L33.3892616,44.9082269 L12.3007725,44.9082269 C11.1143546,44.9082269 10.1533409,43.9463501 10.1533409,42.7607953 C10.1533409,41.5751084 11.1143546,40.6133636 12.3007725,40.6133636 L12.3007725,40.6133636 Z M2.53833523,40.6133636 C3.72437744,40.6133636 4.68576683,41.574814 4.68576683,42.7607953 C4.68576683,43.9468375 3.72437744,44.9082269 2.53833523,44.9082269 C1.35235394,44.9082269 0.390903625,43.9468375 0.390903625,42.7607953 C0.390903625,41.574814 1.35235394,40.6133636 2.53833523,40.6133636 Z M114.615989,40.6133636 C115.801909,40.6133636 116.76342,41.5747937 116.76342,42.7607953 C116.76342,43.9467055 115.801909,44.9082269 114.615989,44.9082269 L114.615989,44.9082269 L93.5274998,44.9082269 C92.3410819,44.9082269 91.3800682,43.9463501 91.3800682,42.7607953 C91.3800682,41.5751084 92.3410819,40.6133636 93.5274998,40.6133636 L93.5274998,40.6133636 Z M83.7650625,35.5366932 C84.9511047,35.5366932 85.9124941,36.4981435 85.9124941,37.6841248 C85.9124941,38.870167 84.9511047,39.8315564 83.7650625,39.8315564 C82.5790812,39.8315564 81.6176309,38.870167 81.6176309,37.6841248 C81.6176309,36.4981435 82.5790812,35.5366932 83.7650625,35.5366932 Z M58.7726139,35.5366932 C59.9585342,35.5366932 60.9200455,36.4981232 60.9200455,37.6841248 C60.9200455,38.870035 59.9585342,39.8315564 58.7726139,39.8315564 L58.7726139,39.8315564 L42.7607953,39.8315564 C41.5743774,39.8315564 40.6133636,38.8696796 40.6133636,37.6841248 C40.6133636,36.4984379 41.5743774,35.5366932 42.7607953,35.5366932 L42.7607953,35.5366932 Z M73.6117216,30.4600227 C74.7977638,30.4600227 75.7591532,31.421473 75.7591532,32.6074543 C75.7591532,33.7934966 74.7977638,34.7548859 73.6117216,34.7548859 C72.4257403,34.7548859 71.46429,33.7934966 71.46429,32.6074543 C71.46429,31.421473 72.4257403,30.4600227 73.6117216,30.4600227 Z M83.7650625,30.4600227 C84.9511047,30.4600227 85.9124941,31.421473 85.9124941,32.6074543 C85.9124941,33.7934966 84.9511047,34.7548859 83.7650625,34.7548859 C82.5790812,34.7548859 81.6176309,33.7934966 81.6176309,32.6074543 C81.6176309,31.421473 82.5790812,30.4600227 83.7650625,30.4600227 Z M53.3050398,30.4600227 C54.491082,30.4600227 55.4524714,31.421473 55.4524714,32.6074543 C55.4524714,33.7934966 54.491082,34.7548859 53.3050398,34.7548859 C52.1190585,34.7548859 51.1576082,33.7934966 51.1576082,32.6074543 C51.1576082,31.421473 52.1190585,30.4600227 53.3050398,30.4600227 Z M43.1516989,30.4600227 C44.3377411,30.4600227 45.2991305,31.421473 45.2991305,32.6074543 C45.2991305,33.7934966 44.3377411,34.7548859 43.1516989,34.7548859 C41.9657176,34.7548859 41.0042673,33.7934966 41.0042673,32.6074543 C41.0042673,31.421473 41.9657176,30.4600227 43.1516989,30.4600227 Z M63.4583807,30.4600227 C64.6444229,30.4600227 65.6058123,31.421473 65.6058123,32.6074543 C65.6058123,33.7934966 64.6444229,34.7548859 63.4583807,34.7548859 C62.2723994,34.7548859 61.3109491,33.7934966 61.3109491,32.6074543 C61.3109491,31.421473 62.2723994,30.4600227 63.4583807,30.4600227 Z M79.0792957,25.3833523 C80.2652161,25.3833523 81.2267273,26.3447823 81.2267273,27.5307839 C81.2267273,28.7166941 80.2652161,29.6782155 79.0792957,29.6782155 L79.0792957,29.6782155 L68.1441475,29.6782155 C66.9577296,29.6782155 65.9967159,28.7163387 65.9967159,27.5307839 C65.9967159,26.345097 66.9577296,25.3833523 68.1441475,25.3833523 L68.1441475,25.3833523 Z M53.3050398,25.3833523 C54.491082,25.3833523 55.4524714,26.3448026 55.4524714,27.5307839 C55.4524714,28.7168261 54.491082,29.6782155 53.3050398,29.6782155 C52.1190585,29.6782155 51.1576082,28.7168261 51.1576082,27.5307839 C51.1576082,26.3448026 52.1190585,25.3833523 53.3050398,25.3833523 Z M43.1516989,25.3833523 C44.3377411,25.3833523 45.2991305,26.3448026 45.2991305,27.5307839 C45.2991305,28.7168261 44.3377411,29.6782155 43.1516989,29.6782155 C41.9657176,29.6782155 41.0042673,28.7168261 41.0042673,27.5307839 C41.0042673,26.3448026 41.9657176,25.3833523 43.1516989,25.3833523 Z M73.6117216,20.3066818 C74.7977638,20.3066818 75.7591532,21.2681321 75.7591532,22.4541134 C75.7591532,23.6401556 74.7977638,24.601545 73.6117216,24.601545 C72.4257403,24.601545 71.46429,23.6401556 71.46429,22.4541134 C71.46429,21.2681321 72.4257403,20.3066818 73.6117216,20.3066818 Z M83.7650625,20.3066818 C84.9511047,20.3066818 85.9124941,21.2681321 85.9124941,22.4541134 C85.9124941,23.6401556 84.9511047,24.601545 83.7650625,24.601545 C82.5790812,24.601545 81.6176309,23.6401556 81.6176309,22.4541134 C81.6176309,21.2681321 82.5790812,20.3066818 83.7650625,20.3066818 Z M53.6959434,20.3066818 C54.8818638,20.3066818 55.843375,21.2681118 55.843375,22.4541134 C55.843375,23.6400236 54.8818638,24.601545 53.6959434,24.601545 L53.6959434,24.601545 L42.7607953,24.601545 C41.5743774,24.601545 40.6133636,23.6396683 40.6133636,22.4541134 C40.6133636,21.2684266 41.5743774,20.3066818 42.7607953,20.3066818 L42.7607953,20.3066818 Z M63.4583807,20.3066818 C64.6444229,20.3066818 65.6058123,21.2681321 65.6058123,22.4541134 C65.6058123,23.6401556 64.6444229,24.601545 63.4583807,24.601545 C62.2723994,24.601545 61.3109491,23.6401556 61.3109491,22.4541134 C61.3109491,21.2681321 62.2723994,20.3066818 63.4583807,20.3066818 Z M48.619273,15.2300114 C49.8051933,15.2300114 50.7667046,16.1914414 50.7667046,17.377443 C50.7667046,18.5633532 49.8051933,19.5248746 48.619273,19.5248746 L48.619273,19.5248746 L42.7607953,19.5248746 C41.5743774,19.5248746 40.6133636,18.5629978 40.6133636,17.377443 C40.6133636,16.1917561 41.5743774,15.2300114 42.7607953,15.2300114 L42.7607953,15.2300114 Z M58.3817102,15.2300114 C59.5677525,15.2300114 60.5291418,16.1914617 60.5291418,17.377443 C60.5291418,18.5634852 59.5677525,19.5248746 58.3817102,19.5248746 C57.195729,19.5248746 56.2342786,18.5634852 56.2342786,17.377443 C56.2342786,16.1914617 57.195729,15.2300114 58.3817102,15.2300114 Z M79.0792957,15.2300114 C80.2652161,15.2300114 81.2267273,16.1914414 81.2267273,17.377443 C81.2267273,18.5633532 80.2652161,19.5248746 79.0792957,19.5248746 L79.0792957,19.5248746 L68.1441475,19.5248746 C66.9577296,19.5248746 65.9967159,18.5629978 65.9967159,17.377443 C65.9967159,16.1917561 66.9577296,15.2300114 68.1441475,15.2300114 L68.1441475,15.2300114 Z M43.1516989,10.1533409 C44.3377411,10.1533409 45.2991305,11.1147912 45.2991305,12.3007725 C45.2991305,13.4868147 44.3377411,14.4482041 43.1516989,14.4482041 C41.9657176,14.4482041 41.0042673,13.4868147 41.0042673,12.3007725 C41.0042673,11.1147912 41.9657176,10.1533409 43.1516989,10.1533409 Z M53.3050398,10.1533409 C54.491082,10.1533409 55.4524714,11.1147912 55.4524714,12.3007725 C55.4524714,13.4868147 54.491082,14.4482041 53.3050398,14.4482041 C52.1190585,14.4482041 51.1576082,13.4868147 51.1576082,12.3007725 C51.1576082,11.1147912 52.1190585,10.1533409 53.3050398,10.1533409 Z M84.1559661,10.1533409 C85.3418865,10.1533409 86.3033978,11.1147709 86.3033978,12.3007725 C86.3033978,13.4866827 85.3418865,14.4482041 84.1559661,14.4482041 L84.1559661,14.4482041 L73.220818,14.4482041 C72.0344001,14.4482041 71.0733864,13.4863274 71.0733864,12.3007725 C71.0733864,11.1150857 72.0344001,10.1533409 73.220818,10.1533409 L73.220818,10.1533409 Z M58.3817102,5.07667046 C59.5677525,5.07667046 60.5291418,6.03812077 60.5291418,7.22410206 C60.5291418,8.41014427 59.5677525,9.37153366 58.3817102,9.37153366 C57.195729,9.37153366 56.2342786,8.41014427 56.2342786,7.22410206 C56.2342786,6.03812077 57.195729,5.07667046 58.3817102,5.07667046 Z M79.0792957,5.07667046 C80.2652161,5.07667046 81.2267273,6.03810046 81.2267273,7.22410206 C81.2267273,8.41001228 80.2652161,9.37153366 79.0792957,9.37153366 L79.0792957,9.37153366 L73.220818,9.37153366 C72.0344001,9.37153366 71.0733864,8.40965691 71.0733864,7.22410206 C71.0733864,6.03841521 72.0344001,5.07667046 73.220818,5.07667046 L73.220818,5.07667046 Z M53.3050398,-1.59872116e-14 C54.491082,-1.59872116e-14 55.4524714,0.961450311 55.4524714,2.1474316 C55.4524714,3.33347381 54.491082,4.29486321 53.3050398,4.29486321 C52.1190585,4.29486321 51.1576082,3.33347381 51.1576082,2.1474316 C51.1576082,0.961450311 52.1190585,-1.59872116e-14 53.3050398,-1.59872116e-14 Z M63.4583807,-1.59872116e-14 C64.6444229,-1.59872116e-14 65.6058123,0.961450311 65.6058123,2.1474316 C65.6058123,3.33347381 64.6444229,4.29486321 63.4583807,4.29486321 C62.2723994,4.29486321 61.3109491,3.33347381 61.3109491,2.1474316 C61.3109491,0.961450311 62.2723994,-1.59872116e-14 63.4583807,-1.59872116e-14 Z M83.7650625,-1.59872116e-14 C84.9511047,-1.59872116e-14 85.9124941,0.961450311 85.9124941,2.1474316 C85.9124941,3.33347381 84.9511047,4.29486321 83.7650625,4.29486321 C82.5790812,4.29486321 81.6176309,3.33347381 81.6176309,2.1474316 C81.6176309,0.961450311 82.5790812,-1.59872116e-14 83.7650625,-1.59872116e-14 Z" id="Combined-Shape"></path>
            </g>
            <g id="Pins" transform="translate(0.307187, 0.307187)">
                <path d="M33.4510547,30.6378679 C34.7457882,30.6378679 35.795377,31.6874567 35.795377,32.9821902 C35.795377,34.2769237 34.7457882,35.3265126 33.4510547,35.3265126 L2.50599975,35.3265126 C1.21126627,35.3265126 0.161677403,34.2769237 0.161677403,32.9821902 C0.161677403,31.6874567 1.21126627,30.6378679 2.50599975,30.6378679 L33.4510547,30.6378679 Z M32.8205128,25.3186813 C34.1152463,25.3186813 35.1648352,26.3682702 35.1648352,27.6630037 C35.1648352,28.9577371 34.1152463,30.007326 32.8205128,30.007326 C31.5257793,30.007326 30.4761905,28.9577371 30.4761905,27.6630037 C30.4761905,26.3682702 31.5257793,25.3186813 32.8205128,25.3186813 Z M2.81318681,25.3186813 C4.10792029,25.3186813 5.15750916,26.3682702 5.15750916,27.6630037 C5.15750916,28.9577371 4.10792029,30.007326 2.81318681,30.007326 C1.51845333,30.007326 0.468864469,28.9577371 0.468864469,27.6630037 C0.468864469,26.3682702 1.51845333,25.3186813 2.81318681,25.3186813 Z M23.1360364,20.791714 C24.4307699,20.791714 25.4803587,21.8413029 25.4803587,23.1360364 C25.4803587,24.4307699 24.4307699,25.4803587 23.1360364,25.4803587 L12.3521536,25.4803587 C11.0574201,25.4803587 10.0078312,24.4307699 10.0078312,23.1360364 C10.0078312,21.8413029 11.0574201,20.791714 12.3521536,20.791714 L23.1360364,20.791714 Z M2.81318681,20.1611722 C4.10792029,20.1611722 5.15750916,21.210761 5.15750916,22.5054945 C5.15750916,23.800228 4.10792029,24.8498168 2.81318681,24.8498168 C1.51845333,24.8498168 0.468864469,23.800228 0.468864469,22.5054945 C0.468864469,21.210761 1.51845333,20.1611722 2.81318681,20.1611722 Z M32.8205128,20.1611722 C34.1152463,20.1611722 35.1648352,21.210761 35.1648352,22.5054945 C35.1648352,23.800228 34.1152463,24.8498168 32.8205128,24.8498168 C31.5257793,24.8498168 30.4761905,23.800228 30.4761905,22.5054945 C30.4761905,21.210761 31.5257793,20.1611722 32.8205128,20.1611722 Z M23.1360364,15.6342049 C24.4307699,15.6342049 25.4803587,16.6837937 25.4803587,17.9785272 C25.4803587,19.2732607 24.4307699,20.3228496 23.1360364,20.3228496 L12.3521536,20.3228496 C11.0574201,20.3228496 10.0078312,19.2732607 10.0078312,17.9785272 C10.0078312,16.6837937 11.0574201,15.6342049 12.3521536,15.6342049 L23.1360364,15.6342049 Z M2.81318681,15.4725275 C4.10792029,15.4725275 5.15750916,16.5221163 5.15750916,17.8168498 C5.15750916,19.1115833 4.10792029,20.1611722 2.81318681,20.1611722 C1.51845333,20.1611722 0.468864469,19.1115833 0.468864469,17.8168498 C0.468864469,16.5221163 1.51845333,15.4725275 2.81318681,15.4725275 Z M32.8205128,15.4725275 C34.1152463,15.4725275 35.1648352,16.5221163 35.1648352,17.8168498 C35.1648352,19.1115833 34.1152463,20.1611722 32.8205128,20.1611722 C31.5257793,20.1611722 30.4761905,19.1115833 30.4761905,17.8168498 C30.4761905,16.5221163 31.5257793,15.4725275 32.8205128,15.4725275 Z M32.8205128,10.7838828 C34.1152463,10.7838828 35.1648352,11.8334716 35.1648352,13.1282051 C35.1648352,14.4229386 34.1152463,15.4725275 32.8205128,15.4725275 C31.5257793,15.4725275 30.4761905,14.4229386 30.4761905,13.1282051 C30.4761905,11.8334716 31.5257793,10.7838828 32.8205128,10.7838828 Z M2.81318681,10.7838828 C4.10792029,10.7838828 5.15750916,11.8334716 5.15750916,13.1282051 C5.15750916,14.4229386 4.10792029,15.4725275 2.81318681,15.4725275 C1.51845333,15.4725275 0.468864469,14.4229386 0.468864469,13.1282051 C0.468864469,11.8334716 1.51845333,10.7838828 2.81318681,10.7838828 Z M23.1360364,10.4766957 C24.4307699,10.4766957 25.4803587,11.5262846 25.4803587,12.8210181 C25.4803587,14.1157515 24.4307699,15.1653404 23.1360364,15.1653404 L12.3521536,15.1653404 C11.0574201,15.1653404 10.0078312,14.1157515 10.0078312,12.8210181 C10.0078312,11.5262846 11.0574201,10.4766957 12.3521536,10.4766957 L23.1360364,10.4766957 Z M2.81318681,5.62637363 C4.10792029,5.62637363 5.15750916,6.67596249 5.15750916,7.97069597 C5.15750916,9.26542945 4.10792029,10.3150183 2.81318681,10.3150183 C1.51845333,10.3150183 0.468864469,9.26542945 0.468864469,7.97069597 C0.468864469,6.67596249 1.51845333,5.62637363 2.81318681,5.62637363 Z M32.8205128,5.62637363 C34.1152463,5.62637363 35.1648352,6.67596249 35.1648352,7.97069597 C35.1648352,9.26542945 34.1152463,10.3150183 32.8205128,10.3150183 C31.5257793,10.3150183 30.4761905,9.26542945 30.4761905,7.97069597 C30.4761905,6.67596249 31.5257793,5.62637363 32.8205128,5.62637363 Z M33.4510547,0.161677403 C34.7457882,0.161677403 35.795377,1.21126627 35.795377,2.50599975 C35.795377,3.80073323 34.7457882,4.85032209 33.4510547,4.85032209 L2.50599975,4.85032209 C1.21126627,4.85032209 0.161677403,3.80073323 0.161677403,2.50599975 C0.161677403,1.21126627 1.21126627,0.161677403 2.50599975,0.161677403 L33.4510547,0.161677403 Z" id="pin"></path>
                <path d="M124.879626,30.6378679 C126.17436,30.6378679 127.223948,31.6874567 127.223948,32.9821902 C127.223948,34.2769237 126.17436,35.3265126 124.879626,35.3265126 L93.9345712,35.3265126 C92.6398377,35.3265126 91.5902488,34.2769237 91.5902488,32.9821902 C91.5902488,31.6874567 92.6398377,30.6378679 93.9345712,30.6378679 L124.879626,30.6378679 Z M124.249084,25.3186813 C125.543818,25.3186813 126.593407,26.3682702 126.593407,27.6630037 C126.593407,28.9577371 125.543818,30.007326 124.249084,30.007326 C122.954351,30.007326 121.904762,28.9577371 121.904762,27.6630037 C121.904762,26.3682702 122.954351,25.3186813 124.249084,25.3186813 Z M94.2417582,25.3186813 C95.5364917,25.3186813 96.5860806,26.3682702 96.5860806,27.6630037 C96.5860806,28.9577371 95.5364917,30.007326 94.2417582,30.007326 C92.9470248,30.007326 91.8974359,28.9577371 91.8974359,27.6630037 C91.8974359,26.3682702 92.9470248,25.3186813 94.2417582,25.3186813 Z M114.564608,20.791714 C115.859341,20.791714 116.90893,21.8413029 116.90893,23.1360364 C116.90893,24.4307699 115.859341,25.4803587 114.564608,25.4803587 L103.780725,25.4803587 C102.485992,25.4803587 101.436403,24.4307699 101.436403,23.1360364 C101.436403,21.8413029 102.485992,20.791714 103.780725,20.791714 L114.564608,20.791714 Z M94.2417582,20.1611722 C95.5364917,20.1611722 96.5860806,21.210761 96.5860806,22.5054945 C96.5860806,23.800228 95.5364917,24.8498168 94.2417582,24.8498168 C92.9470248,24.8498168 91.8974359,23.800228 91.8974359,22.5054945 C91.8974359,21.210761 92.9470248,20.1611722 94.2417582,20.1611722 Z M124.249084,20.1611722 C125.543818,20.1611722 126.593407,21.210761 126.593407,22.5054945 C126.593407,23.800228 125.543818,24.8498168 124.249084,24.8498168 C122.954351,24.8498168 121.904762,23.800228 121.904762,22.5054945 C121.904762,21.210761 122.954351,20.1611722 124.249084,20.1611722 Z M114.564608,15.6342049 C115.859341,15.6342049 116.90893,16.6837937 116.90893,17.9785272 C116.90893,19.2732607 115.859341,20.3228496 114.564608,20.3228496 L103.780725,20.3228496 C102.485992,20.3228496 101.436403,19.2732607 101.436403,17.9785272 C101.436403,16.6837937 102.485992,15.6342049 103.780725,15.6342049 L114.564608,15.6342049 Z M94.2417582,15.4725275 C95.5364917,15.4725275 96.5860806,16.5221163 96.5860806,17.8168498 C96.5860806,19.1115833 95.5364917,20.1611722 94.2417582,20.1611722 C92.9470248,20.1611722 91.8974359,19.1115833 91.8974359,17.8168498 C91.8974359,16.5221163 92.9470248,15.4725275 94.2417582,15.4725275 Z M124.249084,15.4725275 C125.543818,15.4725275 126.593407,16.5221163 126.593407,17.8168498 C126.593407,19.1115833 125.543818,20.1611722 124.249084,20.1611722 C122.954351,20.1611722 121.904762,19.1115833 121.904762,17.8168498 C121.904762,16.5221163 122.954351,15.4725275 124.249084,15.4725275 Z M124.249084,10.7838828 C125.543818,10.7838828 126.593407,11.8334716 126.593407,13.1282051 C126.593407,14.4229386 125.543818,15.4725275 124.249084,15.4725275 C122.954351,15.4725275 121.904762,14.4229386 121.904762,13.1282051 C121.904762,11.8334716 122.954351,10.7838828 124.249084,10.7838828 Z M94.2417582,10.7838828 C95.5364917,10.7838828 96.5860806,11.8334716 96.5860806,13.1282051 C96.5860806,14.4229386 95.5364917,15.4725275 94.2417582,15.4725275 C92.9470248,15.4725275 91.8974359,14.4229386 91.8974359,13.1282051 C91.8974359,11.8334716 92.9470248,10.7838828 94.2417582,10.7838828 Z M114.564608,10.4766957 C115.859341,10.4766957 116.90893,11.5262846 116.90893,12.8210181 C116.90893,14.1157515 115.859341,15.1653404 114.564608,15.1653404 L103.780725,15.1653404 C102.485992,15.1653404 101.436403,14.1157515 101.436403,12.8210181 C101.436403,11.5262846 102.485992,10.4766957 103.780725,10.4766957 L114.564608,10.4766957 Z M94.2417582,5.62637363 C95.5364917,5.62637363 96.5860806,6.67596249 96.5860806,7.97069597 C96.5860806,9.26542945 95.5364917,10.3150183 94.2417582,10.3150183 C92.9470248,10.3150183 91.8974359,9.26542945 91.8974359,7.97069597 C91.8974359,6.67596249 92.9470248,5.62637363 94.2417582,5.62637363 Z M124.249084,5.62637363 C125.543818,5.62637363 126.593407,6.67596249 126.593407,7.97069597 C126.593407,9.26542945 125.543818,10.3150183 124.249084,10.3150183 C122.954351,10.3150183 121.904762,9.26542945 121.904762,7.97069597 C121.904762,6.67596249 122.954351,5.62637363 124.249084,5.62637363 Z M124.879626,0.161677403 C126.17436,0.161677403 127.223948,1.21126627 127.223948,2.50599975 C127.223948,3.80073323 126.17436,4.85032209 124.879626,4.85032209 L93.9345712,4.85032209 C92.6398377,4.85032209 91.5902488,3.80073323 91.5902488,2.50599975 C91.5902488,1.21126627 92.6398377,0.161677403 93.9345712,0.161677403 L124.879626,0.161677403 Z" id="pin-copy"></path>
                <path d="M33.4510547,122.535304 C34.7457882,122.535304 35.795377,123.584893 35.795377,124.879626 C35.795377,126.17436 34.7457882,127.223948 33.4510547,127.223948 L2.50599975,127.223948 C1.21126627,127.223948 0.161677403,126.17436 0.161677403,124.879626 C0.161677403,123.584893 1.21126627,122.535304 2.50599975,122.535304 L33.4510547,122.535304 Z M32.8205128,117.216117 C34.1152463,117.216117 35.1648352,118.265706 35.1648352,119.56044 C35.1648352,120.855173 34.1152463,121.904762 32.8205128,121.904762 C31.5257793,121.904762 30.4761905,120.855173 30.4761905,119.56044 C30.4761905,118.265706 31.5257793,117.216117 32.8205128,117.216117 Z M2.81318681,117.216117 C4.10792029,117.216117 5.15750916,118.265706 5.15750916,119.56044 C5.15750916,120.855173 4.10792029,121.904762 2.81318681,121.904762 C1.51845333,121.904762 0.468864469,120.855173 0.468864469,119.56044 C0.468864469,118.265706 1.51845333,117.216117 2.81318681,117.216117 Z M23.1360364,112.68915 C24.4307699,112.68915 25.4803587,113.738739 25.4803587,115.033472 C25.4803587,116.328206 24.4307699,117.377795 23.1360364,117.377795 L12.3521536,117.377795 C11.0574201,117.377795 10.0078312,116.328206 10.0078312,115.033472 C10.0078312,113.738739 11.0574201,112.68915 12.3521536,112.68915 L23.1360364,112.68915 Z M2.81318681,112.058608 C4.10792029,112.058608 5.15750916,113.108197 5.15750916,114.40293 C5.15750916,115.697664 4.10792029,116.747253 2.81318681,116.747253 C1.51845333,116.747253 0.468864469,115.697664 0.468864469,114.40293 C0.468864469,113.108197 1.51845333,112.058608 2.81318681,112.058608 Z M32.8205128,112.058608 C34.1152463,112.058608 35.1648352,113.108197 35.1648352,114.40293 C35.1648352,115.697664 34.1152463,116.747253 32.8205128,116.747253 C31.5257793,116.747253 30.4761905,115.697664 30.4761905,114.40293 C30.4761905,113.108197 31.5257793,112.058608 32.8205128,112.058608 Z M23.1360364,107.531641 C24.4307699,107.531641 25.4803587,108.58123 25.4803587,109.875963 C25.4803587,111.170697 24.4307699,112.220285 23.1360364,112.220285 L12.3521536,112.220285 C11.0574201,112.220285 10.0078312,111.170697 10.0078312,109.875963 C10.0078312,108.58123 11.0574201,107.531641 12.3521536,107.531641 L23.1360364,107.531641 Z M2.81318681,107.369963 C4.10792029,107.369963 5.15750916,108.419552 5.15750916,109.714286 C5.15750916,111.009019 4.10792029,112.058608 2.81318681,112.058608 C1.51845333,112.058608 0.468864469,111.009019 0.468864469,109.714286 C0.468864469,108.419552 1.51845333,107.369963 2.81318681,107.369963 Z M32.8205128,107.369963 C34.1152463,107.369963 35.1648352,108.419552 35.1648352,109.714286 C35.1648352,111.009019 34.1152463,112.058608 32.8205128,112.058608 C31.5257793,112.058608 30.4761905,111.009019 30.4761905,109.714286 C30.4761905,108.419552 31.5257793,107.369963 32.8205128,107.369963 Z M32.8205128,102.681319 C34.1152463,102.681319 35.1648352,103.730908 35.1648352,105.025641 C35.1648352,106.320375 34.1152463,107.369963 32.8205128,107.369963 C31.5257793,107.369963 30.4761905,106.320375 30.4761905,105.025641 C30.4761905,103.730908 31.5257793,102.681319 32.8205128,102.681319 Z M2.81318681,102.681319 C4.10792029,102.681319 5.15750916,103.730908 5.15750916,105.025641 C5.15750916,106.320375 4.10792029,107.369963 2.81318681,107.369963 C1.51845333,107.369963 0.468864469,106.320375 0.468864469,105.025641 C0.468864469,103.730908 1.51845333,102.681319 2.81318681,102.681319 Z M23.1360364,102.374132 C24.4307699,102.374132 25.4803587,103.42372 25.4803587,104.718454 C25.4803587,106.013187 24.4307699,107.062776 23.1360364,107.062776 L12.3521536,107.062776 C11.0574201,107.062776 10.0078312,106.013187 10.0078312,104.718454 C10.0078312,103.42372 11.0574201,102.374132 12.3521536,102.374132 L23.1360364,102.374132 Z M2.81318681,97.5238095 C4.10792029,97.5238095 5.15750916,98.5733984 5.15750916,99.8681319 C5.15750916,101.162865 4.10792029,102.212454 2.81318681,102.212454 C1.51845333,102.212454 0.468864469,101.162865 0.468864469,99.8681319 C0.468864469,98.5733984 1.51845333,97.5238095 2.81318681,97.5238095 Z M32.8205128,97.5238095 C34.1152463,97.5238095 35.1648352,98.5733984 35.1648352,99.8681319 C35.1648352,101.162865 34.1152463,102.212454 32.8205128,102.212454 C31.5257793,102.212454 30.4761905,101.162865 30.4761905,99.8681319 C30.4761905,98.5733984 31.5257793,97.5238095 32.8205128,97.5238095 Z M33.4510547,92.0591133 C34.7457882,92.0591133 35.795377,93.1087022 35.795377,94.4034356 C35.795377,95.6981691 34.7457882,96.747758 33.4510547,96.747758 L2.50599975,96.747758 C1.21126627,96.747758 0.161677403,95.6981691 0.161677403,94.4034356 C0.161677403,93.1087022 1.21126627,92.0591133 2.50599975,92.0591133 L33.4510547,92.0591133 Z" id="pin-copy-2"></path>
            </g>
        </g>
    </g>
</svg>